<?xml version="1.0" encoding="utf-8"?>
<!-- Generator: Adobe Illustrator 24.1.3, SVG Export Plug-In . SVG Version: 6.00 Build 0)  -->
<svg version="1.1" id="Layer_1" xmlns="http://www.w3.org/2000/svg" xmlns:xlink="http://www.w3.org/1999/xlink" x="0px" y="0px"
	 width="100px" height="85px" viewBox="0 0 100 85" style="enable-background:new 0 0 100 85;" xml:space="preserve">
<style type="text/css">
	.st0{clip-path:url(#SVGID_2_);}
	.st1{fill:#FFFFFF;}
	.st2{fill:#231A1C;}
	.st3{clip-path:url(#SVGID_4_);}
	.st4{fill:#F39110;}
	.st5{clip-path:url(#SVGID_6_);}
</style>
<g>
	<g>
		<defs>
			<rect id="SVGID_1_" width="100" height="85"/>
		</defs>
		<clipPath id="SVGID_2_">
			<use xlink:href="#SVGID_1_"  style="overflow:visible;"/>
		</clipPath>
		<g class="st0">
			<path class="st1" d="M58.2,10.4c-2.2,1.8-5.5,5.1-9.8,9.7c-4.3,4.7-8.1,9.5-11.4,14.4c-2.6,3.9-5.2,8.7-7.9,14.3
				c-2.6,5.6-4.3,10.2-5.1,13.9H11.2c2.8-11.3,9-23,18.6-35.1c6.1-7.5,11.1-12.8,14.8-15.8H13.2l2.6-11.1h44.5L58.2,10.4z"/>
		</g>
		<g class="st0">
			<path class="st2" d="M24.1,63.4H11.2c-0.2,0-0.4-0.1-0.6-0.3s-0.2-0.4-0.1-0.6c2.8-11.3,9.1-23.2,18.8-35.4
				c5.3-6.5,9.8-11.4,13.3-14.6H13.2c-0.2,0-0.4-0.1-0.6-0.3c-0.1-0.2-0.2-0.4-0.1-0.6L15,0.6C15.1,0.2,15.4,0,15.7,0h44.5
				c0.2,0,0.4,0.1,0.6,0.3C61,0.5,61.1,0.7,61,0.9l-2.1,9.7c0,0.2-0.1,0.3-0.3,0.4c-2.2,1.8-5.5,5-9.7,9.6
				c-4.3,4.6-8.1,9.4-11.3,14.3c-2.6,3.8-5.2,8.6-7.8,14.2c-2.6,5.5-4.3,10.1-5,13.7C24.8,63.2,24.4,63.4,24.1,63.4z M12.2,62h11.3
				c0.8-3.6,2.5-8.1,5-13.4c2.6-5.6,5.3-10.5,7.9-14.4c3.3-5,7.1-9.9,11.4-14.5c4.2-4.5,7.4-7.8,9.7-9.6l1.8-8.5h-43l-2.2,9.6h30.5
				c0.3,0,0.6,0.2,0.7,0.5s0,0.6-0.2,0.8c-3.7,2.9-8.6,8.2-14.7,15.7C21.1,39.7,15,51.1,12.2,62z M58.2,10.4L58.2,10.4L58.2,10.4z"
				/>
		</g>
		<g class="st0">
			<polygon class="st1" points="47.2,35.7 49.6,24.4 67.4,24.4 71.2,6.7 82.7,6.7 78.9,24.4 96.7,24.4 94.3,35.7 76.4,35.7 
				72.6,53.6 61.2,53.6 65,35.7 			"/>
		</g>
		<g class="st0">
			<path class="st2" d="M72.6,54.3H61.2c-0.2,0-0.4-0.1-0.6-0.3c-0.1-0.2-0.2-0.4-0.1-0.6l3.6-16.9H47.2c-0.2,0-0.4-0.1-0.6-0.3
				c-0.1-0.2-0.2-0.4-0.2-0.6l2.4-11.3c0.1-0.3,0.4-0.6,0.7-0.6h17.2l3.7-17.2c0.1-0.3,0.4-0.6,0.7-0.6h11.4c0.2,0,0.4,0.1,0.6,0.3
				c0.1,0.2,0.2,0.4,0.1,0.6l-3.6,16.9h16.9c0.2,0,0.4,0.1,0.6,0.3c0.1,0.2,0.2,0.4,0.1,0.6L95,35.9c-0.1,0.3-0.4,0.6-0.7,0.6H77
				l-3.7,17.2C73.3,54.1,73,54.3,72.6,54.3z M62.1,52.8H72l3.7-17.2c0.1-0.3,0.4-0.6,0.7-0.6h17.2l2.1-9.8H78.9
				c-0.2,0-0.4-0.1-0.6-0.3c-0.1-0.2-0.2-0.4-0.1-0.6l3.6-16.9h-9.9l-3.7,17.2c-0.1,0.3-0.4,0.6-0.7,0.6H50.2L48.1,35H65
				c0.2,0,0.4,0.1,0.6,0.3c0.1,0.2,0.2,0.4,0.1,0.6L62.1,52.8z"/>
		</g>
	</g>
	<g>
		<defs>
			<rect id="SVGID_3_" x="14.5" y="3.5" width="85.5" height="62"/>
		</defs>
		<clipPath id="SVGID_4_">
			<use xlink:href="#SVGID_3_"  style="overflow:visible;"/>
		</clipPath>
		<g class="st3">
			<path class="st4" d="M61.5,13.2c-2.2,1.8-5.5,5.1-9.8,9.7c-4.3,4.7-8.1,9.5-11.4,14.4c-2.6,3.9-5.2,8.7-7.9,14.3
				c-2.6,5.6-4.3,10.2-5.1,13.9H14.5c2.8-11.3,9-23,18.6-35.1c6.1-7.5,11.1-12.8,14.8-15.8H16.5L19,3.5h44.5L61.5,13.2z"/>
		</g>
		<g class="st3">
			<polygon class="st4" points="50.4,38.5 52.9,27.2 70.7,27.2 74.5,9.5 85.9,9.5 82.2,27.2 100,27.2 97.6,38.5 79.7,38.5 
				75.9,56.4 64.5,56.4 68.3,38.5 			"/>
		</g>
	</g>
	<g>
		<defs>
			<rect id="SVGID_5_" width="100" height="85"/>
		</defs>
		<clipPath id="SVGID_6_">
			<use xlink:href="#SVGID_5_"  style="overflow:visible;"/>
		</clipPath>
		<g class="st5">
			<path class="st1" d="M11.2,52c0,0,13.7-10.7,25.1-4c10,6.7,12.2,8.6,20.2,8.4c8-0.2,13.7-0.6,13.3,9.1l17.1-6.4
				c2.6-1,5.6,0.1,6.9,2.6c1.5,2.8,0.3,6.4-2.6,7.7L65.9,81.1c-7.4,3.4-15.7,4.1-23.5,2l-31.2-8.4V52z"/>
		</g>
		<g class="st5">
			<path class="st2" d="M51.4,85c-3.1,0-6.2-0.4-9.2-1.2L11,75.4c-0.3-0.1-0.6-0.4-0.6-0.7V52c0-0.2,0.1-0.4,0.3-0.6
				c0.6-0.4,14.3-10.9,26-4l1.7,1.2c8.5,5.8,10.8,7.3,18.1,7.1l0.6,0c4.8-0.1,9-0.2,11.4,2.2c1.4,1.4,2.1,3.5,2.1,6.5l16.1-6
				c3-1.1,6.3,0.2,7.8,2.9c0.8,1.6,1,3.3,0.4,5c-0.6,1.7-1.8,3-3.4,3.7L66.2,81.7C61.6,83.9,56.5,85,51.4,85z M12,74.2l30.6,8.2
				c7.6,2,15.8,1.3,23-2l25.3-11.7c1.2-0.6,2.1-1.6,2.6-2.9c0.4-1.3,0.3-2.6-0.3-3.8c-1.2-2.1-3.7-3.1-6-2.2l-17.1,6.4
				c-0.2,0.1-0.5,0.1-0.7-0.1c-0.2-0.1-0.3-0.4-0.3-0.6c0.1-3.1-0.4-5.3-1.7-6.5c-1.9-2-5.6-1.9-10.3-1.8l-0.6,0
				c-7.8,0.2-10.3-1.6-18.9-7.4l-1.7-1.1C26,42.8,14,50.9,12,52.4V74.2z"/>
		</g>
		<g class="st5">
			<rect x="0.7" y="47.2" class="st1" width="10.5" height="35.7"/>
		</g>
		<g class="st5">
			<path class="st2" d="M11.2,83.6H0.7c-0.4,0-0.7-0.3-0.7-0.7V47.2c0-0.4,0.3-0.7,0.7-0.7h10.5c0.4,0,0.7,0.3,0.7,0.7v35.7
				C12,83.3,11.6,83.6,11.2,83.6z M1.5,82.1h9V47.9h-9V82.1z"/>
		</g>
		<g class="st5">
			<path class="st2" d="M61.2,68.9c-7.6,0-18.1-2.6-18.6-2.7c-0.4-0.1-0.6-0.5-0.5-0.9c0.1-0.4,0.5-0.6,0.9-0.5
				c0.1,0,10.9,2.6,18.2,2.6c0.2,0,0.4,0,0.6,0c6.6-0.1,7.3-2.1,7.3-2.1c0.1-0.4,0.5-0.7,0.9-0.6c0.4,0.1,0.7,0.5,0.6,0.9
				c-0.1,0.5-0.9,3.1-8.7,3.3C61.6,68.9,61.4,68.9,61.2,68.9z"/>
		</g>
	</g>
</g>
</svg>
