<?xml version="1.0" encoding="utf-8"?>
<!-- Generator: Adobe Illustrator 24.1.3, SVG Export Plug-In . SVG Version: 6.00 Build 0)  -->
<svg version="1.1" id="Layer_1" xmlns="http://www.w3.org/2000/svg" xmlns:xlink="http://www.w3.org/1999/xlink" x="0px" y="0px"
	 width="100px" height="100px" viewBox="0 0 100 100" style="enable-background:new 0 0 100 100;" xml:space="preserve">
<style type="text/css">
	.st0{clip-path:url(#SVGID_2_);}
	.st1{clip-path:url(#SVGID_4_);}
	.st2{fill:#FFFFFF;}
	.st3{fill:#231A1C;}
	.st4{clip-path:url(#SVGID_6_);}
	.st5{clip-path:url(#SVGID_8_);}
	.st6{fill:#F39110;}
</style>
<g>
	<defs>
		<rect id="SVGID_1_" width="100" height="100"/>
	</defs>
	<clipPath id="SVGID_2_">
		<use xlink:href="#SVGID_1_"  style="overflow:visible;"/>
	</clipPath>
	<g class="st0">
		<defs>
			<rect id="SVGID_3_" y="0" width="100" height="100"/>
		</defs>
		<clipPath id="SVGID_4_">
			<use xlink:href="#SVGID_3_"  style="overflow:visible;"/>
		</clipPath>
		<g class="st1">
			<path class="st2" d="M96.9,23.7L43,73.3c0,0-15.6-3.4-12.5-17.9L80.3,5.7c0,0,5.6-5.8,14.9,1.7C101,12.3,99.6,21.3,96.9,23.7"/>
		</g>
		<g class="st1">
			<path class="st3" d="M43,74.1c-0.1,0-0.1,0-0.2,0c-0.3-0.1-7.7-1.7-11.4-7.6c-2-3.2-2.6-7-1.7-11.3c0-0.2,0.1-0.3,0.2-0.4
				L79.7,5.2c0,0,6.2-6.3,16,1.6c2.7,2.3,4.2,5.7,4.3,9.6c0.1,3.3-0.9,6.5-2.5,8c0,0,0,0,0,0l-54,49.5C43.4,74,43.2,74.1,43,74.1z
				 M31.3,55.8c-0.8,3.8-0.3,7.1,1.5,9.9c2.9,4.6,8.5,6.4,10,6.8l53.6-49.3v0c1-1,2.1-3.6,2-6.8c0-2-0.6-5.7-3.7-8.4
				c-8.6-6.9-13.6-2-13.8-1.7L31.3,55.8z M96.9,23.7L96.9,23.7L96.9,23.7z"/>
		</g>
		<g class="st1">
			<path class="st3" d="M93.8,25c-2.2,0-5.3-0.7-8.1-3.5c-3.1-3.1-3.3-5.8-3-7.4c0.4-1.7,1.6-3.1,3.3-3.7c1.5-0.5,3.9-0.7,6,0.6
				c1.2,0.8,2.7,2.3,3.1,5.5c0.1,0.4-0.3,0.8-0.7,0.9c-0.5,0.1-0.8-0.3-0.9-0.7c-0.2-2-1-3.5-2.4-4.3c-1.6-1-3.5-0.9-4.6-0.5
				c-0.8,0.3-1.9,1.1-2.2,2.6c-0.4,1.8,0.5,3.9,2.5,5.9c4.5,4.5,9.6,2.7,9.8,2.6c0.4-0.2,0.9,0.1,1,0.5c0.2,0.4,0,0.9-0.5,1
				C97.1,24.5,95.8,25,93.8,25z"/>
		</g>
		<g class="st1">
			<path class="st3" d="M42.3,56.1c-0.2,0-0.4-0.1-0.6-0.2c-0.3-0.3-0.3-0.8,0-1.1l42.4-43.1c0.3-0.3,0.8-0.3,1.1,0
				c0.3,0.3,0.3,0.8,0,1.1L42.9,55.8C42.7,56,42.5,56.1,42.3,56.1z"/>
		</g>
		<g class="st1">
			<path class="st2" d="M77,30.5c-2.5-0.6-5.1-0.8-7.5-0.6c2.3-0.9,4.5-2.2,6.5-3.8c4.3-3.4,7.1-7.9,8.6-12.8
				c-5,0.4-10,2.2-14.3,5.6c-2,1.6-3.7,3.5-5.1,5.6c0.7-2.4,1.1-4.9,1.1-7.5c0-5.5-1.7-10.6-4.6-14.8c-2.9,4.2-4.6,9.3-4.6,14.8
				c0,2.6,0.4,5.1,1.1,7.5c-1.4-2.1-3.1-3.9-5.1-5.6c-4.3-3.4-9.3-5.2-14.3-5.6c1.5,4.9,4.4,9.4,8.6,12.8c2,1.6,4.2,2.9,6.5,3.8
				c-2.5-0.2-5,0-7.5,0.6c-5.3,1.2-9.8,4-13.3,7.8c4.7,1.9,10,2.4,15.3,1.2c2.6-0.6,4.9-1.5,7.1-2.8c-1.7,1.8-3.1,3.9-4.3,6.3
				c-2.4,4.9-3,10.3-2.2,15.3c4.4-2.5,8.1-6.4,10.5-11.3c1.1-2.4,1.9-4.8,2.2-7.3c0.4,2.5,1.1,4.9,2.2,7.3
				c2.4,4.9,6.1,8.8,10.5,11.3c0.8-5,0.1-10.3-2.2-15.3c-1.1-2.4-2.6-4.5-4.3-6.3c2.2,1.2,4.5,2.2,7.1,2.8
				c5.3,1.2,10.6,0.7,15.3-1.2C86.8,34.5,82.3,31.7,77,30.5"/>
		</g>
		<g class="st1">
			<path class="st3" d="M74.4,59.1c-0.1,0-0.3,0-0.4-0.1c-4.7-2.7-8.4-6.7-10.8-11.6c-0.6-1.3-1.1-2.6-1.5-4c-0.4,1.4-0.9,2.7-1.5,4
				c-2.3,4.9-6.1,8.9-10.8,11.6c-0.2,0.1-0.5,0.1-0.7,0c-0.2-0.1-0.4-0.3-0.4-0.6c-0.8-5.4,0-10.8,2.3-15.8c0.6-1.3,1.3-2.5,2.2-3.7
				c-1.3,0.5-2.7,1-4.1,1.3c-5.3,1.2-10.7,0.8-15.8-1.2c-0.2-0.1-0.4-0.3-0.5-0.6c-0.1-0.3,0-0.5,0.2-0.7c3.7-4,8.4-6.8,13.7-8
				c1.4-0.3,2.8-0.5,4.2-0.6c-1.2-0.7-2.4-1.5-3.5-2.4c-4.2-3.4-7.3-8-8.9-13.2c-0.1-0.2,0-0.5,0.1-0.7c0.2-0.2,0.4-0.3,0.7-0.3
				c5.4,0.4,10.5,2.4,14.7,5.8c1.1,0.9,2.2,1.9,3.1,2.9c-0.2-1.4-0.3-2.9-0.3-4.3c0-5.5,1.6-10.7,4.7-15.2c0.3-0.4,1-0.4,1.3,0
				C65.4,6.3,67,11.5,67,17c0,1.4-0.1,2.9-0.3,4.3c1-1.1,2-2,3.1-2.9c4.2-3.4,9.3-5.4,14.7-5.8c0.3,0,0.5,0.1,0.7,0.3
				c0.2,0.2,0.2,0.5,0.1,0.7c-1.6,5.2-4.6,9.8-8.9,13.2c-1.1,0.9-2.3,1.7-3.5,2.4c1.4,0.1,2.8,0.3,4.2,0.6c5.3,1.2,10,4,13.7,8
				C91,38,91,38.2,91,38.5c-0.1,0.3-0.2,0.5-0.5,0.6c-5,2-10.5,2.5-15.8,1.2C73.4,40,72,39.5,70.7,39c0.8,1.2,1.5,2.4,2.2,3.7
				c2.3,4.9,3.1,10.4,2.3,15.8c0,0.3-0.2,0.5-0.4,0.6C74.6,59.1,74.5,59.1,74.4,59.1z M61.7,39c0.4,0,0.7,0.3,0.8,0.7
				c0.4,2.5,1.1,4.8,2.2,7.1c2,4.3,5.2,7.8,9.1,10.3c0.5-4.7-0.3-9.4-2.3-13.6c-1.1-2.2-2.4-4.3-4.1-6.1c-0.3-0.3-0.3-0.7,0-1
				c0.2-0.3,0.7-0.4,1-0.2c2.1,1.2,4.4,2.1,6.9,2.7c4.6,1,9.3,0.8,13.7-0.8c-3.3-3.3-7.5-5.6-12-6.7l0,0c-2.4-0.5-4.8-0.7-7.3-0.6
				c-0.4,0-0.7-0.2-0.8-0.6c-0.1-0.4,0.1-0.8,0.5-0.9c2.3-0.9,4.4-2.2,6.3-3.7c3.7-3,6.4-6.8,8-11.3c-4.6,0.5-9,2.4-12.7,5.3
				c-1.9,1.6-3.6,3.4-5,5.4c-0.2,0.3-0.6,0.4-1,0.3c-0.3-0.2-0.5-0.6-0.4-0.9c0.7-2.4,1.1-4.8,1.1-7.3c0-4.7-1.3-9.3-3.8-13.3
				c-2.5,4-3.8,8.6-3.8,13.3c0,2.5,0.4,4.9,1.1,7.3c0.1,0.4-0.1,0.8-0.4,0.9c-0.3,0.2-0.8,0.1-1-0.3c-1.4-2-3.1-3.9-5-5.4
				c-3.7-2.9-8-4.8-12.7-5.3c1.6,4.4,4.3,8.3,8,11.3c1.9,1.5,4,2.8,6.3,3.7c0.4,0.1,0.6,0.5,0.5,0.9c-0.1,0.4-0.4,0.6-0.8,0.6
				c-2.5-0.2-4.9,0-7.3,0.6c-4.6,1.1-8.7,3.4-12,6.7c4.4,1.5,9.1,1.8,13.7,0.8c2.4-0.6,4.7-1.5,6.9-2.7c0.3-0.2,0.8-0.1,1,0.2
				c0.2,0.3,0.2,0.7,0,1c-1.7,1.9-3.1,3.9-4.1,6.1c-2,4.3-2.8,9-2.3,13.6c4-2.5,7.1-6.1,9.1-10.3c1.1-2.2,1.8-4.6,2.2-7.1
				C61,39.2,61.3,39,61.7,39L61.7,39z"/>
		</g>
		<g class="st1">
			<g>
				<defs>
					<rect id="SVGID_5_" x="36.7" y="2.2" width="57.1" height="56.1"/>
				</defs>
				<clipPath id="SVGID_6_">
					<use xlink:href="#SVGID_5_"  style="overflow:visible;"/>
				</clipPath>
				<g class="st4">
					<defs>
						<rect id="SVGID_7_" x="36.7" y="2.2" width="57.1" height="56.1"/>
					</defs>
					<clipPath id="SVGID_8_">
						<use xlink:href="#SVGID_7_"  style="overflow:visible;"/>
					</clipPath>
					<g class="st5">
						<path class="st6" d="M80.5,30.5c-2.5-0.6-5.1-0.8-7.5-0.6c2.3-0.9,4.5-2.2,6.5-3.8c4.3-3.4,7.1-7.9,8.6-12.8
							c-5,0.4-10,2.2-14.3,5.6c-2,1.6-3.7,3.5-5.1,5.6c0.7-2.4,1.1-4.9,1.1-7.5c0-5.5-1.7-10.6-4.6-14.8c-2.9,4.2-4.6,9.3-4.6,14.8
							c0,2.6,0.4,5.1,1.1,7.5c-1.4-2.1-3.1-3.9-5.1-5.6c-4.3-3.4-9.3-5.2-14.3-5.6c1.5,4.9,4.4,9.4,8.6,12.8c2,1.6,4.2,2.9,6.5,3.8
							c-2.5-0.2-5,0-7.5,0.6c-5.3,1.2-9.8,4-13.3,7.8c4.7,1.9,10,2.4,15.3,1.2c2.6-0.6,4.9-1.5,7.1-2.8c-1.7,1.8-3.1,3.9-4.3,6.3
							c-2.4,4.9-3,10.3-2.2,15.3C56.9,55.8,60.6,52,63,47c1.1-2.4,1.9-4.8,2.2-7.3c0.4,2.5,1.1,4.9,2.2,7.3
							c2.4,4.9,6.1,8.8,10.5,11.3c0.8-5,0.1-10.3-2.2-15.3c-1.1-2.4-2.6-4.5-4.3-6.3c2.2,1.2,4.5,2.2,7.1,2.8
							c5.3,1.2,10.6,0.7,15.3-1.2C90.3,34.5,85.8,31.7,80.5,30.5"/>
					</g>
				</g>
			</g>
		</g>
		<g class="st1">
			<path class="st2" d="M29.2,8.3c0,4.1-3.3,7.5-7.4,7.5c-4.1,0-7.4-3.3-7.4-7.5c0-4.1,3.3-7.5,7.4-7.5C25.8,0.8,29.2,4.1,29.2,8.3"
				/>
		</g>
		<g class="st1">
			<path class="st3" d="M21.7,16.5c-4.5,0-8.2-3.7-8.2-8.3S17.2,0,21.7,0c4.5,0,8.2,3.7,8.2,8.3S26.3,16.5,21.7,16.5z M21.7,1.6
				c-3.7,0-6.6,3-6.6,6.7s3,6.7,6.6,6.7c3.7,0,6.6-3,6.6-6.7S25.4,1.6,21.7,1.6z"/>
		</g>
		<g class="st1">
			<path class="st2" d="M14,11.8c0,0,1.2,5.9,8.4,6.9c0.3,0.1,0.6,0.3,0.7,0.6l4.9,14c0.4,1.1,1.6,1.7,2.7,1.2
				c1-0.4,1.5-1.5,1.2-2.5l-4.3-13.9c-0.1-0.3,0-0.6,0.2-0.8c1-1.3,4.2-5.7,2.8-10c-0.3-0.8-1.4-0.9-1.7-0.1
				c-0.6,1.5-1.5,3.2-2.7,2.9c-2.1-0.5-3.3-2.4-4.4-2c-1.1,0.4-0.4,4.5-2.2,4.5C17.7,12.7,14.5,9.9,14,11.8"/>
		</g>
		<g class="st1">
			<path class="st3" d="M29.9,35.4c-0.4,0-0.8-0.1-1.2-0.3c-0.7-0.3-1.2-0.9-1.5-1.7l-4.9-14c-7.7-1.1-9.2-7.5-9.2-7.6
				c0-0.1,0-0.3,0-0.4c0.2-0.6,0.6-0.9,0.9-1.1c0.9-0.4,2,0.1,3.2,0.6c0.8,0.3,1.7,0.7,2.2,0.7c0.4,0,0.6-1.1,0.7-1.9
				c0.2-1.1,0.3-2.2,1.3-2.6c1-0.4,1.8,0.2,2.7,0.8c0.6,0.4,1.3,0.9,2.2,1.1c0.4,0.1,1.1-0.6,1.8-2.4c0.3-0.7,0.9-1.1,1.6-1.1
				c0.7,0,1.3,0.5,1.5,1.2c1.5,4.6-1.9,9.4-3,10.7l4.3,14c0.4,1.4-0.3,3-1.7,3.5C30.6,35.4,30.3,35.4,29.9,35.4z M14.8,12
				c0.4,1.1,2,5.2,7.7,6c0.6,0.1,1.2,0.5,1.4,1.1l4.9,14c0.1,0.3,0.4,0.6,0.7,0.7c0.3,0.1,0.7,0.2,1,0c0.6-0.2,0.9-0.9,0.7-1.6
				l-4.3-13.9c-0.2-0.6-0.1-1.1,0.3-1.6c1-1.2,4-5.4,2.7-9.2l-0.9-0.3l0.7,0.3c-1.2,3.2-2.6,3.6-3.6,3.3c-1.1-0.3-2-0.9-2.7-1.4
				c-0.5-0.3-1-0.7-1.3-0.6C22,9,21.9,9.7,21.8,10.2c-0.2,1.3-0.5,3.2-2.2,3.3c-0.9,0-1.9-0.4-2.9-0.8C16.2,12.3,15.2,11.9,14.8,12z
				"/>
		</g>
		<g class="st1">
			<path class="st2" d="M11.8,64.9c0,0,14.4-11.3,26.4-4.2c10.4,7.1,12.8,9.1,21.2,8.9c8.4-0.2,14.3-0.6,13.9,9.6l18-6.8
				c2.8-1,5.9,0.1,7.3,2.8c1.6,3,0.4,6.8-2.7,8.2L69.2,95.8c-7.7,3.6-16.5,4.4-24.7,2.1l-32.8-8.9V64.9z"/>
		</g>
		<g class="st1">
			<path class="st3" d="M54,100c-3.2,0-6.5-0.4-9.6-1.3l-32.8-8.9c-0.3-0.1-0.6-0.4-0.6-0.8V64.9c0-0.2,0.1-0.5,0.3-0.6
				c0.6-0.5,15-11.6,27.3-4.3l1.8,1.2c9,6.1,11.4,7.8,19,7.6l0.6,0c5.1-0.1,9.4-0.2,11.9,2.4c1.4,1.5,2.2,3.8,2.2,6.9L91,71.7
				c3.1-1.2,6.7,0.2,8.2,3.1c0.9,1.7,1,3.5,0.4,5.3c-0.6,1.8-1.8,3.2-3.5,4L69.6,96.5C64.6,98.8,59.3,100,54,100z M12.6,88.5
				l32.2,8.7c8,2.2,16.6,1.4,24.2-2.1l26.6-12.4c1.3-0.6,2.2-1.7,2.7-3c0.5-1.4,0.3-2.8-0.3-4.1c-1.2-2.3-3.9-3.3-6.3-2.4l-18,6.8
				c-0.2,0.1-0.5,0.1-0.7-0.1c-0.2-0.2-0.3-0.4-0.3-0.7c0.1-3.3-0.4-5.6-1.7-6.9c-2-2.1-5.9-2-10.8-1.9l-0.6,0
				c-8.2,0.2-10.8-1.7-19.9-7.9l-1.8-1.2c-10.4-6.2-23,2.4-25.2,4V88.5z"/>
		</g>
		<g class="st1">
			<rect x="0.8" y="59.8" class="st2" width="11" height="38"/>
		</g>
		<g class="st1">
			<path class="st3" d="M11.8,98.5h-11c-0.4,0-0.8-0.4-0.8-0.8v-38C0,59.3,0.4,59,0.8,59h11c0.4,0,0.8,0.4,0.8,0.8v38
				C12.6,98.2,12.2,98.5,11.8,98.5z M1.6,97H11V60.6H1.6V97z"/>
		</g>
		<g class="st1">
			<path class="st3" d="M64.2,82.8c-7.9,0-19-2.7-19.5-2.8c-0.4-0.1-0.7-0.5-0.6-1c0.1-0.4,0.5-0.7,0.9-0.6c0.1,0,12,2.9,19.8,2.8
				c7-0.1,7.7-2.2,7.7-2.2c0.1-0.4,0.5-0.7,0.9-0.6c0.4,0.1,0.7,0.5,0.6,0.9c-0.1,0.6-1,3.3-9.2,3.5C64.7,82.8,64.4,82.8,64.2,82.8z
				"/>
		</g>
	</g>
</g>
</svg>
