<?xml version="1.0" encoding="utf-8"?>
<!-- Generator: Adobe Illustrator 24.1.3, SVG Export Plug-In . SVG Version: 6.00 Build 0)  -->
<svg version="1.1" id="Layer_1" xmlns="http://www.w3.org/2000/svg" xmlns:xlink="http://www.w3.org/1999/xlink" x="0px" y="0px"
	 width="100px" height="97px" viewBox="0 0 100 97" style="enable-background:new 0 0 100 97;" xml:space="preserve">
<style type="text/css">
	.st0{clip-path:url(#SVGID_2_);}
	.st1{clip-path:url(#SVGID_4_);}
	.st2{fill:#FFFFFF;}
	.st3{fill:#231A1C;}
	.st4{clip-path:url(#SVGID_6_);}
	.st5{clip-path:url(#SVGID_8_);}
	.st6{fill:#F39110;}
	.st7{clip-path:url(#SVGID_10_);}
	.st8{clip-path:url(#SVGID_12_);}
	.st9{clip-path:url(#SVGID_14_);}
	.st10{clip-path:url(#SVGID_16_);}
</style>
<g>
	<defs>
		<rect id="SVGID_1_" width="100" height="97"/>
	</defs>
	<clipPath id="SVGID_2_">
		<use xlink:href="#SVGID_1_"  style="overflow:visible;"/>
	</clipPath>
	<g class="st0">
		<defs>
			<rect id="SVGID_3_" y="0" width="100" height="97"/>
		</defs>
		<clipPath id="SVGID_4_">
			<use xlink:href="#SVGID_3_"  style="overflow:visible;"/>
		</clipPath>
		<g class="st1">
			<path class="st2" d="M7.5,54.3c0-23.2,18.8-41.9,42-41.9c23.2,0,42,18.8,42,41.9s-18.8,41.9-42,41.9C26.3,96.3,7.5,77.5,7.5,54.3
				"/>
		</g>
		<g class="st1">
			<path class="st3" d="M49.5,97C25.9,97,6.7,77.9,6.7,54.3c0-23.5,19.2-42.7,42.7-42.7s42.7,19.1,42.7,42.7
				C92.2,77.9,73,97,49.5,97z M49.5,13.1c-22.7,0-41.2,18.5-41.2,41.2s18.5,41.2,41.2,41.2c22.7,0,41.2-18.5,41.2-41.2
				S72.2,13.1,49.5,13.1z"/>
		</g>
		<g class="st1">
			<path class="st2" d="M39.2,12.4c0-6.4,5.2-11.7,11.7-11.7c6.5,0,11.7,5.2,11.7,11.7s-5.2,11.7-11.7,11.7
				C44.4,24.1,39.2,18.9,39.2,12.4"/>
		</g>
		<g class="st1">
			<path class="st3" d="M50.9,24.8c-6.9,0-12.4-5.6-12.4-12.4C38.4,5.6,44,0,50.9,0c6.9,0,12.4,5.6,12.4,12.4
				C63.3,19.3,57.7,24.8,50.9,24.8z M50.9,1.5c-6,0-10.9,4.9-10.9,10.9s4.9,10.9,10.9,10.9c6,0,10.9-4.9,10.9-10.9
				S56.9,1.5,50.9,1.5z"/>
		</g>
		<g class="st1">
			<path class="st2" d="M18.3,84.2c-5.6,3.2-12.7,1.3-16-4.3C-0.9,74.3,1,67.2,6.6,64c5.6-3.2,12.7-1.3,16,4.3
				C25.8,73.8,23.9,81,18.3,84.2"/>
		</g>
		<g class="st1">
			<path class="st3" d="M12.5,86.5c-4.3,0-8.5-2.2-10.8-6.2c-1.7-2.9-2.1-6.2-1.2-9.4s2.9-5.9,5.8-7.5c2.9-1.7,6.2-2.1,9.4-1.2
				c3.2,0.9,5.9,2.9,7.5,5.8c1.7,2.9,2.1,6.2,1.2,9.4c-0.9,3.2-2.9,5.9-5.8,7.5C16.7,85.9,14.6,86.5,12.5,86.5z M12.4,63.1
				c-1.9,0-3.8,0.5-5.5,1.5c-2.5,1.5-4.3,3.8-5.1,6.6C1.1,74.1,1.5,77,3,79.5c3,5.2,9.7,7,14.9,4l0,0c2.5-1.5,4.3-3.8,5.1-6.6
				c0.8-2.8,0.4-5.8-1.1-8.3c-1.5-2.5-3.8-4.3-6.6-5.1C14.3,63.3,13.4,63.1,12.4,63.1z"/>
		</g>
		<g class="st1">
			<path class="st2" d="M90.9,66.4c5.6,3.2,7.5,10.4,4.3,15.9c-3.2,5.6-10.4,7.5-16,4.3c-5.6-3.2-7.5-10.4-4.3-15.9
				C78.2,65.1,85.4,63.2,90.9,66.4"/>
		</g>
		<g class="st1">
			<path class="st3" d="M85.1,88.9c-2.2,0-4.3-0.6-6.2-1.7c-2.9-1.7-4.9-4.3-5.8-7.5c-0.9-3.2-0.4-6.6,1.2-9.4c3.4-5.9,11-8,17-4.5
				l0,0c5.9,3.4,8,11,4.5,17c-1.7,2.9-4.3,4.9-7.5,5.8C87.2,88.8,86.2,88.9,85.1,88.9z M85.1,65.6c-3.8,0-7.5,2-9.5,5.5
				c-1.5,2.5-1.9,5.5-1.1,8.3c0.8,2.8,2.6,5.2,5.1,6.6s5.5,1.8,8.3,1.1c2.8-0.8,5.2-2.6,6.6-5.1c3-5.2,1.2-11.9-4-14.9l0,0
				C88.9,66,87,65.6,85.1,65.6z"/>
		</g>
		<g class="st1">
			<g>
				<defs>
					<rect id="SVGID_5_" x="42.4" y="4.7" width="23.4" height="23.3"/>
				</defs>
				<clipPath id="SVGID_6_">
					<use xlink:href="#SVGID_5_"  style="overflow:visible;"/>
				</clipPath>
				<g class="st4">
					<defs>
						<rect id="SVGID_7_" x="42.4" y="4.7" width="23.4" height="23.3"/>
					</defs>
					<clipPath id="SVGID_8_">
						<use xlink:href="#SVGID_7_"  style="overflow:visible;"/>
					</clipPath>
					<g class="st5">
						<path class="st6" d="M42.4,16.4c0-6.4,5.2-11.7,11.7-11.7c6.5,0,11.7,5.2,11.7,11.7c0,6.4-5.2,11.7-11.7,11.7
							C47.6,28.1,42.4,22.8,42.4,16.4"/>
					</g>
				</g>
			</g>
		</g>
		<g class="st1">
			<g>
				<defs>
					<rect id="SVGID_9_" x="4" y="66.4" width="23.4" height="23.3"/>
				</defs>
				<clipPath id="SVGID_10_">
					<use xlink:href="#SVGID_9_"  style="overflow:visible;"/>
				</clipPath>
				<g class="st7">
					<defs>
						<rect id="SVGID_11_" x="4" y="66.4" width="23.4" height="23.3"/>
					</defs>
					<clipPath id="SVGID_12_">
						<use xlink:href="#SVGID_11_"  style="overflow:visible;"/>
					</clipPath>
					<g class="st8">
						<path class="st6" d="M21.5,88.1c-5.6,3.2-12.7,1.3-16-4.3c-3.2-5.6-1.3-12.7,4.3-15.9c5.6-3.2,12.7-1.3,16,4.3
							C29,77.8,27.1,84.9,21.5,88.1"/>
					</g>
				</g>
			</g>
		</g>
		<g class="st1">
			<g>
				<defs>
					<rect id="SVGID_13_" x="76.6" y="68.8" width="23.4" height="23.3"/>
				</defs>
				<clipPath id="SVGID_14_">
					<use xlink:href="#SVGID_13_"  style="overflow:visible;"/>
				</clipPath>
				<g class="st9">
					<defs>
						<rect id="SVGID_15_" x="76.6" y="68.8" width="23.4" height="23.3"/>
					</defs>
					<clipPath id="SVGID_16_">
						<use xlink:href="#SVGID_15_"  style="overflow:visible;"/>
					</clipPath>
					<g class="st10">
						<path class="st6" d="M94.2,70.3c5.6,3.2,7.5,10.4,4.3,15.9c-3.2,5.6-10.4,7.5-16,4.3c-5.6-3.2-7.5-10.4-4.3-15.9
							C81.4,69,88.6,67.1,94.2,70.3"/>
					</g>
				</g>
			</g>
		</g>
	</g>
</g>
</svg>
