<?xml version="1.0" encoding="utf-8"?>
<!-- Generator: Adobe Illustrator 23.0.0, SVG Export Plug-In . SVG Version: 6.00 Build 0)  -->
<svg version="1.1" id="Layer_1" xmlns="http://www.w3.org/2000/svg" xmlns:xlink="http://www.w3.org/1999/xlink" x="0px" y="0px"
	 viewBox="0 0 117.9 125.5" style="enable-background:new 0 0 117.9 125.5;" xml:space="preserve">
<style type="text/css">
	.st0{clip-path:url(#SVGID_2_);fill:#F4EBD8;}
	.st1{clip-path:url(#SVGID_2_);fill:#E7CEA7;}
</style>
<g>
	<defs>
		<rect id="SVGID_1_" y="0" width="117.9" height="125.5"/>
	</defs>
	<clipPath id="SVGID_2_">
		<use xlink:href="#SVGID_1_"  style="overflow:visible;"/>
	</clipPath>
	<path class="st0" d="M52.5,46.3c0.6,0.5-0.2,1.3-1.3,2c0,0,0,0.1,0,0.1C49.6,53.2,46,57,43.1,61c-2.9,3.9-5.7,7.6-10.3,9.7
		C27.6,73,22,73.9,16.3,73.4c-5.5-0.5-10.8-1.9-16.1-3.3C0,70.1,0,69.8,0,69.7c0-0.1,0-0.2,0-0.3C6.3,61.6,6.5,49.5,17,45.6
		c5.1-1.9,11.1-2.4,16.5-2.6c3-0.1,6.1-0.3,9,0.5c2.6,0.7,5.1,1.8,7.7,2.3c0.3,0.1,0.3,0.3,0.2,0.5C51.1,46.1,52.1,45.9,52.5,46.3"
		/>
	<path class="st1" d="M52.5,46.3c-0.4-0.4-1.3-0.2-2.1,0c0.1-0.2,0.1-0.5-0.2-0.5c-2.6-0.6-5.1-1.7-7.7-2.3c-2.9-0.8-6.1-0.6-9-0.5
		c-5.4,0.2-11.4,0.7-16.5,2.6C6.5,49.5,6.3,61.6,0.1,69.3C0,69.4,0,69.6,0,69.7c-0.1,0.2,0,0.4,0.2,0.4c5.3,1.3,10.6,2.7,16.1,3.3
		c5.7,0.5,11.3-0.3,16.5-2.7c4.6-2.1,7.4-5.8,10.3-9.7c2.9-4,6.5-7.8,8.1-12.6c0,0,0-0.1,0-0.1C52.3,47.6,53.1,46.9,52.5,46.3
		 M42.6,60.5c-1.3,1.8-2.6,3.6-4.1,5.3c-2,2.2-4.3,3.6-7,4.7c-10,4.3-20.6,1.5-30.7-1c3.1-4,4.6-8.8,6.7-13.3
		c2.1-4.5,4.9-8.1,9.7-10c2.2-0.9,4.5-1.2,6.9-1.6c3.1-0.5,6.3-0.8,9.5-0.9c2.9-0.1,6-0.2,8.9,0.5c2.6,0.6,5,1.7,7.6,2.3
		c-0.2,0.1-0.3,0.1-0.5,0.1c-2.3,0.6-4.6,1.6-6.8,2.7c-0.6,0.3-1.1,0.5-1.7,0.8c0.1-0.2,0.1-0.4-0.1-0.4c-3.7-1.5-8-2.4-12-2.1
		c-0.4,0-0.4,0.7,0,0.7c3.9-0.3,8,0.6,11.7,2c0,0,0,0,0.1,0c-3.9,1.7-7.9,3.2-11.7,5.1c-0.6,0.3-1.1,0.6-1.7,1
		c-1.1,0.3-2.2,0.3-3.3,0.2c0,0,0,0-0.1,0c-0.1-0.1-0.2-0.1-0.3,0c-1-0.1-2.1-0.2-3.1-0.1c-3.4-0.1-6.9,0.9-10.2,1.7
		c2.7-5,6.5-9.1,12-11.3c0.4-0.2,0.2-0.8-0.2-0.6C15,49,10.5,54.8,7.8,61.8c-0.2,0.4,0.5,0.6,0.7,0.2c0.5-1.2,1-2.3,1.5-3.5
		c0.1,0.1,0.1,0.2,0.3,0.2c0,0.1,0.1,0.2,0.3,0.2c3,0,5.8-1.1,8.7-1.7c0.5-0.1,1-0.1,1.5-0.2c1.3,0.1,2.7,0.3,4,0.9
		c-2.2,1.6-4.3,3.3-6.6,4.8c-4.3,2.8-9.5,3.8-14,6.2C4,69,4,69.2,4.1,69.3c-0.5-0.2-0.9-0.3-1.3-0.5c-0.4-0.2-0.6,0.5-0.2,0.7
		c4.9,1.9,10,3,15.3,2.9c0.4,0,0.4-0.7,0-0.7c-4.4,0.1-8.6-0.7-12.7-2c5.9-2.3,11.7-5.1,17.4-7.9c2.5-1.1,5-2.3,7.4-3.6
		c-1.3,2.8-2.8,5.5-5.1,7.6c-0.3,0.3,0.2,0.8,0.5,0.5c0,0,0,0,0.1-0.1c0.1,0,0.2,0,0.3-0.1c2.8-3.1,4.8-6.9,8-9.7
		c2.6-1.2,5.2-2.3,7.8-3.4c-1.4,3.7-3.8,6.8-6,10.1c-0.3,0.4,0.3,0.7,0.6,0.3c2.4-3.4,4.9-6.8,6.3-10.8c1.4-0.6,2.8-1.2,4.2-1.9
		c0.3-0.1,2.2-0.9,3.7-1.8C48.7,53.3,45.3,56.8,42.6,60.5 M29.2,56.9c2.1-1.2,4.4-2.3,6.7-3.2c0,0,0,0.1,0,0.1
		c-0.3,0.1-0.6,0.3-0.9,0.5c-1.4,0.5-2.8,1.2-4.1,2C30.3,56.4,29.8,56.6,29.2,56.9 M30.6,58.6c-0.1,0.2-0.3,0.4-0.4,0.6
		c0.1-0.2,0.2-0.5,0.3-0.7C30.5,58.6,30.5,58.6,30.6,58.6 M28.3,56.5c0,0,0-0.1,0-0.1c0.9-0.5,1.9-1,2.8-1.5
		C30.2,55.5,29.2,56,28.3,56.5 M27.8,56.9c-0.4,0.2-0.7,0.5-1.1,0.7c0,0,0-0.1-0.1-0.1c0.3-0.2,0.5-0.3,0.8-0.5
		C27.5,56.9,27.6,56.9,27.8,56.9 M25.9,57.2L25.9,57.2c-0.1,0-0.2,0-0.2,0C25.8,57.2,25.8,57.2,25.9,57.2 M25.5,58.2L24.4,59
		C24.8,58.7,25.1,58.5,25.5,58.2C25.5,58.2,25.5,58.2,25.5,58.2 M49.6,48c-4.7,2.2-9.8,3.6-14.7,5.3c0.9-0.4,1.9-0.8,2.8-1.2
		c4.1-1.7,8.2-3.9,12.5-5.1c0.3-0.1,1.2-0.3,1.5-0.2C51,47.2,50.3,47.6,49.6,48"/>
	<path class="st1" d="M34.8,66.4c-2.2,1.5-4.5,2.9-7,3.8c-2.6,0.9-5.5,1.2-8.3,1.3c-0.4,0-0.4,0.7,0,0.7c2.7-0.1,5.4-0.4,8-1.2
		c2.7-0.8,5.2-2.3,7.6-4C35.5,66.7,35.1,66.2,34.8,66.4"/>
	<path class="st1" d="M29.4,68.3c-6.5,3.3-14.4,2-21.2,0.5c-0.4-0.1-0.6,0.6-0.2,0.7c7,1.5,15.1,2.8,21.8-0.6
		C30.2,68.7,29.8,68.1,29.4,68.3"/>
	<path class="st1" d="M26.6,67.3c0.4-0.1,0.2-0.8-0.2-0.6c-4.3,1.6-8.7,1.8-13.2,1.1c-0.4-0.1-0.6,0.6-0.2,0.7
		C17.7,69.1,22.2,68.9,26.6,67.3"/>
	<path class="st1" d="M6.3,62.3c2.9-6,5.4-13.2,12.3-15.5c0.4-0.1,0.2-0.8-0.2-0.6c-7.1,2.4-9.7,9.6-12.7,15.8
		C5.5,62.3,6.1,62.7,6.3,62.3"/>
	<path class="st1" d="M17.5,50.6c-1.8,1.7-3.5,3.5-5.1,5.4c-0.3,0.3,0.2,0.8,0.5,0.5c1.6-1.9,3.3-3.7,5.1-5.4
		C18.4,50.8,17.9,50.3,17.5,50.6"/>
	<path class="st1" d="M28.6,46.1c4.5-0.8,8.9-1.2,13.4,0c0.4,0.1,0.6-0.5,0.2-0.7c-4.6-1.3-9.1-0.9-13.7,0
		C27.9,45.5,28.1,46.1,28.6,46.1"/>
	<path class="st1" d="M39.8,46.7c-3.5,0.1-7-0.6-10.5-0.5c-0.4,0-0.4,0.7,0,0.7c3.5-0.1,7,0.6,10.5,0.5
		C40.3,47.4,40.3,46.7,39.8,46.7"/>
	<path class="st1" d="M44.9,54c-2.2,4.1-4.9,7.8-8.4,10.9c-0.3,0.3,0.2,0.7,0.5,0.5c3.5-3.1,6.2-6.9,8.5-11
		C45.7,53.9,45.1,53.6,44.9,54"/>
	<path class="st0" d="M65.8,36c-0.2,0.1-0.4-0.1-0.3-0.3C67.8,26,71.4,14.1,80.8,9c5.3-2.8,11.2-3.6,17-4.7
		c5.9-1.1,11.6-2.7,17.6-3.2c0.6-0.6,1.3-1,2.2-1c0.2,0,0.3,0.2,0.2,0.4c-0.8,1.2-2.1,1.9-3,2.9c-0.1,0.1-0.2,0.1-0.3,0
		c-0.9,1.9-1.5,4.1-2.8,5.9c-1.7,2.4-3.3,4.8-4.8,7.4c-1.3,2.5-2.7,5-4.7,7c-2,2-4.3,3.5-6.5,5.2c-4.3,3.3-8.9,7-14.5,7.6
		c-2.8,0.3-5.2-0.2-7.9-1.1c-1.3-0.4-2.8-1-4.3-0.7C68,34.9,66.9,35.5,65.8,36"/>
	<path class="st1" d="M65.8,36c1.1-0.5,2.1-1.1,3.3-1.3c1.4-0.3,2.9,0.3,4.3,0.7c2.6,0.8,5.1,1.3,7.9,1.1c5.6-0.6,10.2-4.3,14.5-7.6
		c2.2-1.7,4.5-3.2,6.5-5.2c2-2,3.4-4.5,4.7-7c1.4-2.6,3.1-5,4.8-7.4c1.2-1.8,1.8-3.9,2.8-5.9c0.1,0,0.2,0,0.3,0c1-1,2.3-1.8,3-2.9
		c0.1-0.2,0-0.4-0.2-0.4c-0.9,0-1.6,0.4-2.2,1c-5.9,0.6-11.7,2.1-17.6,3.2c-5.8,1.1-11.8,1.9-17,4.7c-9.5,5.1-13,17-15.4,26.7
		C65.4,35.9,65.6,36.1,65.8,36 M117.1,0.6c0,0.1-0.1,0.1-0.1,0.1c0,0,0,0,0,0c-0.2,0.1-0.4,0.1-0.6,0.2
		C116.6,0.8,116.8,0.6,117.1,0.6 M111.6,8.6c-1.5,2.4-3.2,4.5-4.6,7c-1.4,2.6-2.8,5.1-4.8,7.3c-1.9,2.1-4.2,3.6-6.5,5.3
		C91,31.8,86.3,35.7,80,36c-3,0.1-5.6-1-8.4-1.7c-1.5-0.4-2.7-0.1-3.9,0.3c0-0.1,0.1-0.1,0.1-0.2c0.2-0.1,0.4-0.3,0.7-0.4
		c0,0.2,0.2,0.3,0.4,0.2c0.8-0.6,1.4-1.4,2.1-2.2c0,0,0.1-0.1,0.1-0.1c0.4-0.4,0.8-0.7,1.2-1.1c0.4-0.3,0.7-0.5,1.1-0.8
		c2-1.4,4.2-2.6,6.4-3.7c3-1.6,6-3.1,8.9-4.7c-0.8,1.5-1.8,3-2.8,4.4c-0.6,0.2-1.2,0.3-1.9,0.4c-0.3,0.1-0.2,0.5,0.1,0.5
		c0.4-0.1,0.9-0.2,1.3-0.3c-0.3,0.5-0.7,0.9-1,1.4c-0.2,0.3-0.4,0.6-0.6,0.9c-0.2,0-0.5,0.1-0.8,0.1c-0.3,0-0.4,0.5,0,0.5
		c0.1,0,0.1,0,0.2,0c0.1,0,0.1,0,0.2,0c0,0,0,0,0.1,0c-0.4,0.6-0.9,1.3-1.4,1.9c-1.5,0-3.1-0.2-4.8-0.8c-0.3-0.1-0.5,0.4-0.2,0.5
		c1.5,0.6,3,0.8,4.5,0.8c-0.6,0.6-1.2,1.2-2,1.6c-1.8-0.1-3.6-0.4-5.4-0.8c-0.3-0.1-0.5,0.4-0.2,0.5c1.6,0.4,3.1,0.6,4.7,0.7
		c-0.1,0.1-0.3,0.1-0.4,0.2c-0.3,0.1-0.2,0.6,0.1,0.5c0.5-0.1,0.9-0.3,1.3-0.6c1.7,0.1,3.4,0,5-0.2c-2,0.5-3.9,1-5.9,1
		c-2.7,0.1-5.3-1.2-7.9-1.7c-0.3-0.1-0.4,0.4,0,0.5c2.8,0.5,5.4,1.7,8.3,1.7c2.6-0.1,5.1-1,7.6-1.5c0.3,0,0.2-0.4,0-0.5
		c0.8-0.2,1.7-0.4,2.5-0.7c0.3-0.1,0.1-0.6-0.2-0.4c-2.5,0.9-5.2,1.3-7.8,1.3c0.6-0.5,1.1-1.1,1.6-1.7c1.9-0.2,3.8-0.6,5.7-1.2
		c0.3-0.1,0.2-0.6-0.1-0.5c-1.8,0.5-3.5,1-5.2,1.2c0.6-0.7,1.1-1.5,1.6-2.3c0.7-0.3,1.4-0.7,2-1c2-0.9,4-1.4,5.8-2.6
		c0.3-0.2,0.1-0.6-0.2-0.4c-1.5,0.9-3.1,1.6-4.7,2.2c-0.8,0.3-1.6,0.7-2.5,1.1c0.4-0.7,0.9-1.4,1.3-2.1c3.1-1.1,5.7-3,8.5-4.7
		c0.3-0.2,0.1-0.6-0.2-0.4c-2.6,1.5-5.1,3.3-7.9,4.4c0.2-0.3,0.4-0.6,0.5-0.9c0.1,0,0.2,0,0.3-0.1c1.2-2.1,2.7-3.6,4.7-5
		c0.1-0.1,0.1-0.1,0.1-0.2c0.1-0.1,0.2-0.1,0.4-0.2c1.9-1.1,3.5-2.5,5.2-4c0,0,0.1-0.1,0.2-0.1c0.7-0.4,1.5-0.9,2.2-1.3
		c-0.3,0.5-0.5,1.1-0.7,1.6c0,0.1,0,0.2,0.1,0.2c-0.3,0.7-0.6,1.4-0.8,2.2c-0.3,0.7-0.5,1.5-0.7,2.2c-0.5,0.5-1.1,1-1.6,1.5
		c-0.2,0.2,0.1,0.6,0.3,0.4c0.3-0.3,0.7-0.6,1-0.9c-0.3,0.9-0.6,1.8-1.1,2.6c-0.7,0.6-1.4,1.3-2.2,1.9c-0.3,0.2,0.1,0.6,0.3,0.4
		c0.4-0.3,0.7-0.6,1.1-0.9c-0.4,0.6-0.9,1.2-1.5,1.7c-0.1,0.1-0.1,0.2,0,0.3c-0.9,0.6-1.8,1.1-2.7,1.6c-0.3,0.2-0.1,0.6,0.2,0.4
		c7.6-4,12-11.2,17.3-17.7c0.2-0.2-0.2-0.5-0.4-0.3c-4.2,5.1-7.8,10.8-13,14.8c0.5-0.6,0.9-1.3,1.2-1.9c3.2-2.9,5.8-6.3,8.3-9.9
		c0.2-0.3-0.2-0.5-0.4-0.3c-2.2,3.2-4.5,6.3-7.3,9c0.3-0.8,0.6-1.6,0.9-2.4c1.5-1.4,2.8-2.9,3.8-4.7c0.2-0.3-0.2-0.5-0.4-0.3
		c-0.9,1.5-1.9,2.7-3.1,3.9c0.8-2.3,1.6-4.9,3.3-6.6c0.9-0.4,1.8-0.8,2.7-1.2c3.2-1.5,5.9-4.2,8.2-7C113,5.7,112.4,7.2,111.6,8.6
		 M69.6,32.5c0.9-0.9,1.8-1.7,2.8-2.4c-0.4,0.4-0.9,0.7-1.3,1.1c0,0-0.1,0.1-0.1,0.1c0,0-0.1,0.1-0.1,0.1
		C70.4,31.8,70,32.1,69.6,32.5 M78.9,26.2C78.9,26.2,78.8,26.2,78.9,26.2c0.6-0.4,1.4-0.9,2.1-1.4c1.2-0.7,2.5-1.3,3.7-2
		c1.3-0.8,2.7-1.6,4-2.4c0.7-0.4,1.4-0.7,2-1.1c0,0,0.1,0,0.1,0c0.1,0,0.2-0.1,0.2-0.2c0.2-0.1,0.4-0.2,0.6-0.3c1-0.6,2-1.1,3-1.7
		c0.4-0.2,0.8-0.4,1.2-0.6c0.3-0.1,0.5-0.3,0.7-0.4c-0.3,0.3-0.7,0.6-1,0.9c-1.1,0.9-2.5,1.6-3.7,2.4c-0.8,0.4-1.5,0.8-2.2,1.3
		c-0.1-0.1-0.3,0-0.3,0.1c0,0,0,0.1-0.1,0.1C85.8,22.6,82.3,24.4,78.9,26.2 M89.6,21.1C89.5,21.1,89.5,21.2,89.6,21.1
		C89.5,21.2,89.5,21.1,89.6,21.1C89.5,21.1,89.5,21.1,89.6,21.1 M85.3,27.7L85.3,27.7c-0.1,0.3-0.3,0.6-0.5,0.9c0,0-0.1,0-0.1,0
		C84.9,28.3,85.1,28,85.3,27.7 M84.4,29.2c-0.5,0.7-1,1.4-1.5,2.1c0,0,0,0-0.1,0c0.5-0.7,1-1.4,1.5-2C84.3,29.2,84.3,29.2,84.4,29.2
		 M82.4,31.8c-0.5,0.6-1.1,1.2-1.7,1.7c0,0-0.1,0-0.2,0C81.2,33,81.8,32.4,82.4,31.8C82.4,31.8,82.4,31.8,82.4,31.8 M103.1,10.7
		c0.1,0,0.1,0,0.1-0.1C103.3,10.7,103.2,10.7,103.1,10.7C103.2,10.7,103.2,10.7,103.1,10.7 M104.3,11.1c2.8-2,5.6-4.2,8.2-6.5
		C110.2,7.3,107.5,9.7,104.3,11.1 M115.1,2.4c0.1-0.1,0.1-0.2,0.2-0.3c0.2-0.1,0.3-0.2,0.4-0.2C115.5,2,115.3,2.2,115.1,2.4
		 M67.6,29.7c0.1,0.1,0.3,0.1,0.4-0.1c1.9-4.7,3.9-9.5,7.2-13.4c0.2-0.2-0.2-0.5-0.4-0.3c-3,3.5-4.8,7.7-6.6,11.9
		c2.2-6.9,5.6-13.5,11.5-17.5c-0.1,0.1-0.1,0.1-0.2,0.2c-0.2,0.2,0.1,0.6,0.3,0.4c3.5-3.6,9.3-3.9,13.9-4.6
		C99.5,5.4,105.4,5,111,3.5c0.3-0.1,0.2-0.6-0.1-0.5C105.2,4.5,99.1,5,93.3,5.8c-1.2,0.2-2.4,0.3-3.7,0.5c2.9-0.7,5.9-1.1,8.8-1.7
		c5.4-1,10.8-2.4,16.3-3c-0.6,0.3-1.1,0.7-1.6,1.2c-0.5,0.3-0.9,0.7-1.3,1.1c-0.1,0.1-0.1,0.1-0.1,0.2c-0.2,0.2-0.4,0.4-0.6,0.6
		c0-0.1-0.2-0.2-0.3-0.2C104.9,7.3,98.3,6.3,92.1,8c-0.3,0.1-0.2,0.6,0.1,0.5c6.1-1.7,12.6-0.8,18.4-3.4c-0.1,0.1-0.2,0.2-0.4,0.3
		c-0.3,0.3-0.7,0.6-1,0.9c-0.2,0.2-0.4,0.3-0.5,0.5c-1.2,1-2.6,1.9-3.8,2.8c-0.1-0.1-0.2-0.3-0.4-0.1c-1,0.7-2,1.1-3.2,1.4
		c0,0-0.1,0-0.1,0.1c-3.1,0.1-6.2-0.2-9.2-0.6c2.4-0.7,4.9-1,7.4-1.2c0.3,0,0.2-0.5-0.1-0.5c-2.8,0.2-5.7,0.6-8.4,1.5
		c-0.2,0-0.3,0-0.5-0.1c-3.6-0.5-7.9-0.5-10.6,2.4c-0.2,0.2,0.1,0.6,0.3,0.4c2.6-2.7,6.3-2.7,9.8-2.3c-0.9,0.4-1.7,0.9-2.5,1.4
		c-0.3,0.2,0.1,0.6,0.3,0.4c1-0.7,2.1-1.3,3.2-1.7c0.4,0,0.8,0.1,1.1,0.1c3.4,0.4,6.8,0.8,10.2,0.5c-2.6,1.7-5.3,3.3-7.9,4.9
		c-1.5,0.7-3.1,1.5-4.7,1.8c-0.2,0-0.3,0-0.5,0c-0.1,0-0.2,0.1-0.2,0.2c-0.5,0.1-1,0.1-1.5,0.1c-4.1-0.9-8-2.6-12.3-1.6
		c-0.3,0.1-0.2,0.6,0.1,0.5c4.1-1,7.8,0.6,11.7,1.5c0,0.1,0.1,0.1,0.2,0.1c0.1,0,0.2,0,0.3,0c0.6,0.1,1.3,0.2,1.9,0.3
		c-2.6,1.3-5.2,2.6-7.6,4.1c-1.6,0.3-3.3,0.1-5,0.1c-0.3,0-0.6,0-0.9,0c0.6-1.4,1.2-2.7,1.9-4c0.2-0.3-0.3-0.6-0.4-0.3
		c-0.8,1.4-1.5,2.9-2.1,4.4c-0.6,0.1-1.2,0.3-1.7,0.6c0.6-1.7,1.2-3.3,1.9-4.9c0.1-0.3-0.3-0.5-0.5-0.2c-0.8,1.8-1.5,3.6-2.1,5.4
		c-0.6,0.5-1.2,1.1-1.7,1.9c-0.2,0.3,0.2,0.6,0.4,0.3c0.3-0.5,0.6-0.9,0.9-1.2c0,0,0,0.1,0,0.1C72.5,25.8,73,26,73,25.7
		c0.1-0.3,0.2-0.6,0.3-0.9c0.5-0.4,1.1-0.6,1.7-0.8c-0.3,0.7-0.5,1.5-0.7,2.3c-0.1,0.3,0.4,0.5,0.5,0.2c0.2-0.9,0.5-1.7,0.8-2.5
		c0.8-0.1,1.7-0.1,2.6-0.1c0.8,0,1.6,0.1,2.4,0c-1.3,0.8-2.6,1.7-3.9,2.7c-3.5,2-6.8,4.4-9.3,7.6c-0.1,0.1-0.2,0.1-0.3,0.2
		c-0.2,0.1-0.1,0.5,0.1,0.5c-0.4,0.2-0.8,0.3-1.1,0.5C66.5,33.5,67,31.6,67.6,29.7"/>
	<path class="st1" d="M70.4,27c0.9-2.6,2.1-5.1,3.2-7.7c0.1-0.3-0.3-0.5-0.5-0.2c-1.1,2.6-2.2,5.1-3.2,7.7
		C69.8,27.1,70.3,27.3,70.4,27"/>
	<path class="st1" d="M79.2,12.8c2.5-2.4,5.7-3.4,9-4.2c0.3-0.1,0.2-0.6-0.1-0.5c-3.4,0.8-6.6,1.8-9.2,4.3
		C78.7,12.6,79,13,79.2,12.8"/>
	<path class="st1" d="M79.2,15.1c1.9-1.9,4.3-3,6.8-4.1c0.3-0.1,0.1-0.6-0.2-0.4c-2.5,1.1-5,2.2-6.9,4.1
		C78.7,14.9,79,15.3,79.2,15.1"/>
	<path class="st1" d="M85.6,12.2c-1.6,1-3.3,1.8-4.6,3.1c-0.2,0.2,0.1,0.6,0.3,0.4c1.3-1.3,3-2,4.5-3C86.1,12.5,85.9,12,85.6,12.2"
		/>
	<path class="st1" d="M67.8,33.4c0.3-1.4,0.8-2.8,1.2-4.1c0.1-0.3-0.4-0.5-0.5-0.2c-0.4,1.4-0.9,2.7-1.2,4.1
		C67.3,33.5,67.8,33.7,67.8,33.4"/>
	<path class="st1" d="M69.9,31.3c0.2-1,0.4-2,0.7-2.9c0.1-0.3-0.4-0.5-0.5-0.2c-0.2,1-0.4,2-0.7,2.9C69.3,31.5,69.8,31.6,69.9,31.3"
		/>
	<path class="st1" d="M71.4,27.5c-0.1,0.7-0.2,1.4-0.4,2.1c-0.1,0.3,0.4,0.3,0.5,0c0.1-0.7,0.3-1.4,0.4-2.1
		C72,27.2,71.5,27.2,71.4,27.5"/>
	<path class="st1" d="M77.8,22.9c0.6-1.2,1.3-2.2,1.9-3.4c0.1-0.3-0.3-0.6-0.4-0.3c-0.6,1.2-1.3,2.2-1.9,3.4
		C77.3,22.9,77.7,23.2,77.8,22.9"/>
	<path class="st1" d="M80.8,20.9c-0.1,0.4-0.2,0.8-0.3,1.2c0,0.3,0.4,0.4,0.5,0c0.1-0.4,0.2-0.7,0.3-1
		C81.4,20.7,80.9,20.6,80.8,20.9"/>
	<path class="st1" d="M91.2,13.2c1-0.5,2-0.9,3.1-1.2c0.3-0.1,0.2-0.6-0.1-0.5c-1.1,0.3-2.2,0.7-3.2,1.2
		C90.7,12.9,90.9,13.4,91.2,13.2"/>
	<path class="st1" d="M70.6,63.5c2.9,1.7,5.6,3.6,8.4,5.4c0.3,0.2,0.6-0.3,0.3-0.5c-2.8-1.8-5.5-3.8-8.4-5.4
		C70.6,62.8,70.3,63.3,70.6,63.5"/>
	<path class="st1" d="M63.6,59.1c1.6,0.7,3.1,1.5,4.6,2.3c0.3,0.2,0.6-0.3,0.3-0.5c-1.5-0.8-3-1.6-4.6-2.3
		C63.5,58.4,63.2,59,63.6,59.1"/>
	<path class="st1" d="M65.6,62c1.1,0.5,2.2,0.9,3.3,1.4c0.3,0.2,0.6-0.4,0.3-0.5c-1.1-0.5-2.2-0.9-3.3-1.4
		C65.5,61.3,65.2,61.8,65.6,62"/>
	<path class="st1" d="M69.8,64.7c-0.8-0.2-1.6-0.6-2.4-0.9c-0.4-0.1-0.5,0.4-0.2,0.6c0.8,0.3,1.6,0.6,2.4,0.9
		C70,65.3,70.1,64.8,69.8,64.7"/>
	<path class="st0" d="M60.9,56.2c-0.1-0.3,0.2-0.4,0.4-0.3c11,4.9,24.3,11.7,28.2,24c2.2,6.8,1.8,14.1,1.9,21.2
		c0,7.2,0.6,14.3,0,21.5c0.5,0.9,0.9,1.8,0.7,2.8c0,0.2-0.3,0.3-0.5,0.1c-1.2-1.2-1.8-2.9-2.8-4.2c-0.1-0.1-0.1-0.2,0-0.3
		c-2.1-1.5-4.5-2.7-6.3-4.5c-2.5-2.5-4.9-5-7.7-7.2c-2.6-2.1-5.3-4.3-7.2-7.1c-1.9-2.8-3.2-5.8-4.7-8.8c-2.9-5.8-6.3-12-5.8-18.8
		c0.3-3.4,1.4-6.1,3-9.1c0.8-1.5,1.8-3.1,1.7-4.9C61.8,58.9,61.3,57.5,60.9,56.2"/>
	<path class="st1" d="M60.9,56.2c0.4,1.4,0.8,2.8,0.9,4.2c0,1.7-0.9,3.4-1.7,4.9c-1.6,2.9-2.7,5.7-3,9.1c-0.6,6.8,2.8,13,5.8,18.8
		c1.5,3,2.8,6.1,4.7,8.8c1.9,2.8,4.6,5,7.2,7.1c2.8,2.3,5.2,4.7,7.7,7.2c1.9,1.8,4.2,3,6.3,4.5c-0.1,0.1-0.1,0.2,0,0.3
		c1,1.4,1.6,3.1,2.8,4.2c0.2,0.2,0.5,0.1,0.5-0.1c0.2-1.1-0.2-2-0.7-2.8c0.6-7.2,0.1-14.3,0-21.5c0-7.1,0.4-14.3-1.9-21.2
		c-4-12.3-17.2-19.1-28.2-24C61.1,55.7,60.8,55.9,60.9,56.2 M91.6,124.5c0-0.1-0.1-0.1-0.1-0.2c0,0,0,0,0,0c0-0.3-0.1-0.5-0.1-0.7
		C91.4,123.9,91.5,124.2,91.6,124.5 M83.2,116.3c-2.5-2.3-4.7-4.8-7.3-6.9c-2.7-2.3-5.5-4.4-7.6-7.2c-2-2.7-3.4-5.8-4.8-8.8
		c-3.2-6.5-6.8-12.9-5.7-20.4c0.5-3.5,2.4-6.3,3.8-9.5c0.7-1.7,0.8-3.2,0.5-4.7c0.1,0.1,0.1,0.1,0.2,0.2c0.1,0.3,0.2,0.6,0.4,0.9
		c-0.2,0-0.4,0.2-0.3,0.4c0.5,1.1,1.4,2,2.2,3c0,0,0.1,0.1,0.1,0.2c0.3,0.6,0.7,1.1,1,1.7c0.2,0.5,0.5,1,0.7,1.5
		c1.2,2.7,2.1,5.6,3,8.4c1.2,3.9,2.4,7.7,3.6,11.6c-1.6-1.3-3.1-2.8-4.6-4.3c-0.1-0.8-0.1-1.5-0.1-2.3c0-0.4-0.6-0.4-0.6,0
		c0,0.5,0,1.1,0.1,1.6c-0.5-0.5-1-1-1.4-1.5c-0.3-0.3-0.6-0.6-0.9-0.9c0-0.3,0-0.6,0.1-0.9c0.1-0.4-0.5-0.5-0.6-0.2
		c0,0.1,0,0.2,0,0.3c0,0.1,0,0.1,0,0.2c0,0,0,0.1,0,0.1c-0.7-0.7-1.3-1.4-1.9-2.1c0.3-1.8,0.9-3.6,2-5.4c0.2-0.3-0.3-0.6-0.5-0.3
		c-1,1.7-1.6,3.4-2,5.1c-0.6-0.8-1.2-1.7-1.5-2.7c0.5-2.1,1.2-4.2,2.1-6.2c0.2-0.3-0.4-0.6-0.5-0.3c-0.8,1.8-1.4,3.6-1.9,5.4
		c0-0.2-0.1-0.3-0.1-0.5c0-0.4-0.6-0.4-0.6,0c0.1,0.6,0.2,1.1,0.4,1.6c-0.5,2-0.8,4-0.8,6c-0.1-2.4-0.3-4.8,0.1-7.2
		c0.5-3.2,2.5-6,3.7-9c0.1-0.4-0.4-0.5-0.6-0.2c-1.2,3.2-3.2,6-3.8,9.4c-0.5,3.1,0.1,6.3,0.1,9.4c0,0.3,0.4,0.4,0.6,0.2
		c0,1,0.1,2,0.3,3.1c0.1,0.4,0.6,0.2,0.6-0.2c-0.5-3.2-0.4-6.4,0.1-9.5c0.5,0.8,1.1,1.6,1.7,2.3c-0.2,2.3-0.1,4.6,0.2,7
		c0,0.4,0.6,0.4,0.6,0c-0.2-2.2-0.4-4.3-0.2-6.4c0.7,0.8,1.5,1.7,2.3,2.4c0.2,0.9,0.5,1.7,0.7,2.6c0.6,2.5,0.8,5,1.8,7.4
		c0.1,0.3,0.7,0.2,0.6-0.2c-0.8-2-1.2-4-1.6-6.1c-0.2-1-0.5-2.1-0.8-3.1c0.7,0.7,1.5,1.3,2.2,2c0.6,3.9,2.3,7.4,3.6,11.1
		c0.1,0.4,0.7,0.2,0.6-0.2c-1.3-3.5-2.8-6.8-3.5-10.4c0.3,0.3,0.7,0.6,1,0.8c-0.1,0.1-0.1,0.2,0.1,0.3c2.2,1.9,3.7,4,4.8,6.6
		c0,0.1,0.1,0.2,0.2,0.2c0.1,0.2,0.1,0.3,0.2,0.5c0.9,2.5,2.2,4.7,3.6,7.1c0,0.1,0.1,0.1,0.1,0.2c0.4,1,0.7,1.9,1.1,2.9
		c-0.5-0.4-1.1-0.8-1.8-1.1c-0.1-0.1-0.2,0-0.3,0c-0.8-0.5-1.6-1-2.4-1.5c-0.8-0.5-1.6-0.9-2.4-1.4c-0.5-0.7-0.9-1.5-1.4-2.3
		c-0.2-0.3-0.7,0-0.5,0.3c0.3,0.5,0.5,0.9,0.8,1.3c-1-0.6-1.9-1.2-2.8-1.8c-0.6-1-1.2-2-1.7-3c-0.2-0.3-0.7,0-0.5,0.3
		c0.3,0.5,0.5,1,0.8,1.5c-0.6-0.6-1.2-1.3-1.7-2.1c-0.1-0.1-0.2-0.2-0.3-0.1c-0.5-1.1-1-2.3-1.3-3.5c-0.1-0.4-0.7-0.2-0.6,0.2
		c3.1,9.9,10.6,16.7,17.1,24.3c0.2,0.3,0.7-0.1,0.4-0.4c-5.2-6.1-11-11.6-14.7-18.6c0.6,0.7,1.3,1.3,2,1.9c2.7,4.4,6.2,8.3,9.9,11.9
		c0.3,0.3,0.7-0.2,0.4-0.4c-3.3-3.3-6.4-6.7-9-10.6c0.9,0.6,1.8,1.1,2.7,1.6c1.3,2,2.9,3.9,4.7,5.6c0.3,0.3,0.7-0.2,0.4-0.4
		c-1.5-1.3-2.8-2.9-4-4.5c2.5,1.4,5.5,2.9,7.1,5.4c0.3,1.1,0.5,2.3,0.8,3.4c1.1,4.1,3.6,7.9,6.4,11.2
		C86.4,118.6,84.7,117.6,83.2,116.3 M64.3,61.4c0.8,1.2,1.6,2.5,2.2,3.8c-0.3-0.6-0.7-1.2-1-1.8c0-0.1-0.1-0.1-0.1-0.2
		c0,0-0.1-0.1-0.1-0.1C64.9,62.5,64.6,62,64.3,61.4 M69.6,73.8c0,0,0-0.1,0-0.1c0.4,1,0.8,1.9,1.3,2.9c0.5,1.6,1,3.2,1.6,4.8
		c0.6,1.8,1.3,3.5,2,5.2c0.3,0.9,0.6,1.8,0.9,2.7c0,0,0,0.1,0,0.1c0,0.2,0.1,0.3,0.2,0.3c0.1,0.3,0.2,0.5,0.3,0.8
		c0.4,1.3,0.9,2.6,1.3,4c0.2,0.5,0.3,1,0.5,1.5c0.1,0.3,0.2,0.6,0.3,1c-0.3-0.5-0.6-0.9-0.8-1.4c-0.9-1.6-1.4-3.3-2-4.9
		c-0.3-1-0.7-1.9-1-2.9c0.1-0.1,0.1-0.3-0.1-0.4c0,0-0.1-0.1-0.1-0.1C72.3,82.6,71,78.2,69.6,73.8 M73.3,87.5c0,0-0.1-0.1-0.1-0.1
		C73.3,87.4,73.3,87.4,73.3,87.5C73.3,87.4,73.3,87.5,73.3,87.5 M66.4,81L66.4,81c-0.3-0.2-0.6-0.5-0.9-0.8c0,0,0-0.1,0-0.2
		C65.8,80.4,66.1,80.7,66.4,81 M64.9,79.6c-0.7-0.7-1.4-1.5-2.1-2.3c0,0,0-0.1,0-0.1c0.7,0.8,1.4,1.5,2.1,2.2
		C64.9,79.5,64.9,79.5,64.9,79.6 M62.3,76.7c-0.6-0.8-1.1-1.5-1.6-2.4c0-0.1,0-0.1,0-0.2C61.1,75,61.7,75.8,62.3,76.7
		C62.3,76.6,62.3,76.7,62.3,76.7 M82.6,105.8c0,0.1,0,0.1,0,0.2C82.6,106,82.6,105.9,82.6,105.8C82.6,105.9,82.6,105.9,82.6,105.8
		 M81.9,107.1c1.8,3.8,3.7,7.5,5.8,11.1C85.1,114.9,82.9,111.2,81.9,107.1 M89.9,121.8c0.1,0.1,0.2,0.2,0.3,0.2
		c0.1,0.2,0.1,0.4,0.2,0.6C90.2,122.3,90,122.1,89.9,121.8 M67.9,59.6c-0.1,0.1-0.1,0.4,0,0.5c5.1,3.3,10.4,6.7,14.3,11.5
		c0.2,0.3,0.7-0.1,0.4-0.4c-3.5-4.3-8-7.4-12.6-10.4c7.6,4.1,14.8,9.6,18.2,17.4c-0.1-0.1-0.1-0.2-0.2-0.2c-0.2-0.3-0.7,0-0.5,0.3
		C91,83.1,90.2,90,90,95.7c-0.3,7-1.1,14.1-0.6,21c0,0.4,0.6,0.4,0.6,0c-0.5-7.1,0.3-14.3,0.6-21.4c0.1-1.4,0.2-3,0.2-4.5
		c0.2,3.6,0,7.3,0,10.8c0,6.6,0.5,13.3,0,19.9c-0.3-0.8-0.6-1.5-1-2.2c-0.3-0.6-0.6-1.2-1-1.8c-0.1-0.1-0.2-0.1-0.3-0.1
		c-0.2-0.3-0.4-0.6-0.6-0.8c0.2,0,0.3-0.1,0.3-0.4c-2-7.6,0.6-15.1,0-22.7c0-0.4-0.6-0.4-0.6,0c0.6,7.6-1.9,15-0.1,22.5
		c-0.1-0.2-0.2-0.3-0.3-0.5c-0.3-0.5-0.5-0.9-0.8-1.4c-0.1-0.2-0.3-0.5-0.4-0.7c-0.9-1.7-1.6-3.4-2.4-5.1c0.2,0,0.3-0.2,0.2-0.5
		c-0.6-1.3-0.8-2.6-0.9-4c0-0.1,0-0.1-0.1-0.1c0.5-3.7,1.6-7.2,2.7-10.7c0.3,3,0.1,6-0.2,9c0,0.4,0.6,0.4,0.6,0
		c0.3-3.4,0.6-6.9,0-10.2c0.1-0.2,0.1-0.4,0.2-0.5c1.4-4.2,2.3-9.2-0.5-13.1c-0.2-0.3-0.7,0-0.5,0.3c2.6,3.6,1.8,8,0.6,12.1
		c-0.3-1.1-0.6-2.2-1.2-3.3c-0.2-0.3-0.7,0-0.5,0.3c0.7,1.3,1.1,2.7,1.3,4.2c-0.1,0.4-0.3,0.9-0.4,1.3c-1.2,3.9-2.5,7.8-2.9,11.9
		c-1.5-3.4-2.7-6.9-4-10.4c-0.5-2-1-3.9-1.2-5.9c0-0.2,0.1-0.4,0.1-0.6c0-0.1,0-0.2-0.1-0.3c0-0.6,0.1-1.2,0.2-1.8
		C79,81,82,76.7,81.6,71.4c0-0.4-0.6-0.4-0.6,0c0.3,5.1-2.4,9.1-4.3,13.5c-0.1,0-0.2,0.1-0.2,0.2c0,0.1,0,0.2-0.1,0.4
		c-0.3,0.7-0.6,1.4-0.8,2.2c-0.9-3.3-1.9-6.7-3.1-9.9c-0.1-2,0.6-3.9,1-5.9c0.1-0.3,0.1-0.7,0.1-1c1.5,1,2.9,2,4.3,3.1
		c0.3,0.2,0.7-0.2,0.4-0.4c-1.5-1.2-3.1-2.4-4.7-3.4c0-0.7-0.1-1.5-0.3-2.1c1.8,1,3.6,2.2,5.3,3.3c0.3,0.2,0.6-0.3,0.3-0.5
		c-1.9-1.3-3.9-2.6-6-3.7c-0.4-0.9-1-1.7-1.9-2.4c-0.3-0.3-0.7,0.2-0.4,0.4c0.5,0.4,0.9,0.9,1.2,1.4c0,0-0.1-0.1-0.1-0.1
		c-0.3-0.2-0.6,0.3-0.3,0.5c0.3,0.2,0.7,0.4,1,0.5c0.3,0.7,0.5,1.4,0.5,2.2c-0.8-0.5-1.7-0.9-2.5-1.3c-0.3-0.2-0.6,0.4-0.3,0.5
		c1,0.5,1.9,1,2.8,1.5c0,1-0.2,2-0.5,3.1c-0.2,1-0.4,1.9-0.5,2.9c-0.7-1.8-1.5-3.5-2.4-5.2c-1.6-4.6-3.7-9-6.9-12.7
		c-0.1-0.1-0.1-0.3-0.2-0.4c-0.1-0.3-0.5-0.2-0.6,0c-0.1-0.5-0.2-1-0.4-1.5C63.7,57.5,65.8,58.5,67.9,59.6"/>
	<path class="st1" d="M85.5,77.1c2.3,3.5,2.7,7.4,3,11.5c0,0.4,0.6,0.4,0.6,0c-0.2-4.2-0.7-8.2-3-11.8
		C85.8,76.5,85.2,76.8,85.5,77.1"/>
	<path class="st1" d="M82.7,76.6c1.9,2.6,2.6,5.8,3.3,8.9c0.1,0.4,0.7,0.2,0.6-0.2c-0.7-3.2-1.5-6.3-3.4-9
		C83,76,82.5,76.3,82.7,76.6"/>
	<path class="st1" d="M84.7,84.7c-0.8-2.1-1.4-4.3-2.6-6.2c-0.2-0.3-0.7,0-0.5,0.3c1.2,1.8,1.7,4,2.5,6
		C84.3,85.3,84.9,85.1,84.7,84.7"/>
	<path class="st1" d="M73.8,73.2c1.2,1,2.3,2.1,3.6,3c0.3,0.2,0.7-0.2,0.4-0.4c-1.2-1-2.4-2.1-3.6-3C73.9,72.6,73.5,73,73.8,73.2"/>
	<path class="st1" d="M75.5,77.2c-0.4-0.2-0.8-0.5-1.3-0.6c-0.4-0.1-0.5,0.4-0.2,0.6c0.4,0.1,0.8,0.3,1.2,0.6
		C75.6,77.9,75.8,77.4,75.5,77.2"/>
	<path class="st1" d="M82.3,91.1c0.3,1.3,0.7,2.5,0.8,3.9c0,0.4,0.6,0.4,0.6,0c-0.1-1.4-0.4-2.7-0.8-4
		C82.8,90.6,82.2,90.7,82.3,91.1"/>
</g>
</svg>
