<?xml version="1.0" encoding="utf-8"?>
<!-- Generator: Adobe Illustrator 23.0.0, SVG Export Plug-In . SVG Version: 6.00 Build 0)  -->
<svg version="1.1" id="Layer_1" xmlns="http://www.w3.org/2000/svg" xmlns:xlink="http://www.w3.org/1999/xlink" x="0px" y="0px"
	 viewBox="0 0 86.7 193.3" style="enable-background:new 0 0 86.7 193.3;" xml:space="preserve">
<style type="text/css">
	.st0{clip-path:url(#SVGID_2_);fill:#F4EBD8;}
	.st1{clip-path:url(#SVGID_2_);fill:#E7CEA7;}
</style>
<g>
	<defs>
		<rect id="SVGID_1_" width="86.7" height="193.3"/>
	</defs>
	<clipPath id="SVGID_2_">
		<use xlink:href="#SVGID_1_"  style="overflow:visible;"/>
	</clipPath>
	<path class="st0" d="M36.3,0c1.8,0.5,3.7,0.8,5.6,1.1c0.4,0.1,0.8,0.2,1.2,0.3c1.4,0.3,2.7,0.7,3.9,1.2c3.2,1.4,5.4,4,7,7
		c1.2,2.3,2.1,4.8,3.3,7.1c0.2,0.3,0.4,0.6,0.6,0.9c0.1,0.1,0.2,0.2,0.3,0.3c0.1,0.1,0.1,0.1,0.1,0.2c0,0,0.1,0,0.1,0
		c0.2,0.1,0.3,0.3,0.2,0.5c0.2,0.2,0.4,0.4,0.6,0.6c0.5,0.4,1,0.7,1.5,1.2c0.1,0.1,0.1,0.1,0.1,0.2c0.5,0.4,1,0.8,1.5,1.2
		c0,0,0,0,0.1,0c0.1,0,0.2,0.1,0.2,0.2c2.5,1.8,4.8,3.6,5.5,6.7c0.9,0.2,1.9,0.5,2.8,1c6.2,3.3,9.6,11.2,11.6,17.5
		c2.3,7.5,3.4,15.3,3.8,23.1c0.5,9.4,0.5,18.8-0.4,28.1c-1,9.9-3.1,20-7.3,29.1c-4,8.7-10.2,15.8-16.7,22.7
		c-3.1,3.3-6.3,6.6-9.3,10.1c-2.7,3-5,6.3-7.3,9.6c-1,1.5-2.1,2.9-3.1,4.4c0,0.1,0,0.3-0.1,0.4l-0.3,0.2c-1.3,1.7-2.6,3.5-3.9,5.1
		c-2.1,2.6-4.6,5.7-7.7,7.3c-4.7,2.6-10.6,3.7-15.8,4.8c-3,0.6-6,1.1-9.1,1.2c-1.6,0-3.7,0.1-5.1-0.9c-0.3-0.3,0.1-0.8,0.4-0.5
		c0,0,0,0,0,0c2.9-5.7,9.5-5.8,14.8-7.8c8.3-3.1,11.6-11.8,15.1-19.1c2.3-4.8,4.3-9.6,6.6-14.4c2.2-4.5,4.8-8.6,7.9-12.5
		c3.1-3.9,6.5-7.8,8.5-12.4c1.8-4.3,2.8-8.9,3.3-13.6c0.5-4.9,0.6-9.8,0.5-14.7c-0.1-4.4-0.2-8.9-0.7-13.3c-0.1-1.2-0.3-2.5-0.5-3.7
		c0,0,0-0.1-0.1-0.1c-0.1-0.1,0-0.2,0-0.3c-0.1-0.8-0.3-1.6-0.5-2.4c-0.1,0-0.2-0.1-0.2-0.3c-0.1-0.9-0.3-1.7-0.4-2.6
		c-1.5-6.4-3.4-12.7-4.4-19.1c-0.1-0.4-0.1-0.7-0.2-1.1c-0.4,0.1-0.5-0.5-0.2-0.7c0,0,0.1,0,0.1-0.1c-0.5-3.5-0.8-7.2,0.1-10.5
		c0,0,0-0.1,0-0.1c0.2-0.7,0.4-1.4,0.7-2.1c0.5-1.4,1.2-2.7,2-3.9c-0.1,0-0.2,0-0.3-0.1c-2-3.2-3.4-6.5-3.4-10.3
		c0-3.3,1.1-6.5,1.4-9.7c0.4-4,0.4-8.6-3.1-11.4c-3.1-2.5-7.1-2.1-10.2,0c-0.2,0.1-0.4,0.1-0.5-0.2c-0.1-0.1-0.1-0.3-0.2-0.5
		c-0.1-0.1-0.2-0.2-0.1-0.3c-0.6-1.5-0.9-3-0.7-4.6C35.9,0.1,36.1,0,36.3,0"/>
	<path class="st1" d="M35.9,0.3c-0.2,1.6,0.1,3.1,0.7,4.6c0,0.1,0,0.3,0.1,0.3c0.1,0.2,0.1,0.3,0.2,0.5c0.1,0.2,0.3,0.3,0.5,0.2
		c3.2-2.2,7.1-2.5,10.2,0c3.5,2.7,3.6,7.4,3.1,11.4c-0.3,3.3-1.4,6.4-1.4,9.7c-0.1,3.8,1.4,7.2,3.4,10.3c0.1,0.1,0.2,0.2,0.3,0.1
		c-0.8,1.2-1.5,2.5-2,3.9c-0.3,0.7-0.5,1.3-0.7,2.1c0,0,0,0.1,0,0.1c-0.9,3.3-0.6,7.1-0.1,10.5c0,0-0.1,0-0.1,0.1
		c-0.4,0.2-0.2,0.8,0.2,0.7c0.1,0.4,0.1,0.7,0.2,1.1c1,6.5,2.9,12.8,4.4,19.1c0.1,0.9,0.3,1.7,0.4,2.6c0,0.1,0.1,0.2,0.2,0.3
		c0.2,0.8,0.3,1.6,0.5,2.4c0,0.1-0.1,0.2,0,0.3c0,0,0,0.1,0.1,0.1c0.2,1.2,0.4,2.5,0.5,3.7c0.5,4.4,0.5,8.9,0.7,13.3
		c0.1,4.9,0,9.8-0.5,14.7c-0.5,4.6-1.5,9.2-3.3,13.6c-2,4.6-5.4,8.5-8.5,12.4c-3.1,3.9-5.7,8-7.9,12.5c-2.3,4.7-4.3,9.6-6.6,14.4
		c-3.5,7.3-6.8,16-15.1,19.1c-5.3,2-11.9,2.1-14.8,7.8c0,0,0,0,0,0c-0.3-0.3-0.8,0.3-0.4,0.5c1.4,1,3.5,0.9,5.1,0.9
		c3.1-0.1,6.1-0.6,9.1-1.2c5.2-1,11.1-2.2,15.8-4.8c3-1.6,5.5-4.7,7.7-7.3c1.4-1.7,2.7-3.4,3.9-5.1l0.3-0.2c0.1-0.1,0.2-0.3,0.1-0.4
		c1-1.5,2.1-2.9,3.1-4.4c2.3-3.3,4.7-6.6,7.3-9.6c3-3.4,6.2-6.7,9.3-10.1c6.5-6.9,12.7-14,16.7-22.7c4.2-9.1,6.3-19.1,7.3-29.1
		c1-9.3,0.9-18.8,0.4-28.1c-0.4-7.8-1.4-15.7-3.8-23.1c-2-6.3-5.4-14.2-11.6-17.5c-0.9-0.5-1.9-0.8-2.8-1c-0.6-3.1-3-4.9-5.5-6.7
		c0-0.1-0.1-0.2-0.2-0.2c0,0,0,0-0.1,0c-0.5-0.4-1-0.8-1.5-1.2c0-0.1,0-0.1-0.1-0.2c-0.5-0.5-0.9-0.8-1.5-1.2
		c-0.2-0.2-0.4-0.4-0.6-0.6c0.1-0.2,0-0.4-0.2-0.5c-0.1,0-0.1,0-0.1,0c0-0.1,0-0.1-0.1-0.2c-0.1-0.1-0.2-0.2-0.3-0.3
		c-0.2-0.3-0.4-0.6-0.6-0.9c-1.2-2.3-2.1-4.8-3.3-7.1c-1.6-3-3.8-5.7-7-7c-1.3-0.5-2.6-0.9-3.9-1.2c-0.4-0.1-0.8-0.2-1.2-0.3
		C40,0.8,38.1,0.5,36.3,0C36.1,0,35.9,0.1,35.9,0.3 M51.6,11.1c0.1,0,0.1,0,0.2,0c0.1,0.1,0.1,0.2,0.2,0.4c0,0.1,0.1,0.1,0.2,0.2
		l0,0c0,0-0.1,0-0.1,0.1c-0.1,0-0.1,0.1-0.1,0.1C51.9,11.6,51.7,11.4,51.6,11.1 M52.4,12.4c0,0,0.1,0,0.2-0.1
		c0.2,0.4,0.4,0.8,0.6,1.3c-0.1,0-0.1,0.1-0.1,0.2c-0.3-0.4-0.5-0.9-0.8-1.3C52.3,12.4,52.3,12.4,52.4,12.4 M53.2,17.1
		c0.2,0.4,0.5,0.9,0.7,1.3c-0.1,0.1-0.2,0.1-0.4,0.2c-0.2-0.4-0.4-0.8-0.6-1.2C53.1,17.3,53.2,17.2,53.2,17.1 M51.5,17.2
		c0.1,0.9,0.2,1.9,0.3,2.8c0,0,0,0,0,0c-0.4,1.1-0.8,2.1-1.2,3.2C50.8,21.3,51.2,19.3,51.5,17.2 M61.7,30.5c0.8-0.3,1.5-0.6,2.3-0.8
		c1.8,0.2,3.4,0.7,4.8,1.5c-0.2-0.1-0.4-0.1-0.5-0.2C66,29.9,63.9,30,61.7,30.5 M56.2,30.2c-0.1,0-0.3,0.1-0.4,0.1
		c-0.1-0.1-0.1-0.2-0.2-0.2c0.2-0.2,0.5-0.4,0.7-0.5c0.3,0.4,0.6,0.8,0.9,1.3c-0.2,0.1-0.3,0.3-0.5,0.5c-0.2-0.1-0.3-0.3-0.4-0.4
		C56.7,30.8,56.6,30.1,56.2,30.2 M55.9,29c-0.3,0.2-0.5,0.4-0.8,0.6c-0.1-0.1-0.2-0.3-0.2-0.4c0.3-0.2,0.5-0.3,0.8-0.5
		C55.8,28.8,55.9,28.9,55.9,29 M57.6,29c0.2,0.4,0.3,0.8,0.5,1.2c-0.1,0.1-0.3,0.2-0.4,0.3c-0.3-0.4-0.6-0.8-0.8-1.1
		C57.1,29.2,57.3,29.1,57.6,29 M58.2,31.5c0.5-0.3,1-0.5,1.6-0.7c-0.3,0.2-0.6,0.4-1,0.6c-0.3,0.1-0.7,0.3-1,0.4
		c-0.1,0-0.2,0.1-0.2,0.2c0,0-0.1,0-0.1-0.1c0.2-0.1,0.3-0.2,0.5-0.3C58.1,31.6,58.2,31.6,58.2,31.5 M65.5,32
		c0.6,0.1,1.1,0.3,1.7,0.4c-0.3,0-0.5-0.1-0.8-0.1C66.1,32.2,65.8,32.1,65.5,32 M62.6,31.1c1.7-0.2,3.4-0.1,5.1,0.4
		c0.2,0.1,0.4,0.2,0.6,0.3c1,0.5,1.9,1.1,2.7,1.8C68.6,31.9,65.6,31,62.6,31.1 M58.7,29.8c-0.2-0.3-0.3-0.7-0.5-1
		c0.4-0.1,0.8-0.2,1.3-0.3c0.1,0.3,0.2,0.5,0.4,0.8C59.4,29.4,59,29.6,58.7,29.8 M57.3,28.4c-0.3,0.1-0.5,0.2-0.8,0.3
		c-0.1-0.1-0.1-0.2-0.2-0.3c0.3-0.1,0.5-0.2,0.8-0.4C57.2,28.1,57.2,28.3,57.3,28.4 M55.4,28.1c-0.3,0.2-0.6,0.3-0.8,0.5
		c-0.1-0.3-0.3-0.5-0.4-0.8c0.1,0,0.1,0,0.2,0c0.2-0.1,0.4-0.2,0.7-0.3C55.2,27.7,55.3,27.9,55.4,28.1 M53.1,24C53,24,53,24,53.1,24
		c-0.1-0.2-0.2-0.5-0.2-0.8c0,0,0,0,0,0c0.1-0.1,0.2-0.1,0.3-0.1c0.1,0.3,0.2,0.7,0.3,1c0,0,0,0.1-0.1,0.1C53.3,24,53.2,24,53.1,24
		 M52.3,24.4c-0.4,0.2-0.7,0.5-0.9,0.8c0.3-0.6,0.5-1.1,0.8-1.7C52.2,23.8,52.3,24.1,52.3,24.4 M53.3,25c0.1-0.1,0.3-0.2,0.5-0.3
		c0.1,0.2,0.2,0.4,0.3,0.7c-0.1,0-0.2,0.1-0.3,0.1c-0.4,0.2-0.2,0.8,0.2,0.6c0.1,0,0.2-0.1,0.3-0.1c0.1,0.3,0.3,0.6,0.4,0.9
		c-0.2,0.1-0.4,0.2-0.6,0.3c-0.1,0.1-0.1,0.1-0.2,0.2C53.6,26.6,53.4,25.9,53.3,25C53.2,25.1,53.3,25.1,53.3,25 M56.6,26.8
		c0.1,0.2,0.2,0.4,0.3,0.6c-0.3,0.1-0.6,0.2-0.9,0.4c-0.1-0.2-0.2-0.4-0.3-0.6C56,27.1,56.3,27,56.6,26.8 M57.8,27.8
		c0.4-0.1,0.8-0.3,1.1-0.4c0.1,0.2,0.2,0.3,0.3,0.5c-0.4,0.1-0.8,0.2-1.2,0.3C57.9,28,57.8,27.9,57.8,27.8 M57.5,27.2
		c-0.1-0.2-0.2-0.4-0.2-0.6c0.4-0.1,0.7-0.2,1.1-0.3c0.1,0.2,0.2,0.3,0.3,0.5C58.2,26.9,57.8,27,57.5,27.2 M56.3,26.2
		c-0.3,0.1-0.7,0.3-1,0.4c-0.1-0.3-0.3-0.6-0.4-0.8c0.3-0.1,0.7-0.3,1-0.4C56.1,25.7,56.2,25.9,56.3,26.2 M56.6,25.2
		c0.3-0.1,0.7-0.2,1-0.3c0.2,0.3,0.3,0.5,0.4,0.8c-0.4,0.1-0.7,0.2-1,0.3C56.8,25.7,56.7,25.4,56.6,25.2 M55.7,24.8
		c-0.3,0.1-0.7,0.2-1,0.4c-0.1-0.3-0.2-0.5-0.3-0.8c0.3-0.2,0.6-0.3,1-0.4C55.4,24.2,55.6,24.5,55.7,24.8 M55.9,23.7
		c0.3-0.1,0.6-0.2,0.9-0.3c0.1,0.3,0.3,0.5,0.4,0.8c-0.3,0.1-0.6,0.2-0.9,0.3C56.2,24.3,56.1,24,55.9,23.7 M55,23.3
		c-0.3,0.1-0.6,0.3-0.9,0.4c-0.1-0.3-0.2-0.6-0.3-0.9c0.3-0.1,0.6-0.2,0.9-0.3C54.8,22.8,54.9,23.1,55,23.3 M55.3,22.4
		c0.3-0.1,0.5-0.1,0.8-0.2c0.1,0.2,0.3,0.5,0.4,0.7c-0.3,0.1-0.6,0.1-0.8,0.2C55.6,22.9,55.5,22.6,55.3,22.4 M54.4,21.9
		c-0.3,0.1-0.5,0.2-0.8,0.2c-0.1-0.4-0.2-0.7-0.3-1.1c0.2-0.1,0.4-0.2,0.6-0.2C54.1,21.2,54.2,21.6,54.4,21.9 M54.5,20.6
		c0.2-0.1,0.4-0.1,0.5-0.2c0.2,0.4,0.4,0.8,0.7,1.2c-0.2,0.1-0.5,0.1-0.7,0.2C54.9,21.3,54.7,21,54.5,20.6 M53.6,20.2
		c-0.1,0.1-0.3,0.1-0.4,0.2c-0.1-0.3-0.1-0.6-0.1-0.9c0.1,0,0.1,0,0.2-0.1C53.4,19.7,53.5,19.9,53.6,20.2 M53.9,19.2
		c0.1-0.1,0.3-0.1,0.4-0.2c0.2,0.3,0.3,0.5,0.4,0.8c-0.2,0.1-0.3,0.1-0.5,0.2L53.9,19.2z M50.3,24.8c0.2,0.1,0.4,0.1,0.4-0.2
		c0.4-1.1,0.8-2.1,1.2-3.2c0,0.3,0.1,0.6,0.1,0.9c-0.6,1.2-1.1,2.4-1.8,3.7c-0.1,0.2,0.1,0.4,0.3,0.5c-0.1,0.3-0.3,0.5-0.4,0.8
		C50.1,26.5,50.2,25.7,50.3,24.8 M51.1,32.3c0.1,0,0.2,0,0.3-0.1c0.9-0.9,1.7-1.8,2.5-2.8c0.3-0.3-0.2-0.8-0.5-0.4
		c-0.8,1-1.6,1.9-2.5,2.8c-0.1-0.5-0.3-0.9-0.4-1.4c0.1,0,0.2,0,0.3-0.1c0.8-0.8,1.4-1.8,2.3-2.6c0.3-0.3-0.2-0.7-0.5-0.4
		c-0.8,0.8-1.4,1.7-2.2,2.5c-0.1-0.6-0.2-1.1-0.2-1.7c0.1,0.1,0.2,0.1,0.3,0l0,0c0,0,0,0,0-0.1c0.2-0.2,0.3-0.4,0.5-0.5
		c0.2-0.2,0.1-0.4,0-0.5c0.4-0.7,0.8-1.4,1.4-1.8c0.4,1.8,1.1,3.5,2.2,5c-0.1,0.1-0.2,0.2-0.3,0.3c-0.2,0.2,0,0.5,0.2,0.5
		c-1.1,0.7-2,1.7-2.5,3.1c-0.1,0.4,0.5,0.7,0.6,0.3c0.5-1.4,1.4-2.5,2.8-3.1c0.3,0.3,0.5,0.6,0.8,0.8c-0.3,0.2-0.6,0.5-0.8,0.8
		c-1.3,0.7-2.3,1.8-2.8,3.2C52.1,34.7,51.6,33.5,51.1,32.3 M57.1,32.8c-0.8,0.7-1.6,1.5-2.3,2.3c0,0,0,0,0,0
		c0.3-0.7,0.7-1.3,1.1-1.8C56.3,33,56.7,32.9,57.1,32.8 M53.3,36.8c0,0,0-0.1-0.1-0.1c0.2-0.8,0.5-1.5,1-2.1
		c-0.2,0.4-0.3,0.7-0.4,1.1c0,0.2,0,0.3,0.2,0.3C53.8,36.3,53.6,36.6,53.3,36.8C53.4,36.9,53.4,36.8,53.3,36.8 M55.5,35.3
		c0.1,0,0.1,0,0.2-0.1c0.2-0.3,0.5-0.5,0.7-0.8c0,0,0,0,0.1,0c2.1-1.8,4.5-2.8,7.3-2.3c0.4,0.1,0.8,0.2,1.2,0.3
		c-2.2,0.1-4.5,0.8-6.5,2c-0.3,0.1-0.7,0.2-1,0.3c-0.2,0.1-0.2,0.2-0.2,0.4c-0.3,0.1-0.7,0.3-1.1,0.5c-0.2,0.1-0.2,0.4,0,0.5
		c-0.4,0.4-0.8,0.7-1.1,1.1C55,37.3,55,37.4,55,37.5c-0.3,0.3-0.6,0.6-0.9,0.9c-0.1,0-0.2,0-0.2,0c-0.4,0.2-0.7,0.4-1,0.7
		C53.6,37.7,54.5,36.5,55.5,35.3 M68.5,33.5c0.9,0.3,1.8,0.7,2.7,1.2c-0.5-0.3-1.1-0.5-1.6-0.7C69.3,33.8,68.9,33.6,68.5,33.5
		 M68.8,35.3c0.1,0.2,0.2,0.4,0.3,0.6c-0.7-0.4-1.4-0.7-2.2-1c-0.1-0.2-0.3-0.3-0.4-0.5C67.3,34.6,68.1,34.9,68.8,35.3 M71.7,35.7
		c0.4,0.2,0.8,0.5,1.3,0.8c0,0.1,0.1,0.2,0.1,0.3c-0.4-0.3-0.9-0.6-1.3-0.8C71.8,35.8,71.7,35.7,71.7,35.7 M70.2,35.1
		c0,0-0.1-0.1-0.1-0.1c0,0,0.1,0,0.1,0c0.2,0.1,0.4,0.2,0.7,0.3c0,0.1,0,0.1,0.1,0.2C70.7,35.3,70.5,35.2,70.2,35.1 M66,34.8
		c-0.1,0.1-0.1,0.2-0.1,0.3c-0.2-0.1-0.5-0.2-0.8-0.3c-0.1-0.1-0.2-0.3-0.3-0.4c-0.2-0.3-0.6-0.1-0.6,0.2c-0.4-0.1-0.8-0.2-1.2-0.3
		c0.9-0.2,1.7-0.3,2.6-0.3c0,0,0,0,0,0.1C65.7,34.4,65.8,34.6,66,34.8 M51.7,52.4c0-0.3-0.1-0.6-0.1-0.9c0.1,0.3,0.2,0.7,0.3,1
		C51.8,52.4,51.8,52.4,51.7,52.4 M51.8,49.6c0-0.1-0.1-0.2-0.2-0.2c0-1,0-2,0.1-3.1c0-0.4-0.6-0.5-0.7-0.1c-0.1,1.6-0.2,3.2-0.1,4.8
		c-0.2-1.7-0.4-3.7-0.3-5.6c0.1-1,0.3-1.9,0.6-2.9c0.1-0.3,0.2-0.7,0.4-1c0.3-0.6,0.7-1.2,1.3-1.6c-0.6,0.9-1.1,1.9-1.4,3
		c-0.1,0.4,0.6,0.5,0.7,0.1c0.5-2,1.6-3.5,3-4.8c0.1,0.1,0.3,0.2,0.4,0c1.1-1,2.3-2,3.5-2.7c0.1,0.2,0.3,0.3,0.5,0.2
		c0.5-0.3,1-0.5,1.5-0.7c1.2,0,2.4,0.2,3.5,0.5c0.2,0.4,0.5,0.7,0.7,1.1c-0.2,0-0.3,0-0.5,0.1c-1.6-0.6-3.3-0.9-5.1-0.3
		c-2.9,1-4.7,4.1-5.8,6.7c-0.2,0.4,0.5,0.7,0.6,0.3c0,0,0-0.1,0-0.1c0.1,0,0.3,0,0.3-0.2c1.9-3.7,5.9-6.5,10.1-4.7
		c-0.6,0-1.2,0.1-1.8,0.1c-0.4,0-0.4,0.7,0.1,0.7c1.2-0.1,2.4-0.2,3.6-0.2c0.1,0.1,0.1,0.3,0.2,0.4c-0.2,0.1-0.3,0.3-0.1,0.5
		c0.1,0.1,0.2,0.3,0.4,0.4c-0.2,0.1-0.3,0.2-0.2,0.4c0,0.1,0.1,0.3,0.1,0.4c-1,0.1-2,0.2-2.9,0.3c-0.4,0.1-0.4,0.7,0.1,0.7
		c0.7-0.1,1.3-0.2,2-0.2c0.3,0.6,0.5,1.2,0.8,1.8c-0.1,0-0.2,0-0.4,0c-0.1-0.4-0.2-0.8-0.3-1.1c-0.1-0.4-0.8-0.2-0.6,0.2
		c0.1,0.3,0.2,0.6,0.3,0.9c-0.5,0-1,0-1.5-0.1c-0.1,0-0.2,0-0.3,0.1c-0.7-0.6-1.5-1.1-2.5-1.3c-2.1-0.6-4,0.8-5.4,2.2
		c0-0.1-0.1-0.2-0.2-0.3c1.8-2.4,4.3-3.9,7.5-3.4c0.4,0.1,0.5-0.6,0.1-0.7c-3.9-0.6-6.9,1.5-8.9,4.8c-0.2,0.4,0.4,0.7,0.6,0.3
		c0.1-0.2,0.2-0.3,0.3-0.5C55.8,45,55.9,45,56,45c-0.1,0.3,0.3,0.6,0.6,0.3c1.3-1.3,2.8-2.4,4.7-2.2c-1.9,0.8-3.5,1.8-4.5,3.4
		c-0.4-0.3-0.8-0.5-1.3-0.8c-0.4-0.2-0.7,0.4-0.3,0.6c0.4,0.2,0.8,0.5,1.2,0.7c-0.3,0.5-0.5,1.1-0.7,1.7c-0.2,0.1-0.3,0.2-0.2,0.4
		c0,0,0,0.1,0.1,0.2c0,0.2-0.1,0.4-0.1,0.6c0,0.3,0.2,0.4,0.4,0.4c0.1,0.2,0.2,0.5,0.3,0.7c-0.4,0.1-0.9,0.3-1.3,0.5
		c-0.5-1.7-0.8-3.4-0.5-5.2c0-0.4-0.6-0.6-0.7-0.1c-0.2,1.9,0.1,3.8,0.6,5.6c-0.1,0-0.1,0.1-0.2,0.1c-0.7-3.5-0.9-7.1,0.1-10.5
		c0.1-0.4-0.5-0.7-0.6-0.3c-1.2,3.7-0.8,7.4-0.1,11.1c-0.3,0.1-0.5,0.3-0.8,0.4C52.3,51.5,52.1,50.5,51.8,49.6 M65.8,35.8
		c0.3,0.2,0.7,0.3,1,0.5c-0.2,0-0.4,0.1-0.7,0.1C66,36.2,65.9,36,65.8,35.8 M71.3,40.7c0,0.1,0,0.1,0.1,0.2c-0.3,0-0.6,0-1,0
		c-0.8-0.4-1.7-0.8-2.5-1.2c-0.1-0.2-0.2-0.5-0.4-0.7c0.1,0,0.2,0,0.3,0c0.4,0.2,0.8,0.4,1.3,0.6C69.8,39.9,70.5,40.3,71.3,40.7
		 M71.4,39.3c0.2,0.1,0.4,0.2,0.6,0.3c0,0.2,0.1,0.4,0.1,0.5c-0.2-0.1-0.3-0.1-0.5-0.2C71.6,39.8,71.5,39.5,71.4,39.3 M73,40.6
		c0-0.2-0.1-0.3-0.1-0.5c0.5,0.3,1,0.6,1.5,1c-0.2,0-0.5-0.1-0.7-0.1C73.5,40.9,73.2,40.7,73,40.6 M73.1,39.5
		c0.4,0.1,0.7,0.2,1.1,0.4c0.1,0.1,0.2,0.1,0.3,0.2l0,0c0.1,0.2,0.1,0.3,0.2,0.5C74.2,40.2,73.7,39.8,73.1,39.5 M70.8,39.5
		c-0.4-0.2-0.9-0.4-1.3-0.6c0.4,0,0.7,0,1.1,0.1C70.6,39.2,70.7,39.4,70.8,39.5 M65.6,38.4c0.1-0.2,0.1-0.4-0.1-0.5
		c-0.5-0.2-0.9-0.4-1.4-0.5c0.3,0,0.5-0.1,0.8-0.1c0.5,0.2,0.9,0.5,1.4,0.7c0.1,0.1,0.1,0.2,0.2,0.3C66.2,38.3,65.9,38.3,65.6,38.4
		 M60.2,37.5c-1.4,0.4-2.7,1.3-3.7,2.3c0.8-1.1,1.9-2.1,3.2-2.7c1.2-0.6,2.4-0.6,3.7-0.3c-1,0.1-1.9,0.2-2.9,0.3
		C60.2,37.1,60.1,37.3,60.2,37.5 M67.4,37.9c-0.2-0.1-0.4-0.3-0.6-0.4c-0.1-0.1-0.2-0.3-0.2-0.4c0.4,0,0.7-0.1,1.1-0.1
		c0.4,0.3,0.8,0.6,1.3,0.9c0.1,0.1,0.3,0.3,0.4,0.4c-0.4,0-0.8,0-1.2,0C67.9,38.2,67.6,38.1,67.4,37.9 M72.3,37.9
		c0-0.1-0.1-0.2-0.1-0.3c0.5,0.3,1.1,0.6,1.7,0.9c0.1,0.2,0.2,0.4,0.3,0.6C73.5,38.7,72.9,38.3,72.3,37.9 M73.3,41.6L73.3,41.6
		c0.2,0,0.3,0.1,0.4,0.1c0.5,0.3,1,0.7,1.4,1.1c-0.6-0.2-1.1-0.4-1.7-0.6C73.4,42,73.3,41.8,73.3,41.6 M67.8,41L67.8,41L67.8,41
		C67.8,41,67.8,41,67.8,41 M70.3,43.2c-0.2,0-0.5,0.1-0.7,0.1c-0.2-0.5-0.4-1-0.6-1.4C69.4,42.3,69.8,42.8,70.3,43.2 M73.6,43
		c0.7,0.3,1.5,0.5,2.3,0.7c0,0.1,0,0.1,0.1,0.2c-0.8-0.2-1.5-0.4-2.3-0.6C73.6,43.2,73.6,43.1,73.6,43 M68.8,43.3
		c-0.1-0.1-0.3-0.1-0.4,0c-0.1-0.5-0.3-1-0.4-1.6c0,0,0.1,0,0.1,0C68.4,42.2,68.6,42.7,68.8,43.3 M76.6,46.1c0.3,1,0.5,1.9,0.7,2.9
		c-1-1.1-2-2.1-3.1-3.1c0-0.2-0.1-0.3-0.1-0.5c0.5,0.1,1,0.2,1.5,0.3c0.2,0.1,0.4,0.3,0.6,0.4C76.4,46.2,76.5,46.2,76.6,46.1
		 M78.2,53.5c0.1,0.6,0.2,1.2,0.3,1.8c-0.1-0.1-0.3-0.2-0.4-0.3c-0.1-0.6-0.2-1.1-0.4-1.7c0.1,0.1,0.2,0.1,0.3,0.2
		C78,53.5,78.1,53.5,78.2,53.5 M80.3,90.9c-0.5-0.1-1-0.1-1.5-0.2c0-0.2,0-0.4,0-0.5c0,0,0,0,0,0c0.3,0.2,0.6-0.1,0.5-0.4
		c-0.1-0.5-0.3-0.9-0.5-1.4c0-0.4,0-0.8,0-1.1c0.5,0.1,1.1,0.2,1.6,0.3C80.5,88.7,80.4,89.8,80.3,90.9 M81.2,87.7
		c0.3,0.1,0.7,0.1,1,0.2c0,1.1-0.1,2.2-0.1,3.2c-0.4,0-0.7-0.1-1.1-0.1C81.1,89.8,81.1,88.8,81.2,87.7 M76.7,88c0,0.3,0,0.6,0,1
		c-0.2-0.5-0.5-1.1-0.7-1.6C76.2,87.6,76.5,87.8,76.7,88 M77.4,87.1C77.4,87.1,77.4,87.1,77.4,87.1c0.1,0.3,0.1,0.6,0.1,0.8
		c0,0-0.1-0.1-0.1-0.1C77.4,87.5,77.4,87.3,77.4,87.1 M78.2,88.5C78.2,88.5,78.2,88.5,78.2,88.5L78.2,88.5
		C78.2,88.6,78.2,88.6,78.2,88.5C78.2,88.5,78.2,88.5,78.2,88.5 M77.3,88.7c0,0.1,0.1,0.1,0.2,0.2c0,0.2,0,0.4,0,0.5
		c0,0.4,0,0.8,0,1.2c0,0-0.1,0-0.1,0c-0.1-0.1-0.1-0.2-0.2-0.3C77.3,89.7,77.3,89.2,77.3,88.7 M78.2,89.5
		C78.2,89.5,78.2,89.5,78.2,89.5c0,0.2,0,0.3,0,0.5C78.2,89.8,78.2,89.7,78.2,89.5 M76.7,87.1c-0.1-0.1-0.2-0.2-0.4-0.4
		c0.1,0,0.3,0,0.4,0.1C76.7,86.9,76.7,87.1,76.7,87.1 M76.4,90c-0.4-0.4-0.8-0.8-1.2-1.2c0,0-0.1,0-0.1,0c0-0.8,0-1.5-0.1-2.3
		c0,0,0.1,0,0.1,0C75.3,87.7,75.8,88.9,76.4,90 M74.4,90.2c-0.1,0-0.1,0-0.2,0c-0.1-1.3-0.1-2.6-0.2-4c0.1,0,0.2,0.1,0.3,0.1
		C74.3,87.6,74.4,88.9,74.4,90.2 M73.5,90.1c-0.7-0.1-1.3-0.1-2-0.3c0,0-0.1,0-0.1,0c0.1-1.4,0.2-2.8,0.3-4.2c0.5,0.1,1,0.3,1.5,0.4
		C73.4,87.4,73.5,88.7,73.5,90.1 M70,96.2c-0.1,0-0.3,0-0.4,0c0.2-5.5,0.1-11,0-16.4c0,0,0,0,0,0c0.6,0.1,1.2,0.2,1.8,0.3
		c0,0.7-0.1,1.4-0.1,2.1c-0.1-0.1-0.2-0.1-0.3-0.2c-0.4-0.2-0.7,0.4-0.3,0.6c0.2,0.1,0.4,0.2,0.6,0.3c0,0.6-0.1,1.2-0.1,1.8
		c-0.2-0.1-0.5-0.2-0.7-0.2c-0.4-0.1-0.7,0.5-0.3,0.6c0.3,0.1,0.7,0.2,1,0.3C70.9,89,70.5,92.6,70,96.2 M80.5,95.6
		c0.2-1.3,0.3-2.7,0.4-4c0.4,0.1,0.7,0.1,1.1,0.2c0,1.3-0.1,2.5-0.1,3.8c0,0.1,0,0.2,0,0.2l-1.2-0.2C80.6,95.6,80.6,95.6,80.5,95.6
		 M79.5,98.1c0,0-0.1,0-0.1,0c-0.4,0-0.5,0.6-0.1,0.7c0,0,0.1,0,0.1,0c-0.1,0.8-0.3,1.5-0.4,2.3c-0.2,0-0.5,0.1-0.7,0.1
		c0.1-1.7,0.3-3.4,0.3-5.1c0.1,0,0.3,0.1,0.4,0.1c0.4,0.1,0.5-0.6,0.1-0.7c-0.2,0-0.3-0.1-0.5-0.1c0-0.6,0.1-1.2,0.1-1.8
		c0.1-0.1,0.1-0.2,0.1-0.3c0,0,0-0.1,0-0.1c0-0.6,0.1-1.2,0.1-1.8c0.5,0,1,0.1,1.4,0.2C80.1,93.7,79.8,95.9,79.5,98.1 M80.5,96.2
		c0,0,0.1,0,0.1,0.1l1.3,0.2c0,0.6,0,1.2,0,1.9c-0.6-0.1-1.1-0.1-1.7-0.2C80.3,97.5,80.4,96.9,80.5,96.2 M81.9,99
		c0,0.6-0.1,1.2-0.1,1.8c-0.7,0.1-1.4,0.1-2,0.2c0.1-0.7,0.3-1.5,0.4-2.2C80.7,98.9,81.3,99,81.9,99 M80.7,108
		c-1.2,0.5-2.4,0.8-3.6,1.2c0.4-1.2,0.7-2.3,1.1-3.5c1-0.1,2-0.4,3-0.7c-0.2,0.8-0.5,1.7-0.8,2.5C80.2,107.8,80.4,108,80.7,108
		 M67.4,134.8c-0.3,0.1-0.6,0.3-0.9,0.4c-0.4,0.2-0.2,0.8,0.2,0.6c0.1,0,0.1,0,0.1-0.1c-0.1,0.2-0.3,0.5-0.4,0.7
		c-0.1,0.2,0,0.4,0.2,0.4c-0.1,0.2-0.2,0.3-0.3,0.5c-0.3,0.1-0.6,0.1-0.9,0.1c-0.4,0-0.4,0.7,0.1,0.7c0.1,0,0.2,0,0.4,0
		c-0.5,0.8-0.9,1.6-1.4,2.4c-1,1.1-2,2.2-3,3.3c0-0.1-0.1-0.1-0.2-0.1c-0.2-0.1-0.3-0.1-0.5-0.2c0.1-0.1,0.2-0.3,0.3-0.4
		c0.1,0,0.2,0,0.2-0.1c0.4-0.5,0.7-1,1-1.5l0.5,0.1c0.4,0.1,0.5-0.6,0.1-0.7l-0.2,0c2.5-3.8,4.6-7.8,6.6-11.8c0.3,0,0.5,0,0.8,0
		c0.4,0,0.4-0.7-0.1-0.7c-0.1,0-0.3,0-0.4,0c0.4-0.8,0.7-1.5,1.1-2.3c0.4,0,0.8,0.1,1.2,0.1c-0.8,1.9-1.8,3.7-2.7,5.5
		c-0.3,0-0.6,0.1-0.9,0.1c-0.4,0-0.4,0.7,0.1,0.7c0.2,0,0.3,0,0.5,0C68.3,133,67.9,133.9,67.4,134.8 M69.8,134.4
		c-0.4,0.7-0.7,1.5-1.1,2.2c-0.5,0.2-1,0.4-1.5,0.6c0.4-0.7,0.8-1.4,1.1-2.1C68.8,134.9,69.3,134.6,69.8,134.4 M68.2,137.5
		c-0.3,0.6-0.7,1.2-1,1.8c-0.4,0.3-0.9,0.5-1.3,0.7c0.3-0.3,0.5-0.6,0.8-0.9c0.2-0.2,0-0.5-0.2-0.5c0.1-0.2,0.2-0.4,0.4-0.6
		C67.2,137.9,67.7,137.7,68.2,137.5 M66.4,140.5c-0.3,0.5-0.6,0.9-0.9,1.4l-1.6,1c0.3-0.5,0.6-1,1-1.5
		C65.3,141.1,65.9,140.8,66.4,140.5 M53.1,151.2c-0.5-0.1-0.9-0.2-1.4-0.3c0-0.1,0.1-0.1,0.1-0.2c0.1-0.2,0-0.4-0.2-0.4
		c0,0,0-0.1,0-0.1c0.2-0.3,0.4-0.6,0.6-0.9c0.6,0.2,1.2,0.3,1.9,0.5C53.7,150.2,53.4,150.7,53.1,151.2 M55.9,150
		c-0.2,0.2-0.4,0.4-0.6,0.7c-0.2,0.3-0.4,0.5-0.7,0.8l-0.3-0.1c0.4-0.5,0.7-1,1.1-1.5C55.5,149.9,55.7,150,55.9,150 M50.9,150
		c-0.1,0.2-0.3,0.4-0.4,0.6c-0.2-0.1-0.4-0.1-0.7-0.2c-0.4-0.1-0.5,0.6-0.1,0.7l0.4,0.1c-0.5,0.7-0.9,1.5-1.4,2.2
		c-0.4-0.1-0.8-0.3-1.1-0.6c1-1.4,1.9-2.8,2.8-4.2c0.1,0,0.3,0.1,0.4,0.1C50.8,149.2,50.8,149.6,50.9,150 M50.8,156.5
		c-0.1,0-0.2,0-0.2,0c0.1-0.2,0.2-0.3,0.3-0.5c0.4-0.6,0.8-1.1,1.3-1.7c0.1,0,0.1,0,0.2,0c0.3,0,0.4-0.4,0.2-0.6
		c0.4-0.6,0.8-1.1,1.3-1.7l0.3,0c-0.8,1-1.5,2-2.2,3c-0.1,0-0.1,0-0.2,0c-0.3,0-0.4,0.4-0.2,0.6c-0.2,0.3-0.3,0.6-0.5,0.8
		C51,156.5,50.9,156.4,50.8,156.5 M49.6,156.5c-0.5,0-0.9-0.1-1.4-0.1c0.4-0.7,0.9-1.4,1.3-2.1c0.5,0.1,1,0.1,1.5,0.1
		c-0.3,0.4-0.6,0.9-0.9,1.3C50,156,49.8,156.3,49.6,156.5 M51.5,153.7c-0.5,0-1,0-1.5,0c0.5-0.7,0.9-1.5,1.3-2.2
		c0.5,0.1,0.9,0.2,1.4,0.3C52.3,152.4,51.9,153.1,51.5,153.7 M37.7,166.5c-0.2,0.4,0.4,0.6,0.6,0.3c2.9-4.5,5.9-9,8.9-13.4
		c0.3,0.3,0.7,0.5,1.1,0.6c-0.5,0.7-0.9,1.4-1.4,2.1c-0.2-0.1-0.4-0.1-0.5-0.2c-0.4-0.1-0.7,0.5-0.3,0.6c0.1,0.1,0.3,0.1,0.4,0.2
		c-0.3,0.4-0.5,0.8-0.8,1.2c-0.2-0.1-0.5-0.2-0.7-0.3c-0.4-0.2-0.7,0.4-0.3,0.6c0.2,0.1,0.4,0.2,0.6,0.2c-0.4,0.7-0.9,1.4-1.3,2.1
		c0,0,0,0.1,0,0.1c-0.1,0-0.2,0-0.4,0c-0.4-0.1-0.5,0.6-0.1,0.7c0.2,0,0.4,0,0.5,0c-0.5,0.8-1.1,1.5-1.6,2.3c-0.1,0-0.1-0.1-0.2-0.1
		c-0.4-0.2-0.7,0.4-0.3,0.6c0,0,0.1,0,0.1,0c-0.3,0.4-0.5,0.7-0.8,1.1c-0.2,0-0.3,0.2-0.3,0.4c-0.4,0.5-0.8,1-1.1,1.4
		c-0.2,0-0.4,0.2-0.3,0.4c-0.4,0.5-0.7,0.9-1.1,1.4c-0.9-0.4-1.7-0.9-2.2-1.7c1.9-2,3.3-4.5,4.6-6.9c2-3.7,3.3-7.9,5.7-11.4
		c0.9-1.3,4.6-5.9,5.8-9.4c0,0.3,0.4,0.5,0.6,0.3c2.8-3.3,4.8-7.3,6.2-11.4c1,0.8,2,1.5,3.1,2.1c-0.2,0.3-0.3,0.6-0.5,0.9
		c-0.3-0.2-0.6-0.5-0.8-0.9c-0.2-0.4-0.8,0-0.6,0.4c0.3,0.5,0.6,0.8,1,1.1c-1.6,3.2-3.3,6.3-5.1,9.4c0,0.1,0,0.1,0,0.2
		c-0.1,0.2-0.2,0.3-0.3,0.5c-0.2-0.1-0.5-0.2-0.7-0.3c1.2-1.8,2.4-3.5,3.5-5.3c0.2-0.4-0.3-0.8-0.5-0.4c-2,3.2-4.2,6.3-6.3,9.4
		c0,0,0,0,0,0c-0.3-0.2-0.6,0.3-0.3,0.6C46.9,152.6,42.2,159.5,37.7,166.5 M50.1,157.2c0.2,0,0.4,0,0.5,0c-0.2,0.3-0.4,0.6-0.6,1
		c-0.3,0.1-0.6,0.3-0.8,0.4L50.1,157.2z M48.2,158.4c-0.4-0.1-0.7-0.1-1.1-0.2c0.3-0.4,0.5-0.8,0.8-1.2c0.4,0.1,0.8,0.1,1.2,0.2
		C48.8,157.6,48.5,158,48.2,158.4 M45.3,160.7c0.5-0.6,0.9-1.3,1.3-1.9c0.3,0.1,0.7,0.2,1,0.2c0,0.1-0.1,0.1-0.1,0.2
		c-0.1,0.1-0.1,0.2-0.1,0.3c-0.1,0.1-0.3,0.1-0.5,0.2c-0.4,0.2-0.2,0.7,0.2,0.7c-0.2,0.3-0.4,0.6-0.7,1c-0.3,0-0.5-0.1-0.8-0.1
		c0.1-0.2,0-0.4-0.2-0.4C45.5,160.7,45.4,160.7,45.3,160.7 M47.3,161.4L47.3,161.4c0.4-0.6,0.7-1.1,1.1-1.7c0.3-0.2,0.6-0.3,0.9-0.5
		c-0.5,0.8-1,1.6-1.5,2.5c-0.1,0-0.2,0.1-0.3,0.1C47.6,161.6,47.6,161.4,47.3,161.4 M45.1,161.8c-0.2,0.3-0.4,0.5-0.6,0.8
		c-0.1-0.1-0.3-0.1-0.4-0.1c0.2-0.3,0.4-0.6,0.6-0.9C44.8,161.7,44.9,161.8,45.1,161.8 M46.1,161.9c-0.2,0.3-0.4,0.6-0.6,0.9
		c0,0-0.1,0-0.1,0.1c0,0,0,0-0.1,0c0,0-0.1,0-0.1,0c0.2-0.3,0.4-0.6,0.6-0.8c0,0,0-0.1,0.1-0.1C45.9,161.9,46,161.9,46.1,161.9
		 M43.5,164c-0.1-0.1-0.3-0.1-0.4-0.2c0.2-0.3,0.4-0.5,0.6-0.8c0.1,0,0.3,0.1,0.4,0.1C43.9,163.4,43.7,163.7,43.5,164 M44.8,163.4
		c0.1,0,0.2,0.1,0.2,0.1c-0.2,0.3-0.4,0.6-0.6,0.8c-0.1,0-0.2,0-0.2-0.1C44.4,163.9,44.6,163.7,44.8,163.4 M42.2,165.8
		c-0.1-0.1-0.2-0.2-0.4-0.3c0.3-0.4,0.6-0.8,0.8-1.1c0.1,0.1,0.3,0.1,0.4,0.2C42.8,165,42.5,165.4,42.2,165.8 M43.7,164.8
		c0.1,0,0.2,0.1,0.2,0.1c-0.3,0.4-0.6,0.9-0.9,1.3c-0.1,0-0.1-0.1-0.2-0.1C43.1,165.7,43.4,165.2,43.7,164.8 M41.7,167.9
		c-0.1,0-0.1-0.1-0.2-0.1c0.3-0.4,0.6-0.8,0.9-1.2c0.1,0,0.1,0.1,0.2,0.1L41.7,167.9z M43.3,167c0.1,0,0.2,0.1,0.3,0.1
		c-0.3,0.2-0.5,0.4-0.8,0.6C43,167.4,43.1,167.2,43.3,167 M40.9,167.6c-0.2-0.1-0.3-0.2-0.5-0.3c0.3-0.4,0.7-0.8,1-1.3
		c0.1,0.1,0.2,0.2,0.4,0.3C41.5,166.7,41.2,167.1,40.9,167.6 M34.6,173.2C34.6,173.2,34.6,173.2,34.6,173.2
		c-0.4-0.3-0.9,0.2-0.5,0.5c0,0,0,0,0.1,0c-0.1,0.1-0.2,0.2-0.3,0.3c-0.5-0.2-1-0.5-1.4-0.9c0.6-0.6,1.1-1.3,1.6-2
		c0.5,0.4,1,0.7,1.5,0.9C35.3,172.5,35,172.9,34.6,173.2 M36.2,172.4c0.3,0.1,0.6,0.3,1,0.4c-0.3,0.4-0.6,0.9-0.9,1.3
		c-0.4-0.1-0.7-0.3-1-0.5C35.6,173.2,35.9,172.8,36.2,172.4 M33,177.7c-0.2-0.2-0.4-0.4-0.6-0.6c-0.1-0.1-0.2-0.1-0.3-0.1
		c0.4-0.4,0.9-0.9,1.3-1.4c0,0.1,0,0.1,0.1,0.1c0.2,0.2,0.5,0.5,0.8,0.7C33.8,176.9,33.4,177.3,33,177.7 M35,177
		c0.3,0.2,0.7,0.3,1,0.4c-0.3,0.4-0.7,0.9-1,1.3c-0.4,0.1-0.8-0.1-1.1-0.3C34.2,177.9,34.6,177.4,35,177 M33.9,175.4
		c0.3,0.2,0.7,0.4,1,0.5c-0.1,0.1-0.1,0.1-0.2,0.2C34.4,175.8,34.2,175.6,33.9,175.4 M35.4,176.4c0.1-0.1,0.1-0.2,0.2-0.3
		c0.4-0.4,0.8-0.8,1.2-1.2c0.3,0.1,0.5,0.2,0.8,0.2c-0.4,0.5-0.7,1-1.1,1.5C36.1,176.7,35.7,176.6,35.4,176.4 M35.6,175
		c0.1-0.2,0-0.4-0.2-0.5c-0.3,0-0.5-0.1-0.8-0.2c0.1-0.1,0.1-0.1,0.2-0.2c0.3,0.2,0.7,0.4,1.1,0.5C35.8,174.7,35.7,174.9,35.6,175
		 M26.2,177.7c1.1-1.7,2.1-3.5,2.9-5.4c0.1-0.1,0.1-0.2,0.2-0.3c0.2-0.2,0.5-0.5,0.7-0.7c0.1,0,0.1-0.1,0.1-0.2
		c0.2,0.4,0.4,0.8,0.7,1.2c-0.6,1-1.2,1.9-2,2.7c-0.1,0.2-0.1,0.4,0,0.5C27.9,176,27,176.8,26.2,177.7 M29.5,176
		c-1.2,1.9-2.6,3.7-4.4,5.1C25.6,179.2,27.5,176.7,29.5,176 M30,170.8C29.9,170.8,29.9,170.7,30,170.8c0.3-0.8,0.7-1.6,1-2.4
		c0.1-0.1,0.2-0.2,0.3-0.3c-0.4,0.7-0.7,1.4-1,2c-0.2,0.4,0.4,0.7,0.6,0.3c0.3-0.7,0.7-1.4,1-2c0,0.1,0,0.1,0,0.2
		c0.2,0.3,0.4,0.7,0.6,1c-0.1,0-0.3,0-0.4,0.2c-0.3,0.7-0.7,1.3-1,1.9c-0.2-0.3-0.4-0.6-0.5-0.9C30.5,170.5,30,170.5,30,170.8
		 M31.6,172.3c0.4-0.7,0.8-1.5,1.2-2.2c0,0,0-0.1,0-0.1c0.2,0.3,0.5,0.6,0.8,0.8c-0.5,0.7-1,1.3-1.6,2
		C31.8,172.6,31.7,172.4,31.6,172.3 M40.1,171.4c0.3-0.3,0.6-0.6,0.8-0.9c0.2,0.1,0.4,0.1,0.6,0.2c-0.4,0.3-0.7,0.6-1.1,0.8
		C40.3,171.4,40.2,171.4,40.1,171.4 M38.3,171.3l-0.6,0.8c-0.3-0.1-0.5-0.3-0.8-0.5c0.2-0.3,0.4-0.5,0.7-0.8
		C37.8,171,38,171.2,38.3,171.3 M38.7,170.8c-0.2-0.1-0.4-0.3-0.6-0.5c0.2-0.2,0.4-0.5,0.6-0.7c0.1,0,0.2,0.1,0.3,0.1
		c0.1,0.1,0.2,0.1,0.3,0.1C39.1,170.2,38.9,170.5,38.7,170.8 M36.1,171.6c-0.6-0.3-1.1-0.6-1.6-1c0,0,0-0.1,0-0.1
		c0.2-0.3-0.3-0.6-0.6-0.4c-0.6-0.5-1.1-1.1-1.4-1.8c-0.1-0.3-0.5-0.2-0.6,0c1.6-3.1,3.3-6.3,4.5-9.6c2.4-5.5,5-10.9,8.2-16.1
		c0.1,0.1,0.3,0.1,0.4-0.1c1.9-2.2,4-4.5,5.5-7c0,0.1,0.1,0.1,0.2,0.2c0.1,0,0.2,0.1,0.4,0.2c-7.6,10-13.7,20.8-17.9,32.7
		c-0.1,0.3,0.2,0.6,0.5,0.4c0.7-0.4,1.4-1,2-1.5c0.6,0.8,1.4,1.4,2.2,1.8C37.3,170.1,36.7,170.8,36.1,171.6 M51.3,132.9
		c0.1-0.1,0.1-0.2,0.2-0.3c-1.2,3-3.3,5.5-5.5,8c0.1-0.1,0.1-0.2,0.2-0.3c0.1-0.1,0.1-0.2,0-0.3c1.7-2.3,3.2-4.6,4.6-7.1
		C50.9,133.1,51.1,133.1,51.3,132.9 M57.2,128.4c-0.8-1.5-1.2-3.1-1.2-4.7c0.3-0.9,0.6-1.7,0.9-2.6c0.2,0.2,0.5,0.2,0.6-0.1
		c0.1-0.6,0.2-1.2,0.3-1.7c0.3,0.7,0.7,1.3,1.2,1.9c0.3,0.4,0.8,0,0.6-0.4c-0.6-0.8-1.1-1.7-1.5-2.7c1-4.8,2.4-9.5,2.8-14.5
		c0.4-4.6,0.3-9.2-0.1-13.8c0,0.1,0.1,0.2,0.2,0.2c0.2,4.4,0.3,8.9,0.3,13.3c0,0.4,0.7,0.4,0.7-0.1c-0.1-7.7-0.3-15.5-0.9-23.2
		c0.5,2.5,0.9,4.9,1.2,7.4c0.1,0.4,0.7,0.4,0.7-0.1c-0.9-7-2.6-13.9-4.2-20.8c-0.8-3.4-1.5-6.9-2.5-10.3c0.3-0.3,0.7-0.6,1-0.9
		c0.3-0.3-0.2-0.7-0.5-0.4c-0.2,0.2-0.5,0.4-0.7,0.6c-0.1-0.5-0.3-1-0.5-1.4c0.3-0.1,0.6-0.3,0.9-0.4c0.4-0.1,0.2-0.8-0.2-0.6
		c-0.3,0.1-0.6,0.2-0.9,0.4c-0.2-0.5-0.3-0.9-0.4-1.4c0.4-0.2,0.9-0.4,1.3-0.5c1.2,3.6,2.3,7.1,3.3,10.7c0,0.1,0,0.1,0,0.2
		c2.3,12.2,4.6,24.5,4.2,37c0,0.4,0.6,0.5,0.7,0.1c0.3-10.2-1.1-20.2-2.9-30.2c0.1,0.3,0.2,0.6,0.2,0.9c0.1,0.4,0.7,0.2,0.6-0.2
		c-1.6-6.3-3.4-12.6-5.5-18.8c0-0.1,0-0.2-0.1-0.3c-0.2-0.6-0.4-1.2-0.6-1.8c0.2-0.7,0.4-1.3,0.7-1.8c0.2,0.2,0.4,0.4,0.6,0.6
		c-0.4,0.7-0.7,1.4-0.8,2.1c-0.1,0.3,0.3,0.5,0.5,0.3c0,0.3,0,0.5,0,0.9c0,0.4,0.7,0.4,0.7-0.1c-0.1-1.1,0.3-1.6,0.8-1.9
		c1.7,2.5,2.7,5.8,3.8,8.4c0.2,0.4,0.8,0.2,0.6-0.2C62,55,61,51.8,59.3,49.3c1.2,0.1,2.9,1.1,3.6,2c0.3,0.3,0.8-0.1,0.5-0.4
		c-1-1.2-3.1-2.3-4.6-2.2c-0.2-0.3-0.4-0.5-0.6-0.8c1-1.5,2.6-2.5,4.2-1.9c0,0.1-0.1,0.2,0,0.3c0.3,0.4,0.5,0.8,0.8,1.2
		c-0.1,0.2,0.1,0.5,0.3,0.5c0.2,0.3,0.4,0.6,0.5,0.9c0.2,0.6,0.4,1.2,0.6,1.8c0,0-0.1,0-0.1,0c-0.4,0.2-0.2,0.8,0.2,0.6
		c0,0,0,0,0.1,0c0.3,0.9,0.5,1.8,0.7,2.6c0,0.1,0,0.2,0.1,0.3c1.5,6.2,2.1,12.6,2.2,19.1c0,0.4,0.7,0.4,0.7-0.1c0-2-0.1-4-0.3-6
		c0.1,0,0.2,0,0.3-0.1c0.2-0.2,0.4-0.3,0.6-0.5c0.1,0.8,0.2,1.5,0.2,2.3c0,0-0.1,0-0.1,0c-0.4,0.1-0.4,0.7,0.1,0.7c0,0,0.1,0,0.1,0
		c0.1,1,0.1,1.9,0.2,2.9c0,0.3,0.4,0.4,0.5,0.2c0.1,0.1,0.2,0.2,0.3,0.2c0.3,0,0.6-0.1,0.9-0.1c0,0.9,0,1.9,0,2.8
		c-0.4,0.1-0.8,0.1-1.2,0.2c-0.4,0.1-0.4,0.7,0.1,0.7c0.4-0.1,0.8-0.1,1.1-0.2c0,1,0,2-0.1,3c-0.6-0.1-1.2-0.2-1.7-0.3
		c-0.1,0-0.1,0-0.2,0c0-0.4,0-0.7,0-1.1c0-0.4-0.7-0.4-0.7,0.1c0.1,6,0.3,12,0.1,18c-0.2,0-0.3,0-0.5,0c-0.1,0-0.2,0-0.3,0.1
		c0.3-4.7,0.3-9.4,0-14c0-0.4-0.7-0.4-0.7,0.1c0.5,8.8,0.1,17.7-1.3,26.4l0,0c-0.4-0.1-0.7,0.5-0.3,0.6c0.1,0,0.1,0,0.2,0.1
		c-0.3,2-0.7,3.9-1.2,5.8c-0.2-0.2-0.4-0.4-0.6-0.7c-0.3-0.3-0.8,0.1-0.5,0.4c0.3,0.4,0.6,0.8,1,1.1c-0.1,0.2-0.1,0.4-0.1,0.6
		c-0.1,0.4,0.6,0.5,0.7,0.1c0-0.1,0-0.1,0-0.2c0.3,0.3,0.6,0.5,1,0.7c-0.1,0.4-0.3,0.8-0.4,1.2c-0.2,0-0.3,0.3-0.2,0.5
		c-0.1,0.3-0.2,0.6-0.3,0.9c-1.2-0.8-2.3-1.7-3.1-2.6c-0.3-0.3-0.7,0.2-0.4,0.5c0.9,0.9,2,1.9,3.3,2.7c-0.4,1.1-0.8,2.1-1.3,3.2
		c-0.1-0.1-0.3-0.2-0.4-0.3c-0.3-0.3-0.7,0.2-0.4,0.5c0.2,0.2,0.4,0.3,0.5,0.4c-0.1,0.2-0.1,0.3-0.2,0.5c-0.5-0.3-1.1-0.6-1.6-0.9
		c-0.4-0.2-0.6,0.4-0.3,0.6c0.5,0.3,1.1,0.6,1.6,0.9c-0.2,0.4-0.3,0.8-0.5,1.2c-0.3-0.2-0.7,0.1-0.5,0.4c0.1,0.1,0.1,0.1,0.2,0.2
		c-0.3,0.6-0.5,1.2-0.8,1.8l0,0.1c-0.7-0.5-1.4-1-2.1-1.5c0.9-2.5,1.5-5.1,2.2-7.7c0.1-0.4-0.6-0.5-0.7-0.1
		c-0.6,2.6-1.3,5.2-2.2,7.8c0,0,0,0.1,0,0.1c-1.4,4.2-3.4,8.2-6.2,11.6c0,0,0,0.1-0.1,0.1c0.5-1.4,0.5-2.7-0.2-3.4
		c0.2-0.3-0.3-0.7-0.5-0.4c-0.2-0.1-0.3-0.2-0.5-0.2c-0.1,0-0.1,0-0.2,0c0.9-1.5,1.6-3.2,2-5c0.9-1.7,1.8-3.4,2.5-5.1
		c0.2,1.3,0.6,2.5,1.2,3.7C56.8,129.2,57.4,128.8,57.2,128.4 M57.7,74.9c0-1.1-0.1-2.3-0.2-3.4c0,0,0,0,0.1,0
		c0.3,1.5,0.6,3.1,0.8,4.6c-0.4,0-0.8,0.1-1.2,0.3c-0.2-1.5-0.4-3-0.6-4.6c0.1,0,0.2-0.1,0.3-0.1c0.1,1.1,0.1,2.2,0.2,3.3
		C57,75.4,57.7,75.3,57.7,74.9 M59.5,76.1c-0.1,0-0.2,0-0.4,0c-0.3-1.6-0.5-3.1-0.8-4.7c0.1,0,0.2,0,0.2,0c0.4,0,0.4-0.7-0.1-0.7
		c-0.1,0-0.2,0-0.3,0c-0.2-1.3-0.5-2.6-0.8-4c0.1,0,0.2-0.1,0.3-0.1c0.1,0,0.2-0.1,0.3-0.3c0.8,3.4,1.7,6.9,2.4,10.4
		c-0.1,0-0.3,0.2-0.2,0.3c0.3,2.9,0.4,5.7,0.6,8.6c-0.5-3-1-6-1.5-8.9c0,0,0.1,0,0.1,0C59.8,76.8,59.9,76.1,59.5,76.1 M56.5,71.1
		c-0.1-0.5-0.1-1.1-0.2-1.6c-0.1-0.7-0.2-1.4-0.4-2.1c0.2-0.1,0.3-0.2,0.5-0.2c0.2,1.3,0.3,2.6,0.4,3.9C56.7,71,56.6,71,56.5,71.1
		 M57.6,65.9c-0.2,0.1-0.3,0.1-0.5,0.2c-0.1,0-0.1,0-0.2,0c-0.1-0.8-0.3-1.7-0.4-2.5c0.2-0.2,0.2-0.6-0.1-0.6
		c-0.2-1.3-0.5-2.6-0.8-4c-0.1-0.6-0.3-1.1-0.4-1.7c0.2-0.1,0.3-0.3,0.5-0.4c0.7,2.7,1.3,5.4,2,8.1c0.1,0.3,0.2,0.7,0.2,1
		C57.8,65.9,57.7,65.9,57.6,65.9 M54.7,57.9c0.4,1.7,0.8,3.5,1.1,5.2c-0.2,0.1-0.4,0.1-0.6,0.2c-0.3-1.7-0.7-3.4-1.1-5
		c0.2-0.2,0.4-0.3,0.6-0.5C54.6,57.8,54.6,57.8,54.7,57.9 M54.5,63.6c-0.2,0.1-0.5,0.3-0.7,0.4c0-0.1,0-0.1,0-0.2
		c-0.3-1.6-0.5-3.1-0.8-4.6c0.1-0.1,0.3-0.2,0.4-0.3c0,0,0.1-0.1,0.1-0.1C53.8,60.4,54.2,62,54.5,63.6 M55.3,64
		c0.2-0.1,0.4-0.1,0.6-0.2c0.2,0.9,0.3,1.8,0.4,2.6c-0.2,0.1-0.3,0.2-0.5,0.3C55.6,65.8,55.5,64.9,55.3,64 M55,56.5
		c-0.1-0.6-0.3-1.2-0.4-1.9c0.1-0.1,0.3-0.1,0.4-0.2c0.2,0.6,0.3,1.1,0.5,1.7C55.3,56.2,55.2,56.4,55,56.5 M54.4,53.9
		c-0.1-0.5-0.2-1-0.3-1.4c0.1,0,0.1-0.1,0.2-0.1c0.1,0.5,0.3,0.9,0.4,1.4C54.6,53.8,54.5,53.9,54.4,53.9 M58,48.5
		c0.1,0.1,0.2,0.2,0.3,0.3c-0.3,0.1-0.5,0.3-0.6,0.6C57.7,49.1,57.8,48.8,58,48.5 M71.7,49.5C71.7,49.5,71.7,49.5,71.7,49.5
		C71.7,49.5,71.7,49.5,71.7,49.5C71.7,49.5,71.7,49.5,71.7,49.5 M72.4,49.5l0.3,0.2c0.1,0.4,0.2,0.7,0.3,1.1
		c-0.1-0.1-0.2-0.2-0.3-0.3C72.5,50.2,72.4,49.8,72.4,49.5 M73.2,58c0-0.1,0-0.1,0-0.2c0.2,0,0.4-0.1,0.5-0.1c0,0,0,0.1,0,0.1
		c0,0-0.1,0-0.1,0C73.5,57.7,73.3,57.8,73.2,58 M77.3,63.3c-0.1-0.8-0.2-1.5-0.3-2.3c0.6,0.5,1.2,1,1.8,1.5c0.1,0.7,0.2,1.4,0.4,2.1
		l0,0c-0.2,0-0.4-0.1-0.6-0.1C78.2,64.1,77.8,63.7,77.3,63.3 M76.8,64.2c-0.2-0.2-0.4-0.5-0.7-0.7c0-0.2-0.1-0.5-0.1-0.7
		c0.2,0.2,0.5,0.5,0.7,0.7C76.7,63.8,76.8,64,76.8,64.2 M76.6,62.5c-0.3-0.3-0.5-0.5-0.7-0.8c-0.1-0.4-0.1-0.9-0.2-1.3
		c0.2,0,0.4,0,0.6,0c0,0,0,0,0,0C76.4,61.1,76.5,61.8,76.6,62.5 M73.7,61.6c0-0.4-0.1-0.7-0.1-1.1c0.2,0,0.4,0,0.6,0
		c0.1,0.1,0.2,0.3,0.3,0.4c0.1,0.4,0.2,0.9,0.2,1.3c-0.2-0.2-0.4-0.4-0.7-0.5C73.9,61.6,73.8,61.6,73.7,61.6 M78,69.3
		c0,0,0.1,0,0.1,0c0.6,0.6,1.2,1.3,1.8,1.8c0,0,0.1,0,0.1,0.1c0,0.4,0.1,0.7,0.1,1.1c-0.4-0.1-0.7-0.1-1.1-0.1
		c-0.3-0.3-0.6-0.6-0.8-1C78.1,70.5,78.1,69.9,78,69.3 M77.5,70.3c-0.2-0.2-0.3-0.4-0.5-0.6c0-0.2,0-0.4-0.1-0.5c0.2,0,0.3,0,0.5,0
		C77.4,69.6,77.4,70,77.5,70.3 M73.6,68.6c-0.1,0-0.2,0-0.2,0c0-0.4-0.1-0.8-0.2-1.2c0.1,0.2,0.2,0.4,0.4,0.6
		C73.6,68.2,73.6,68.4,73.6,68.6 M72.7,68.7c-0.2,0-0.3,0-0.5,0c-0.2-1-0.3-2.1-0.5-3.1c0.2-0.1,0.3-0.1,0.5-0.2
		C72.4,66.6,72.6,67.6,72.7,68.7 M68.1,56.9c-0.3-0.9-0.6-1.8-0.9-2.8c0.5-0.1,0.9-0.2,1.4-0.3c0.3,1.1,0.5,2.2,0.8,3.4
		c-0.4-0.1-0.7-0.1-1.1-0.3C68.3,56.9,68.2,56.9,68.1,56.9 M68.3,60.5c-0.2,0-0.4,0.1-0.6,0.1c0,0-0.1,0-0.1,0
		c-0.3-2.1-0.7-4.2-1.2-6.3c0,0,0.1,0,0.1,0C67.3,56.3,67.9,58.4,68.3,60.5 M70.9,57.9c0.1,0.7,0.3,1.4,0.4,2.1c-0.1,0-0.1,0-0.2,0
		c-0.1-0.7-0.3-1.4-0.4-2.1C70.8,57.9,70.8,57.9,70.9,57.9 M70.2,60.9c0.3,1.4,0.5,2.9,0.8,4.3c-0.4,0.1-0.8,0.3-1.1,0.5
		c-0.2-1.6-0.4-3.1-0.7-4.6C69.5,61,69.8,60.9,70.2,60.9 M69.2,66c-0.3,0.2-0.6,0.4-0.9,0.7c-0.1-1.8-0.3-3.7-0.6-5.5c0,0,0,0,0.1,0
		c0.2,0,0.4-0.1,0.7-0.1C68.8,62.8,69,64.4,69.2,66 M71.1,65.9c0.2,1,0.3,2,0.5,3c-0.5,0.1-0.9,0.1-1.4,0.2
		c-0.1-0.9-0.2-1.7-0.3-2.6C70.3,66.2,70.7,66,71.1,65.9 M74.3,65.6c0.4,0.3,0.7,0.6,1.1,0.9c0.1,0.5,0.2,1.1,0.2,1.6
		C75.1,67.4,74.6,66.5,74.3,65.6 M76.4,65.4c0-0.1,0-0.2-0.1-0.4c0.1,0,0.2,0,0.3,0c0.1,0.1,0.2,0.2,0.3,0.3c0,0.3,0.1,0.6,0.1,0.9
		C76.8,65.9,76.6,65.6,76.4,65.4 M75.2,65.5c-0.2-0.1-0.4-0.3-0.5-0.4c0.2,0,0.3,0,0.5,0C75.2,65.2,75.2,65.3,75.2,65.5 M72.1,64.8
		c0,0-0.1,0-0.1,0c-0.2-1.4-0.5-2.7-0.7-4.1c0.1,0,0.1,0,0.2,0C71.7,62.1,71.9,63.4,72.1,64.8 M69,60.4c-0.2-0.9-0.4-1.9-0.7-2.8
		c0.4,0.1,0.8,0.2,1.2,0.3c0.2,0.8,0.3,1.6,0.5,2.4C69.7,60.3,69.3,60.3,69,60.4 M72.8,59.9c-0.1,0-0.3,0-0.4,0
		c-0.1-0.7-0.3-1.4-0.4-2c0.2,0,0.4,0,0.5,0C72.6,58.5,72.7,59.2,72.8,59.9 M70.8,57.3c-0.1,0-0.2,0-0.2,0c-0.3-1.3-0.5-2.5-0.9-3.8
		c0.1,0,0.2-0.1,0.3-0.1C70.3,54.7,70.5,56,70.8,57.3 M67,53.5c-0.3-0.8-0.7-1.6-1-2.5c0.6-0.2,1.2-0.4,1.8-0.6
		c0.2,0.9,0.5,1.8,0.7,2.7C68,53.3,67.5,53.4,67,53.5 M70.9,53.3c0.3-0.1,0.5-0.1,0.8-0.2c0.3,1.4,0.5,2.8,0.7,4.2
		c-0.2,0-0.4,0-0.6,0C71.6,55.9,71.2,54.6,70.9,53.3 M73.8,55.2c-0.1-0.5-0.2-1-0.4-1.6c0,0.1,0.1,0.1,0.2,0.2
		c0.1,0.5,0.2,1,0.3,1.5C73.9,55.3,73.9,55.2,73.8,55.2 M74.3,53.5c0-0.1,0-0.1-0.1-0.2c0.3,0.3,0.7,0.5,1,0.8
		c0,0.2,0.1,0.4,0.1,0.5C75,54.2,74.6,53.9,74.3,53.5 M73,54.4c-0.1-0.1-0.3-0.2-0.4-0.4c-0.1-0.4-0.2-0.8-0.2-1.1
		c0.1,0,0.2,0,0.2-0.1C72.7,53.4,72.8,53.9,73,54.4 M69.9,52.8c-0.1,0-0.2,0.1-0.4,0.1c-0.2-0.9-0.5-1.8-0.8-2.8
		c0.2-0.1,0.3-0.1,0.5-0.1c0.1,0.2,0.1,0.4,0.2,0.5C69.6,51.3,69.7,52.1,69.9,52.8 M67.6,49.8c-0.7,0.2-1.3,0.4-2,0.7
		c-0.3-0.6-0.6-1.1-0.9-1.7c-0.1-0.4-0.3-0.8-0.4-1.2c0.5-0.3,1-0.6,1.5-0.9c0.1,0.1,0.1,0.2,0.2,0.3c0.2,0.4,0.8,0,0.5-0.4
		c0-0.1-0.1-0.1-0.1-0.2c0.1,0,0.1,0,0.2-0.1C67,47.5,67.3,48.6,67.6,49.8 M67.8,47c-0.1-0.2-0.2-0.2-0.3-0.2
		c-0.1-0.2-0.1-0.5-0.2-0.7c0.2-0.1,0.4-0.1,0.5-0.2c0.4,1.2,0.8,2.3,1.2,3.5c-0.2,0-0.3,0.1-0.5,0.1C68.3,48.7,68.1,47.8,67.8,47
		 M66.1,45.8c-0.4-0.5-0.7-0.9-1.1-1.4c0.4,0,0.8,0,1.2,0c0.1,0.4,0.2,0.8,0.4,1.2C66.3,45.7,66.2,45.8,66.1,45.8 M70.9,46.9
		c0,0,0,0.1,0,0.2c0.1,0.4,0.2,0.7,0.3,1c-0.1,0-0.1-0.1-0.1-0.1c-0.1-0.5-0.3-0.9-0.4-1.4C70.8,46.7,70.9,46.8,70.9,46.9 M71,45.9
		c0.3,0.3,0.7,0.6,1,0.9c0,0.1,0,0.2,0.1,0.3C71.7,46.7,71.3,46.3,71,45.9 M73.9,47.4C73.9,47.4,73.9,47.5,73.9,47.4
		c-0.4-0.3-0.9-0.7-1.3-1c0,0,0-0.1,0-0.2c0-0.2-0.2-0.3-0.4-0.2c-0.3-0.2-0.6-0.5-0.9-0.7c0.4,0,0.9,0,1.3,0
		c0.3,0.3,0.6,0.5,0.8,0.7C73.6,46.5,73.8,47,73.9,47.4 M74.5,47.1c0.6,0.5,1.1,1.1,1.7,1.7c-0.2,0-0.3-0.1-0.5-0.1
		c-0.3-0.2-0.6-0.4-0.9-0.6C74.8,47.8,74.7,47.5,74.5,47.1C74.5,47.2,74.5,47.1,74.5,47.1 M70.3,47.6c-0.1-0.1-0.3-0.1-0.4-0.2
		c-0.3-0.1-0.5,0.1-0.5,0.4c-0.2-0.7-0.3-1.4-0.5-2.1c0.2,0,0.4-0.1,0.7-0.1C69.9,46.2,70.1,46.9,70.3,47.6 M67.6,45.2
		c-0.2,0.1-0.3,0.1-0.5,0.2c-0.1-0.4-0.2-0.7-0.3-1.1c0.2,0,0.3,0,0.4-0.1C67.4,44.6,67.5,44.9,67.6,45.2 M65.5,46.1
		c-0.5,0.2-0.9,0.5-1.3,0.8c-0.1-0.1-0.1-0.3-0.2-0.4c0.1-0.1,0.1-0.3-0.1-0.4c0,0-0.1,0-0.1-0.1c0-0.1-0.1-0.1-0.1-0.2
		c-0.1-0.2-0.3-0.2-0.4-0.2c-2.1-1.2-4.1,0-5.4,1.8c-0.2-0.2-0.4-0.4-0.6-0.6c1-1.4,2.5-2.4,4.3-3.2c0.3-0.1,0.2-0.4,0.1-0.6
		C63.2,43.4,64.5,44.8,65.5,46.1 M76,75.4c-0.2,0-0.4,0-0.6,0c-0.2-0.5-0.5-0.9-0.7-1.4C75.2,74.5,75.6,74.9,76,75.4 M77.4,74.5
		c0.1,0.1,0.2,0.3,0.4,0.4c0,0.2,0,0.4,0,0.6c-0.1,0-0.2,0-0.3,0c0,0,0-0.1,0-0.1C77.5,75.1,77.5,74.8,77.4,74.5 M73.5,75.5
		c-0.1,0-0.3,0-0.4,0c-0.1-0.9-0.2-1.8-0.3-2.7c0.2,0,0.3,0,0.5,0C73.3,73.7,73.4,74.6,73.5,75.5 M73.2,76.3c0.2,0,0.3,0,0.4,0
		c0.1,1.2,0.2,2.3,0.3,3.5c-0.1,0-0.3,0-0.4-0.1C73.4,78.5,73.3,77.4,73.2,76.3 M72.8,79.6c-0.2,0-0.5-0.1-0.7-0.1
		c0-1.1,0.1-2.1,0.1-3.2c0.1,0,0.2,0,0.3,0C72.6,77.4,72.7,78.5,72.8,79.6 M74.9,77.5c0,0-0.1-0.1-0.1-0.1c0-0.4,0-0.8-0.1-1.2
		c0.1,0,0.2,0,0.3,0c0.5,1,1.1,1.9,1.7,2.8c0,0.3,0,0.5,0,0.8C76.1,78.9,75.5,78.2,74.9,77.5 M77.8,79.4c0-0.6-0.1-1.2-0.1-1.8
		c0.1,0.1,0.2,0.3,0.3,0.4c0,0.6,0.1,1.2,0.1,1.9C78,79.7,77.9,79.6,77.8,79.4 M76.6,77.5c-0.3-0.5-0.6-0.9-0.8-1.4
		c0.2,0,0.5,0,0.7,0C76.5,76.6,76.5,77,76.6,77.5 M72.2,75.7c0-0.6,0-1.1,0-1.7c0.1,0.6,0.1,1.1,0.2,1.7
		C72.4,75.6,72.3,75.6,72.2,75.7 M74.5,72.9c0-0.1,0-0.1,0-0.2c0.1,0,0.2,0,0.3,0c0.3,0.4,0.5,0.8,0.8,1.3
		C75.3,73.6,74.9,73.2,74.5,72.9 M75.6,72.7c0.1,0,0.2,0,0.3,0c0.1,0.1,0.2,0.3,0.4,0.4c0,0.2,0,0.5,0.1,0.7
		C76.1,73.4,75.8,73,75.6,72.7 M71.6,72.3c-0.3,0-0.7,0.1-1,0.1c-0.1,0-0.1,0-0.1,0c-0.1-0.9-0.1-1.8-0.2-2.8
		c0.5-0.1,0.9-0.1,1.4-0.2c0,0.2,0,0.3,0.1,0.4c-0.1,0.1-0.1,0.2-0.1,0.3C71.6,70.9,71.6,71.6,71.6,72.3 M80.6,84c0,1,0,1.9-0.1,2.8
		l-0.3-0.1c0,0,0,0,0-0.1c-0.4-0.7-0.9-1.3-1.3-2c0-0.3,0-0.7,0-1.1c0.2,0,0.5-0.1,0.7-0.1c0.2,0.2,0.4,0.3,0.6,0.4
		C80.4,84.1,80.5,84.1,80.6,84 M73.8,83.6l0.3,0.1c0,0.6,0.1,1.3,0.1,1.9c-0.1,0-0.2-0.1-0.3-0.1C73.9,84.9,73.9,84.3,73.8,83.6
		 M73.3,85.3c-0.5-0.1-1-0.2-1.4-0.4c0-0.6,0.1-1.2,0.1-1.8c0.4,0.1,0.8,0.2,1.2,0.3C73.2,84.1,73.2,84.7,73.3,85.3 M74.8,83.8
		c0.1,0,0.1,0,0.2,0c0.1,0,0.2,0,0.3,0c0.5,0.8,1,1.5,1.4,2.2c0,0.1,0,0.1,0,0.2c-0.6-0.1-1.2-0.3-1.8-0.4
		C74.9,85.1,74.9,84.5,74.8,83.8 M76.1,83.8c0.1,0,0.3,0,0.4,0c0.1,0.1,0.2,0.2,0.3,0.4c0,0.2,0,0.4,0,0.6
		C76.5,84.5,76.3,84.2,76.1,83.8 M78.1,85.7c0,0,0.1,0.1,0.1,0.1l0,0.6l-0.1,0C78.1,86.2,78.1,86,78.1,85.7 M74.1,83
		c-0.1,0-0.2,0-0.3-0.1c-0.1-0.9-0.1-1.7-0.2-2.6c0.1,0,0.2,0,0.4,0c0,0.1,0,0.2,0,0.2c-0.1,0.1-0.1,0.2-0.1,0.3
		c0,0.1,0.1,0.2,0.1,0.2C74.1,81.8,74.1,82.4,74.1,83 M73.1,82.8c-0.4-0.1-0.7-0.2-1.1-0.3c0-0.8,0.1-1.5,0.1-2.3
		c0.3,0,0.5,0.1,0.8,0.1C73,81.1,73,82,73.1,82.8 M75,81.1c0-0.2,0-0.4,0-0.6c0.2,0,0.4,0,0.5,0c0.4,0.7,0.8,1.5,1.3,2.2
		c0,0.1,0,0.3,0,0.4C76.2,82.4,75.6,81.7,75,81.1 M76.3,80.6c0.1,0,0.2,0,0.3,0c0,0,0.1,0.1,0.1,0.1c0,0.2,0,0.4,0,0.6
		C76.6,81.1,76.4,80.9,76.3,80.6 M77.9,81.1c0-0.1,0-0.3,0-0.4c0.1,0.1,0.2,0.2,0.3,0.4c0,0.1,0,0.2,0,0.3
		C78.1,81.3,78,81.2,77.9,81.1 M73.5,90.8c0,1,0.1,2,0.1,2.9c0,0.4,0.7,0.4,0.7-0.1c0-0.9-0.1-1.8-0.1-2.8l0.2,0c0,0.3,0,0.5,0,0.8
		c-0.1,0.1-0.1,0.2-0.1,0.3c0.2,1,0.5,1.9,0.9,2.8c-0.2,0-0.4-0.1-0.6-0.2c-0.1,0-0.1-0.1-0.2-0.1c-0.1-0.1-0.3-0.1-0.4,0
		c-0.4-0.1-0.9-0.3-1.3-0.6c0-0.7,0-1.5,0-2.2c0-0.4-0.7-0.4-0.7,0.1c0,0.6,0,1.1,0,1.7c0,0-0.1,0-0.1-0.1c-0.3-0.3-0.8,0.3-0.4,0.5
		c0.2,0.1,0.3,0.2,0.5,0.3c0,0.7-0.1,1.4-0.1,2.2c-0.4,0-0.8-0.1-1.3-0.1c0.3-1.9,0.5-3.8,0.7-5.8c0,0,0,0,0,0
		C72.1,90.6,72.8,90.7,73.5,90.8 M76.9,92.9c0.1,0,0.2-0.1,0.2-0.3c0-0.2,0-0.4,0-0.7c0.1,0.2,0.3,0.4,0.4,0.6c0,0.5,0,1,0,1.4
		C77.3,93.6,77.1,93.3,76.9,92.9 M77.4,95.2c-0.4-0.1-0.9-0.2-1.4-0.2c-0.3-0.7-0.6-1.4-0.8-2.1C76,93.6,76.7,94.4,77.4,95.2
		 M76.4,92.2c-0.2-0.4-0.4-0.7-0.5-1.1c0.2,0,0.4,0,0.6,0.1c0,0,0,0,0,0.1C76.5,91.5,76.5,91.8,76.4,92.2 M75.1,91
		c0.2,0.6,0.5,1.1,0.8,1.6c-0.3-0.3-0.5-0.5-0.8-0.8C75.1,91.6,75.1,91.3,75.1,91L75.1,91z M76.4,95.7c0.3,0.1,0.7,0.1,1,0.2
		c0,0.5-0.1,1-0.1,1.5C77,96.8,76.7,96.3,76.4,95.7 M75.1,96.7c-0.2-0.3-0.3-0.7-0.4-1.1c0.4,0.3,0.7,0.7,1,1.1
		C75.5,96.7,75.3,96.7,75.1,96.7 M74,95.8c-0.2-0.1-0.4,0-0.4,0.3c0,0.2-0.1,0.4-0.1,0.6l-0.9-0.1c0-0.6,0.1-1.2,0.1-1.9
		c0.4,0.2,0.8,0.3,1.2,0.5C73.9,95.3,74,95.6,74,95.8 M76,97.1c0.4,0.6,0.8,1.1,1.2,1.7c0,0.4-0.1,0.8-0.1,1.2l-0.2-0.2
		c0.3-0.1,0.3-0.6,0-0.6c-0.1,0-0.3,0-0.4-0.1c-0.4-0.6-0.7-1.1-1-1.7c0.1,0,0.1,0,0.2,0C75.8,97.4,75.9,97.3,76,97.1 M73.4,108.8
		c-0.1,0.2-0.1,0.4-0.2,0.6c-0.3-0.3-0.6-0.6-1-0.9c0,0,0,0-0.1,0c0-0.2,0.1-0.4,0.1-0.7c0.2,0,0.4,0.1,0.6,0.1
		C73.1,108.2,73.2,108.5,73.4,108.8 M74.2,108.3l0.1,0.2c0,0.2-0.1,0.3-0.1,0.5c0-0.1-0.1-0.1-0.1-0.2
		C74.1,108.6,74.2,108.4,74.2,108.3 M74.7,115.9c0.1,0.1,0.2,0.2,0.3,0.3c0.3,0.2,0.7,0,0.5-0.4c0-0.1-0.1-0.2-0.1-0.2
		c0.3,0,0.5-0.1,0.8-0.1c-0.2,0.5-0.4,0.9-0.5,1.4c-0.4,0-0.9,0-1.3,0C74.5,116.5,74.6,116.2,74.7,115.9 M73.7,116.8
		c-0.1,0-0.2,0-0.3,0c0.2-0.5,0.4-1,0.6-1.6c0.1,0.1,0.2,0.1,0.2,0.2C74,115.9,73.9,116.4,73.7,116.8 M72.9,116.2
		c0-0.1-0.1-0.2-0.1-0.3c0.1-0.3,0.2-0.7,0.3-1c0.1,0,0.2,0,0.3,0C73.2,115.3,73.1,115.7,72.9,116.2 M71.9,116.4
		c0,0-0.1-0.1-0.1-0.1c0.1-0.2,0.1-0.3,0.2-0.4c0,0.1,0.1,0.1,0.1,0.2C72,116.1,72,116.2,71.9,116.4 M72.3,115.1
		c0-0.1-0.1-0.1-0.1-0.2c0-0.1,0-0.1,0.1-0.2l0.1,0C72.4,114.9,72.4,115,72.3,115.1 M71.3,114.5c0.1,0.2,0.2,0.3,0.3,0.5
		c-0.1,0.3-0.2,0.5-0.3,0.8c-0.2-0.2-0.4-0.3-0.7-0.5c-0.1,0-0.1-0.1-0.2-0.1l0.3-0.9C70.9,114.4,71.1,114.5,71.3,114.5 M69.4,116.2
		c-0.1,0-0.2-0.1-0.3-0.1c0.2-0.7,0.4-1.4,0.6-2.2c0.1,0,0.2,0.1,0.3,0.1C69.8,114.8,69.6,115.5,69.4,116.2 M69,119.4
		c0.3,0,0.6,0,1,0c-0.1,0.4-0.3,0.7-0.4,1.1c-0.1-0.1-0.2-0.2-0.3-0.3c-0.2-0.2-0.6,0-0.6,0.3c0.1,0.3,0.1,0.6,0.2,0.9
		c-0.2-0.1-0.4-0.1-0.6-0.2C68.5,120.6,68.8,120,69,119.4 M66.4,120.4c-0.2-0.1-0.3-0.2-0.5-0.3c0.1-0.4,0.3-0.7,0.4-1.1
		c0.2,0,0.4,0.1,0.6,0.1C66.7,119.6,66.6,120,66.4,120.4 M72.2,119.8c0,0.1,0.1,0.2,0.1,0.2c-0.1,0-0.1-0.1-0.2-0.1
		C72.2,119.9,72.2,119.8,72.2,119.8 M71.9,120.5c0.1,0,0.2,0.1,0.3,0.1c-0.1,0.3-0.2,0.6-0.3,0.8c-0.1,0-0.3,0.1-0.4,0.1
		C71.6,121.2,71.8,120.9,71.9,120.5 M70.2,121.1c-0.1,0-0.1-0.1-0.1-0.1c0.1-0.2,0.1-0.3,0.2-0.5c0,0.1,0.1,0.2,0.1,0.3
		C70.3,120.9,70.3,121,70.2,121.1 M71.1,120.8c0.1-0.2,0.1-0.4,0.2-0.5c0,0,0,0,0,0C71.2,120.4,71.2,120.6,71.1,120.8 M72.7,121.9
		c0.3-0.1,0.2-0.6-0.1-0.6c0.1-0.2,0.1-0.3,0.2-0.5l0.1,0c0.2,0,0.5-0.2,0.4-0.5c0-0.1-0.1-0.2-0.1-0.3c0.1-0.2,0.2-0.5,0.3-0.7
		c0.4,0,0.9,0,1.3,0c-0.4,1-0.8,2-1.2,2.9c-0.4,0-0.8-0.1-1.2-0.1c0,0,0-0.1,0-0.1C72.5,122,72.6,122,72.7,121.9 M71.5,119.6
		C71.5,119.6,71.5,119.6,71.5,119.6c0-0.1,0-0.2,0-0.2c0,0,0,0,0.1,0C71.6,119.5,71.6,119.5,71.5,119.6 M75.5,119.3
		c0.1,0,0.3,0,0.4,0c-0.4,1-0.8,2-1.1,3c-0.2,0-0.3,0-0.5,0C74.7,121.3,75.1,120.3,75.5,119.3 M67.2,118c0,0.2-0.1,0.3-0.1,0.4
		c-0.2,0-0.4-0.1-0.6-0.1c0.1-0.3,0.2-0.6,0.3-0.9c0.2,0.1,0.5,0.3,0.8,0.4C67.4,117.8,67.3,117.9,67.2,118 M69.9,117.1
		c0.3,0.1,0.6,0.1,0.8,0.2l0,0c-0.1,0.3-0.2,0.6-0.3,0.9c-0.3-0.1-0.6-0.1-0.8-0.2C69.7,117.6,69.8,117.4,69.9,117.1 M68.9,117.7
		c-0.1,0-0.1,0-0.2-0.1c0.1-0.3,0.2-0.6,0.2-0.9c0.1,0,0.2,0.1,0.3,0.1C69.1,117.2,69,117.4,68.9,117.7 M72.1,118.2
		c0,0-0.1-0.1-0.1-0.1c0.1-0.2,0.1-0.4,0.2-0.5c0,0,0.1,0.1,0.1,0.1C72.3,117.9,72.2,118,72.1,118.2 M72.9,118.1
		c0.1,0.1,0.2,0.1,0.3,0.2c0,0,0,0.1-0.1,0.1c-0.1,0-0.2,0-0.3,0C72.8,118.4,72.8,118.2,72.9,118.1 M71.1,118.3
		c0-0.1,0.1-0.2,0.1-0.3c0,0.1,0.1,0.1,0.1,0.2c0,0,0,0.1,0,0.2C71.2,118.3,71.1,118.3,71.1,118.3 M74,118.2c0-0.1,0-0.1-0.1-0.1
		c0.1-0.2,0.2-0.4,0.2-0.6c0.5,0,0.9,0,1.3,0c-0.1,0.4-0.3,0.8-0.5,1.2c-0.4,0-0.9,0-1.3,0C73.9,118.6,74.1,118.4,74,118.2
		 M68.3,116.5c-0.1,0.3-0.2,0.6-0.2,0.9c-0.4-0.2-0.7-0.4-1-0.6c0.1-0.3,0.2-0.6,0.3-0.9C67.7,116.1,68,116.3,68.3,116.5
		 M66.5,116.4c-0.4-0.2-0.7-0.5-1-0.8c0.3-1.2,0.5-2.3,0.7-3.5c0,0,0,0,0,0c0.3,0.1,0.5,0.3,0.8,0.4c-0.1,0.4-0.2,0.8-0.3,1.2
		c-0.1,0.3,0.3,0.5,0.5,0.3c-0.1,0.2-0.2,0.5-0.2,0.7c-0.2,0-0.4,0.4-0.2,0.6C66.7,115.8,66.6,116.1,66.5,116.4 M68.5,115.8
		c-0.4-0.2-0.7-0.4-1-0.6c0.2-0.7,0.4-1.3,0.6-2c0.3,0.2,0.6,0.3,0.9,0.5C68.9,114.4,68.7,115.1,68.5,115.8 M72.5,114.1
		C72.5,114.1,72.5,114.1,72.5,114.1C72.6,114.1,72.6,114.1,72.5,114.1C72.6,114.1,72.6,114.1,72.5,114.1 M71.9,114c0,0-0.1,0-0.1,0
		c-0.1-0.1-0.1-0.3-0.2-0.5c0.1,0.1,0.3,0.1,0.4,0.2C71.9,113.8,71.9,113.9,71.9,114 M73.4,113.9c0.1-0.2,0.1-0.4,0.2-0.6
		c0.1,0.1,0.1,0.3,0.2,0.4c0,0.1-0.1,0.3-0.1,0.4C73.6,114,73.5,114,73.4,113.9 M73.1,112.4c0,0,0,0.1,0.1,0.1
		c-0.1,0.3-0.2,0.7-0.3,1c0,0-0.1,0-0.1-0.1C72.9,113.1,73,112.7,73.1,112.4 M72.2,113.1c-0.3-0.2-0.7-0.3-1-0.4
		c0.2-0.6,0.3-1.2,0.5-1.8c0.3,0.1,0.6,0.1,0.8,0.2c0.1,0.2,0.1,0.3,0.2,0.4C72.5,112,72.3,112.5,72.2,113.1 M74.5,113.7
		c0.2-0.5,0.3-1,0.5-1.4c0.1,0.1,0.1,0.1,0.2,0.2c-0.2,0.5-0.3,1-0.5,1.6C74.7,113.9,74.6,113.8,74.5,113.7 M74.1,112.9
		c-0.1-0.1-0.1-0.3-0.2-0.4c0.1-0.4,0.2-0.7,0.3-1.1c0.1,0.1,0.2,0.2,0.3,0.3C74.4,112.1,74.2,112.5,74.1,112.9 M73.4,111.6
		c0,0-0.1-0.1-0.1-0.2c0-0.1,0.1-0.2,0.1-0.3c0,0,0.1,0,0.1,0C73.5,111.3,73.5,111.4,73.4,111.6 M70.2,113.4c-0.1,0-0.2-0.1-0.3-0.1
		c0.2-0.9,0.4-1.8,0.7-2.7c0.1,0,0.2,0.1,0.4,0.1C70.7,111.6,70.4,112.5,70.2,113.4 M69.3,113c-0.3-0.2-0.6-0.3-0.9-0.5
		c0.2-0.8,0.4-1.6,0.6-2.4c0.3,0.1,0.6,0.2,0.9,0.3C69.7,111.3,69.5,112.2,69.3,113 M66.3,111.5c0.1-0.7,0.2-1.4,0.4-2
		c0.3,0.1,0.6,0.2,0.8,0.3c-0.1,0.4-0.1,0.8-0.2,1.2c0,0.1,0,0.2,0,0.2c-0.1,0.3-0.1,0.5-0.2,0.8c-0.2-0.1-0.5-0.3-0.7-0.4
		C66.4,111.5,66.4,111.5,66.3,111.5 M75.4,111c0.1-0.3,0.2-0.6,0.3-0.9c0.1,0.1,0.1,0.2,0.2,0.3c-0.1,0.3-0.2,0.6-0.3,0.9
		C75.6,111.2,75.5,111.1,75.4,111 M68.5,109.1c0,0.1,0,0.2-0.1,0.2l0,0c0.2-0.8,0.3-1.5,0.5-2.3c0.6,0.1,1.1,0.3,1.7,0.4
		c0,0.2-0.1,0.4-0.1,0.6c0,0.1,0,0.2,0,0.2c-0.1,0.5-0.3,1-0.4,1.5c-0.3-0.1-0.6-0.2-1-0.3c0-0.1,0-0.2,0.1-0.3
		C69.3,108.8,68.6,108.7,68.5,109.1 M67.7,109.1c-0.3-0.1-0.6-0.2-0.9-0.3c0.1-0.7,0.2-1.4,0.3-2.1c0.3,0.1,0.6,0.1,0.9,0.2
		C67.9,107.6,67.8,108.3,67.7,109.1 M71.3,107.6c0.1,0,0.2,0,0.3,0.1c-0.2,0.8-0.4,1.6-0.6,2.4c-0.1,0-0.2-0.1-0.4-0.1
		C70.9,109.2,71.1,108.4,71.3,107.6 M73.8,109.7c0,0.1,0.1,0.1,0.1,0.2c0,0.1,0,0.1-0.1,0.2c0,0-0.1-0.1-0.1-0.1
		C73.8,109.9,73.8,109.8,73.8,109.7 M72.6,109.8c0.1,0.1,0.2,0.2,0.4,0.3c0,0.1-0.1,0.2-0.1,0.3l-0.1,0
		C72.8,110.2,72.7,110,72.6,109.8 M75,110.3c-0.1-0.2-0.2-0.3-0.3-0.5c0.1-0.2,0.1-0.5,0.2-0.7c0.1,0.1,0.2,0.3,0.3,0.4
		C75.1,109.8,75,110,75,110.3 M75.3,108.2c0.1-0.1,0.1-0.4,0-0.5c0-0.2,0.1-0.3,0.1-0.5c0.1,0.2,0.2,0.3,0.4,0.5
		c-0.1,0.3-0.2,0.5-0.2,0.8C75.4,108.4,75.4,108.3,75.3,108.2 M73.3,98.6c-0.3-0.1-0.5-0.2-0.8-0.3c0-0.4,0.1-0.8,0.1-1.1
		c0.3,0,0.6,0,0.9,0.1C73.4,97.7,73.3,98.1,73.3,98.6 M74.1,97.3c0.2,0,0.3,0,0.5,0c0.3,0.6,0.6,1.1,0.9,1.6c-0.2,0-0.4,0-0.5-0.1
		c-0.3-0.3-0.6-0.6-1-0.8C74.1,97.8,74.1,97.6,74.1,97.3 M71.9,98c-0.4-0.2-0.7-0.6-0.8-1c0.3,0,0.6,0.1,0.9,0.1
		C71.9,97.4,71.9,97.7,71.9,98 M69.4,100.7c0.1-1.3,0.2-2.6,0.2-3.9c0.1,0,0.2,0,0.4,0C69.8,98.2,69.6,99.4,69.4,100.7 M68.9,96.8
		c-0.1,3.2-0.4,6.3-0.8,9.4c-0.3-0.1-0.6-0.1-0.9-0.2c0.4-3.1,0.7-6.2,0.9-9.4c0,0,0.1,0.1,0.2,0.1C68.5,96.7,68.7,96.7,68.9,96.8
		 M70.5,97.5c0.3,0.5,0.7,0.9,1.3,1.2c0,0.6-0.1,1.2-0.1,1.7c-0.3-0.1-0.7-0.2-1-0.3c-0.4-0.1-0.5,0.6-0.1,0.7
		c0.3,0.1,0.7,0.2,1,0.3c-0.1,0.9-0.2,1.8-0.3,2.7c-0.4-0.1-0.8-0.2-1.1-0.3c-0.4-0.1-0.5,0.6-0.1,0.7c0.4,0.1,0.8,0.2,1.1,0.3
		c-0.1,0.8-0.3,1.6-0.4,2.3c-0.6-0.1-1.1-0.3-1.7-0.4C69.6,103.4,70.1,100.5,70.5,97.5 M73,100.8c-0.2-0.1-0.4-0.1-0.6-0.2
		c0.1-0.5,0.1-1.1,0.1-1.6c0.2,0.1,0.5,0.2,0.7,0.2C73.1,99.8,73.1,100.3,73,100.8 M73.8,100.2c0.1,0.3,0.2,0.6,0.4,0.9
		c-0.2,0-0.3-0.1-0.5-0.1L73.8,100.2z M73.6,104.3c-0.1,0-0.2,0-0.3-0.1c-0.1,0-0.1-0.1-0.2-0.2c0,0,0,0,0,0c0-0.2,0.1-0.3,0.1-0.5
		C73.3,103.8,73.5,104,73.6,104.3 M74,103.7c0.1,0.1,0.3,0.3,0.4,0.4c0,0.1,0,0.1,0,0.2C74.3,104.1,74.2,103.9,74,103.7 M75.2,103.9
		c0-0.2,0.1-0.4,0.1-0.7c0.3,0.5,0.7,1,1,1.5l0,0c0,0,0,0.1,0,0.1C75.9,104.5,75.5,104.2,75.2,103.9 M74.6,103.3
		c-0.4-0.3-0.8-0.7-1.2-1c0-0.2,0.1-0.4,0.1-0.6c0.3,0.1,0.7,0.2,1,0.3c0.1,0.1,0.2,0.2,0.2,0.4C74.7,102.6,74.7,103,74.6,103.3
		 M72.7,102.3c0,0,0,0.1,0,0.1c-0.1,0.5-0.2,1.1-0.3,1.6c-0.2,0-0.3-0.1-0.5-0.1c0.1-0.9,0.2-1.7,0.3-2.6c0.2,0.1,0.4,0.1,0.6,0.2
		C72.8,101.8,72.8,102,72.7,102.3 M71.8,104.6c0.2,0,0.3,0.1,0.5,0.1c-0.2,0.8-0.3,1.6-0.5,2.3c-0.1,0-0.3-0.1-0.4-0.1c0,0,0,0,0,0
		C71.5,106.1,71.7,105.4,71.8,104.6 M73.4,106.4c-0.2-0.2-0.4-0.4-0.6-0.5c0,0-0.1,0-0.1,0c0-0.2,0.1-0.4,0.1-0.6
		C73,105.6,73.2,106,73.4,106.4 M74.7,106.3c0.1,0.1,0.1,0.1,0.2,0.2c-0.1,0.2-0.1,0.4-0.2,0.7c-0.1-0.1-0.1-0.2-0.2-0.3
		C74.6,106.7,74.6,106.5,74.7,106.3 M73.7,105.3c0.1,0.1,0.3,0.3,0.4,0.4c0,0.1,0,0.2-0.1,0.3C73.9,105.8,73.8,105.6,73.7,105.3
		 M76.5,107.4c0.1-0.5,0.3-0.9,0.4-1.4c0.1,0.1,0.2,0.1,0.4,0.2c-0.2,0.5-0.3,1.1-0.5,1.6C76.7,107.7,76.6,107.6,76.5,107.4
		 M76,106.7c-0.1-0.2-0.2-0.4-0.4-0.5c0.1-0.2,0.1-0.3,0.1-0.5c0.1-0.4-0.4-0.5-0.6-0.2c-0.1-0.1-0.2-0.2-0.2-0.3c0,0,0-0.1,0-0.1
		c0.1-0.1,0.1-0.2,0.1-0.3l0-0.1c0.4,0.4,0.8,0.7,1.3,1c0,0,0,0,0,0.1C76.2,106.1,76.1,106.4,76,106.7 M77,104.6
		c0.2-0.8,0.3-1.6,0.5-2.4c0,0,0.1,0,0.1,0.1c-0.1,0.8-0.1,1.7-0.2,2.5c0,0.2,0.1,0.3,0.3,0.4c-0.1,0-0.1,0-0.2,0
		C77.2,104.9,77.1,104.7,77,104.6 M76.5,103.8c-0.3-0.5-0.7-1-1-1.5c0.1-0.6,0.2-1.1,0.3-1.7c0.4,0.4,0.7,0.7,1.1,1
		C76.8,102.3,76.6,103,76.5,103.8 M75,101.3c-0.3-0.6-0.5-1.2-0.7-1.8l0.4,0.1c0.1,0.1,0.3,0.3,0.5,0.4
		C75.1,100.4,75,100.8,75,101.3 M75.9,99.7L75.9,99.7l0.2,0c0.1,0.2,0.2,0.4,0.4,0.5C76.2,100.1,76.1,99.9,75.9,99.7 M74.3,125.4
		c0.3-0.8,0.6-1.6,0.9-2.4c0.3,0,0.6,0,0.9,0c0.1,0,0.2,0,0.2-0.1c-0.4,0.9-0.7,1.7-1.1,2.5c0,0-0.1,0-0.1,0
		C74.8,125.4,74.6,125.4,74.3,125.4 M66.6,121.8C66.7,121.8,66.7,121.8,66.6,121.8c-0.2,0.9-0.6,1.8-0.9,2.7c0,0-0.1,0-0.1-0.1
		C65.9,123.6,66.3,122.7,66.6,121.8 M64.9,124.2c-0.2-0.1-0.4-0.2-0.6-0.3c0.3-0.8,0.7-1.6,1-2.5c0.2,0,0.4,0.1,0.6,0.1
		C65.6,122.5,65.3,123.4,64.9,124.2 M67.9,122.1c0.3,0.1,0.6,0.1,0.9,0.2c0,0.1-0.1,0.2-0.1,0.3c-0.2,0-0.4,0.1-0.4,0.4
		c0,0.2,0,0.3,0.1,0.4c-0.2,0.5-0.5,1.1-0.7,1.6c-0.3,0-0.6-0.1-0.8-0.1C67.2,123.9,67.6,123,67.9,122.1 M71.4,122.7
		c-0.2,0.5-0.4,1-0.7,1.5c-0.1-0.2-0.1-0.3-0.2-0.5c0.2-0.4,0.3-0.7,0.5-1.1c0,0,0,0,0,0c0,0,0,0,0,0
		C71.2,122.8,71.3,122.8,71.4,122.7 M69.1,123.8C69.1,123.7,69.1,123.7,69.1,123.8C69.1,123.7,69.1,123.7,69.1,123.8
		C69.2,123.7,69.2,123.8,69.1,123.8 M69.5,123.1c-0.1-0.1-0.1-0.1-0.2-0.2c0-0.1,0.1-0.1,0.1-0.2C69.4,122.8,69.4,122.9,69.5,123.1
		C69.5,123,69.5,123,69.5,123.1 M68.6,124.4c0,0.1,0.1,0.3,0.1,0.4c0,0.1-0.1,0.2-0.1,0.2c-0.1,0-0.2,0-0.2,0
		C68.4,124.8,68.5,124.6,68.6,124.4 M70.1,124.7c0,0.1,0.1,0.1,0.2,0.2c-0.1,0-0.2,0-0.2,0C70,124.8,70.1,124.7,70.1,124.7
		 M72.1,122.8c0.4,0.1,0.8,0.1,1.2,0.1c-0.4,0.8-0.7,1.6-1.1,2.4c-0.4,0-0.8,0-1.2-0.1C71.4,124.4,71.7,123.6,72.1,122.8 M74,123
		l0.5,0c-0.3,0.8-0.6,1.6-0.9,2.4c-0.2,0-0.4,0-0.7,0C73.3,124.6,73.6,123.8,74,123 M67,126.4c-0.2-0.1-0.5-0.2-0.7-0.3
		c0.1-0.2,0.2-0.4,0.3-0.7c0.3,0.1,0.5,0.1,0.8,0.1C67.2,125.8,67.1,126.1,67,126.4 M68.3,125.7c-0.1,0.1-0.2,0.1-0.4,0.2
		c0,0,0,0,0,0c0-0.1,0.1-0.1,0.1-0.2C68.1,125.7,68.2,125.7,68.3,125.7 M66.2,128.1c-0.3,0-0.5,0-0.8-0.1c0.2-0.4,0.4-0.9,0.6-1.3
		c0.2,0.1,0.5,0.2,0.7,0.3C66.5,127.3,66.4,127.7,66.2,128.1 M67.3,127.2c0.1,0,0.2,0,0.2,0.1c-0.1,0.3-0.3,0.6-0.4,0.9
		c-0.1,0-0.2,0-0.3,0C67,127.9,67.2,127.5,67.3,127.2 M64.3,127.7C64.2,127.7,64.2,127.7,64.3,127.7c0.1-0.5,0.3-1,0.5-1.5
		c0,0,0.1,0,0.1,0.1C64.7,126.7,64.5,127.2,64.3,127.7 M63.6,127.3c-0.2-0.1-0.3-0.2-0.5-0.3c0.2-0.5,0.4-0.9,0.6-1.4
		c0.2,0.1,0.4,0.2,0.5,0.3C64,126.4,63.8,126.9,63.6,127.3 M67.6,126.6c0.1-0.1,0.1-0.2,0.2-0.3c0,0.1,0.1,0.2,0.2,0.2
		c0,0.1-0.1,0.1-0.1,0.2C67.8,126.7,67.7,126.6,67.6,126.6 M64.5,125.3c-0.2-0.1-0.4-0.2-0.5-0.3c0.1-0.2,0.1-0.3,0.2-0.5
		c0.2,0.1,0.4,0.2,0.6,0.3C64.6,125,64.5,125.1,64.5,125.3 M73.3,126.1c-0.6,1.7-1.3,3.3-2,5c-0.4,0.1-0.7,0.2-1,0.3
		c0.7-1.4,1.4-2.9,2.1-4.3c0.1-0.1,0-0.3-0.1-0.4c0.1-0.2,0.2-0.4,0.3-0.6C72.9,126,73.1,126,73.3,126.1 M66.6,128.8
		c0.1,0,0.2,0,0.3,0c-0.3,0.6-0.7,1.3-1,1.9c-0.1,0-0.2,0-0.2,0C65.9,130.1,66.3,129.5,66.6,128.8 M64.9,130.6
		c-0.2-0.1-0.4-0.1-0.6-0.2c0.3-0.6,0.6-1.2,0.8-1.8c0.2,0.1,0.5,0.1,0.7,0.1C65.6,129.3,65.2,130,64.9,130.6 M62.5,129.6
		c-0.2-0.1-0.3-0.2-0.5-0.3c0,0,0.1-0.1,0.1-0.1c0.2-0.5,0.5-1.1,0.7-1.6c0.2,0.1,0.3,0.2,0.5,0.3C63,128.5,62.8,129,62.5,129.6
		 M45.1,149.7c-1.7,3.3-3.2,6.8-4.9,10.2c-1.5,2.9-3.3,6-6,8c4.2-11.4,10.1-21.8,17.4-31.5C53.3,139.1,46.1,147.8,45.1,149.7
		 M42.1,170.1c-0.2,0-0.4-0.1-0.6-0.2c0.3-0.3,0.6-0.7,0.9-1c0.2,0.1,0.5,0.2,0.8,0.3C42.8,169.5,42.5,169.8,42.1,170.1
		C42.1,170.1,42.1,170.1,42.1,170.1 M40.5,169.6c0,0-0.1,0-0.1,0l0.8-1.1c0,0,0.1,0.1,0.1,0.1C41,168.9,40.7,169.2,40.5,169.6
		 M39.8,169.2c-0.2,0-0.4-0.1-0.6-0.1c0,0-0.1,0-0.1,0c0.3-0.4,0.6-0.8,0.9-1.2c0.2,0.1,0.3,0.2,0.5,0.3
		C40.3,168.5,40,168.8,39.8,169.2 M64.2,132c-0.2,0-0.4-0.1-0.6-0.1c0.1-0.3,0.3-0.6,0.4-0.9c0.2,0.1,0.4,0.1,0.6,0.2
		C64.5,131.4,64.4,131.7,64.2,132 M65.5,131.4c-0.1,0.2-0.2,0.5-0.4,0.7c-0.1,0-0.1,0-0.2,0c0.1-0.2,0.2-0.5,0.4-0.7
		C65.4,131.4,65.5,131.4,65.5,131.4 M63,131.7c-0.1,0-0.1,0-0.2,0c0.2-0.3,0.4-0.6,0.6-0.9c0,0,0,0,0,0
		C63.3,131.1,63.1,131.4,63,131.7 M59.3,139.3c-0.1,0.2-0.3,0.5-0.4,0.7c-0.3-0.1-0.6-0.1-0.9-0.2l0.9-1.5
		C59,138.7,59.2,139,59.3,139.3 M59.6,137.9c0.1,0.1,0.3,0.2,0.4,0.3c-0.1,0.1-0.2,0.3-0.2,0.4C59.6,138.4,59.6,138.1,59.6,137.9
		 M60.4,140.1c0.2-0.3,0.4-0.7,0.6-1c0.2,0.1,0.4,0.3,0.5,0.4c-0.2,0.3-0.4,0.7-0.6,1l-0.3,0C60.6,140.3,60.5,140.2,60.4,140.1
		 M60,139.4c0.1-0.3,0.3-0.5,0.5-0.8c0,0,0,0,0,0C60.4,138.8,60.2,139.1,60,139.4 M61.5,138.3c0.2-0.4,0.5-0.8,0.7-1.2
		c0,0.3,0.4,0.5,0.6,0.2c0.3-0.4,0.6-0.8,0.8-1.3c-0.5,0.9-1.1,1.9-1.6,2.8C61.8,138.7,61.6,138.5,61.5,138.3 M61,137.7
		C61,137.7,61,137.7,61,137.7c0.8-1.7,1.7-3.3,2.5-5c0-0.1,0-0.1,0-0.2c0.1,0,0.2,0,0.3,0.1C63,134.3,62,136,61,137.7 M62.8,136.1
		c0.6-1.1,1.2-2.2,1.9-3.4c0.1,0,0.1,0,0.2,0C64.2,133.9,63.5,135,62.8,136.1 M60.6,136.3c-0.1,0.2,0,0.3,0.1,0.4
		c-0.1,0.1-0.1,0.2-0.2,0.3l0,0c-0.2-0.3-0.7,0-0.6,0.2c-0.1-0.1-0.1-0.1-0.2-0.2c0.1-0.2,0.2-0.4,0.3-0.5c0.1-0.2,0-0.3-0.1-0.4
		c0.4-0.8,0.9-1.6,1.3-2.4c0.1,0,0.3,0,0.3-0.1c0.3-0.5,0.7-0.9,1-1.4c0.1,0,0.1,0,0.2,0.1C62,133.7,61.3,135,60.6,136.3 M57.8,147
		l-0.3,0c0.7-1,1.4-2.1,2.1-3.1c0,0,0.1,0,0.1,0c0,0,0,0,0,0C59.1,144.9,58.5,145.9,57.8,147 M60.5,144c0.2,0.1,0.4,0.1,0.6,0.2l0,0
		c-0.8,0.9-1.6,1.8-2.4,2.6C59.3,145.9,59.9,145,60.5,144 M56.8,146.4c0.2,0,0.3-0.3,0.3-0.5c0.2-0.4,0.4-0.7,0.6-1.1
		c0.1,0,0.2,0.1,0.3,0.1c-0.4,0.6-0.8,1.2-1.2,1.8l-0.2,0C56.6,146.7,56.7,146.6,56.8,146.4 M55.9,146.6c-0.1,0-0.2,0-0.2-0.1
		c0.1-0.2,0.2-0.3,0.3-0.5c0.1,0,0.1,0.1,0.2,0.1C56,146.3,56,146.5,55.9,146.6 M58.5,144.3c-0.1-0.1-0.1-0.3-0.2-0.4
		c0.1-0.1,0.2-0.3,0.3-0.4c0.2,0,0.3,0.1,0.5,0.1C58.8,143.8,58.6,144.1,58.5,144.3 M56.6,143.9c-0.1,0-0.2,0-0.2-0.1
		c-0.2-0.1-0.5,0.1-0.5,0.3c0.1,0.2,0.1,0.5,0.1,0.7c-0.1,0.2-0.2,0.3-0.3,0.5c-0.3-0.1-0.6-0.2-0.8-0.3c0.5-0.8,1-1.6,1.5-2.3
		l0.8,0.3c0,0,0,0,0,0C57,143.3,56.8,143.6,56.6,143.9 M53.5,145.9c-0.3-0.1-0.6-0.2-0.9-0.4c0.8-1.1,1.6-2.3,2.3-3.5
		c0.2,0.1,0.5,0.2,0.7,0.3C54.9,143.5,54.2,144.7,53.5,145.9 M58.6,141.8c0.1,0.4,0.3,0.7,0.5,1.1c-0.3-0.1-0.6-0.2-1-0.3
		C58.3,142.3,58.5,142.1,58.6,141.8 M60.1,143.2C60.1,143.2,60.1,143.2,60.1,143.2c0.2-0.5,0.4-0.8,0.7-1.2c0,0,0.1,0,0.1,0.1
		C60.6,142.5,60.4,142.9,60.1,143.2C60.1,143.2,60.1,143.2,60.1,143.2 M59.7,142.5c-0.2-0.4-0.4-0.8-0.5-1.2c0.3,0.1,0.7,0.3,1,0.4
		C60,142,59.8,142.2,59.7,142.5 M57.5,142.4c-0.3-0.1-0.6-0.2-0.9-0.3c0.3-0.5,0.7-1.1,1-1.6c0.2,0.1,0.5,0.1,0.7,0.2
		c0,0,0,0.1,0,0.2c0,0.1,0,0.1,0.1,0.2C58.1,141.4,57.8,141.9,57.5,142.4 M53.5,148.3c0-0.3,0-0.5,0-0.8c0.2,0.1,0.3,0.1,0.4,0.2
		C53.8,148,53.7,148.1,53.5,148.3 M54.6,148c0.1,0,0.2,0.1,0.3,0.1c-0.2,0.3-0.4,0.6-0.5,0.9c-0.2,0-0.3-0.1-0.5-0.1
		C54.2,148.7,54.4,148.3,54.6,148 M57.1,147.6l0.3,0.1c-0.1,0.2,0,0.4,0.2,0.5c-0.4,0.4-0.8,0.9-1.1,1.3c-0.2,0-0.4-0.1-0.6-0.1
		C56.2,148.7,56.6,148.1,57.1,147.6 M58.7,147.8c0.3,0,0.6,0.1,0.9,0.1c-0.4,0.5-0.8,1.1-1.2,1.6c-0.4,0-0.8,0-1.1-0.1
		C57.7,148.9,58.2,148.4,58.7,147.8 M54.4,147.2c-0.2-0.1-0.5-0.2-0.7-0.3c0-0.1,0.1-0.1,0.1-0.2c0.3,0.1,0.5,0.2,0.8,0.2
		C54.5,147,54.4,147.1,54.4,147.2 M52.9,146.9C52.8,146.9,52.8,146.9,52.9,146.9c-0.2,0.4-0.4,0.7-0.6,1c-0.3-0.1-0.5-0.1-0.8-0.2
		c-0.1,0-0.2,0-0.2,0c0.4-0.5,0.7-1.1,1.1-1.6c0.3,0.1,0.6,0.3,0.9,0.4C53,146.6,53,146.7,52.9,146.9 M62.5,143.6
		c-0.8,1.2-1.7,2.5-2.5,3.7c-0.3,0-0.5-0.1-0.8-0.1C60.3,146,61.4,144.8,62.5,143.6 M69.9,132c0.4-0.1,0.7-0.1,1.1-0.2
		c-0.3,0.5-0.5,1.1-0.8,1.6c-0.5,0.2-0.9,0.4-1.4,0.7C69.2,133.4,69.5,132.7,69.9,132 M72.8,131.2c0.5-0.2,1-0.4,1.6-0.6
		c-0.1,0.3-0.2,0.6-0.3,0.9c0,0,0,0,0,0.1c-0.7,0.3-1.4,0.7-2.1,1C72.2,132.2,72.5,131.7,72.8,131.2 M72.4,130.7
		c-0.1,0-0.2,0-0.2,0.1c0.7-1.5,1.3-3.1,1.9-4.7c0.3,0,0.6,0,0.8,0C74.1,127.7,73.3,129.2,72.4,130.7 M77.2,122.5
		c-0.8,2.4-1.6,4.9-2.5,7.3c-0.4,0.2-0.9,0.4-1.3,0.5C74.9,127.8,76.1,125.2,77.2,122.5 M76.4,122.8c0-0.2-0.1-0.4-0.4-0.4
		c-0.2,0-0.4,0-0.6,0c0.4-1,0.8-2,1.1-3c0.4,0,0.5-0.5,0.2-0.6c0,0,0-0.1,0-0.1c0.2-0.4-0.5-0.7-0.6-0.3c0,0.1-0.1,0.2-0.1,0.3
		c-0.1,0-0.2,0-0.4,0c0.2-0.4,0.3-0.8,0.5-1.2c0.5,0,1,0,1.5,0c0.4,0,0.5-0.6,0.1-0.7c-0.4,0-0.9,0-1.4,0c0.2-0.5,0.4-1,0.6-1.6
		c0.7-0.2,1.5-0.3,2.2-0.5C78.4,117.4,77.5,120.1,76.4,122.8 M75.4,114.9c-0.1,0-0.1,0-0.1,0.1c0-0.1,0-0.1-0.1-0.2
		c0.2-0.6,0.4-1.2,0.6-1.8c0.1,0.1,0.2,0.2,0.3,0.3c0.3,0.3,0.7-0.1,0.5-0.5c-0.1-0.1-0.1-0.2-0.2-0.3c0.4-0.2,0.8-0.3,1.1-0.4
		c-0.3,0.9-0.6,1.8-0.9,2.6C76.2,114.7,75.8,114.8,75.4,114.9 M76.2,111.8c0.1-0.3,0.2-0.6,0.3-0.9c0.3,0,0.5-0.2,0.3-0.5
		c0,0-0.1-0.1-0.1-0.1c0-0.2,0.1-0.3,0.1-0.5c0.1,0.1,0.2,0.1,0.3,0.1c0.4-0.1,0.8-0.2,1.2-0.3c-0.2,0.6-0.4,1.1-0.6,1.7
		C77.3,111.4,76.7,111.6,76.2,111.8 M76.2,109.5c-0.1-0.1-0.2-0.2-0.2-0.3c0.1-0.3,0.2-0.6,0.3-0.9c0.1,0.1,0.2,0.2,0.2,0.3
		C76.4,109,76.3,109.2,76.2,109.5 M78.3,105c0.1-0.4,0.2-0.7,0.3-1.1c0.1-0.4-0.3-0.5-0.6-0.3c0-0.3,0.1-0.7,0.1-1
		c0.3,0,0.5-0.3,0.3-0.5c0-0.1-0.1-0.1-0.1-0.2c0.2,0,0.3-0.1,0.5-0.1c-0.1,0.5-0.2,1-0.3,1.5c-0.1,0.4,0.6,0.5,0.7,0.1
		c0.1-0.6,0.2-1.2,0.3-1.8c0.7-0.1,1.4-0.2,2.1-0.2c-0.1,0.9-0.2,1.9-0.4,2.8C80.3,104.6,79.3,104.8,78.3,105 M81.2,87
		c0-1.2,0.1-2.4,0.1-3.6c0.4,0,0.7-0.1,1-0.1c0,0.1,0,0.2,0,0.4c0,1.2-0.1,2.3-0.1,3.5L81.2,87z M78.2,83.1c-0.1,0-0.1,0-0.2,0
		c0-0.3,0-0.6,0-1c0.1,0.1,0.1,0.2,0.2,0.2L78.2,83.1z M78.8,80.8l0-0.2c0.6,0,1.2,0,1.8-0.1c0,0.7,0,1.5,0,2.2c-0.1,0-0.3,0-0.4,0
		C79.7,82.2,79.3,81.5,78.8,80.8 M81.3,80.5c0.4,0,0.7-0.1,1.1-0.1c0,0.7,0,1.5,0,2.2c-0.3,0-0.7,0.1-1,0.1
		C81.3,82,81.3,81.3,81.3,80.5 M78.8,80c0-0.4,0-0.8-0.1-1.2c0.2,0.2,0.3,0.4,0.5,0.6l0,0c0,0,0,0,0,0.1c0.3,0.3,0.7-0.1,0.5-0.5
		c-0.4-0.6-0.8-1.1-1.1-1.7c0-0.3,0-0.7-0.1-1.1c0.2,0,0.3,0,0.5,0.1c0.2,0.2,0.4,0.4,0.6,0.6c0.2,0.2,0.7-0.1,0.5-0.4c0,0,0,0,0,0
		l0.3,0c0.1,1.1,0.1,2.2,0.1,3.4C80,79.9,79.4,80,78.8,80 M81.2,76.7c0,0,0.1,0,0.1,0c0.4,0.1,0.5-0.6,0.1-0.7c-0.1,0-0.2,0-0.3-0.1
		c-0.1-1-0.1-1.9-0.2-2.9c0.4,0.1,0.8,0.2,1.3,0.4c0.1,2.1,0.2,4.2,0.2,6.3c-0.4,0-0.7,0.1-1.1,0.1C81.3,78.8,81.2,77.7,81.2,76.7
		 M80.4,75.8c-0.2,0-0.4-0.1-0.7-0.1c-0.4-0.7-0.9-1.4-1.4-2.1c0-0.3,0-0.5-0.1-0.8c0.4,0.3,0.8,0.7,1.2,1c0.3,0.2,0.7-0.1,0.5-0.4
		c-0.1-0.2-0.2-0.3-0.4-0.5c0.2,0,0.4,0.1,0.6,0.1C80.3,73.9,80.4,74.9,80.4,75.8 M73.1,72.1c-0.2,0-0.3,0-0.5,0
		c-0.1-0.9-0.2-1.9-0.4-2.8c0.2,0,0.3,0,0.5,0C72.9,70.3,73,71.2,73.1,72.1 M73.6,70.5c0,0.1,0.1,0.1,0.1,0.2c0,0.3,0,0.7,0.1,1
		C73.7,71.4,73.7,70.9,73.6,70.5 M74.3,70c0-0.2,0-0.5,0-0.7c0,0,0,0,0.1,0c0.5,0.8,1.1,1.6,1.7,2.3c0,0.1,0,0.2,0,0.3
		C75.5,71.2,75,70.6,74.3,70 M80.9,72.4c-0.1-1-0.2-1.9-0.3-2.9c0.5,0.1,0.9,0.1,1.3,0.2c0.1,1,0.2,2,0.2,3.1
		C81.7,72.6,81.3,72.4,80.9,72.4 M75.1,68.6L75.1,68.6c-0.3-0.4-0.6-0.7-0.9-1c0-0.2,0-0.4,0-0.5C74.4,67.5,74.7,68,75.1,68.6
		 M76.7,67.8c0.2,0.2,0.4,0.4,0.5,0.5c0,0.1,0,0.2,0,0.2c-0.1,0-0.3,0-0.5,0C76.8,68.3,76.8,68,76.7,67.8 M77.8,67.1
		c0-0.4-0.1-0.8-0.1-1.1c0.5,0.4,1,0.8,1.6,1.2c0,0.5,0,1,0,1.5c-0.1,0-0.2,0-0.4,0C78.6,68.1,78.2,67.6,77.8,67.1 M80.3,67.6
		c0.2,0,0.3-0.3,0.2-0.5c-0.1-0.2-0.2-0.4-0.4-0.6l-0.1-0.8c0.5,0.2,1,0.3,1.5,0.5c0.1,0.9,0.2,1.8,0.3,2.8
		c-0.5-0.1-0.9-0.1-1.4-0.2C80.4,68.4,80.4,68,80.3,67.6 M79.2,66.3c-0.6-0.4-1.1-0.8-1.6-1.2c0.2,0,0.4,0.1,0.6,0.1
		C78.6,65.6,79,66,79.2,66.3 M73.3,64.5c0,0-0.1,0-0.1,0c-0.2-1.3-0.4-2.7-0.6-4c0.1,0,0.2,0,0.4,0C73,61.9,73.2,63.2,73.3,64.5
		 M73.8,62.6c0.3,0.6,0.7,1.2,1,1.7c-0.3,0-0.6,0.1-0.9,0.1C73.9,63.8,73.8,63.2,73.8,62.6 M79.9,64.9c0-0.1,0-0.2,0-0.2
		c0-0.6-0.1-1.1-0.1-1.7c0.1-0.1,0.2-0.3,0.1-0.5c0-0.1-0.1-0.1-0.1-0.2c0-0.5-0.1-1-0.1-1.5c0.4,0.1,0.8,0.2,1.2,0.3
		c0.2,1.4,0.4,2.8,0.6,4.3C81,65.2,80.5,65,79.9,64.9 M73.5,59.8c-0.1-0.5-0.1-1-0.2-1.4c0.1,0.5,0.3,1,0.5,1.4
		C73.7,59.8,73.6,59.8,73.5,59.8 M76,58.9c0,0.2,0.1,0.3,0.1,0.5c-0.3-0.2-0.5-0.4-0.8-0.6c0-0.3-0.1-0.5-0.1-0.8
		C75.5,58.3,75.8,58.6,76,58.9 M76.7,58.5c0.5,0.4,1.1,0.7,1.6,0.9c0,0.2,0.1,0.3,0.1,0.5c-0.2,0-0.4,0-0.6-0.1
		c-0.4-0.4-0.7-0.8-1.1-1.2C76.7,58.6,76.7,58.5,76.7,58.5 M76.5,57.5c0-0.1,0-0.1,0-0.2c0.2,0,0.3,0,0.5,0c0.4,0.4,0.7,0.8,1,1.2
		C77.5,58.2,77,57.9,76.5,57.5 M73.6,57.1c-0.2,0-0.3,0-0.5,0.1c-0.1-0.6-0.2-1.2-0.3-1.7c0.2,0.2,0.4,0.4,0.5,0.6
		C73.4,56.4,73.5,56.7,73.6,57.1 M74.8,56.1c-0.1-0.4-0.2-0.9-0.3-1.3c0.3,0.3,0.7,0.7,1,1c0.1,0.3,0.1,0.7,0.2,1c0,0-0.1,0-0.1,0
		C75.3,56.6,75.1,56.3,74.8,56.1 M76.1,55.4c0-0.3-0.1-0.5-0.1-0.8c0.5,0.3,1,0.7,1.5,1c0.1,0.3,0.1,0.6,0.2,1c-0.1,0-0.3,0-0.4,0
		C76.9,56.2,76.5,55.8,76.1,55.4 M77.2,54.3c-0.4-0.3-0.8-0.6-1.2-0.9c0.2,0.1,0.5-0.1,0.4-0.4c0-0.1-0.1-0.2-0.1-0.3
		c0.1,0,0.2,0,0.4,0c0.1,0,0.1,0.1,0.1,0.1C76.9,53.2,77.1,53.7,77.2,54.3 M71.6,52.4c-0.3,0.1-0.6,0.1-0.9,0.2
		c-0.2-0.8-0.4-1.5-0.7-2.3c0-0.2-0.1-0.3-0.1-0.5c0.3-0.1,0.6-0.2,0.9-0.2l0,0c0.1,0.2,0.1,0.4,0.1,0.5c-0.2,0.1-0.2,0.3-0.1,0.5
		c0.1,0.2,0.2,0.3,0.3,0.4C71.4,51.6,71.5,52,71.6,52.4 M73.8,51.6c-0.1-0.4-0.2-0.8-0.3-1.3c0.4,0.3,0.8,0.5,1.1,0.8
		c0,0.3,0.1,0.5,0.2,0.8c-0.2,0-0.4,0-0.6,0.1C74.1,51.8,74,51.7,73.8,51.6 M77.3,51.9c-0.1-0.4-0.2-0.9-0.3-1.3
		c-0.1-0.4-0.7-0.2-0.6,0.2c0,0.1,0,0.2,0.1,0.3c-0.3-0.2-0.5-0.5-0.8-0.7c-0.1-0.3-0.2-0.7-0.3-1c0.1,0,0.2,0,0.2,0
		c0.7,0.4,1.4,0.8,2.1,1.1c0.1,0.5,0.2,1,0.3,1.6C77.7,52,77.5,52,77.3,51.9 M70.4,49c-0.2,0-0.4,0.1-0.6,0.1
		c-0.1-0.5-0.2-0.9-0.3-1.4c0,0,0,0.1,0,0.1C69.8,48.3,70.1,48.7,70.4,49 M72.1,48.5C72,48.3,72,48,71.9,47.8
		c0.1,0.2,0.3,0.3,0.5,0.5c0,0.1,0.1,0.3,0.1,0.4c0,0,0,0-0.1,0C72.3,48.7,72.2,48.6,72.1,48.5 M73,47.9c0-0.2-0.1-0.3-0.1-0.5
		c0.4,0.3,0.8,0.7,1.3,1c0,0,0,0.1,0,0.1c-0.2,0-0.3,0-0.5,0C73.4,48.4,73.2,48.2,73,47.9 M69.2,44.9c-0.1,0-0.2,0.1-0.4,0.1
		c-0.1-0.3-0.1-0.6-0.2-0.9C68.8,44.4,69,44.6,69.2,44.9 M69.8,44.1c0-0.1-0.1-0.2-0.1-0.2c0.3,0,0.6-0.1,1-0.1c0.1,0,0.1,0,0.2,0
		c0.3,0.3,0.6,0.6,0.9,0.8c-0.4,0-0.9,0-1.3,0.1C70.3,44.5,70.1,44.3,69.8,44.1 M67.7,43.6c-0.2-0.6-0.5-1.2-0.7-1.8
		c0.1,0,0.2,0,0.4,0C67.5,42.4,67.6,43,67.7,43.6C67.7,43.6,67.7,43.6,67.7,43.6 M76.2,45.2c-0.4-0.3-0.8-0.6-1.3-1
		c0.4,0.1,0.9,0.2,1.3,0.4c0.1,0.2,0.1,0.4,0.2,0.6C76.3,45.3,76.2,45.2,76.2,45.2 M72.7,44.1c0.1,0.2,0.1,0.4,0.2,0.5c0,0,0,0,0,0
		c-0.3-0.3-0.6-0.6-1-0.9c0.1,0,0.2,0,0.2,0C72.3,43.9,72.5,44,72.7,44.1 M53.5,52.8c0.1,0.5,0.2,1,0.3,1.5
		c-0.2,0.1-0.4,0.2-0.7,0.4c-0.1-0.5-0.2-0.9-0.4-1.4C53,53.1,53.3,52.9,53.5,52.8 M52.1,53.6C52.2,53.6,52.2,53.6,52.1,53.6
		c0.2,0.5,0.3,0.9,0.4,1.4c-0.1,0-0.1,0.1-0.2,0.1C52.3,54.6,52.2,54.1,52.1,53.6 M54,54.9c0.2,0.7,0.3,1.4,0.5,2.1
		c-0.1,0.1-0.3,0.3-0.4,0.4c0,0-0.1,0.1-0.1,0.1c-0.2-0.7-0.4-1.5-0.5-2.2C53.5,55.2,53.8,55.1,54,54.9 M52.5,55.8
		c0.1,0,0.2-0.1,0.2-0.1c0.2,0.8,0.4,1.6,0.6,2.4c-0.1,0.1-0.3,0.2-0.4,0.4C52.7,57.5,52.6,56.7,52.5,55.8 M51.6,57.9
		c0.5,2.1,1.1,4.1,1.5,6.2c0,0.2,0.1,0.3,0.1,0.5c0,0,0,0.1,0,0.1c0.1,0.5,0.2,0.9,0.2,1.4C52.8,63.4,52.1,60.7,51.6,57.9 M54,64.7
		c0.2-0.2,0.4-0.3,0.6-0.4c0.2,0.9,0.3,1.8,0.5,2.7c-0.2,0.1-0.3,0.2-0.5,0.3C54.5,66.4,54.2,65.6,54,64.7 M55,68
		c0-0.1,0.2-0.2,0.3-0.3c0.1,0.6,0.2,1.2,0.3,1.8c0.1,0.6,0.2,1.1,0.3,1.7C55.5,70.2,55.2,69.1,55,68C54.9,68,54.9,68,55,68
		 M54.8,69.9c0.2,0.6,0.3,1.1,0.5,1.7c-0.1,0-0.1,0.1-0.2,0.1C55,71.1,54.9,70.5,54.8,69.9 M55.4,73.9c-0.1-0.5-0.1-1-0.2-1.5
		c0.1,0,0.2-0.1,0.3-0.1c0.3,1,0.6,2.1,0.9,3.1c0,0.1,0.1,0.1,0.1,0.2c0,0.4,0.1,0.7,0.1,1.1c-0.2,0.1-0.3,0.2-0.5,0.3
		C55.9,75.8,55.6,74.9,55.4,73.9 M56.7,80.3c-0.1-0.9-0.3-1.8-0.5-2.7c0,0,0,0,0.1,0c0.1-0.1,0.2-0.1,0.4-0.2c0.1,1,0.2,2.1,0.3,3.1
		C56.9,80.4,56.8,80.4,56.7,80.3 M58.2,80.8c0.4-0.2,0.2-0.8-0.2-0.6c-0.1,0-0.2,0.1-0.3,0.1c-0.1-1.1-0.2-2.2-0.4-3.3
		c0.4-0.2,0.8-0.3,1.3-0.3c0.5,2.7,0.9,5.3,1.3,8c-0.1,0.1-0.2,0.2-0.2,0.3c0.5,6.1,0.9,12.3,0.4,18.4c-0.4,4.5-1.5,8.8-2.5,13.1
		c0-0.1,0-0.3-0.1-0.4c0,0,0,0,0,0c1.2-6.4,2-12.8,2.2-19.3c0-0.4-0.7-0.5-0.7-0.1c-0.1,1.8-0.2,3.7-0.4,5.5
		c0.3-4.1,0.3-8.2,0.1-12.2c0-0.1,0.1-0.1,0-0.2c0-0.2-0.1-0.4-0.1-0.5c-0.1-1.4-0.2-2.7-0.3-4.1c0-0.2-0.2-0.3-0.4-0.3
		c-0.2-1.3-0.3-2.5-0.5-3.8C57.9,80.9,58,80.9,58.2,80.8 M57.2,84.1c-0.1-1-0.2-2-0.4-3.1c0.1,0,0.2,0,0.2,0
		c0.3,2.7,0.6,5.4,1.1,8.1c0.3,4.9,0.3,9.7-0.2,14.5C58.2,97.2,57.8,90.5,57.2,84.1 M51.4,130.6c1.4-2.1,2.5-4.2,3.4-6.6
		c0.9-2.3,1.5-4.7,1.9-7.1c0.4-1.9,0.6-3.9,0.8-5.8c0-0.6,0.1-1.2,0.1-1.7c0.1,0,0.3-0.1,0.3-0.2c-0.4,2.6-0.8,5.2-1.3,7.8
		c-0.1,0.4-0.1,0.7-0.2,1.1c0,0.2,0.1,0.4,0.3,0.4c-0.3,1.4-0.8,2.8-1.2,4.2c-0.2,0-0.3,0.1-0.3,0.3c0,0.2,0,0.4,0,0.7
		c-0.8,2.1-1.7,4.2-2.8,6.2c-0.1,0-0.1,0.1-0.2,0.2c0,0,0,0.1,0,0.1c-0.1,0.2-0.3,0.5-0.4,0.7C51.7,130.6,51.5,130.6,51.4,130.6
		 M47.5,135.9c0-0.1,0.1-0.1,0.1-0.2c1.1-1.4,2.2-2.8,3.2-4.3c-1.5,2.8-3.1,5.4-5,7.9c0.6-1,1.3-2,1.9-3
		C47.9,136.1,47.7,136,47.5,135.9 M38.8,148.6c2-3.8,4.4-7.2,7-10.5c-1.4,2.1-2.8,4.3-4.2,6.4c-0.1,0-0.2,0-0.3,0.1
		c-1.4,2.1-2.6,4.3-3.8,6.5C38,150.3,38.4,149.4,38.8,148.6 M36,155.7c1.2-2.6,2.5-5.1,3.9-7.5c0,0,0,0,0.1,0
		c1.4-2.1,2.8-4.2,4.2-6.3c0,0,0,0,0.1,0.1c-3,4.7-5.4,9.7-7.7,14.8c-0.1,0-0.2,0.1-0.2,0.2c-0.2,0.5-0.4,1-0.5,1.5
		c-0.1,0.2-0.2,0.4-0.3,0.6c0,0.1,0,0.1,0,0.2c-1.1,2.8-2.5,5.6-3.9,8.3c0-0.1-0.1-0.1-0.1-0.2c0.3-0.7,0.6-1.5,0.9-2.2
		c0,0,0-0.1,0-0.1c1.3-3,2.4-6,3.8-9C36.3,156,36.2,155.8,36,155.7 M32.2,163.1c0.5-1,1-2.1,1.5-3.1c0,0.1,0.1,0.1,0.1,0.1
		c-0.6,1.6-1.3,3.1-1.9,4.7c-0.3,0.2-0.5,0.5-0.8,0.7C31.4,164.7,31.8,163.9,32.2,163.1 M30.3,167.1c0.3-0.3,0.6-0.6,1-0.9
		c-0.3,0.6-0.6,1.2-0.8,1.9c-0.4,0.4-0.8,0.9-1.1,1.3C29.6,168.6,30,167.8,30.3,167.1 M28.5,170.9c0,0,0.1,0,0.2-0.1
		c0.1-0.1,0.3-0.3,0.4-0.4c-0.1,0.4-0.3,0.8-0.5,1.2c-0.3,0.3-0.6,0.7-1,1C27.9,172.1,28.2,171.5,28.5,170.9 M2.1,192.4
		c-0.1,0-0.2-0.1-0.3-0.1c0.2,0,0.4,0,0.5-0.1c0.1,0,0.2-0.1,0.3-0.1c0,0.2,0.1,0.3,0.2,0.4C2.6,192.5,2.3,192.5,2.1,192.4
		 M39.7,176.5C39.6,176.5,39.6,176.4,39.7,176.5c0-0.1,0.1-0.2,0.1-0.2C39.8,176.3,39.7,176.4,39.7,176.5 M41.1,174.5
		c-1.4,1-2.7,2-4,3c-0.3,0.3,0.1,0.8,0.4,0.5c0.5-0.4,1.1-0.9,1.6-1.3c-0.9,1.1-2,2.1-3.4,2.5c-0.4,0.1-0.2,0.8,0.2,0.6
		c0.6-0.2,1.1-0.5,1.6-0.8c-0.6,0.8-1.3,1.6-2,2.3c-2.1,2.4-4.5,4.8-7.5,6.1c-2.6,1.1-5.4,1.9-8.1,2.6c-3.3,0.9-6.7,1.6-10.1,2.1
		c-1.9,0.3-4,0.5-6,0.5c0.2-0.2,0.2-0.6-0.1-0.6c-0.1,0-0.3,0-0.5,0c0,0-0.1,0-0.1,0c0-0.1,0-0.1,0-0.2c0-0.1-0.1-0.3-0.2-0.4
		c0-0.1-0.1-0.3-0.3-0.3c-0.3,0-0.8-0.1-0.9,0.2c0,0.1,0,0.1,0,0.2c-0.1,0-0.2,0.1-0.3,0.2c-0.2,0.1-0.2,0.5,0,0.6
		c-0.2,0-0.3-0.1-0.5-0.1c3.3-6.6,12.3-5.6,18-9.2c0.7-0.5,1.4-1,2.1-1.6c-0.3,0.4-0.6,0.8-1,1.1c-0.3,0.3,0.2,0.8,0.5,0.4
		c2.2-2.3,3.9-4.9,5.4-7.6c0.1-0.1,0.1-0.2,0.2-0.3c0,0,0,0,0,0c0.5-0.5,1-1,1.4-1.5c-1.6,3.3-3.7,6.3-6,9.1
		c-0.3,0.3,0.2,0.8,0.5,0.4c0.9-1.1,1.8-2.2,2.6-3.4c-0.3,0.6-0.5,1.2-0.6,1.7c0,0.1,0,0.2,0,0.2c-0.3,0.2,0.1,0.8,0.4,0.5
		c2.5-1.6,4.3-4,5.8-6.5c0.1-0.2-0.1-0.5-0.3-0.5c-0.2,0-0.4,0.1-0.6,0.1c0.6-0.8,1.2-1.6,1.7-2.4c0.1,0.1,0.2,0.3,0.3,0.4
		c-0.4,0.4-0.8,0.9-1.1,1.4c-0.2,0.4,0.3,0.8,0.5,0.4c0.2-0.4,0.5-0.7,0.8-1.1c0,0,0,0,0,0c0.4,0.3,0.9,0.6,1.3,0.9
		c-1.2,1.3-2.3,2.6-3.6,3.8c-0.3,0.3,0.2,0.7,0.5,0.4c0.6-0.6,1.2-1.2,1.7-1.8c0,0.1,0,0.2,0.1,0.4c0.2,0.2,0.4,0.3,0.6,0.5
		c-0.3,0.3-0.6,0.5-0.9,0.8c-0.1-0.1-0.2-0.2-0.3-0.3c-0.3-0.3-0.7,0.2-0.4,0.5c0.1,0.1,0.2,0.2,0.3,0.3c-0.2,0.2-0.5,0.4-0.7,0.6
		c-0.4-0.3-0.7-0.7-1-1.1c-0.3-0.3-0.8,0.1-0.5,0.4c0.3,0.4,0.7,0.8,1,1.1c-0.3,0.3-0.6,0.5-1,0.8c-0.1-0.1-0.3-0.3-0.4-0.4
		c-0.3-0.3-0.8,0-0.5,0.4c0.1,0.1,0.2,0.3,0.4,0.4c-0.3,0.2-0.5,0.4-0.8,0.6c0-0.1-0.1-0.1-0.1-0.1c-0.3-0.3-0.7,0.2-0.4,0.5
		c0,0,0,0,0,0c-0.4,0.3-0.7,0.5-1.1,0.8c-0.2-0.2-0.3-0.4-0.5-0.5c-0.3-0.3-0.8,0-0.5,0.4c0.1,0.2,0.3,0.4,0.5,0.5
		c-0.3,0.2-0.5,0.4-0.8,0.5c-0.3-0.3-0.5-0.6-0.8-0.9c-0.3-0.4-0.8,0-0.5,0.4c0.2,0.3,0.5,0.6,0.7,0.8c-0.4,0.3-0.9,0.5-1.3,0.8
		c-0.2-0.2-0.4-0.3-0.6-0.5c-0.3-0.3-0.8,0.2-0.4,0.5c0.2,0.2,0.5,0.4,0.8,0.6c0,0,0,0,0,0c0.5,0.4,1.1,0.8,1.8,1
		c0.4,0.2,0.7-0.5,0.3-0.6c-0.5-0.2-0.9-0.4-1.2-0.7c0.4-0.2,0.8-0.5,1.2-0.7c0.5,0.4,1,0.8,1.6,1.1c0.4,0.2,0.7-0.4,0.3-0.6
		c-0.5-0.2-0.9-0.5-1.3-0.9c0.3-0.2,0.5-0.4,0.8-0.5c0.5,0.5,1.1,0.9,1.8,1.2c0.4,0.2,0.7-0.4,0.3-0.6c-0.5-0.3-1-0.6-1.5-1
		c0.4-0.3,0.7-0.5,1.1-0.8c0.5,0.4,1.1,0.7,1.7,1c0.4,0.2,0.7-0.5,0.3-0.6c-0.5-0.2-1-0.5-1.4-0.8c0.3-0.2,0.5-0.4,0.8-0.6
		c0.5,0.4,1,0.7,1.5,1c0.4,0.2,0.7-0.4,0.3-0.6c-0.4-0.3-0.9-0.5-1.3-0.8c0.3-0.3,0.6-0.5,1-0.8c0.5,0.3,0.9,0.6,1.5,0.9
		c0.4,0.2,0.7-0.4,0.3-0.6c-0.1-0.1-0.2-0.1-0.3-0.2c0,0,0,0,0.1,0c0.2-0.2,0.3-0.4,0.4-0.6c0.2,0.1,0.5,0.3,0.8,0.4l0.1,0
		c-1.7,1.9-3.6,3.7-5.7,5.2c-0.4,0.2,0,0.8,0.4,0.5c2.9-2,5.4-4.6,7.6-7.3c0.1,0,0.2-0.1,0.3-0.1c0.2-0.1,0.2-0.3,0.2-0.4
		c0.4-0.5,0.7-0.9,1-1.4c0,0,0.1,0,0.1,0c0.2,0,0.3-0.2,0.2-0.4c0.4-0.5,0.8-1,1.1-1.6l0,0c0.2,0,0.3-0.1,0.4-0.2
		c1.1-0.5,2.2-1,3.2-1.6C41.6,173.8,41.4,174.1,41.1,174.5 M33.3,180.2c-0.2-0.1-0.4-0.2-0.6-0.3c0.2-0.3,0.5-0.6,0.8-1
		c0.3,0.2,0.6,0.3,1,0.4c-0.3,0.4-0.6,0.8-0.9,1.1C33.5,180.3,33.4,180.2,33.3,180.2 M31.3,180.5c0,0.1-0.1,0.1-0.1,0.2
		c-0.1-0.1-0.2-0.2-0.3-0.2c0.2-0.2,0.4-0.4,0.7-0.6c0.1,0,0.1,0.1,0.2,0.1C31.6,180.2,31.5,180.3,31.3,180.5 M50.5,161.6
		c-2.5,3-4.7,6.2-7,9.4c-1.2,1.6-3,2.5-4.9,3.3c-0.1-0.2-0.4-0.3-0.5-0.1c-0.1,0.1-0.1,0.2-0.2,0.3c-0.2,0-0.5-0.1-0.7-0.2
		c0.4-0.4,0.8-0.8,1.2-1.2c0.5,0.1,1.1,0.2,1.6,0c0.4-0.1,0.4-0.8-0.1-0.7c-0.1,0-0.2,0-0.3,0c0.3-0.1,0.5-0.3,0.8-0.4
		c0.2,0,0.4,0,0.6,0c0.3,0,0.4-0.3,0.2-0.5c1.5-1.1,2.8-2.7,4.3-3.9c0.3-0.3-0.1-0.8-0.4-0.6c-0.6,0.5-1.1,1-1.7,1.5
		c0,0-0.1-0.1-0.1-0.1c-0.2-0.1-0.4-0.1-0.6-0.2c0.5-0.4,1-0.8,1.6-1.2c0.1,0,0.2,0,0.3,0c0.3,0,0.4-0.3,0.4-0.5
		c0.3-0.2,0.6-0.4,1-0.6c0.4-0.2,0-0.8-0.4-0.6c-0.5,0.3-0.9,0.6-1.4,0.9c-0.2,0-0.4-0.1-0.6-0.1c0.3-0.5,0.7-0.9,1-1.3
		c0.3,0.1,0.5,0.1,0.8,0.1c0.4,0,0.6-0.6,0.1-0.7c-0.2,0-0.3,0-0.5-0.1c0.2-0.3,0.4-0.5,0.6-0.8c0.3,0.1,0.6,0.1,0.9,0.1
		c-0.2,0.2-0.3,0.5-0.5,0.7c-0.2,0.4,0.3,0.8,0.5,0.4c0.5-0.9,1.1-1.8,1.6-2.6c1-0.4,2-0.9,2.9-1.4C51,161.1,50.8,161.3,50.5,161.6
		 M52.3,159.6c-0.1,0-0.2,0-0.3,0c-1,0.6-2,1.1-3.1,1.6c0.5-0.9,1-1.7,1.6-2.6c1.6-0.8,3.3-1.7,4.9-2.6c0.4-0.2,0-0.8-0.4-0.5
		c-1.2,0.7-2.5,1.4-3.8,2c0.4-0.6,0.8-1.2,1.2-1.8c2.7-0.4,5.2-2.4,7.2-4C57.1,154.3,54.6,156.9,52.3,159.6 M59.6,151.7
		c0.3-0.3-0.1-0.8-0.4-0.5c-1.8,1.4-3.9,3.2-6.2,3.8c0.6-0.9,1.3-1.8,2-2.7c0.7,0.1,1.4,0.1,2.1,0.1c0.4,0,0.4-0.7-0.1-0.7
		c-0.5,0-1,0-1.5-0.1c0.4-0.5,0.8-1,1.2-1.5c0.4,0.1,0.9,0.1,1.3,0.1c0.1,0.2,0.4,0.4,0.6,0.2c0,0,0.1-0.1,0.1-0.1
		c0.1,0,0.2,0,0.2,0c0.3,0,0.4-0.4,0.2-0.6c0.4-0.5,0.8-1.1,1.2-1.6c0.1,0,0.3,0,0.4,0.1c0.4,0.1,0.5-0.6,0.1-0.7c0,0,0,0,0,0
		c0.3-0.5,0.7-0.9,1-1.4c-0.1,0.2,0.1,0.5,0.4,0.4c1.8-0.6,3.3-1.5,4.7-2.7C64.5,146.5,62,149.1,59.6,151.7 M69,141.2
		c-0.5,0.6-1,1.2-1.5,1.8c-0.1-0.2-0.4-0.4-0.6-0.2c-1.4,1.4-3.1,2.3-4.9,2.9c0,0-0.1,0-0.1,0.1c0.4-0.6,0.8-1.2,1.2-1.8
		c0,0,0,0,0,0c0.4-0.3,0.9-0.5,1.3-0.8c-0.3,0.3-0.5,0.7-0.8,1c-0.3,0.3,0.2,0.8,0.5,0.4c0.6-0.8,1.3-1.6,1.8-2.4
		c1.7-1.1,3.3-2.2,4.9-3.5C70.2,139.7,69.6,140.5,69,141.2 M71.9,137.4c-0.1-0.1-0.3-0.1-0.4,0c-1.4,1.3-2.9,2.4-4.5,3.5
		c0.2-0.4,0.5-0.8,0.7-1.1c1.7-1,3.3-2.1,4.8-3.2C72.3,136.9,72.1,137.2,71.9,137.4 M73.3,135.4c-0.1-0.1-0.2-0.1-0.3,0
		c-1.5,1.2-3,2.2-4.6,3.2c0.3-0.5,0.6-1,0.8-1.5c1.9-0.9,3.6-2.2,5.2-3.5C74,134.2,73.7,134.8,73.3,135.4 M82.5,114.2
		c-1.7,6.9-4.4,13.2-7.9,19.1c0-0.2-0.3-0.5-0.5-0.3c-1.4,1.1-2.8,2.2-4.3,3.1c0.3-0.5,0.5-1,0.7-1.5c0.1,0,0.1,0,0.2-0.1
		c0.2-0.2,0.4-0.5,0.5-0.7c1.4-0.7,2.8-1.4,4.2-2c0.4-0.2,0.2-0.8-0.2-0.6c-0.1,0-0.1,0.1-0.2,0.1c0.1-0.3,0.2-0.6,0.3-0.9
		c0.4-0.2,0.7-0.3,1.1-0.4c0.4-0.2,0.2-0.8-0.2-0.6c-0.2,0.1-0.4,0.2-0.6,0.2c1.8-5,3.4-10,4.9-15.1c0.7-0.2,1.3-0.4,2-0.7
		c0.1,0,0.1-0.1,0.2-0.1C82.6,113.8,82.5,114,82.5,114.2 M84.4,58.3c1.3,8.1,1.5,16.4,1.5,24.7c0,10.2-0.9,20.5-3.3,30.4
		c0-0.2-0.2-0.4-0.4-0.3c-0.5,0.2-1,0.3-1.5,0.5c0.2-0.7,0.4-1.5,0.7-2.2c0.1-0.4-0.5-0.5-0.7-0.1c-0.1,0.3-0.2,0.7-0.3,1
		c-0.2-0.1-0.3,0-0.4,0.2c-0.2,0.5-0.3,1-0.5,1.5c-0.7,0.2-1.4,0.4-2.2,0.6c0.3-0.9,0.7-1.8,1-2.8c1.6-0.5,3.2-1,4.7-1.6
		c0.4-0.2,0.2-0.8-0.2-0.6c-1.4,0.5-2.8,1-4.2,1.4c0.2-0.5,0.3-0.9,0.5-1.4c0-0.1,0-0.2,0-0.3c1.4-0.5,2.8-1,4.2-1.6
		c0.4-0.2,0.2-0.8-0.2-0.6c-0.7,0.3-1.4,0.7-2.2,0.9c0,0,0.1-0.1,0.1-0.1c0.4-1,0.7-2,0.9-3c0.7-0.2,1.3-0.5,2-0.7
		c0.4-0.2,0.2-0.8-0.2-0.6c-0.5,0.2-1,0.4-1.6,0.6c0.2-0.9,0.3-1.7,0.3-2.6c0.4,0,0.8-0.1,1.2-0.1c0.4,0,0.4-0.7-0.1-0.7
		c-0.3,0-0.7,0.1-1,0.1c0-0.5,0.1-1.1,0.1-1.6c0.4,0.1,0.8,0.1,1.3,0.2c0.4,0.1,0.5-0.6,0.1-0.7c-0.4-0.1-0.9-0.1-1.4-0.2
		c0-0.3,0-0.5,0-0.8c0-0.4,0-0.7,0-1.1l2,0.3c0.4,0.1,0.6-0.6,0.1-0.7l-2.1-0.3c0.1-3.7,0.3-7.4,0.4-11.1c0-0.5,0-1.1,0-1.6
		c0.1,0,0.1,0,0.2,0c0.4,0,0.4-0.7-0.1-0.7c0,0-0.1,0-0.1,0c0-0.7,0-1.5,0-2.2l0.1,0c0.4-0.1,0.4-0.8-0.1-0.7c0,0,0,0-0.1,0
		c0-2-0.1-4-0.2-5.9l0.2,0.1c0.4,0.2,0.7-0.5,0.3-0.6C83.2,73,83,73,82.8,72.9c-0.1-1.1-0.1-2.1-0.2-3.2l0.2,0
		c0.4,0.1,0.5-0.6,0.1-0.7c-0.1,0-0.2,0-0.3,0c-0.1-0.8-0.2-1.7-0.3-2.5c0.2,0.1,0.4,0.2,0.6,0.3c0.4,0.2,0.7-0.4,0.3-0.6
		c-0.3-0.2-0.6-0.3-0.9-0.5c-0.2-1.4-0.4-2.9-0.6-4.3c0.1,0,0.2,0.1,0.2,0.1c0.4,0.2,0.7-0.5,0.3-0.6c-0.2-0.1-0.4-0.2-0.7-0.2
		c-0.1-0.8-0.3-1.5-0.4-2.3c-0.1-0.4-0.8-0.4-0.7,0.1c0.1,0.6,0.2,1.3,0.4,1.9c-0.4-0.1-0.7-0.2-1.1-0.3c-0.1-0.9-0.2-1.9-0.3-2.8
		c0.4,0.1,0.9,0.1,1.3,0.3c0.4,0.1,0.5-0.5,0.1-0.7c-0.5-0.2-1-0.2-1.5-0.3c-0.1-1.2-0.3-2.4-0.5-3.7c0.6,0.2,1.3,0.5,1.9,0.8
		c0.4,0.2,0.7-0.4,0.3-0.6c-0.7-0.4-1.5-0.7-2.3-1c-0.1-0.7-0.3-1.4-0.4-2.1c0.2,0.1,0.5,0.2,0.8,0.3c0.4,0.2,0.7-0.4,0.3-0.6
		c-0.4-0.2-0.8-0.4-1.2-0.5c-0.2-1-0.4-2-0.7-3c0.5,0.2,1,0.4,1.5,0.6c0.4,0.2,0.7-0.4,0.3-0.6c-0.7-0.3-1.3-0.6-2-0.8
		c0-0.2-0.1-0.4-0.2-0.6c0.7,0.3,1.4,0.6,2.1,1c0.4,0.2,0.7-0.4,0.3-0.6c-0.8-0.5-1.7-0.9-2.6-1.2c-0.2-0.6-0.4-1.2-0.6-1.8
		c0.1,0,0.1-0.1,0.2-0.1c0.9,0.3,1.8,0.6,2.7,1.1c4.7,15.9,5.7,32.4,4.3,49c0,0.4,0.6,0.5,0.7,0.1c1.4-16.4,0.4-32.8-4.1-48.6
		c0.3,0,0.6-0.4,0.3-0.6c-0.2-0.1-0.4-0.2-0.6-0.3c-0.5-1.6-1-3.1-1.5-4.7C81.6,44.3,83.3,51.5,84.4,58.3 M76.3,35.6
		c0.3,0.5,0.6,0.9,0.9,1.4C77.1,37,77,37.2,77,37.4c0.6,1.7,1.2,3.4,1.7,5.1c-0.9-0.5-1.9-0.8-2.8-1.1c0,0,0,0-0.1,0
		c-0.1-0.3-0.2-0.6-0.4-0.9c0,0,0.1,0,0.1,0c0.1,0.1,0.2,0.1,0.3,0.1c0.6,0.3,1.1,0.7,1.7,1.1c0.3,0.3,0.8-0.3,0.4-0.5
		c-0.6-0.5-1.2-0.9-1.8-1.2c-0.2-0.4-0.4-0.8-0.6-1.2c0.3,0.2,0.6,0.4,0.8,0.6c0.3,0.3,0.8-0.3,0.4-0.5c-0.6-0.4-1.2-0.8-1.9-1.2
		c-0.7-1.3-1.6-2.5-2.6-3.6c0.1,0,0.2-0.1,0.3-0.2c0.4,0.3,0.9,0.6,1.3,0.9c0.3,0.3,0.8-0.3,0.4-0.5c-0.9-0.7-1.8-1.3-2.7-1.8
		c-1-1-2.1-1.8-3.3-2.3c0.1-0.1,0.1-0.2,0.1-0.3c0-0.1,0-0.2,0-0.3C71.7,30.1,74.3,32.8,76.3,35.6 M66.1,29.4c0.3,0,0.6,0,1,0
		c0.2,0,0.3,0,0.5,0c0,0.2,0,0.3,0,0.5C67.2,29.7,66.7,29.5,66.1,29.4 M63.6,29.1c0,0,0-0.1,0-0.1c0.1,0,0.2,0,0.3,0
		C63.7,29,63.7,29.1,63.6,29.1 M67.2,28.6c-0.1,0-0.1,0-0.2,0c0-0.1,0-0.2-0.1-0.3c0,0,0,0-0.1-0.1c0.1-0.1,0.1-0.3,0-0.4
		c0,0,0.1-0.1,0.1-0.1C67,28.1,67.1,28.4,67.2,28.6 M62.7,28.3c-0.1,0.1,0,0.3,0.1,0.4l0.1,0.5c0,0-0.1,0-0.1,0c0,0,0,0,0,0
		c0-0.1-0.1-0.3-0.3-0.3c-0.7,0-1.4,0-2,0.2c-0.1-0.2-0.2-0.5-0.3-0.7c0.6,0,1.1-0.1,1.7,0c0.4,0,0.5-0.6,0.1-0.7
		c-0.7-0.1-1.4,0-2.1,0c-0.1-0.2-0.2-0.4-0.3-0.6c0.8-0.3,1.6-0.5,2.4-0.8c0,0,0,0,0,0C62.3,26.9,62.5,27.6,62.7,28.3 M61.6,25.7
		c-0.8,0.3-1.6,0.6-2.4,0.8c-0.1-0.2-0.2-0.3-0.3-0.5c0.7-0.2,1.4-0.4,2.1-0.5c0.2,0,0.3-0.2,0.3-0.3C61.4,25.4,61.5,25.5,61.6,25.7
		 M61.1,24.8c0,0-0.1,0-0.1,0c-0.8,0.2-1.6,0.4-2.3,0.6c-0.1-0.3-0.3-0.5-0.4-0.8c0.8-0.2,1.6-0.4,2.4-0.5
		C60.8,24.4,61,24.6,61.1,24.8 M64.9,24.6C64.9,24.6,64.9,24.6,64.9,24.6C64.9,24.6,64.9,24.6,64.9,24.6
		C64.9,24.6,64.9,24.6,64.9,24.6 M60.2,23.5c-0.8,0.1-1.5,0.3-2.3,0.5c-0.1-0.3-0.3-0.5-0.4-0.8c0.4-0.1,0.7-0.2,1.1-0.3
		c0.4-0.1,0.2-0.7-0.2-0.6c-0.4,0.1-0.8,0.2-1.2,0.3c-0.1-0.2-0.3-0.5-0.4-0.7c0.3-0.1,0.6-0.2,0.9-0.3c0.4-0.1,0.2-0.8-0.2-0.6
		c-0.3,0.1-0.7,0.2-1,0.3c-0.2-0.4-0.5-0.9-0.7-1.3c0.1-0.1,0.3-0.1,0.4-0.2c0.4-0.2,0.1-0.8-0.2-0.6c-0.2,0.1-0.4,0.2-0.5,0.3
		c-0.1-0.3-0.3-0.5-0.4-0.8c0.2-0.1,0.4-0.2,0.6-0.3c0,0,0.1,0,0.1-0.1c0.1,0.1,0.2,0.2,0.3,0.3C57.2,20.1,58.8,21.7,60.2,23.5
		 M56.8,18.4c0,0.1,0.1,0.2,0.2,0.2c0.3,0.2,0.6,0.3,0.9,0.5c0,0,0,0,0,0c0.3,0.4,0.6,0.9,0.9,1.3c-0.1,0.1-0.1,0.2-0.1,0.3
		c-0.3-0.4-0.6-0.7-0.9-1.1c-0.4-0.5-0.8-0.9-1.2-1.4C56.7,18.3,56.7,18.4,56.8,18.4 M55.1,17.8c-0.2,0.1-0.4,0.2-0.5,0.3
		c-0.7-1.2-1.4-2.4-2-3.7c-0.1-0.2-0.2-0.2-0.4-0.2L52,13.5C52.9,15,53.9,16.4,55.1,17.8 M56.6,17.2c-0.4-0.3-0.7-0.7-1-1
		c0,0,0,0,0.1,0c0,0,0.1,0,0.1-0.1C56,16.4,56.3,16.8,56.6,17.2 M55.1,15.5c-0.2-0.4-0.5-0.8-0.7-1.2c0.1,0,0.1,0,0.2-0.1
		c0.2,0.4,0.5,0.8,0.7,1.2C55.3,15.5,55.2,15.5,55.1,15.5 M55.7,14.8c-0.2-0.4-0.5-0.8-0.7-1.2c0,0,0.1,0,0.1-0.1
		C55.3,13.9,55.5,14.4,55.7,14.8 M54.9,12.9C54.9,12.9,54.8,12.9,54.9,12.9c-0.1,0.1-0.1,0.1-0.2,0.1c-0.2-0.4-0.4-0.8-0.6-1.3
		c0.1,0,0.1-0.1,0.2-0.2C54.5,12,54.7,12.4,54.9,12.9 M54,11.1c-0.1,0-0.1,0-0.2,0l0,0c-0.1-0.2-0.2-0.4-0.3-0.6c0,0,0.1,0,0.1-0.1
		c0,0,0,0,0,0C53.8,10.6,53.9,10.9,54,11.1 M51.5,10.5C51.5,10.6,51.5,10.6,51.5,10.5c-0.2-0.1-0.2-0.2-0.3-0.4l0,0
		c0-0.1,0-0.2-0.1-0.2c0,0,0,0,0,0C51.3,10.1,51.4,10.3,51.5,10.5 M53.4,9.9c0,0-0.1,0-0.1,0c0,0,0,0,0,0c-0.1-0.2-0.2-0.5-0.3-0.7
		c0,0,0-0.1,0.1-0.1C53.1,9.4,53.2,9.6,53.4,9.9 M50.7,8.4c0,0,0,0.1,0,0.1c0-0.1-0.1-0.1-0.1-0.1C50.6,8.4,50.6,8.4,50.7,8.4
		C50.7,8.4,50.7,8.4,50.7,8.4 M52.6,8.6C52.6,8.6,52.6,8.6,52.6,8.6c-0.1-0.1-0.1-0.2-0.2-0.3C52.5,8.4,52.6,8.5,52.6,8.6 M52.1,7.8
		c-0.1,0-0.1,0-0.2,0c-0.3-0.4-0.5-0.7-0.8-1c0,0,0-0.1,0-0.2C51.5,7,51.8,7.4,52.1,7.8 M38.7,4.3c0-0.1,0-0.2-0.1-0.3
		c0,0,0,0-0.1,0c0.2-0.1,0.5-0.1,0.7-0.1c0.1,0,0.3,0,0.4,0C39.4,4,39.1,4.2,38.7,4.3 M50.4,5.7c-0.1-0.1-0.2-0.1-0.3-0.2
		c0,0,0.1,0,0.1-0.1C50.2,5.6,50.3,5.7,50.4,5.7 M49.6,5.1c0,0.1-0.1,0.1-0.1,0.1c-0.1,0-0.1-0.1-0.2-0.1c0,0,0-0.1,0-0.2
		c-0.1-0.1-0.2-0.2-0.3-0.4C49.2,4.7,49.4,4.9,49.6,5.1 M41.4,3.5C41.3,3.4,41.3,3.4,41.4,3.5c0.1-0.1,0.2-0.1,0.3,0
		C41.5,3.4,41.4,3.5,41.4,3.5 M37.6,1.8c0,0.1,0,0.1,0,0.2c0,0,0.1,0.1,0.1,0.1c0.1,0.1,0.3,0.3,0.5,0.4c-0.4,0.1-0.4,0.7,0.1,0.7
		c0.2,0,0.5-0.1,0.7-0.1c0.1,0,0.1,0.1,0.2,0.1c-0.2,0-0.5,0-0.7,0.1c-0.8,0.2-0.8,0.8-0.2,1.2c0,0,0,0,0.1,0
		C38,4.7,37.7,4.9,37.4,5c0,0,0-0.1,0-0.1c0.6-1,0.7-2,0.2-2.9c0-0.1-0.1-0.2-0.1-0.2C37.5,1.8,37.5,1.8,37.6,1.8 M37,4
		c-0.2-0.8-0.4-1.6-0.4-2.4C37.2,2.4,37.4,3.2,37,4 M38,1.1c0,0-0.1,0-0.1,0c-0.1,0-0.1,0-0.1,0.1c-0.1-0.1-0.3-0.2-0.5-0.2
		C37.5,1,37.8,1,38,1.1"/>
	<path class="st1" d="M61.5,117.2c0.3-4.2,1.8-8.2,2.7-12.4c0.1-0.4-0.6-0.5-0.7-0.1c-0.9,4.1-2.4,8.1-2.7,12.4
		C60.7,117.6,61.4,117.7,61.5,117.2"/>
	<path class="st1" d="M52.8,134.5c0.2-0.2,0.3-0.6,0.5-0.8c0.2-0.2,0.1-0.5,0-0.6c0.6-1,1-2.2,1.2-3.4c0.1-0.4-0.6-0.5-0.7-0.1
		c-0.3,1.5-0.9,2.9-1.8,4.1c-0.1,0.2,0,0.4,0.1,0.5C52.3,134.6,52.6,134.8,52.8,134.5"/>
	<path class="st1" d="M59.1,132.7c0.2-0.4-0.4-0.7-0.6-0.3c-1.7,3.1-3.5,6.2-6,8.8c-0.3,0.3,0.2,0.7,0.5,0.4
		C55.5,139,57.4,135.9,59.1,132.7"/>
	<path class="st1" d="M70.5,90.2c0.1-0.4-0.6-0.5-0.7-0.1C69.7,90.5,70.4,90.6,70.5,90.2"/>
</g>
</svg>
