<?xml version="1.0" encoding="utf-8"?>
<!-- Generator: Adobe Illustrator 23.0.0, SVG Export Plug-In . SVG Version: 6.00 Build 0)  -->
<svg version="1.1" id="Layer_1" xmlns="http://www.w3.org/2000/svg" xmlns:xlink="http://www.w3.org/1999/xlink" x="0px" y="0px"
	 viewBox="0 0 97.2 98.5" style="enable-background:new 0 0 97.2 98.5;" xml:space="preserve">
<style type="text/css">
	.st0{clip-path:url(#SVGID_2_);fill:#E7CEA7;}
	.st1{clip-path:url(#SVGID_2_);fill:#F4EBD8;}
</style>
<g>
	<defs>
		<rect id="SVGID_1_" y="0" width="97.2" height="98.5"/>
	</defs>
	<clipPath id="SVGID_2_">
		<use xlink:href="#SVGID_1_"  style="overflow:visible;"/>
	</clipPath>
	<path class="st0" d="M61,0.7c-1.5-1.1-3.4-0.9-5.3-0.1C55.4,0.7,55,0.9,54.7,1c-0.1-0.1-0.3-0.1-0.4,0c-4.5,3.6,0,10.1,5.1,8.8
		c3-0.7,4.5-4.6,3.2-7.3C62.4,2.3,62.2,2,62,1.8C61.8,1.3,61.5,1,61,0.7 M54.7,2.2c0-0.1,0-0.1,0-0.2c0.4-0.2,0.8-0.4,1.3-0.6
		c0,0,0,0.1,0,0.1c-0.2,0.1-0.2,0.2-0.3,0.4c-0.5,0.4-1,0.9-1.3,1.5C54.5,3,54.6,2.6,54.7,2.2 M56.6,5.7c0.8-0.5,1.3-1.8,1.3-2.8
		c0.5,0.6,0.2,1.7-0.3,2.3c-0.6,0.7-2.3,1.3-2.7,0.1c-0.2-0.8,0.8-2.7,1.7-3C57,2.5,57.1,2.9,57,3.4c-0.1,0.6-0.4,1.3-1,1.6
		C55.6,5.3,56.1,5.9,56.6,5.7 M58.6,6.7c-0.4,0.3,0.1,1,0.5,0.7c0.1-0.1,0.2-0.2,0.3-0.2c0,0,0,0,0,0.1c-0.1,0.1-0.2,0.2-0.2,0.3
		C59,7.7,59.2,8,59.5,8c-0.3,0.2-0.5,0.3-0.8,0.4c-0.4,0.1-0.3,0.6,0,0.8c-0.3,0-0.7,0-1,0c-3.1-0.4-5.4-3.6-4-6.2
		c-0.1,0.3-0.1,0.6-0.1,0.9c0,0.4,0.3,0.5,0.6,0.4C54,5,54,5.7,54.5,6.2c0.9,1,2.2,0.8,3.1,0.1c0.1,0.3,0.3,0.5,0.5,0.3
		c0.1,0,0.2,0,0.3-0.2c0.3-0.3,0.5-0.7,0.7-1.1c0.2-0.3,0.4-0.7,0.5-1.1C59.6,5.3,59.2,6.2,58.6,6.7 M62.1,4.2c0,0.2,0,0.4,0,0.6
		c0-0.1-0.1-0.2-0.2-0.3C61.9,4.4,62,4.2,62,4C62,4.1,62.1,4.1,62.1,4.2 M59.5,1.1c1.1,1,1.6,3.7,0.5,5c0.8-1.7,0.5-4.2-0.7-5.1
		C59.4,1,59.4,1,59.5,1.1C59.5,1,59.5,1,59.5,1.1"/>
	<path class="st1" d="M43.7,90.6c2,4.4-4.6,8.9-8.5,6.3c-2.4-1.6-2.3-5.4-0.6-7.4c1.8-2.1,4.5-2.9,6.7-1.8c-0.4-1.4-0.2-3,0.3-4.4
		c-0.9,0-1.8-0.1-2.7-0.4c-3.4-1.1-4.9-4.5-3.2-7.6c2-3.5,5.8-4.9,9.6-4.6c0.1-0.1,0.3-0.1,0.4,0c0,0,0.1,0.1,0.1,0.1
		c0.1,0,0.1,0,0.2,0c0.2,0,0.3,0.2,0.3,0.3c2.7,2.1,4.4,5.1,2.6,8.4c-0.1,0.2-0.3,0.4-0.4,0.6c4.8,0.9,4.2,7.5,1.2,10.1
		C48.2,91.7,45.6,91.6,43.7,90.6"/>
	<path class="st1" d="M45.5,27.8c0.7-3,4.4-4.6,7.2-3.6c0,0,0.1,0,0.1,0c2.1,0.9,3.7,2.5,3.5,4.6c0,0,0,0,0,0.1c0,0,0,0,0,0.1
		c0,0.3-0.1,0.7-0.3,1c-0.8,2.3-3.3,4-5.8,3.9C47.3,33.8,44.8,30.7,45.5,27.8"/>
	<path class="st1" d="M71.5,93.8c-0.1,2.9-2.5,4.9-5.3,4.7c-3.3-0.2-5.2-2.9-4.7-6c0.3-2.2,2.2-4.8,4.6-4.1c0,0,0.1,0,0.1,0
		C69.2,88.7,71.6,90.6,71.5,93.8"/>
	<path class="st1" d="M75,89.4c-3.2-1.6-4.1-5.3-1.7-8c0.8-0.9,2-1.7,3.3-2.1c-3.9-0.8-5.6-7.8-2.5-9.2c-1.5-0.2-2.7-0.9-3-2.2
		c-3,1.5-6.6-0.6-8.2-3.3c-0.2,0.1-0.3,0.2-0.5,0.2c-0.6,0.5-1.4,0.6-2.2,0.5c-0.9,0.3-1.8,0.3-2.6-0.1c0.2,0.2,0.3,0.5,0.4,0.8
		c1.7-0.8,3.7-0.8,5.5,0.4c0.8,0.5,1.4,1.2,1.8,2c0,0,0.1,0,0.1,0h0.5c0.1,0,0.1,0,0.2,0c2.4,0.2,4.7,1.5,5.7,3.9
		c0.1,0.2,0.1,0.5,0.2,0.7c0.2,0.1,0.4,0.4,0.2,0.6c0,0.1-0.1,0.1-0.1,0.1c0.1,2-1.1,3.5-3.1,4.3c0.5,0.3,1,0.8,1.3,1.3
		c2,2.8,0.4,5.7-2.5,7.1c-1.3,0.6-2.7,0.7-3.8,0.3c0,0,0,0-0.1,0c0,0-0.1,0-0.1-0.1c-0.3-0.1-0.5-0.2-0.8-0.4
		c-0.8-0.5-1.6-1.4-2-2.4c-1-2.1-0.7-5.2,1.9-5.9c0.1,0,0.1,0,0.1,0c0.1-0.1,0.2-0.1,0.4-0.1c0,0,0.1-0.1,0.1-0.1
		c-0.6-0.3-1.1-0.6-1.4-1.1c-0.9,0.4-1.9,0.5-2.9,0.4c0.9,3.8-3.2,7.6-6.8,5.2c-2.8-1.8-1.9-5.6,0.3-7.6c-2.5-0.1-4.8-1.9-4.8-4.6
		c-1-0.2-2-0.4-2.7-0.9c-0.1-0.1-0.3-0.3-0.2-0.5c0.1-0.2-0.8-2.2-1-2.7c0-0.1,0-0.1,0-0.2c-0.7,3.9-6.5,6.5-10,4
		c0.1,3.5-3.4,4.6-6.8,4.1c0.5,0.8,0.7,1.7,0.7,2.7c1.2-0.4,2.5-0.5,3.7,0.2c0.1,0,0.2,0,0.3,0c6.5,3.8,0.2,12.6-6,9.6
		c-2.4-1.1-2.9-3.2-2.3-5.1c-3,1.6-6.5-1-7.3-4.2c-0.8-3.3,2.8-5.9,5.8-6c0,0,0,0,0,0c-0.5-0.8-0.9-1.5-1-2.2c-2.2,0-5-0.8-5.8-3.1
		c-0.8-2.3,0.2-4.5,2.1-5.8c3-2.1,9.1-2.1,8.8,2.8v0c2-0.4,4.1,0,5.7,1.4c0.4-1.9,1.8-3.5,3.5-4.5c0.1-0.1,0.1-0.1,0.2-0.1
		c0.3-0.2,0.7-0.3,1-0.4c-1.8-1.2-2.7-3-2.3-5.5c0.5-3,2.3-5.6,5.7-4.8c2.3,0.5,4.2,1.7,5,3.7c0.1,0.1,0.1,0.2,0.2,0.3
		c0-0.1,0-0.3,0-0.4c-0.1-2.1,1.2-3.2,3-3.7C48.1,48.5,48,48.2,48,48c-2.3,0.9-4.8,0.6-6.6-1.4c-2.2-2.5-1-5.9,1.2-7.9
		c2.4-2.1,6.1-2,8.2,0.4c0.9,1,1.2,2.3,1.3,3.5c0,0,0,0,0,0c2.4-0.7,5.2,0.1,6.6,1.9c0.5-2.1,2.1-3.6,3.9-4.3c0,0,0,0,0-0.1
		c0.1-0.3,0.4-0.3,0.6-0.1c1.4-0.4,3-0.3,4.5,0.4c4.1,1.9,4.3,6.8,0.1,8.6c0.4,0.9,0.5,2.1,0.2,3.2c0,0,0,0.1,0.1,0.1
		c2.6,0.5,5.8,2.8,4.2,5.5c0.5,0.3,1,0.6,1.4,1.1c0.5,0.6,0.9,1.3,1,2c2.1-1.4,4.2-0.1,5.3,1.8c1,0.8,1.7,1.9,1.2,3.2
		c-0.1,0.2-0.3,0.3-0.4,0.3c-0.1,0.7-0.3,1.3-0.6,1.9c-0.6,0.9-1.9,1.6-3.3,1.9c2-0.1,3.7,0.9,4.3,3.2c0,0.1,0.1,0.3,0.1,0.4
		c0.1,0.2,0.1,0.4,0.1,0.6c0.1,1.9-0.7,4.2-2.5,4.9c0,0-0.1,0-0.1,0c1,0.1,1.8,0.6,2.4,1.5C86.2,82.7,79.8,91.8,75,89.4"/>
	<path class="st1" d="M73.5,55.9c-0.4-3.3,2.1-5.6,5.3-5.4c0.1,0,0.2,0,0.3,0.1c2.4-0.2,4.4,1,4.9,3.5c0.4,2.5-1.1,4.9-3.5,5.6
		C77.6,60.6,73.9,59,73.5,55.9"/>
	<path class="st1" d="M76.2,41.8c-2.1-2.8-0.3-5.4,2.4-6.8c0.9-0.5,2.4-1,3.5-0.8c5.9-0.6,7.7,8.7,1.8,10.2
		C81.3,45.1,77.8,43.9,76.2,41.8"/>
	<path class="st1" d="M94.3,67.6c-0.9,2.5-3.6,4.6-6.3,4.4c-3.5-0.3-5.8-4.2-4.9-7.4c1-3.4,5.2-5.3,8.2-3.2
		C94,62.5,95.3,64.8,94.3,67.6"/>
	<path class="st1" d="M91.8,49.4c0.1-0.1,0.2-0.1,0.4-0.1C95,50,96,53.1,95,55.6c-1.2,2.9-5.1,3.1-7.7,2.2c-2.3-0.8-4-3.9-2.4-6
		C86.5,49.9,89.4,49.1,91.8,49.4"/>
	<path class="st1" d="M97.2,80.1c-0.6,3.3-4,4.7-7,3.7c-2.6-0.9-3.9-3.4-3.4-6.1c0.4-2.5,2.1-4.6,4.8-3.7c0,0,0,0,0,0
		c0.1,0,0.1,0,0.2,0C94.6,74.5,97.7,77,97.2,80.1"/>
	<path class="st0" d="M48.6,80.1c0.1-0.2,0.3-0.4,0.4-0.6c1.9-3.3,0.2-6.3-2.6-8.4c0-0.2-0.1-0.3-0.3-0.3c-0.1,0-0.1,0-0.2,0
		c0,0-0.1-0.1-0.1-0.1c-0.2-0.1-0.3-0.1-0.4,0c-3.8-0.4-7.6,1.1-9.6,4.6c-1.8,3.1-0.3,6.5,3.2,7.6c0.8,0.3,1.8,0.4,2.7,0.4
		c-0.5,1.4-0.7,3-0.3,4.4c-2.3-1.1-5-0.4-6.7,1.8c-1.7,2-1.7,5.8,0.6,7.4c3.8,2.6,10.4-1.9,8.5-6.3c1.9,1,4.5,1.1,6.1-0.3
		C52.8,87.6,53.4,81,48.6,80.1 M50,82.4c0.2,0.1,0.3,0.3,0.4,0.5c0.1,0.2,0.2,0.5,0.2,0.7c0-0.3-0.4-0.4-0.6-0.2c0,0,0,0,0,0
		C50,83.1,50,82.8,50,82.4 M50.6,84.6c0-0.1,0-0.1-0.1-0.2c0.1-0.2,0.1-0.4,0.1-0.7C50.6,84,50.6,84.3,50.6,84.6 M49.6,87.3
		c0.2-0.1,0.3-0.3,0.4-0.5c-0.1,0.3-0.3,0.6-0.5,0.9C49.6,87.6,49.6,87.5,49.6,87.3 M49.5,81.3c-0.3-0.1-0.7-0.3-1.1-0.4
		c-0.4-0.1-0.6,0.2-0.5,0.5c0,0-0.1-0.1-0.1-0.1c-0.1-0.1-0.2-0.1-0.3-0.1c0.2-0.2,0.4-0.3,0.6-0.5c0,0.1,0.1,0.1,0.2,0.1
		C48.8,81,49.2,81.1,49.5,81.3 M49.3,82.1c0,0-0.1,0.1-0.1,0.2c-0.1-0.1-0.2-0.2-0.3-0.3C49,82,49.1,82,49.3,82.1 M48.6,86.2
		c-0.1,0.1-0.2,0.2-0.4,0.3c-0.1-0.2-0.1-0.4-0.2-0.6c0.1-0.1,0.3-0.2,0.4-0.3C48.5,85.8,48.6,86,48.6,86.2 M46.7,84.7
		c-0.2,0.1-0.3,0.2-0.5,0.3c0-0.2-0.1-0.4-0.1-0.6c0.2,0,0.3-0.1,0.5-0.1v0C46.5,84.3,46.6,84.5,46.7,84.7 M47.3,86.3
		c0.1,0.2,0.1,0.4,0.2,0.6c-0.3,0.1-0.7,0.1-1.1,0c0-0.1,0-0.2,0-0.3C46.7,86.5,47,86.4,47.3,86.3 M47.2,81.8c-0.1,0-0.2,0-0.3,0
		c-0.2,0.1-0.5,0.2-0.7,0.3c0.4-0.2,0.7-0.4,1-0.6C47.2,81.6,47.2,81.7,47.2,81.8 M47.8,88.4c0,0.2,0,0.4,0,0.6
		c-0.3,0.1-0.6,0.2-0.9,0.2c0-0.2-0.1-0.4-0.1-0.6C47.1,88.6,47.4,88.6,47.8,88.4 M48.8,75.6c-0.3-0.3-0.7-0.4-1-0.6
		c-0.1,0-0.1-0.1-0.2-0.1c-0.1-0.2-0.2-0.4-0.3-0.5c0-0.1-0.1-0.1-0.1-0.1c-0.2-0.5-0.2-1-0.3-1.5C47.9,73.5,48.5,74.5,48.8,75.6
		 M47.7,77.7c-0.1,0.4-0.3,0.8-0.6,1.1c-0.1,0-0.2,0-0.2,0C47.3,78.5,47.5,78.1,47.7,77.7 M46.9,75.9c0-0.2,0-0.3,0-0.5
		c0,0,0.1,0.1,0.1,0.1c0.3,0.8,0.2,1.5-0.1,2.1C47,77.1,47,76.5,46.9,75.9 M46.4,79.5C46,79.8,45.6,80,45,80.2c0,0-0.1,0-0.1,0
		c0.1-0.1,0.1-0.2,0.2-0.3c0.3-0.1,0.6-0.3,0.9-0.4C46.1,79.5,46.3,79.5,46.4,79.5 M46.1,77.6c-0.1,0.1-0.1,0.2-0.2,0.3
		c-0.1,0.2-0.3,0.4-0.5,0.5c0-0.1,0-0.1,0-0.2C45.7,78.1,45.9,77.8,46.1,77.6 M45.3,72c0.1,0.3,0.1,0.5,0,0.6
		c-0.1,0-0.2-0.1-0.2-0.1c-0.1,0-0.2,0-0.3,0c-0.3-0.2-0.5-0.3-0.8-0.4C44.4,72.1,44.8,72,45.3,72 M39,78.2c1.3,0.5,2.9,0.4,4.3,0
		c-0.8,0.7-1.9,1.1-2.9,0.8C40.1,78.6,39.5,78.4,39,78.2 M40.2,80.7C40.1,80.7,40.1,80.7,40.2,80.7c-0.1,0-0.1-0.1-0.1-0.1
		C40.1,80.6,40.1,80.6,40.2,80.7C40.1,80.6,40.1,80.6,40.2,80.7 M39.1,80.4c-0.2,0-0.3,0.1-0.4,0.2c0,0-0.1-0.1-0.2-0.1
		c0,0-0.1,0-0.1,0c0.3,0.1,0.5-0.1,0.5-0.3C39,80.2,39,80.3,39.1,80.4 M44.5,78.9c0,0.1,0,0.2,0,0.2c-0.3,0.1-0.5,0.3-0.8,0.3
		c-0.1,0-0.2,0.1-0.3,0.1c-0.1,0-0.3,0-0.4,0.1C43.5,79.4,44,79.2,44.5,78.9 M44.3,73.2c0.1,0,0.1,0.1,0.2,0.1c0,0-0.1,0-0.1,0
		C44.3,73.3,44.3,73.3,44.3,73.2 M44.5,74.8C44.5,74.8,44.5,74.8,44.5,74.8c0-0.2,0.1-0.3,0.2-0.4c0.2,0.6,0.2,1.1,0,1.7
		C44.5,75.7,44.4,75.2,44.5,74.8 M43.6,73.8C43.6,73.9,43.6,73.9,43.6,73.8c-0.1,0.2-0.2,0.3-0.3,0.4c-0.4-0.7-1.1-1.1-1.8-1.2
		c0.3-0.1,0.6-0.2,0.9-0.3c0,0.1,0.1,0.1,0.2,0.1C43,72.9,43.5,73.3,43.6,73.8 M42.9,75.3c0,0.4-0.1,0.7-0.3,1
		c-0.6,0.3-1.2,0.4-1.9,0.2c-0.2,0-0.3,0-0.4,0.1c-0.9-0.7-1.3-2.3,0.1-2.7c0.1,0,0.1,0,0.2,0C41.6,73.5,42.8,74.2,42.9,75.3
		 M43.1,71.5c-1.2,0.3-2.3,0.9-3.1,1.2c-0.3,0.1-0.6,0.2-0.8,0.4C40.3,72.2,41.6,71.7,43.1,71.5 M38.7,74.2c0.1,0,0.1-0.1,0.1-0.1
		c0,0,0.1-0.1,0.2-0.1c-0.6,1-0.2,2.5,0.8,3.2c0,0.2,0.1,0.4,0.4,0.4c1,0.1,2.2-0.1,2.9-0.7c0.3-0.1,0.5-0.3,0.7-0.6
		c0.1,0.2,0.2,0.4,0.3,0.5c-1.5,0.8-3.4,1.1-4.9,0.5c0,0-0.1-0.1-0.1-0.1C38.2,76.5,37.6,75.1,38.7,74.2 M38.1,77.4
		c0,0.2,0,0.3,0.2,0.5c0.2,0.1,0.3,0.2,0.5,0.3c-0.2-0.1-0.4-0.1-0.5-0.3c-0.4-0.4-0.7-0.9-0.8-1.3c0-0.1,0-0.2,0-0.3
		C37.5,76.6,37.7,77,38.1,77.4 M37.7,78.4c0.2,0.3,0.5,0.5,0.7,0.8c0,0.1,0,0.2,0,0.3c-0.6-0.4-1-0.9-1.2-1.4
		C37.3,78.2,37.5,78.3,37.7,78.4 M39.8,82.2c-0.9-0.3-1.6-0.7-2.2-1.2c0.2,0.1,0.5,0.3,0.7,0.3c0.2,0.1,0.4,0,0.5-0.2
		c0,0,0.1,0.1,0.2,0.1c0.1,0,0.3,0.1,0.5,0.1c0.1,0.2,0.2,0.4,0.3,0.5c0.2,0.3,0.4,0.4,0.8,0.5C40.2,82.3,40,82.3,39.8,82.2
		 M40.7,81.6c0.1,0,0.2,0,0.3,0c0,0,0.1,0,0.1,0.1C40.9,81.7,40.8,81.6,40.7,81.6 M41.2,80.7c0.9,0,1.9-0.1,2.8-0.4c0,0,0,0,0,0.1
		c-0.1,0.1-0.2,0.1-0.3,0.2C42.8,80.7,42,80.8,41.2,80.7C41.2,80.8,41.2,80.7,41.2,80.7 M41.3,82.5c0.5,0,0.9-0.1,1.2-0.2
		c0.7-0.2,1.1-0.5,1.4-0.9c1-0.2,2-0.6,2.8-1.1c0.3-0.2,0.5-0.4,0.8-0.6c0.1,0,0.2,0,0.2,0c-0.1,0.1-0.1,0.1-0.2,0.2
		C46,81.5,43.6,82.6,41.3,82.5 M40.8,90.1c0.2,0.3,0.3,0.5,0.3,0.8v0c-0.1,0-0.3,0-0.4,0.2c-0.2,0.4-0.5,0.8-0.8,1.1
		c0.6-0.7,0.7-1.4,0.4-2.2c0.1,0,0.2,0.1,0.2,0.1C40.6,90.2,40.7,90.2,40.8,90.1 M40.8,93.7c-0.2,0.2-0.5,0.3-0.7,0.4
		c0-0.1,0-0.3,0-0.4c0.1,0,0.1-0.1,0.1-0.1C40.3,93.7,40.6,93.7,40.8,93.7 M40.3,88.9c0,0.1,0.1,0.2,0.1,0.3
		c-0.2-0.1-0.3-0.1-0.5-0.2C40,89,40.2,88.9,40.3,88.9L40.3,88.9z M40.1,88.1c-0.5,0.1-1,0.4-1.5,0.7c-1-0.1-2,0.2-2.7,1.2
		c-0.1,0-0.3,0.1-0.5,0.1c0,0,0,0-0.1,0C36.5,88.6,38.3,87.7,40.1,88.1 M38.9,89.6c0.1,0,0.1,0,0.2,0c0.6,0.6,0.8,1.5,0,2.2
		c-0.1,0-0.1,0.1-0.2,0.1c-0.5-0.6-0.8-1.3-0.1-1.9C38.9,89.9,39,89.7,38.9,89.6 M38,92.1c0,0,0.1,0.1,0.1,0.1c-0.1,0-0.2,0-0.2,0
		l0,0c-0.2-0.1-0.4-0.1-0.5,0c-0.4-0.1-0.7-0.3-1-0.6c-0.2-0.2-0.5-0.1-0.6,0.1c0-0.3,0.1-0.5,0.1-0.8c0.7-0.1,1.3-0.4,1.9-0.7
		C37.4,90.7,37.5,91.4,38,92.1 M34.3,94c-0.3-1.1,0.1-2.4,0.7-3.5C34.9,91.8,34.6,92.9,34.3,94 M35.6,92.4c0.1,0.1,0.1,0.2,0.2,0.2
		c-0.1,0.1-0.1,0.2,0,0.4c0.1,0.1,0.2,0.3,0.3,0.4c-0.1,0.1-0.1,0.3,0,0.5c0.1,0.2,0.2,0.3,0.4,0.5c-0.2,0.1-0.3,0.3-0.1,0.6
		c0.1,0.1,0.1,0.2,0.2,0.3c-0.5-0.2-0.9-0.4-1.4-0.5C35.2,93.9,35.4,93.1,35.6,92.4 M36.2,96.4c-0.5-0.3-0.9-0.6-1.2-0.9
		c0.8,0.3,1.5,0.7,2.3,1c0.3,0.1,0.7,0.3,1,0.4C37.6,96.9,36.8,96.8,36.2,96.4 M37.7,94.3c0.4,0,0.9,0,1.4-0.2
		c0,0.1-0.1,0.2-0.2,0.3C38.5,94.5,38.1,94.4,37.7,94.3 M38.7,96.8c0.4-0.1,0.5-0.5,0.7-0.9c0.3-0.1,0.6-0.3,0.9-0.5
		c0.4,0,0.8,0.1,1.1,0.1C40.6,96.2,39.7,96.6,38.7,96.8 M42.1,94.1c-0.2,0.3-0.4,0.4-0.6,0.5c0.3-0.3,0.5-0.5,0.8-0.8
		C42.2,93.9,42.1,94,42.1,94.1 M41.7,92c0-0.1,0.1-0.1,0.1-0.2c0.1,0.2,0.2,0.4,0.3,0.6c0,0,0,0,0,0C42,92.2,41.8,92,41.7,92
		 M42,90.6C42,90.6,42.1,90.6,42,90.6C42.1,90.6,42.1,90.6,42,90.6c0,0.1,0.1,0.1,0.1,0.2C42.1,90.7,42.1,90.6,42,90.6 M42.6,90
		c-0.2-0.1-0.4,0-0.5,0.2c0-0.5-0.3-1.1-0.9-1.6c0,0,0,0,0,0c0-0.1,0-0.1-0.1-0.2c0.3,0.2,0.6,0.4,0.9,0.7c0.2,0.3,0.4,0.5,0.7,0.8
		C42.6,89.9,42.6,90,42.6,90 M42.9,88.7C42.9,88.7,42.8,88.7,42.9,88.7c-1.1-1.6-1.1-3.4-0.4-5.2c0,0,0,0.1,0,0.1
		c0.1,0.1,0.1,0.3,0.2,0.5c0,0-0.1,0.1-0.1,0.2c-0.1,0.6-0.1,1.3-0.1,1.9c0,0.2,0.1,0.4,0.3,0.4c-0.1,0.8-0.1,1.6,0.2,2.3
		C43,88.9,42.9,88.8,42.9,88.7C42.9,88.8,42.9,88.7,42.9,88.7 M43,93.1c0-0.1-0.1-0.2-0.1-0.4c0.1-0.1,0.1-0.3,0.2-0.4
		C43.1,92.6,43.1,92.9,43,93.1 M43.5,88.1C43.5,88,43.5,88,43.5,88.1c0,0.1,0.1,0.1,0.1,0.2C43.5,88.2,43.5,88.1,43.5,88.1
		 M44.4,89.2c0,0,0.1-0.1,0.1-0.2c0,0.1,0,0.1,0,0.2C44.5,89.3,44.5,89.2,44.4,89.2 M44.6,84.4c-0.1-0.2-0.4-0.2-0.6-0.1
		c-0.1-0.1-0.3-0.2-0.4-0.2c-0.1-0.3-0.2-0.6-0.3-0.9c0,0,0,0,0-0.1c0.9-0.1,1.7-0.4,2.5-0.7c-0.1,0.3,0.1,0.7,0.5,0.6
		c0.4-0.1,0.7-0.2,1-0.4c-0.4,0.8-1.5,1-2.3,0.8c-0.5-0.1-0.8,0.7-0.2,0.8c0.2,0,0.4,0.1,0.5,0.1c0,0,0,0,0,0.1c0,0,0,0.1,0,0.1
		C45.1,84.3,44.7,84.3,44.6,84.4 M45.3,86.1c0,0,0.1,0,0.1,0c-0.2,0.2-0.1,0.6,0.2,0.7c0,0.4,0.1,0.8,0.1,1.2
		c-0.1,0.2-0.1,0.4,0.1,0.5c0,0.3,0.1,0.6,0.2,0.9c-0.2,0-0.4,0-0.6,0C45.1,88.3,45.2,87.2,45.3,86.1 M49.5,89.4
		c-1.1,1-2.7,1.3-4.2,1c1.5,0.1,3.2-0.6,4.2-1.3c1-0.7,1.6-2.1,1.8-3.5C51.2,87,50.5,88.5,49.5,89.4"/>
	<path class="st0" d="M33.7,51.8c-0.7-1.6-2.4-2.4-4.1-2.5c-3.2-0.3-7.6,1.1-8,4.9c-0.3,2.9,2.2,5.3,4.9,6c2.9,0.7,5.2-0.5,6.3-3.1
		c0,0,0-0.1,0.1-0.1c0.1,0,0.1,0,0.2-0.1C34.3,55.6,34.4,53.4,33.7,51.8 M31.3,50.5c0,0-0.1,0-0.1,0c-0.1,0-0.2-0.1-0.3-0.1
		C31.1,50.4,31.2,50.5,31.3,50.5 M31.1,51.4c-0.2-0.1-0.3,0-0.4,0.1c-0.2-0.2-0.5-0.5-0.7-0.6C30.3,50.9,30.7,51.1,31.1,51.4
		 M29.9,52.2C29.9,52.2,29.9,52.2,29.9,52.2c-0.3,0.1-0.5,0.3-0.4,0.6c-0.1,0-0.1,0.1-0.1,0.1c-0.2,0.1-0.3,0.2-0.5,0.3
		c-0.2-0.1-0.5,0-0.5,0.3c-0.2,0.1-0.5,0.2-0.7,0.2c0-0.1,0-0.3,0-0.5c0.8-0.3,1.4-0.8,1.9-1.5C29.8,51.8,30,52,29.9,52.2
		 M29.6,55.7c-0.1,0.1-0.3,0.1-0.4,0.2c-0.1-0.3-0.1-0.6-0.3-0.8c0.1,0,0.2,0,0.2-0.1C29.3,55.1,29.5,55.4,29.6,55.7 M28.4,56
		c-0.2,0-0.4,0.1-0.6,0.1c0-0.2-0.1-0.4-0.1-0.5c0-0.1,0-0.3,0-0.4c0.1,0,0.3,0,0.5,0C28.3,55.4,28.4,55.7,28.4,56 M29.7,50.1
		c-0.1,0.2-0.1,0.4,0.1,0.6c-0.4-0.3-0.9-0.5-1.3-0.6C28.9,50.1,29.3,50.1,29.7,50.1 M28.2,50.9c0.1,0,0.3,0.1,0.4,0.2
		c0,0.1,0,0.3,0.1,0.4c-0.5,0.7-1.3,1.1-2.1,1.2c-0.1,0-0.2,0-0.3,0c0,0-0.1,0-0.1,0C27.1,52.3,27.9,51.9,28.2,50.9 M26.6,50.3
		c0,0.3,0.2,0.5,0.5,0.5c0.1,0,0.1,0,0.2,0c-0.4,0.9-1.5,1.2-2.5,1.5c-0.2-0.1-0.3,0-0.4,0.1c0,0,0,0,0,0c-0.2-0.1-0.4-0.1-0.5,0.1
		c0,0,0,0,0,0.1c-0.4,0.1-0.7,0.3-1,0.5C23.5,51.7,25,50.7,26.6,50.3 M25.9,53.5c0,0.1-0.1,0.3-0.1,0.4c-0.1,0-0.1,0-0.2,0.1
		c-0.1,0-0.1-0.1-0.2-0.1c-0.1,0-0.1-0.1-0.1-0.1c0-0.1,0-0.3,0-0.4C25.5,53.5,25.7,53.5,25.9,53.5 M22.9,54.9c0-0.4,0.2-0.7,0.4-1
		c-0.1,0.5-0.2,1-0.2,1.6C23,55.3,22.9,55.1,22.9,54.9 M26.7,59.3c-1.3-0.4-2.8-1.3-3.6-2.6c0.1,0.1,0.2,0.1,0.3,0.1
		c0.1,0.1,0.1,0.1,0.2,0.1c0.1,0,0.1,0.1,0.2,0.1c-0.1,0.4,0.6,0.6,0.8,0.2c0.3,0.1,0.5,0.1,0.8,0.2v0.9c0,0.5,0.8,0.5,0.8,0v-0.1
		c0.1,0.1,0.2,0.1,0.3,0.2c0,0.1,0,0.2,0,0.3c0,0.5,0.8,0.5,0.8,0.1c0,0,0.1,0,0.1,0c0,0.1,0,0.2,0.1,0.3c0,0.1,0.1,0.1,0.1,0.2
		c0,0.1,0.1,0.1,0.1,0.1C27.5,59.5,27.1,59.5,26.7,59.3 M28,56.9c0.2,0,0.3,0,0.5-0.1c0,0.2,0,0.4,0,0.5c-0.1,0-0.2,0.1-0.3,0.1
		c0,0-0.1-0.1-0.1-0.1C28.1,57.2,28,57.1,28,56.9 M28.2,59.6c0.2-0.1,0.3-0.3,0.3-0.5c0,0,0,0,0,0c0.1,0.1,0.4,0.1,0.6,0
		c0.3,0.1,0.5,0.1,0.7,0.1C29.4,59.4,28.8,59.5,28.2,59.6 M29.3,58.2c0-0.1,0-0.2,0-0.3c0.3-0.2,0.5-0.4,0.8-0.6c0,0.2,0,0.5,0,0.7
		C29.9,58.1,29.6,58.1,29.3,58.2 M30,54.6C30,54.6,30,54.6,30,54.6c0.3-0.1,0.5-0.2,0.7-0.4c0.1,0.2,0.2,0.3,0.3,0.5
		c-0.2,0.2-0.4,0.3-0.6,0.5C30.2,55,30.1,54.8,30,54.6 M31.1,56.9C31,57,31,57,30.9,57.1c0-0.2-0.1-0.4-0.1-0.5
		c0.2-0.2,0.4-0.5,0.6-0.8C31.3,56.2,31.2,56.6,31.1,56.9 M31.4,50.6c0.3,0.1,0.6,0.3,0.8,0.6c0.1,0.1,0.3,0.3,0.4,0.4
		c-0.3-0.3-0.5-0.5-0.8-0.7c-0.1-0.1-0.2-0.2-0.2-0.2C31.5,50.6,31.4,50.6,31.4,50.6 M31.8,53.1c0-0.1,0-0.1-0.1-0.2
		c0-0.1,0.1-0.2,0.1-0.4c0,0.1,0.1,0.3,0.1,0.4C31.8,53,31.8,53.1,31.8,53.1 M32.7,54.8c-0.2,0.2,0,0.5,0.2,0.6c0,0,0,0,0,0.1
		c-0.1,0.2-0.3,0.3-0.5,0.5c0,0,0,0,0,0c0,0,0,0,0,0c0-0.3,0.1-0.5,0-0.7c0-0.2-0.1-0.4-0.1-0.7c0.2-0.4,0.4-0.8,0.4-1.2
		c0.2,0.3,0.3,0.5,0.4,0.8C33,54.4,32.9,54.6,32.7,54.8"/>
	<path class="st0" d="M81.2,80.6c-0.6-0.9-1.5-1.4-2.4-1.5c0,0,0.1,0,0.1,0c1.8-0.8,2.6-3,2.5-4.9c0-0.2,0-0.4-0.1-0.6
		c0-0.1,0-0.3-0.1-0.4c-0.6-2.3-2.3-3.3-4.3-3.2c1.4-0.3,2.7-1,3.3-1.9c0.4-0.6,0.6-1.2,0.6-1.9c0.2,0,0.4-0.1,0.4-0.3
		c0.5-1.4-0.2-2.5-1.2-3.2c-1.1-2-3.2-3.2-5.3-1.8c-0.1-0.7-0.4-1.4-1-2c-0.4-0.5-0.9-0.8-1.4-1.1c1.6-2.7-1.5-5-4.2-5.5
		c0,0,0-0.1-0.1-0.1c0.3-1.2,0.2-2.3-0.2-3.2c4.2-1.8,3.9-6.7-0.1-8.6c-1.5-0.7-3.1-0.8-4.5-0.4c-0.2-0.1-0.4-0.1-0.6,0.1
		c0,0,0,0,0,0.1c-1.9,0.7-3.4,2.2-3.9,4.3c-1.3-1.8-4.1-2.5-6.6-1.9c0,0,0,0,0,0c-0.1-1.3-0.4-2.5-1.3-3.5c-2.1-2.4-5.8-2.5-8.2-0.4
		c-2.2,2-3.4,5.4-1.2,7.9c1.8,2,4.3,2.3,6.6,1.4c0,0.3,0.1,0.6,0.2,0.9c-1.7,0.4-3.1,1.6-3,3.7c0,0.1,0,0.3,0,0.4
		c-0.1-0.1-0.1-0.2-0.2-0.3c-0.8-2-2.7-3.3-5-3.7c-3.4-0.7-5.2,1.8-5.7,4.8c-0.4,2.6,0.5,4.4,2.3,5.5c-0.4,0.1-0.7,0.3-1,0.4
		c-0.1,0-0.2,0.1-0.2,0.1c-1.7,0.9-3.1,2.5-3.5,4.5c-1.6-1.4-3.8-1.7-5.7-1.4v0c0.3-4.9-5.8-4.9-8.8-2.8c-1.9,1.3-2.9,3.6-2.1,5.8
		c0.8,2.4,3.6,3.1,5.8,3.1c0.2,0.7,0.5,1.4,1,2.2c0,0,0,0,0,0c-3,0.1-6.6,2.7-5.8,6c0.8,3.2,4.2,5.8,7.3,4.2c-0.6,2-0.1,4,2.3,5.1
		c6.2,2.9,12.5-5.8,6-9.6c-0.1-0.1-0.2-0.1-0.3,0c-1.2-0.6-2.5-0.6-3.7-0.2c0-1-0.1-1.9-0.7-2.7c3.3,0.6,6.8-0.5,6.8-4.1
		c3.5,2.6,9.2-0.1,10-4c0,0.1,0,0.1,0,0.2c0.2,0.5,1.1,2.5,1,2.7c-0.1,0.2,0.1,0.4,0.2,0.5c0.8,0.5,1.8,0.7,2.7,0.9
		c-0.1,2.6,2.3,4.5,4.8,4.5c-2.2,2-3.1,5.7-0.3,7.6c3.6,2.4,7.7-1.4,6.8-5.2c1,0.2,2,0,2.9-0.4c0.4,0.6,0.9,0.9,1.4,1.1
		c0,0-0.1,0.1-0.1,0.1c-0.1,0-0.3,0-0.4,0.1c0,0-0.1,0-0.1,0c-2.7,0.6-2.9,3.7-1.9,5.9c0.5,1.1,1.2,1.9,2,2.4
		c0.2,0.2,0.5,0.3,0.8,0.4c0,0,0.1,0,0.1,0.1c0,0,0,0,0.1,0c1.2,0.4,2.5,0.3,3.8-0.3c2.8-1.4,4.5-4.3,2.5-7.1
		c-0.4-0.5-0.8-0.9-1.3-1.3c2-0.8,3.2-2.3,3.1-4.3c0,0,0.1-0.1,0.1-0.1c0.2-0.2,0-0.5-0.2-0.6c-0.1-0.2-0.1-0.5-0.2-0.7
		c-0.9-2.4-3.2-3.7-5.7-3.9c-0.1,0-0.1,0-0.2,0h-0.5c0,0-0.1,0-0.1,0c-0.4-0.8-1-1.5-1.8-2c-1.8-1.2-3.7-1.2-5.5-0.4
		c-0.1-0.3-0.2-0.6-0.4-0.8c0.8,0.4,1.6,0.4,2.6,0.1c0.7,0.2,1.6,0,2.2-0.5c0.2-0.1,0.4-0.1,0.5-0.2c1.6,2.7,5.2,4.8,8.2,3.3
		c0.4,1.3,1.6,2,3,2.2c-3.1,1.4-1.4,8.4,2.5,9.2c-1.3,0.4-2.5,1.2-3.3,2.1c-2.3,2.7-1.5,6.3,1.7,8C79.8,91.8,86.2,82.7,81.2,80.6
		 M80,73.1c0.2,0.2,0.3,0.4,0.4,0.7c0,0.2,0,0.4,0.1,0.6c0,0.1-0.1,0.3-0.2,0.4c-0.1,0.2,0,0.4,0.1,0.5c0,0.2-0.1,0.4-0.1,0.5
		c-0.1-0.4-0.3-0.9-0.5-1.3C80,74.1,80.1,73.6,80,73.1 M79.6,76.4c0,0.2,0,0.4,0,0.6c0,0.2,0,0.3,0.2,0.4c-0.1,0.1-0.2,0.2-0.3,0.4
		c-0.1-0.2-0.1-0.4-0.2-0.6C79.4,76.9,79.5,76.7,79.6,76.4 M16.5,63.4C16.4,63.4,16.4,63.4,16.5,63.4c-0.5,0.5-0.6,1-0.7,1.5
		c0-0.1,0-0.2,0-0.4c0-1.3,0.5-2.4,1.4-3.2C16.7,61.9,16.5,62.6,16.5,63.4 M17.8,64c0-0.3,0.1-0.8,0.2-0.9c0.3-0.5,1-0.8,1.7-0.8
		c0.1,0.5,0.3,1,0.5,1.6c-0.3,0.2-0.6,0.3-0.9,0.5C18.9,64.4,18.3,64.3,17.8,64 M20.3,67.3c0.1-0.1,0.1-0.2,0.2-0.3
		c0,0.1,0.1,0.2,0.1,0.2C20.5,67.3,20.4,67.3,20.3,67.3 M20.2,60.3h-0.1c-0.1,0-0.1,0-0.2,0.1c-0.6-0.1-1.1-0.1-1.5,0.1
		c0.1,0,0.2-0.1,0.2-0.1c0.6-0.3,1.3-0.5,2-0.6C20.4,59.8,20.3,60,20.2,60.3 M20.9,63c0-0.1-0.1-0.2-0.1-0.4
		c0.2,0.2,0.2,0.4,0.2,0.6C20.9,63.2,20.9,63.1,20.9,63 M61.3,81.2c0-0.1,0-0.3,0-0.4c0,0,0,0,0,0C61.3,81,61.3,81.1,61.3,81.2
		 M62.3,84.7C62.3,84.7,62.3,84.7,62.3,84.7L62.3,84.7C62.3,84.7,62.3,84.7,62.3,84.7 M62.3,82c0,0.3-0.1,0.5-0.1,0.7
		c0-0.1,0-0.2,0-0.3v0c0-0.4,0.1-0.7,0.2-1.1c0,0,0,0,0,0c0,0.2,0,0.3,0,0.5C62.3,81.8,62.3,81.9,62.3,82 M78.2,78
		c0.1-0.1,0.3-0.2,0.4-0.3c0,0.1,0.1,0.2,0.1,0.3c0,0.1,0.1,0.2,0.1,0.2c-0.5,0.3-1,0.4-1.5,0.4c-0.1,0-0.1,0-0.2,0
		c0.1-0.1,0.3-0.1,0.4-0.2C77.8,78.6,78.3,78.4,78.2,78 M78.5,81.3C78.6,81.4,78.6,81.4,78.5,81.3c-0.1-0.1-0.3-0.2-0.5-0.3
		c-0.1-0.1-0.2-0.2-0.4-0.3c0.3-0.1,0.7-0.1,1-0.1C78.5,80.7,78.3,81.1,78.5,81.3 M78.6,86.7C78.7,86.7,78.6,86.7,78.6,86.7
		C78.6,86.7,78.6,86.7,78.6,86.7L78.6,86.7z M78.4,82.4L78.4,82.4L78.4,82.4C78.4,82.4,78.4,82.4,78.4,82.4 M78.2,83.3
		c-0.1,0.1-0.2,0.2-0.3,0.3c0-0.1,0.1-0.1,0.1-0.2c0,0,0,0,0-0.1C78.1,83.3,78.2,83.3,78.2,83.3 M77.1,73.1c0.1-0.1,0.1-0.2,0.2-0.3
		c0.1,0.1,0.3,0.2,0.4,0.3c0,0,0,0.1-0.1,0.1c0,0.1-0.1,0.1-0.1,0.2C77.3,73.3,77.2,73.2,77.1,73.1 M77,70.9c0,0.1,0,0.2,0.1,0.3
		c0.3,0.3,0.5,0.6,0.6,1c-0.1-0.1-0.3-0.2-0.4-0.3c-0.1-0.3-0.3-0.6-0.6-1C76.8,70.9,76.9,70.9,77,70.9 M79.1,66.9
		c0.6-0.6,0.9-1.3,0.6-2.1c-0.1-0.2-0.2-0.3-0.4-0.3c0.1-0.4,0.1-0.8,0.1-1.2c0,0,0,0,0.1,0c0.5,0.9,0.7,1.9,0.6,2.8
		c-0.2,0-0.4,0.2-0.4,0.4c-0.1,0.5-0.4,1-0.8,1.3C79,67.5,79,67.2,79.1,66.9 M75,61.7c1-0.7,2.1-0.6,3-0.1c-0.4,0-0.5,0.7,0,0.8
		c0.3,0.1,0.5,0.2,0.8,0.4c-0.1,0.1-0.2,0.2-0.2,0.4c0.1,0.5,0,0.9-0.2,1.4c-0.1-0.1-0.2-0.2-0.3-0.4c0.1-0.4,0.1-0.9,0.1-1.3
		c0-0.5-0.8-0.5-0.8-0.1c-0.4-0.7-1.4-1-2.2-1c-0.1,0-0.2,0-0.3,0.1c0-0.1,0-0.2-0.1-0.2C74.8,61.7,74.9,61.7,75,61.7 M71.9,55.9
		c-0.4-0.8-1-1.4-1.8-1.8c-0.1-0.1-0.2-0.3-0.4-0.4C70.8,54.2,71.7,55,71.9,55.9 M68.3,53.2c0.1,0,0.1,0,0.2,0
		C68.4,53.2,68.4,53.2,68.3,53.2C68.3,53.2,68.3,53.2,68.3,53.2 M68.1,53.9C68.1,53.9,68.1,53.9,68.1,53.9c0,0.2,0.1,0.3,0.1,0.3
		c-0.1-0.1-0.1-0.1-0.2-0.2C68,54,68.1,54,68.1,53.9 M68.4,58.1C68.4,58.1,68.5,58.2,68.4,58.1c0.7,0.5-1,0.9-1.3,1
		c-0.2,0.1-0.3,0.3-0.2,0.5c-0.6,0-1.3,0.2-1.8,0.7c0-0.4,0-0.8-0.1-1.2c0,0,0.1,0,0.2,0C66.1,58.7,67.3,58.3,68.4,58.1 M65,58.3
		c0-0.1,0-0.1,0-0.2c0.1,0,0.1,0,0.2,0c0,0,0.1,0,0.1,0.1C65.2,58.2,65.1,58.2,65,58.3 M66.7,55.2c0.1,0,0.1-0.1,0.2-0.1
		c0.2,0.2,0.3,0.4,0.5,0.6C67.1,55.6,66.9,55.4,66.7,55.2C66.6,55.2,66.7,55.2,66.7,55.2 M65.5,48.1c1,0.4,1.5,1.3,1.7,2.2
		c-0.1,0-0.2,0-0.3,0.1C66.9,49.5,66.4,48.7,65.5,48.1 M69.6,46.5c-0.4,0.7-1.1,1.2-2.1,1.6c0,0-0.1,0-0.1,0.1
		c-0.1-0.1-0.2-0.1-0.2-0.2C68.2,47.8,69,47.3,69.6,46.5 M66.9,41C67,41,67,41,66.9,41c0.4,0.4,0.7,0.7,1,1.1
		c-0.2,0-0.3-0.1-0.5-0.1c-0.2-0.4-0.4-0.8-0.7-1.1C66.8,40.9,66.9,41,66.9,41 M67.7,43.5c0.3-0.1,0.5-0.1,0.8-0.2
		c0.1,0.4,0,0.8-0.3,1.1c-0.4,0.5-0.9,0.8-1.5,1C67.3,45,67.6,44.3,67.7,43.5 M69.1,45.7c-0.6,1-1.8,1.8-3.3,1.5
		c-0.1,0-0.2-0.1-0.4-0.1C66.8,47,68.2,46.6,69.1,45.7 M65.1,41.2C65.1,41.2,65.1,41.3,65.1,41.2c0,0.1-0.1,0.1-0.1,0.1
		C65,41.3,65,41.3,65.1,41.2 M63.2,40.8c0.4-0.1,0.8-0.2,1.2-0.2c0,0,0,0,0,0c0,0.2-0.2,0.4-0.4,0.5c-0.1-0.3-0.5-0.4-0.8-0.1
		c-0.2,0.3-0.3,0.5-0.4,0.8c0,0-0.1,0-0.1,0C62.9,41.5,63,41.2,63.2,40.8 M62.6,42.9c0.1,0,0.1-0.1,0.2-0.1c0,0.1,0,0.1,0,0.2
		c0.1,0.5,0.9,0.3,0.8-0.2c0-0.1,0-0.3,0-0.4c0.6-0.3,1-0.6,1.3-1c-0.1,0.1-0.1,0.3,0.1,0.5c0.9,0.8,0.1,1.8-1,1.7
		c-0.5-0.1-0.5,0.6-0.1,0.8c0,0,0,0.1-0.1,0.1c-0.5-0.1-1-0.5-1.3-1C62.5,43.3,62.6,43.1,62.6,42.9 M61,52.7
		c0.3-0.8,0.6-1.7,0.7-2.6c0.1-1.3,1.3-1.1,2.1-0.3c0.1,0.1,0.2,0.1,0.2,0.2c0.1,0.3,0.2,0.7,0.1,1.1c-0.1,0.2-0.2,0.4-0.5,0.5
		c-0.3,0.3-0.9,0.7-1.3,1.1C61.9,52.9,61.4,52.9,61,52.7 M61.6,53.7C61.6,53.7,61.6,53.7,61.6,53.7c-0.1,0.1-0.2,0-0.3,0
		C61.4,53.7,61.5,53.7,61.6,53.7 M60.7,54.3c-0.1,0-0.2-0.1-0.3-0.2c0,0-0.1-0.1-0.1-0.1c0.1-0.1,0.3-0.3,0.4-0.5
		c0.1,0,0.2,0.1,0.2,0.1C60.6,53.6,60.4,54.1,60.7,54.3 M60.9,49.9c0,0.8-0.3,1.5-0.5,2.2c0,0.1,0,0.1-0.1,0.2
		c-0.7-0.9-0.8-1.9-0.3-2.8c0.3-0.1,0.6-0.2,1-0.3C60.9,49.4,60.9,49.7,60.9,49.9 M60.5,48.5c0-0.1,0-0.1-0.1-0.2
		c0.8-0.3,1.6-0.4,2.4-0.5C62.3,47.9,61.4,48.1,60.5,48.5 M64,46.2c0.3-0.2,0.5-0.4,0.8-0.6c0,0.1,0,0.2,0,0.2h0
		c-0.4,0-0.5,0.5-0.3,0.7c-0.2,0.1-0.2,0.3-0.2,0.5c-0.3,0-0.7,0-1,0c0.1-0.1,0.1-0.2,0.1-0.3c0.1,0.1,0.1,0.1,0.2,0.2
		C63.9,47.1,64.3,46.5,64,46.2 M65.2,49.6c-0.5-0.3-1-0.7-1.3-1.1C64.6,48.6,65,49.1,65.2,49.6 M63.4,45.6c-0.2-0.2-0.3-0.4-0.4-0.5
		c0.2,0.1,0.5,0.2,0.8,0.3C63.6,45.4,63.5,45.5,63.4,45.6 M62.8,53.5c0.4-0.1,0.7-0.3,1.1-0.6c0.5-0.4,0.8-0.9,1-1.4
		c0.2-0.3,0.3-0.6,0.3-0.9c0.1,0.1,0.1,0.1,0.2,0.2c-0.1,0.7-0.3,1.5-0.7,2.1c-0.3,0.4-0.7,0.9-1.1,1.2c-0.3,0.1-0.7,0.1-1,0.1
		C62.5,53.9,62.6,53.7,62.8,53.5 M62.3,47c0.1,0,0.1,0,0.2-0.1l0.1,0.1C62.5,47,62.4,47,62.3,47L62.3,47z M61.9,41.9
		c0,0.1-0.1,0.3-0.1,0.5c-0.1,0-0.1,0-0.2,0.1C61.7,42.2,61.8,42,61.9,41.9 M61.7,43.3c-0.1,0.1-0.1,0.2,0,0.4c0,0,0,0.1,0.1,0.1
		c0,0.5,0.2,0.9,0.4,1.3c-0.3-0.5-0.6-1.1-0.6-1.7C61.6,43.4,61.6,43.3,61.7,43.3 M59.3,45.3c0,0.1,0,0.2,0.1,0.3
		c0.4,1,1.3,1.4,2.2,1.4l0.1,0.1c-0.8,0.1-1.6,0.4-2.4,0.7c0.1-0.4,0.2-0.8,0.2-1.1c0-0.1,0-0.2,0-0.3c0-0.3-0.1-0.6-0.1-0.8
		C59.3,45.5,59.3,45.4,59.3,45.3 M59.9,53.1c0,0,0,0.1,0.1,0.1c-0.1,0.1-0.1,0.2-0.2,0.3c-0.5-0.5-1.1-1.1-1.3-1.7
		C58.8,52.3,59.3,52.7,59.9,53.1 M58.5,54.4c-0.1,0-0.1,0-0.2,0c0,0,0-0.1,0-0.1C58.4,54.3,58.5,54.4,58.5,54.4 M58.7,50.3
		c0.1-0.1,0.1-0.1,0.1-0.2c0.1,0,0.1-0.1,0.1-0.1c0,0,0.1,0,0.1,0c-0.1,0.4-0.1,0.8-0.1,1.2c-0.2-0.1-0.5,0-0.6,0.2
		C58.3,50.9,58.4,50.6,58.7,50.3 M58.4,49.2c-0.1,0.1-0.2,0.2-0.3,0.3c0,0,0-0.1,0-0.1C58.2,49.3,58.3,49.2,58.4,49.2 M58.1,52.9
		c0,0,0,0.1,0,0.1c-0.1-0.1-0.2-0.3-0.3-0.4c0-0.1,0-0.2,0-0.3C57.9,52.6,58,52.7,58.1,52.9 M56.6,53.8c0.2,0.3,0.5,0.6,0.8,0.9
		c0,0-0.1,0-0.1,0c-0.4,0.2-0.8,0.4-1.1,0.7C56.4,54.9,56.6,54.4,56.6,53.8 M57.9,55.4c1.2-0.4,2.2-0.3,3.2,0
		C61,55.5,61,55.6,61,55.6c0,0,0,0.1-0.1,0.1c-1.1-0.2-2.1-0.1-3.2,0.2c-0.2,0.1-0.3,0.2-0.3,0.3c-0.6,0.1-1.1,0.2-1.4,0.5
		C56.5,56.2,57.1,55.7,57.9,55.4 M56,59.3L56,59.3C56,59.3,56,59.4,56,59.3L56,59.3z M55.6,65.1c0,0,0.1,0,0.1,0
		c-0.1,0.1-0.2,0.3-0.1,0.5c0,0.1,0.1,0.2,0.1,0.2c-0.1,0.1-0.2,0.3-0.3,0.4C55.5,65.9,55.6,65.5,55.6,65.1 M55.9,70
		c0,0.1-0.1,0.3-0.1,0.4c-0.1,0-0.2,0-0.3,0c0-0.1,0.1-0.3,0.2-0.4C55.8,70,55.8,70,55.9,70 M55.2,71.6
		C55.2,71.6,55.2,71.6,55.2,71.6c0,0.5,0.2,1,0.4,1.5c0.1,0.3,0.3,0.6,0.5,0.9c0,0.1,0,0.1,0,0.2c-0.3-0.4-0.5-0.8-0.7-1.2
		c0-0.1-0.1-0.3-0.1-0.4c0-0.1,0-0.1-0.1-0.2C55.2,72.2,55.2,71.9,55.2,71.6 M56.4,75.8c-0.1,0.1-0.1,0.2-0.1,0.3
		c-0.3-0.3-0.6-0.6-0.9-0.8c0.1,0,0.2-0.1,0.3-0.1c0.1,0,0.1,0,0.1-0.1C55.9,75.3,56.1,75.6,56.4,75.8 M56.2,64.3L56.2,64.3
		C56.3,64.3,56.3,64.3,56.2,64.3C56.3,64.3,56.3,64.3,56.2,64.3 M55,51.1c-0.1,0-0.1-0.1-0.2-0.1c-0.2-0.2-0.3-0.4-0.5-0.5
		C54.5,50.7,54.8,50.9,55,51.1 M55,53.8c0,0.2-0.1,0.4-0.2,0.6c0-0.1,0-0.2,0-0.3C54.9,53.9,54.9,53.9,55,53.8 M54.7,52.6
		c0-0.2,0-0.3-0.1-0.5c0,0,0,0,0,0c0,0.1,0.1,0.1,0.1,0.2c0,0,0,0.1,0,0.1c0,0,0,0,0,0C54.7,52.5,54.7,52.5,54.7,52.6 M54.7,57.7
		c0,0.1,0,0.1,0,0.2c0,0,0-0.1-0.1-0.1C54.6,57.8,54.6,57.7,54.7,57.7 M54.1,54.8c0,0.2,0,0.3,0.1,0.5c-1,1.1-2.8,1.9-4.2,1.7l0,0
		C51.7,57,53.3,56.2,54.1,54.8 M53.8,58.3c0,0.2-0.1,0.4-0.1,0.6c-0.5,0.1-0.9,0.2-1.4,0.3C52.9,59,53.4,58.7,53.8,58.3 M51.2,59.1
		c-0.1,0.1-0.1,0.2-0.2,0.3c-0.3,0-0.5,0-0.8-0.1c-0.1,0-0.1,0-0.2,0v0C50.5,59.2,50.9,59.2,51.2,59.1 M47.9,51.5
		c-0.1,0-0.1,0-0.2,0c0-0.1,0-0.2,0-0.2c0.3-0.1,0.6-0.2,1.1-0.3h0c0.9,0.4,1.7,1,2.2,1.8c-0.2,0.2-0.6,0.4-0.9,0.6
		C49.6,52.5,48.8,51.9,47.9,51.5 M53.1,50.3c0.1,0.1,0.2,0.3,0.3,0.4c-0.1-0.1-0.3-0.3-0.5-0.4C53,50.3,53.1,50.3,53.1,50.3
		 M53.6,53.9c0-0.1,0.1-0.1,0.1-0.2c-0.5,1.4-1.9,2.3-3.5,2.4c0,0,0,0,0,0C51.6,55.8,52.8,55,53.6,53.9 M52.1,43.4c0,0,0.1,0,0.1,0
		c-0.1,0.1-0.1,0.2-0.1,0.3V43.4z M52.1,43.8L52.1,43.8C52.1,43.8,52.1,43.8,52.1,43.8C52.1,43.8,52.1,43.8,52.1,43.8 M51.8,51.5
		C51.8,51.5,51.8,51.5,51.8,51.5c0,0.2-0.1,0.3-0.1,0.5c-0.3-0.4-0.7-0.8-1.2-1.1h0C51,50.8,51.5,51.1,51.8,51.5 M49.4,39.3
		c0.5,0.5,0.8,1.1,0.9,1.7c-0.3-0.5-0.6-1.1-0.9-1.5c-0.1-0.1-0.1-0.1-0.2-0.2C49.3,39.3,49.4,39.3,49.4,39.3 M48.9,38.6
		c-0.9,0.1-1.5-0.2-2.2-0.5C47.5,38,48.2,38.2,48.9,38.6 M48.5,42.1c-0.6,1-2,1.5-3.4,1.4C46.4,43.4,47.9,42.9,48.5,42.1 M48.4,39.4
		L48.4,39.4L48.4,39.4C48.4,39.4,48.4,39.4,48.4,39.4 M45,38.4c0.7-0.1,1.1,0.1,1.5,0.3c-0.6-0.2-1.1-0.3-1.7-0.2
		C44.8,38.5,44.9,38.5,45,38.4 M43.9,39.5c0.1,0,0.1,0,0.2,0c1.3-0.5,3.3,0.2,3.9,1.5c0.1,1.6-3.9,2-5.1,1.4c-0.1,0-0.1,0-0.2,0
		c0.3-0.6,0.7-1.1,0.9-1.7C43.6,40.3,43.8,39.9,43.9,39.5 M42.8,40.3c-0.2,0.5-0.5,1-0.8,1.6C42.1,41.3,42.3,40.7,42.8,40.3
		 M42.2,46.2c-0.8-0.9-1.1-2-1.1-3c0.1,0.6,0.3,1.1,0.6,1.6c0.4,0.8,1,1.4,1.4,2.2C42.8,46.8,42.5,46.5,42.2,46.2 M44.3,44.6
		c-0.4-0.2-0.7,0.2-0.6,0.5c-0.2-0.1-0.5-0.3-0.7-0.5c-0.2-0.1-0.4-0.1-0.5,0c0-0.1-0.1-0.2-0.1-0.2c-0.2-0.5-0.2-0.9-0.1-1.3
		c0,0,0,0,0.1,0.1l0.1,0c-0.1,0.2-0.2,0.5,0.1,0.6c1.9,0.9,4.5,0.7,5.9-0.5c-0.1,0.3-0.3,0.5-0.5,0.7C47,44.8,45.6,45.3,44.3,44.6
		 M47.4,46c-0.4,0.1-0.9,0.2-1.3,0.2c0.3-0.1,0.7-0.2,1-0.3h0c0.1,0,0.3-0.1,0.4-0.1C47.5,45.9,47.5,46,47.4,46 M47.9,47.1
		c0-0.1,0.1-0.2,0.1-0.3c0.8-0.3,1.6-0.7,2.3-1.5c0.4-0.5,0.6-0.9,0.7-1.5c0.1-0.3,0.2-0.6,0.3-0.9c0,0.2,0,0.4,0,0.7
		c-0.1,1.4-1.2,1.9-2.1,2.8c-0.1,0-0.3,0.1-0.4,0.2C48.5,46.8,48.2,47,47.9,47.1 M48.9,47.9c0,0,0,0.1-0.1,0.1c0-0.1,0-0.2,0-0.4
		C48.9,47.7,48.9,47.8,48.9,47.9 M48.7,49.5c0.1,0.1,0.3,0,0.4-0.1c0.5-0.1,1-0.1,1.5-0.1c0,0.1,0.1,0.1,0.2,0.2c0,0,0,0,0,0
		c-0.6,0.1-1.2,0.3-1.9,0.5c-0.2-0.1-0.3-0.1-0.5-0.2c-0.2-0.1-0.4,0.1-0.5,0.3C47.8,50,47.6,50,47.5,50
		C47.8,49.8,48.2,49.6,48.7,49.5 M47.4,53.4c0.3,0.1,0.5,0.1,0.8,0.2c-0.2,0.2-0.2,0.6,0.1,0.7c0.4,0.1,0.8,0.1,1.1,0
		c0.1,0.1,0.1,0.1,0.2,0.2c-0.4,0.1-0.7,0.1-1,0c-0.3-0.1-0.6-0.2-0.9-0.3c-0.1-0.1-0.3-0.1-0.4-0.3h0
		C47.4,53.8,47.4,53.6,47.4,53.4 M49.6,57.1c-0.1,0.1-0.1,0.2-0.1,0.3c-0.5-0.1-0.9-0.2-1.3-0.4c-0.2-0.1-0.4,0-0.5,0.1
		c-0.2-0.2-0.4-0.3-0.7-0.5C47.9,56.9,48.7,57.2,49.6,57.1 M47,55.5c0-0.2,0.1-0.4,0.1-0.6c0.1,0,0.2,0.1,0.3,0.1
		c0.3,0.1,0.5,0.2,0.8,0.3c0.1,0,0.2,0.1,0.3,0.1c0,0-0.1,0-0.1,0c-0.3,0-0.6,0.3-0.5,0.5C47.6,55.8,47.3,55.7,47,55.5 M47.3,50.1
		c-0.1,0-0.1,0.1-0.1,0.2c0,0.1-0.1,0.2-0.1,0.3c-0.3,0.2-0.5,0.4-0.8,0.7C46.5,50.8,46.9,50.4,47.3,50.1 M46.9,51.9V52
		C46.9,52,46.8,52,46.9,51.9C46.8,51.9,46.9,51.9,46.9,51.9 M46,52.6L46,52.6c0,0,0-0.1,0-0.1c0,0,0-0.1,0-0.1
		c0.5,0.5,0.5,1.1,0.4,1.7c-0.1,0.1-0.2,0.3-0.1,0.4c0,0.1-0.1,0.3-0.1,0.4c-0.1-0.1-0.2-0.1-0.3-0.2C45.9,54,45.9,53.3,46,52.6
		 M46,55.9c0,0.1,0,0.2,0,0.3c0,0,0,0,0,0.1c0,0,0,0,0-0.1L46,55.9C45.9,55.8,46,55.8,46,55.9 M43.7,52.5c0.3,0.2,0.5,0.4,0.6,0.6
		c0.2,0.5,0.3,1,0.3,1.5c0,0.1,0,0.2,0,0.3c-0.1,0.2-0.2,0.5-0.3,0.7c0-0.2-0.1-0.5-0.2-0.7c0.2-0.4,0.3-0.7,0.4-1
		c0.1-0.4-0.4-0.6-0.6-0.5C43.8,53.1,43.8,52.8,43.7,52.5C43.7,52.4,43.7,52.4,43.7,52.5 M43.6,51.8c0,0-0.1,0.1-0.1,0.1
		c-0.1-0.2-0.2-0.4-0.3-0.6C43.3,51.5,43.5,51.7,43.6,51.8 M42.2,57.4c0.5-0.4,0.9-0.9,1.2-1.5c0,0.2,0,0.4,0,0.6
		C43,56.9,42.6,57.2,42.2,57.4 M42.8,58.5c0,0.1-0.1,0.1-0.1,0.2c-0.1,0-0.1,0-0.2,0C42.7,58.6,42.8,58.5,42.8,58.5 M39.6,57.3
		c0.9-0.1,1.9-0.5,2.6-1.2C41.5,57.1,40.5,57.8,39.6,57.3 M41,60.7C40.9,60.7,40.9,60.7,41,60.7c-0.1,0-0.1-0.1-0.2-0.1
		C40.9,60.6,40.9,60.7,41,60.7 M37.8,59c-0.2-0.1-0.4-0.2-0.6-0.4c0.5,0.1,1,0.2,1.5,0.3c0.1,0,0.2,0,0.2,0c0.5,0.1,0.9,0.2,1.4,0.3
		c0,0,0,0.1-0.1,0.1C39.4,59,38.6,58.9,37.8,59 M39.5,61c-0.2,0-0.3,0.1-0.4,0.2c0,0,0,0-0.1,0c0,0,0-0.1,0-0.1
		c-0.1-0.2-0.3-0.2-0.4-0.2c-0.1-0.1-0.2-0.1-0.4-0.2c0.3,0,0.6,0,0.9-0.1C39.2,60.8,39.4,60.9,39.5,61 M40.3,51.3
		c0.1,0.1,0.2,0.2,0.3,0.3c0.9,2-2.4,3.8-4,2.2c0-0.1,0.1-0.2,0.1-0.3c0,0.1,0.1,0.2,0.3,0.2c0.9,0.1,1.9,0.1,2.7-0.5
		C40.3,52.7,40.5,52,40.3,51.3 M41.4,52.9c0.3,0.8,0.1,1.6-0.7,2.3C39.5,56.2,38,55.9,37,55C38.7,55.7,40.9,54.6,41.4,52.9
		 M42.3,53.3c0.1,0.2,0.3,0.5,0.4,0.8c-0.3,0.6-0.7,1.2-1.3,1.6C42.1,55,42.4,54.1,42.3,53.3 M40.2,49.8c0.4,0.1,0.9,0.3,1.3,0.5
		c-0.1,0.2-0.1,0.5,0.1,0.6c0.8,0.6,1.2,1.3,1.3,1.9c-0.5-0.6-1.1-1.3-1.7-1.8l0,0c-0.1-0.2-0.2-0.4-0.4-0.6
		c-0.1-0.1-0.2-0.2-0.4-0.1c-0.1-0.1-0.2-0.1-0.3-0.1c-0.6-0.3-1.1-0.6-1.6-0.6C39,49.5,39.6,49.6,40.2,49.8 M39.1,50.7
		c0.1,0,0.1,0,0.1,0c0.1,0,0.1,0.1,0.2,0.1c-0.1,0.1-0.1,0.3,0,0.4c0.3,0.6,0.3,1.1-0.4,1.4c-0.5,0.3-1.2,0.3-1.8,0.3
		c0,0-0.1,0-0.1,0c0.1-0.1,0.2-0.3,0.3-0.4C37.6,52.1,38.5,50.7,39.1,50.7 M35.2,54.1c0,0.2,0,0.3,0,0.4c-0.1,0-0.1,0.1-0.2,0.1
		c0-0.4,0-0.8,0.1-1.2c0.4-1.9,1.4-3.4,3-3.8c-0.2,0.1-0.3,0.5-0.1,0.7c-0.5,0.4-0.9,1-1.2,1.4c-0.4,0.6-1,1.3-1.3,2
		C35.4,53.7,35.2,53.8,35.2,54.1 M36.4,58c0,0,0.1,0,0.1,0c0.1,0.1,0.2,0.1,0.3,0.2c0,0.1,0,0.2,0.1,0.3
		C36.7,58.3,36.5,58.2,36.4,58 M35.8,61.1c0,0,0.1-0.1,0.1-0.2c0-0.1,0-0.2,0.1-0.3c0,0.1,0.1,0.3,0.3,0.3
		C36.1,61.1,35.9,61.1,35.8,61.1C35.8,61.2,35.8,61.2,35.8,61.1 M36.4,61.8C36.4,61.8,36.4,61.9,36.4,61.8c0.2,0,0.5,0.1,0.7,0.1
		c-0.7,0.3-1.5,0.6-2.1,1.1C35.4,62.5,35.9,62.1,36.4,61.8 M34.9,64.4c0.8-1,2-1.3,3.1-1.8c0.1-0.1,0.2-0.1,0.2-0.3
		c0.1,0.1,0.2,0.1,0.3,0.2c0,0.3-0.2,0.6-0.4,0.8c-0.3-0.2-0.7,0.2-0.6,0.5c-0.1,0.1-0.3,0.2-0.4,0.3c-0.2,0-0.3,0.1-0.4,0.2
		c0,0-0.1,0-0.1,0.1c0,0,0,0,0,0c-0.3-0.4-0.9-0.1-0.8,0.2c-0.2-0.2-0.6-0.1-0.7,0.1c-0.2,0.1-0.2,0.3-0.2,0.5
		c-0.1,0-0.2,0.1-0.3,0.2c-0.2-0.3-0.5-0.6-0.7-1v0c0.1,0.1,0.3,0.1,0.4,0C34.4,64.5,34.7,64.6,34.9,64.4 M35.6,67.1
		c0.1,0.3,0.1,0.6,0.2,0.9c-0.1,0-0.1,0-0.2,0c-0.4-0.1-0.7-0.3-1.1-0.4c0.1-0.2,0.1-0.5,0.2-0.7C35,67.1,35.3,67.1,35.6,67.1
		 M34.8,65.9C34.8,65.9,34.8,65.9,34.8,65.9c0.2,0.1,0.4,0.1,0.6,0.2c0,0.1,0,0.1,0.1,0.2c-0.2,0-0.4-0.1-0.7-0.2
		C34.8,66.1,34.8,66,34.8,65.9 M34.5,61.1c-0.3,0.3-0.6,0.6-0.8,0.9c-0.1,0.1-0.2,0.1-0.3,0.2C33.7,61.8,34.1,61.5,34.5,61.1
		 M31.9,68.3c0.1,0,0.1-0.1,0.1-0.1c0,0.4-0.1,0.7-0.3,1c0-0.1,0-0.2,0-0.3c0-0.1,0-0.3,0-0.4C31.7,68.4,31.8,68.4,31.9,68.3
		 M31.7,66.8c-0.1,0.1-0.1,0.2,0,0.4c0,0.1-0.1,0.2-0.2,0.3c-0.1-0.2-0.2-0.4-0.3-0.6c0-0.4-0.2-0.8-0.4-1.3c0-0.1-0.1-0.1-0.2-0.2
		c-0.1-0.1-0.1-0.1-0.2-0.2C31.1,65.5,31.7,66.1,31.7,66.8 M29.4,63.9c-0.1,0-0.2,0.1-0.3,0.2c-0.1,0.1-0.2,0.2-0.3,0.2
		c-0.5-0.2-1.1-0.4-1.7-0.6c0,0,0,0-0.1,0l-0.1,0C27.8,63.6,28.6,63.6,29.4,63.9 M28.1,65.1c0,0.1,0.1,0.1,0.1,0.2l0,0
		c-0.7-0.5-1.5-0.8-2.4-0.7C26.7,64.1,27.3,64.7,28.1,65.1 M24.9,70.3c0-0.1-0.1-0.2-0.1-0.3c0.1,0.1,0.3,0.2,0.5,0.3
		c0,0-0.1,0.1-0.1,0.1c0,0,0,0,0,0C25.1,70.3,25,70.3,24.9,70.3 M25.5,76.6c0,0.1,0,0.2,0,0.2c-0.1,0.1-0.3,0.3-0.5,0.4l0,0
		C25.2,77,25.3,76.8,25.5,76.6 M25.3,71.6c0,0-0.1,0-0.1,0c0,0,0-0.1,0-0.1C25.3,71.6,25.3,71.6,25.3,71.6 M24.3,67
		c-0.2-0.2-0.4-0.1-0.6,0c0,0-0.1,0-0.1,0c0-0.2,0-0.3-0.1-0.4c0,0,0-0.1,0-0.1c0.2-0.2,0.4-0.3,0.4-0.3c0.2-0.2,0.4-0.4,0.6-0.5
		c0.1,0.1,0.3,0.1,0.4,0c1-0.6,2.2-0.1,3,0.5c0,0.3,0,0.6,0.1,1c-0.1,0.1-0.3,0.2-0.4,0.3C26.5,68.1,25.2,68.1,24.3,67 M23.7,70.2
		c0.1,0.1,0.2,0.2,0.4,0.2c0.2,0.5,0.3,1,0.3,1.6c-0.3-0.1-0.5-0.3-0.7-0.5c0,0,0.1-0.1,0.1-0.1C23.8,71.1,23.8,70.7,23.7,70.2
		 M25.2,63L25.2,63c0.1,0,0.1,0.1,0.1,0.1c0,0-0.1,0-0.1,0.1C25.1,63.1,25.2,63,25.2,63 M24.7,60.7c0,0-0.1,0-0.1,0c0,0-0.1,0-0.1,0
		c-0.1-0.2-0.2-0.4-0.4-0.6C24.3,60.4,24.5,60.5,24.7,60.7 M21.8,68.5v0.2c-0.1-0.3-0.1-0.6-0.1-0.9c0,0,0,0,0,0
		c0,0.1,0.1,0.1,0.1,0.2C21.8,68.1,21.8,68.3,21.8,68.5 M22,66.7c0.2-0.4,0.4-0.8,0.8-1.2c0.1,0,0.1-0.1,0.2-0.2
		c0.6-0.6,1.4-1.1,2.3-1.4c-0.9,0.6-1.7,1.3-2.4,1.9C22.6,66.2,22.2,66.4,22,66.7 M22.6,70.5c-0.1-0.2-0.3-0.4-0.4-0.6
		c0.1,0.1,0.2,0.1,0.3,0.2C22.5,70.2,22.6,70.3,22.6,70.5 M21.7,72.8c0,0.2,0.1,0.3,0.3,0.4c0.1,0,0.2,0.1,0.4,0.1
		c0.4,0.3,0.7,0.7,0.6,1.1c-0.1,0.3-0.3,0.5-0.6,0.7c-0.2-0.1-0.3-0.2-0.4-0.3c-0.4-0.4-1-1-0.6-1.7C21.4,73,21.5,72.9,21.7,72.8
		 M21.4,75.5c-0.1,0-0.3,0-0.4,0.1c0-0.1,0-0.2-0.1-0.3c0-0.1-0.1-0.3-0.1-0.4C21,75.1,21.2,75.4,21.4,75.5 M21.2,72.1
		c-0.3,0.2-0.6,0.5-0.7,1c0,0.1,0,0.1,0,0.2c-0.4-0.3-0.8-0.4-1.1-0.4C19.8,72.5,20.5,72.2,21.2,72.1 M19.8,73.8c0,0.3,0,0.6,0.1,1
		c-0.3-0.3-0.5-0.6-0.7-1C19.3,73.7,19.5,73.7,19.8,73.8 M18.6,74.6c0.3,0.4,0.5,0.8,0.9,1.1c-0.4-0.1-0.8-0.2-1.1-0.4
		C18.5,75,18.5,74.8,18.6,74.6 M17.2,76.5c0,0.1,0,0.1,0,0.1c0,0,0,0-0.1,0c0,0,0,0,0,0c0-0.8,0.3-1.5,0.6-2.1
		c0,0.1-0.1,0.3-0.1,0.4c-0.1,0.4-0.1,0.9-0.1,1.3C17.3,76.3,17.2,76.3,17.2,76.5 M17.3,78.1c0.6,0.9,1.3,1.6,2.2,2
		c0.6,0.8,1.8,0.8,2.8,0.6c0.1,0,0.3-0.1,0.4-0.1c0.1,0,0.2,0,0.3,0c0,0,0.1,0,0.1-0.1c0.1,0,0.2-0.1,0.4-0.1
		C21.4,81.7,18.2,80.4,17.3,78.1 M23.4,72.9c-0.1-0.1-0.2-0.1-0.3-0.2c0.3,0.1,0.6,0.2,0.9,0.4c0.2,0.1,0.4,0.2,0.5,0.4c0,0,0,0,0,0
		c-0.1,0-0.1,0-0.2,0C24,73.3,23.7,73,23.4,72.9 M23.9,76.3c0.5-0.5,0.8-1.1,0.9-1.8c0,0.1,0.1,0.1,0.1,0.2
		C25.1,75.4,24.6,75.9,23.9,76.3C24,76.3,24,76.3,23.9,76.3 M25.2,85L25.2,85c-0.5-0.5-0.9-1.1-1-1.8c0.2,0.5,0.6,0.9,1.1,1.3
		C25.3,84.7,25.3,84.8,25.2,85 M24.8,81.9c0-0.3-0.3-0.4-0.5-0.4c0.2-0.7,0.6-1.4,1.3-2.1c0.1-0.1,0.1-0.1,0.2-0.2
		c-0.2,0.3-0.3,0.6-0.3,0.9c-0.2-0.1-0.6,0-0.6,0.4C24.7,81.8,25,83,26,83.9c0,0,0,0,0,0C25.3,83.5,24.7,82.8,24.8,81.9 M26.1,82.3
		C26,82.3,26,82.4,26,82.5c-0.2-0.4-0.3-0.8-0.3-1.3c0.1,0.2,0.2,0.4,0.4,0.6C25.9,82,25.9,82.1,26.1,82.3 M26.3,85.8
		c-0.2-0.1-0.3-0.2-0.5-0.3c0.1,0,0.3,0,0.4-0.1c0.6,0.5,1.3,0.8,2,1C27.6,86.4,27,86.2,26.3,85.8 M33.6,80.5
		C33.6,80.5,33.6,80.5,33.6,80.5L33.6,80.5L33.6,80.5z M33.5,81.7c0.1-0.1,0.1-0.2,0.2-0.3c0,0.3-0.1,0.6-0.1,0.9
		c-0.2-0.1-0.3,0-0.4,0.1c0,0,0,0.1,0,0.1c-0.1,0.7-0.5,1.3-1,1.8c-0.1-0.1-0.2-0.2-0.3-0.3c0.5-0.5,1-1,1.3-1.7
		C33.3,82.2,33.4,82,33.5,81.7 M31.4,77.8c0.1,0.1,0.2,0.1,0.3,0.1c0.4,0.3,0.8,0.6,1.1,1c-0.2,0.1-0.3,0.3-0.2,0.6
		c0.3,0.7,0.3,1.4,0,2c0,0-0.1,0.1-0.1,0.1c0.1-0.3,0.3-0.6,0.3-0.8c0.1-0.3-0.2-0.5-0.4-0.5c0-0.5,0-1-0.2-1.5
		c-0.2-0.4-0.7-0.2-0.8,0.2c-0.4-0.4-0.9-0.7-1.5-1c0-0.2,0-0.4-0.1-0.6C30.4,77.3,30.9,77.4,31.4,77.8 M31.8,82.6
		c-0.1,0.1-0.3,0.3-0.5,0.4C31.4,82.9,31.6,82.7,31.8,82.6L31.8,82.6z M28.9,79.8c0.2-0.3,0.4-0.5,0.6-0.8c0-0.1,0.1-0.2,0.1-0.3
		c0.1,0.1,0.3,0.1,0.5,0.2c0,0.1,0,0.2,0.1,0.3c0.9,0.7,0.1,1.5-0.7,1.8c-0.1,0-0.1,0.1-0.2,0.1c0,0-0.1-0.1-0.2-0.1
		c-0.1-0.4-0.3-0.8-0.3-1.2C28.9,79.9,28.9,79.8,28.9,79.8 M30.3,81.6C30.3,81.6,30.3,81.6,30.3,81.6c-0.1,0.1-0.1,0.1-0.1,0.1
		C30.2,81.6,30.3,81.6,30.3,81.6 M31.1,84.7c0.1,0.1,0.3,0.2,0.4,0.3c-1.3,0.8-3,0.9-4.2,0.2c0,0,0,0,0.1,0
		C28.6,85.7,29.9,85.4,31.1,84.7 M28.2,82.2c0.1,0,0.2,0,0.3,0c0,0,0,0,0,0.1C28.4,82.2,28.3,82.2,28.2,82.2 M28.6,77.4
		c-0.4,0.6-0.5,1.5-0.6,2c0,0.1,0,0.3,0,0.4c-0.2,0.6,0,1.2,0.4,1.6c-0.6,0.1-1.2,0-1.7-0.3c-0.1-0.1-0.1-0.1-0.2-0.1
		c-0.3-0.5-0.3-1.1,0.2-1.7c0.2-0.3-0.1-0.6-0.4-0.6C27,78.2,27.8,77.7,28.6,77.4 M25.1,72.5c1.4-0.2,2.6,0.6,3.9,0.8
		C27.7,73.3,26.3,73,25.1,72.5 M28.2,72.2c1.2-0.1,2.4-0.5,3.3-1.3c0,0.7-0.5,1.4-1.5,1.5C29.3,72.6,28.8,72.4,28.2,72.2 M31,73
		c1.1-0.5,2.2-1.6,1.6-2.9c0-0.1-0.1-0.1-0.1-0.2c0.2-0.3,0.3-0.7,0.4-1.1c0.1,0.1,0.1,0.2,0.2,0.3c0,0,0,0,0,0.1
		C33.5,71.3,32.5,72.5,31,73 M34.3,68.8c-0.1-0.1-0.3-0.1-0.4-0.1c-0.2-0.2-0.5-0.5-0.6-0.8c-0.8-1.3-1-2.8-0.6-4.1
		c0,0.3,0.1,0.5,0.3,0.7c0,0.3,0.1,0.7,0.1,1c-0.2,0.1-0.3,0.4,0,0.6c0.2,0.2,0.4,0.3,0.6,0.4c0,0.3,0,0.6-0.1,0.9
		c-0.3,0.1-0.4,0.4-0.1,0.7c0,0,0.1,0,0.1,0.1c0.1,0.2,0.2,0.2,0.4,0.3c0.5,0.3,1,0.4,1.5,0.4c0.4,0.2,0.8,0.4,1.2,0.6
		C35.9,69.8,35,69.3,34.3,68.8 M37,67.8c-0.1,0-0.2,0.1-0.3,0.1c0-0.2-0.1-0.5-0.1-0.7c0.1,0,0.3,0,0.5,0c0.1,0.2,0.1,0.4,0.2,0.5
		C37.1,67.8,37.1,67.8,37,67.8C37,67.8,37,67.8,37,67.8 M37.2,68.7c0.1,0,0.1-0.1,0.1-0.1h0.1c0,0.1,0.1,0.3,0.1,0.4
		c-0.2-0.1-0.4-0.1-0.5-0.2C37.1,68.7,37.1,68.7,37.2,68.7 M37.3,70.1c0.1-0.1,0.2-0.1,0.3-0.2c0.2,0.1,0.4,0.1,0.6,0.2
		C37.9,70.1,37.6,70.1,37.3,70.1 M38.7,65.4c0.1,0.2,0.2,0.4,0.3,0.5c-0.1,0.1-0.3,0.1-0.4,0.1c-0.1-0.1-0.1-0.3-0.2-0.4
		C38.4,65.6,38.6,65.5,38.7,65.4 M38.4,69.2c0,0,0.1-0.1,0.1-0.1c0.2,0.2,0.7,0.1,0.7-0.3c0-0.2,0-0.4,0-0.6c0.1,0,0.1,0,0.2-0.1
		v0.3c0,0.2,0.1,0.4,0.3,0.4C39.3,69.2,38.8,69.3,38.4,69.2 M40,66.4c0.2-0.2,0.5-0.3,0.7-0.5c0.1,0.1,0.1,0.2,0.1,0.3
		c-0.2,0.2-0.5,0.4-0.7,0.6C40,66.7,40,66.5,40,66.4 M40.2,67.7c0.3-0.2,0.6-0.4,0.8-0.6c0,0.2,0,0.4,0,0.6
		c-0.2,0.3-0.5,0.5-0.8,0.8C40.2,68.2,40.2,68,40.2,67.7 M40.6,69.2c0.2-0.2,0.4-0.4,0.6-0.6c0.1-0.1,0.2-0.2,0.3-0.3
		c0.2,0,0.3-0.1,0.3-0.3V68c0.4-0.4,0.8-0.9,1.1-1.3C42.5,67.7,41.6,68.6,40.6,69.2 M41.8,66.5c0,0.1,0.1,0.1,0.1,0.2
		c0,0-0.1,0.1-0.1,0.1C41.8,66.7,41.8,66.6,41.8,66.5 M42.4,63.1c0-0.1,0-0.2,0-0.3c0.2,0.3,0.4,0.6,0.5,0.9
		C42.8,63.5,42.6,63.3,42.4,63.1 M44.4,62.4c0.2,0.9-0.2,1.6-0.4,2.3c0-0.3-0.1-0.5-0.2-0.8c-0.1-0.6-0.4-1.3-0.9-2.1
		c-0.1-0.1-0.1-0.1-0.2-0.1c-0.3-0.6-0.7-1.1-1.1-1.5c0.5,0.2,1-0.1,1.5-0.5c1-0.6,1.7-1.7,2.1-3c0,0.1,0.1,0.1,0.2,0.2
		c0.3,0.4,0.6,0.8,1,1.1c0.2,0.3,0.4,0.5,0.6,0.8c0.5,0.4,1.1,0.5,1.7,0.4c0.2,0,0.4,0.1,0.6,0.1c0,0,0,0,0,0c0,0.2,0,0.3,0,0.4H49
		c-0.1,0-0.3,0.1-0.3,0.1c-1.6-0.2-2.3,1.7-4,2.1C44.5,62,44.3,62.2,44.4,62.4 M46.2,64.1c0,0.1-0.1,0.1-0.1,0.2
		c-0.1,0-0.1,0-0.2,0.1c0-0.6,0.1-1.2,0.3-1.7c0.1-0.2,0-0.4-0.2-0.5c0.6-0.5,1.2-1.1,1.8-1.4c-0.1,0-0.1,0.1-0.2,0.1
		c-0.2,0.2-0.3,0.5-0.3,0.7c0,0,0,0,0,0C46.8,62.2,46,63.2,46.2,64.1 M45.3,62.5c0,0.1,0,0.1,0,0.2C45.3,62.7,45.3,62.6,45.3,62.5
		C45.3,62.6,45.3,62.6,45.3,62.5 M45.4,67.7c-0.1-0.2-0.1-0.3-0.2-0.5c-0.3-0.9-0.6-1.5-0.4-2.3c0,0.7,0.2,1.5,0.4,2.1
		c0.1,0.2,0.4,0.3,0.6,0.3c0,0.1,0.1,0.1,0.1,0.2C45.7,67.4,45.5,67.5,45.4,67.7 M48.2,69.5c-0.6-0.1-1.1-0.3-1.7-0.4
		c-0.3-0.1-0.5-0.2-0.8-0.3c0-0.1-0.1-0.3-0.1-0.4c1,0.7,2.5,1.1,4,0.9C49.2,69.5,48.8,69.6,48.2,69.5 M48.6,63.7
		c0.4,0.1,0.8,0.2,1.2,0.2c-0.2,0.3-0.5,0.5-0.8,0.6c-0.3,0-0.6,0-0.9-0.1c-0.3-0.2-0.6-0.5-0.9-0.7c-0.1-0.1-0.2-0.1-0.2-0.1
		c0-0.3,0.2-0.5,0.4-0.8c0.2,0.3,0.8,0,0.7-0.4c-0.1-0.4,0-0.8,0.3-1.1c0.2-0.4-0.1-0.7-0.5-0.6c0.4-0.2,0.8-0.1,1.3,0.1
		c0.3,0.2,0.5,0,0.6-0.3c0,0,0,0,0-0.1c0.3,0,0.6,0,0.9,0.1h0c0.8,0.1,1.4,0.5,1.8,1.5c0.2,0.6,0.2,0.6,0.7,1
		c0.8,0.6,1.7,0.6,1.7,2.1c0,0-0.1-0.1-0.1-0.1c-0.3-0.2-0.6-0.4-0.9-0.6c0.1-0.3-0.3-0.5-0.5-0.4c-0.3-0.3-0.7-0.7-0.9-1.1
		c-0.1-0.5-0.3-1-0.6-1.4c-0.2-0.3-0.7-0.2-0.8,0.1c-0.4-0.3-0.8-0.5-1.3-0.6c-0.3-0.1-0.5,0.2-0.5,0.4h0c-0.5-0.2-0.7,0.6-0.2,0.8
		c0.1,0,0.2,0.1,0.3,0.1c0,0,0.1,0,0.1,0.1c0.3,0.1,0.5,0.4,0.5,0.7c-0.4,0-0.8-0.1-1.1-0.2C48.3,62.8,48.1,63.6,48.6,63.7
		 M52.1,69.3c0,0-0.1,0.1-0.1,0.1c-0.1,0-0.3,0-0.4,0.1c0-0.1,0-0.1-0.1-0.2C51.7,69.3,51.9,69.3,52.1,69.3 M50.3,73.2
		c0.1,0,0.2-0.1,0.2-0.2c0,0,0,0,0,0c0,0.1,0,0.1,0.1,0.2c0.1,0.3,0.5,0.2,0.7,0.1c0,0,0,0.1,0.1,0.1c0.1,0.3,0.6,0.3,0.7,0v0
		c0.1,0.1,0.2,0.3,0.3,0.4c0,0.1,0.1,0.1,0.1,0.1C51.8,73.9,51,73.7,50.3,73.2 M52.4,68.5c0.5-0.3,1-0.8,1.4-1.3
		c0.3,0,0.6-0.4,0.3-0.7c0.1-0.2,0.1-0.5,0.2-0.8c0,0,0,0,0,0c0.2,0.1,0.3,0.1,0.5,0c-0.1,0.3-0.2,0.6-0.3,0.9
		c-0.2,0.2-0.3,0.5-0.4,0.7c-0.2,0.3-0.5,0.6-0.7,0.8C53,68.5,52.7,68.5,52.4,68.5 M54.3,73.9c-0.1,0-0.3,0.1-0.4,0.2
		c-0.1-0.1-0.2-0.1-0.3-0.1c-0.2,0-0.4,0.1-0.7,0.1c0.1-0.1,0.3-0.2,0.3-0.4v-0.1c0,0,0,0.1,0.1,0.1c0.2,0.3,0.5,0.2,0.7,0
		C54,73.7,54.1,73.8,54.3,73.9 M54.9,80.4c-0.2-0.3-0.5-0.2-0.7,0c-0.4-0.2-0.9-0.3-1.3-0.6c-0.6-0.3-0.6-0.7-0.4-1
		c0.3,0.3,0.8,0,0.7-0.4c0-0.1,0-0.2-0.1-0.3c0.2-0.2,0.4-0.4,0.6-0.5c0.2,0.4,0.5,0.9,0.9,1.5c-0.3,0.1-0.6,0-0.7-0.2
		c-0.3-0.5-1,0-0.7,0.4c0.4,0.7,1.1,0.8,1.9,0.6c0.1,0.2,0.1,0.4,0.2,0.5C55,80.5,54.9,80.5,54.9,80.4 M54.6,75.8
		c0.9,0.6,2.1,1.7,1.1,2.7c-0.1,0.1-0.3,0.3-0.5,0.4C54.6,77.7,53.9,76.5,54.6,75.8 M55.8,80c-0.1-0.1-0.1-0.3-0.2-0.4
		c0.3-0.2,0.5-0.3,0.7-0.5c0.7-0.9,0.7-1.7,0.3-2.4c0.8,0.7,0.6,1.8,0,2.6C56.5,79.3,56.2,79.7,55.8,80 M57.2,72.9
		c0,0.2-0.1,0.4-0.1,0.6c-0.1,0-0.2-0.1-0.2-0.2c-0.1-0.5-0.2-1-0.2-1.6C56.8,72.1,57,72.5,57.2,72.9 M56.6,67
		C56.6,67,56.6,67,56.6,67L56.6,67L56.6,67 M56.7,69.9c0-0.1,0-0.1,0.1-0.2c0.2,0.5,0.4,1,0.7,1.5c0,0,0,0,0,0c0,0,0,0,0,0.1
		C57.1,70.8,56.9,70.4,56.7,69.9 M56.5,81.8c0-0.1,0-0.2,0-0.3c0.5-0.3,0.9-0.7,1.3-1.1C57.4,80.9,57,81.4,56.5,81.8 M57.4,79.5
		c0.6-0.9,0.7-2,0.2-2.8c0.2,0.1,0.4,0.2,0.6,0.3c0,0,0,0.1,0,0.2C58.4,77.8,58,78.7,57.4,79.5 M59.7,76.5c0.3-0.2,0.7-0.4,1-0.7
		c0.6,0,1.2-0.1,1.8-0.3C61.7,76.2,60.7,76.5,59.7,76.5 M59.7,73.7c0.2,0,0.4,0,0.6-0.1c0.1,0.1,0.1,0.3,0.2,0.4c-0.2,0-0.5,0-0.7,0
		C59.8,73.9,59.8,73.8,59.7,73.7 M63.1,85.1c0.1,0.1,0.2,0.1,0.4,0.2c0,0.1,0,0.3,0,0.4C63.2,85.6,63.1,85.4,63.1,85.1 M63.6,82.9
		c-0.2-0.5-0.3-1-0.4-1.6c0.1,0,0.1,0,0.2,0C63.4,81.9,63.4,82.4,63.6,82.9C63.6,82.9,63.6,82.9,63.6,82.9 M63.4,80.5
		c-0.1,0-0.2,0-0.3,0c0-0.3,0.1-0.7,0.2-1c0.2-0.2,0.4-0.3,0.5-0.4C63.6,79.5,63.5,80,63.4,80.5 M66.7,85.9
		c-0.6,0.2-1.2,0.4-1.8,0.3c-0.2,0-0.7-0.1-1.1-0.3c0.4,0.1,0.9,0.1,1.3,0.1c0.2,0.2,0.5,0.2,0.6,0C66.1,86,66.4,86,66.7,85.9
		L66.7,85.9z M64.2,81.5c0.7,0.1,1.2,0.2,1.1,0.3c-0.2,0.3-0.5,0.6-0.9,0.9C64.3,82.3,64.2,81.9,64.2,81.5 M67.2,82.1
		c-0.1,0.1-0.1,0.2,0,0.3c0,0-0.1,0.1-0.1,0.1c0-0.3,0-0.5,0-0.8c0.1,0,0.1,0.1,0.2,0.1C67.3,81.9,67.3,82,67.2,82.1 M67.5,81
		c-0.2-0.1-0.3-0.2-0.5-0.3c0,0,0,0-0.1-0.1c-0.1-0.3-0.1-0.6-0.3-0.9C67.1,80.2,67.3,80.5,67.5,81C67.6,81,67.5,81,67.5,81
		 M66.9,78.8C66.9,78.8,66.9,78.8,66.9,78.8c0.1,0,0.1,0.1,0.2,0.1c0.1,0,0.2,0.1,0.3,0.1c0,0.1,0.1,0.2,0.1,0.3c0,0,0,0-0.1,0
		C67.2,79.1,67,79,66.9,78.8 M68.7,81.3c0.1,0.2,0.1,0.4,0.1,0.6l-0.1-0.1c0-0.2-0.1-0.5-0.2-0.7c0-0.3-0.1-0.6-0.2-0.9
		c0-0.1-0.1-0.1-0.1-0.2c0-0.1-0.1-0.2-0.1-0.3c0.4,0.3,0.7,0.6,0.9,1C68.7,80.8,68.6,81,68.7,81.3 M69.6,84.1c0-0.1,0-0.2,0-0.3
		c0.3-0.3,0.4-0.5,0.5-0.8C70.1,83.4,69.9,83.7,69.6,84.1 M70.2,81.1c0.1,0.3,0.1,0.6,0.1,0.9C70.3,81.8,70.3,81.5,70.2,81.1
		C70.2,81.2,70.2,81.1,70.2,81.1 M69.5,79.7c0.2,0.3,0.4,0.6,0.5,0.9c0,0,0,0-0.1,0c-0.3-0.5-0.6-1-1-1.4
		C69.1,79.3,69.3,79.5,69.5,79.7 M71.2,74.7c-0.2,1.2-1.1,2.1-2.4,2.6c0.9-0.6,1.7-1.5,2.2-2.5C71,74.8,71.1,74.7,71.2,74.7
		 M70.4,73.9c0,0.1,0,0.1-0.1,0.2c-0.1,0-0.3,0.1-0.4,0.1c0-0.1,0.1-0.3,0.1-0.4C70.2,73.9,70.3,73.9,70.4,73.9 M70.2,73v-0.3
		c0.1,0.1,0.2,0.3,0.2,0.4C70.3,73,70.3,73,70.2,73 M70.4,71.8c0,0-0.1-0.1-0.1-0.1c-0.1-0.1-0.2-0.1-0.3-0.1c0-0.1,0-0.1,0-0.2
		c0-0.2-0.1-0.3-0.2-0.3c0-0.1-0.1-0.1-0.1-0.2C70,71.2,70.2,71.4,70.4,71.8 M69.7,75.3c-0.8,1-1.9,1.8-2.5,2
		c-0.1,0-0.1,0.1-0.1,0.1c-0.2,0-0.4-0.1-0.7-0.1c0.1-0.1,0.2-0.2,0.4-0.3c1.2,0,2.1-0.8,2.7-1.7C69.6,75.3,69.6,75.3,69.7,75.3
		 M66.3,76.1c0,0,0.1,0,0.1-0.1c0,0,0,0,0,0C66.4,76.1,66.4,76.1,66.3,76.1 M67.6,75.9c0,0,0-0.1,0-0.1c0,0,0,0.1,0.1,0.1
		C67.7,75.9,67.6,75.9,67.6,75.9 M68,69.8c0.5,0.2,0.9,0.4,1.3,0.8c-0.1,0-0.2,0-0.3,0.1C68.8,70.3,68.4,70,68,69.8
		C68,69.9,68,69.8,68,69.8 M67.3,70.6c0.6,0.3,1,0.6,1.1,1C68,71.3,67.7,70.9,67.3,70.6L67.3,70.6z M66.6,69.4
		c0,0.1,0.1,0.2,0.2,0.3c0.1,0,0.2,0.1,0.3,0.1c-0.3,0-0.6,0.1-0.9,0.3c-0.1,0-0.3-0.1-0.5-0.1c0-0.2-0.1-0.5-0.2-0.7
		C65.9,69.3,66.2,69.4,66.6,69.4 M65.4,73.6c0.3-0.7,0.4-1.4,0.5-2.1c0.1,0,0.3-0.1,0.3-0.2c0.1-0.1,0.1-0.2,0.2-0.3
		c0.8,0.3,1.4,1.1,2,1.7c-0.4,1.1-1.7,2.2-2.8,2.5c-0.2,0-0.2,0.1-0.3,0.3c-0.1,0-0.2,0-0.4,0c0-0.2,0-0.4,0-0.5
		c0-0.1-0.1-0.2-0.2-0.3C65,74.3,65.2,73.9,65.4,73.6 M64.6,72.7c0.1,0,0.2-0.1,0.3-0.3c0.1-0.2,0.1-0.3,0.2-0.5
		c-0.1,0.4-0.2,0.8-0.4,1.2c-0.1,0.1-0.2,0.3-0.3,0.4C64.5,73.3,64.5,73,64.6,72.7 M64.5,77.2c0-0.1,0.1-0.2,0.1-0.2
		c0.1,0.2,0.2,0.4,0.4,0.5c-0.1,0-0.2,0-0.4,0.1c0,0-0.1-0.1-0.1-0.1c-0.1,0-0.1,0-0.2-0.1C64.4,77.3,64.4,77.3,64.5,77.2
		 M64.6,79.5c0.1-0.2,0-0.3,0-0.4c0,0,0.1,0,0.1,0c0.5,0,0.8,0.2,1,0.6c0,0.5,0.1,1,0.5,1.4c0.1,0.7,0.1,1.5-0.1,2.1
		c-0.1,0.1-0.3,0.1-0.4,0.1c-0.1-0.1-0.3-0.1-0.5-0.1c0.7-0.6,1.2-1.2,1-1.7c-0.2-0.7-0.8-0.8-1.5-0.9c-0.1,0-0.3,0-0.5,0
		C64.3,80.2,64.4,79.8,64.6,79.5 M64.2,75.4c0,0.1,0,0.2,0.1,0.3c-0.1,0.4-0.2,0.7-0.5,1.1c-0.1,0.1-0.1,0.3,0,0.4
		c-0.4-0.2-0.7-0.4-0.9-0.7C63.3,76.1,63.8,75.8,64.2,75.4 M62.7,72.9c0,0,0.1,0.1,0.1,0.1c-0.1,0.1-0.3,0.3-0.4,0.4
		c0-0.1-0.1-0.3-0.1-0.4c0.1-0.1,0.3-0.2,0.4-0.2C62.7,72.7,62.7,72.8,62.7,72.9 M62.6,66.9C62.6,66.9,62.6,66.9,62.6,66.9
		c-0.1,0-0.3-0.1-0.4-0.1c0,0,0-0.1,0-0.1C62.3,66.7,62.4,66.8,62.6,66.9 M63.6,73.4c-0.3,0.6-0.7,1-1.4,1c0,0,0,0-0.1,0
		C62.7,74.2,63.2,73.9,63.6,73.4 M60.4,68.3c0.1,0,0.2,0,0.3,0c0,0.1,0,0.3,0.1,0.4c0.1,0.1,0.3,0.3,0.4,0.4c0,0.1-0.1,0.2-0.1,0.4
		c-0.1-0.1-0.1-0.1-0.2-0.2c-0.1-0.1-0.2-0.1-0.3-0.1c-0.2-0.3-0.4-0.6-0.7-0.9C60,68.3,60.2,68.3,60.4,68.3 M58.7,68.4
		c0.6,0.4,1.1,1,1.3,1.7c-0.1,0.1-0.2,0.4,0,0.6c0,0,0.1,0.1,0.1,0.1c0,0-0.1,0-0.1,0.1c-0.1-0.1-0.2-0.2-0.3-0.2
		c0-0.2-0.1-0.3-0.3-0.4c-0.3-0.6-0.7-1.2-1.1-1.8C58.4,68.4,58.5,68.4,58.7,68.4 M58.5,70.4c-0.1,0-0.3,0-0.4,0.2c0,0,0,0,0,0
		c-0.2-0.5-0.5-1.1-0.7-1.6c0.1,0,0.1-0.1,0.1-0.1C57.9,69.3,58.2,69.8,58.5,70.4 M55.6,61.5c0.1,0.1,0.2,0.2,0.4,0.3
		c0,0.1,0,0.3,0,0.4c0,0.5,0.9,0.5,0.8,0c0,0,0.1,0,0.1,0.1c0,0.3,0,0.7,0,1c0,0.4,0.6,0.5,0.8,0.2c0,0.2,0,0.3,0.2,0.4
		c0.2,0.1,0.5,0.3,0.8,0.4c0.1,0.2,0.3,0.4,0.4,0.5C57.5,64.8,56.1,63.3,55.6,61.5 M57.7,61.7c0-0.2,0-0.4,0-0.6c0,0,0,0,0,0
		c0.1,0,0.2,0,0.3,0c0,0.3,0,0.7,0,1C58,62,57.8,61.9,57.7,61.7 M57.8,63.2C57.8,63.2,57.8,63.3,57.8,63.2
		C57.7,63.3,57.7,63.3,57.8,63.2l-0.1-0.1C57.8,63.1,57.8,63.2,57.8,63.2 M59.2,63c-0.1-0.1-0.2,0-0.3,0c0-0.4,0-0.8,0-1.1
		c0.1,0.1,0.1,0.1,0.3,0.1c-0.1,0.2-0.1,0.5,0.1,0.6c0.1,0,0.1,0.1,0.2,0.1c0,0.2,0,0.3,0,0.5C59.4,63,59.3,63,59.2,63 M58.5,60.2
		c-0.1,0-0.2,0-0.2,0.1c-0.2,0-0.3,0-0.5,0c0,0-0.1,0-0.1,0c0-0.1,0-0.2,0-0.2c0-0.5-0.9-0.5-0.8,0c0,0.4,0.1,0.8,0.1,1.2
		c0,0-0.1,0-0.1,0c0-0.6,0-1.1,0-1.7c0-0.3-0.3-0.4-0.5-0.4c0,0,0-0.1,0.1-0.1c0.2-0.7,0.8-1.2,1.4-1.6c0.2-0.1,0.5-0.3,0.7-0.4
		c0.5,0,1.1-0.1,1.6-0.1c0.1,0,0.1,0,0.2,0c0.5,0.4,0.5,1,0.1,1.7C60,59.4,59.3,60,58.5,60.2 M60.2,60.2c0.5-0.5,1-1.1,1.2-1.7
		c0.2-0.7,0.1-1.3-0.1-1.7c0.1,0,0.1-0.1,0.2-0.1c0,0.1,0,0.1,0,0.2C62.4,58.4,61.6,59.7,60.2,60.2C60.2,60.3,60.2,60.2,60.2,60.2
		 M60.4,63.2c0-0.1,0-0.3,0-0.4c0.4,0,0.8,0,1.1-0.1c0,0.1,0,0.1,0.1,0.2c0,0,0,0,0,0C61.2,63,60.8,63.1,60.4,63.2 M61.5,61.8
		C61.1,62,60.7,62,60.3,62v-0.1c0.5-0.1,0.9-0.3,1.4-0.5C61.6,61.5,61.5,61.6,61.5,61.8 M61.7,60.3c1-1,1.3-2.4,0.5-3.9
		c-0.1-0.2-0.4-0.2-0.5-0.2c0.2-0.7,0.8,0.3,1.1,0.9c0,0.1,0,0.2,0,0.3C63.4,58.5,62.7,59.6,61.7,60.3 M62.4,62.5c0,0,0-0.1,0-0.1
		c0.3-0.1,0.6-0.3,0.8-0.5C63,62,62.7,62.3,62.4,62.5 M63.5,59.8c-0.1,0.1-0.2,0.2-0.3,0.3c0.1-0.2,0.3-0.4,0.4-0.6
		C63.5,59.6,63.5,59.7,63.5,59.8 M64,62.2c0,0,0-0.1,0-0.1c0-0.1,0.1-0.1,0.1-0.2C64.1,62,64.1,62.1,64,62.2 M63.8,54.8
		c0.9-0.2,1.8-0.6,2.4-1.4c-0.5,0.7-1.1,1.2-1.9,1.5C64.1,54.8,63.9,54.8,63.8,54.8 M67.1,67.3L67.1,67.3c0.1,0,0.1,0,0.1,0
		C67.2,67.3,67.2,67.3,67.1,67.3 M67.8,66.2c-0.1,0-0.2,0-0.3,0c-0.1,0-0.3,0-0.3,0.1c-0.1-0.1-0.2-0.2-0.3-0.3
		c-0.2-0.2-0.4-0.1-0.5,0c-0.2-0.1-0.4-0.2-0.5-0.4c-0.1-0.1-0.3-0.1-0.5,0c-0.2-0.2-0.4-0.4-0.5-0.7c-0.3-0.5-0.4-1.2-0.1-1.6
		c0,0.6,0.3,1.2,0.8,1.6c0,0,0,0,0,0c-0.1,0.2-0.1,0.4,0.2,0.5c0.1,0,0.1,0,0.2,0.1c0.1,0.2,0.3,0.2,0.4,0.2
		c0.5,0.2,0.9,0.3,1.4,0.3c0.1,0,0.3,0,0.4,0h0C68.1,65.9,68,66.1,67.8,66.2 M68.5,62c-0.1,0.1-0.1,0.1-0.2,0.2
		c-0.3,0.1-0.5,0.1-0.8,0.1c-0.7-0.3-1.4-0.5-2.1-0.4c-0.1-0.1-0.3-0.2-0.2-0.4c0.1-0.5,0.9-1,1.3-1.1C67.4,60.4,69.3,60.8,68.5,62
		 M68.7,53.3c0.3,0.1,0.6,0.2,0.8,0.3c-0.1,0-0.3,0-0.4,0C69,53.5,68.8,53.4,68.7,53.3 M69.3,57c0.1,0.1,0.3,0.1,0.4,0.2h-0.3
		C69.4,57.1,69.3,57.1,69.3,57 M69.9,63c0.1-0.1,0.2-0.2,0.3-0.3c0.1-0.1,0.1-0.1,0.2-0.2C70.5,62.9,70.3,63,69.9,63 M70.7,58.3
		c-0.2,0-0.3,0.1-0.4,0.2c-0.1-0.1-0.3-0.1-0.4-0.1c0,0-0.1,0-0.1,0c0-0.1-0.1-0.3-0.2-0.4c0.4,0,0.8,0,1.2,0.1
		C70.7,58.2,70.7,58.2,70.7,58.3 M71.5,57.5c-0.4-0.1-0.8-0.2-1.3-0.2c0.1-0.1,0.2-0.2,0.2-0.3c0.3,0.1,0.7,0.3,1.1,0.4
		c0,0,0.1,0,0.1,0C71.6,57.4,71.5,57.4,71.5,57.5 M72.3,58.7c0.1,0.1,0.3,0.2,0.4,0.3c-0.2-0.2-0.5-0.4-0.7-0.5c0,0,0,0,0,0
		c0-0.1-0.1-0.1-0.2-0.1C71.9,58.5,72.1,58.6,72.3,58.7 M74.7,71.5c-0.1,0.5-0.5,1-1,1.4C73.9,72.3,74.2,71.9,74.7,71.5 M75,77.6
		c0.1-0.1,0.2-0.3,0.1-0.5c0,0,0-0.1,0.1-0.1c0,0.1,0,0.2,0.1,0.3c0.1,0.2,0.1,0.5,0.2,0.7C75.3,77.9,75.2,77.7,75,77.6 M75.6,73.5
		c-0.3-0.2-0.7,0-0.7,0.3c-0.2-0.3-0.6-0.1-0.7,0.2c0,0-0.1,0-0.1,0c-0.1,0-0.3,0.1-0.3,0.1h-0.1c0,0,0-0.1,0-0.1
		c0.3-0.4,0.9-0.8,1.2-1.1c0.1-0.2,0.3-0.3,0.3-0.5c0,0.1,0.1,0.2,0.2,0.3c0,0.1,0,0.3,0.1,0.4c0.1,0.1,0.1,0.1,0.2,0.2
		C75.8,73.4,75.7,73.5,75.6,73.5 M75.7,68.5c0,0.1,0,0.2,0,0.3c-0.2,0.1-0.2,0.4-0.1,0.6c0,0-0.1,0-0.1,0c0,0,0-0.1,0-0.2
		c-0.1-0.5-0.1-1-0.3-1.4c0.1,0.1,0.2,0.1,0.3,0.1c0,0,0,0.1,0,0.1C75.5,68.1,75.5,68.4,75.7,68.5 M75.6,66c0.2-0.1,0.4-0.2,0.6-0.4
		c0,0.1,0.1,0.1,0.1,0.2c-0.2,0.2-0.4,0.4-0.6,0.5C75.8,66.2,75.7,66.1,75.6,66 M76.2,71.5c0,0,0.1,0.1,0.1,0.1
		c-0.1,0.2-0.1,0.5,0.1,0.6c0,0,0,0,0,0c0,0.1,0,0.1-0.1,0.2C76.2,72.2,76.1,71.9,76.2,71.5 M76.4,78L76.4,78
		C76.4,78,76.4,78,76.4,78c0-0.1,0.1-0.1,0.1-0.1C76.5,78,76.5,78,76.4,78 M76.2,64.5c0,0-0.1-0.1-0.1-0.1c-0.4-0.3-0.8,0.3-0.5,0.6
		c-0.1,0.1-0.3,0.2-0.4,0.2c-0.3-0.2-0.8,0.1-0.6,0.5c0,0.2,0.1,0.4,0.3,0.5c0.1,0.1,0.2,0.3,0.3,0.4c-0.1,0-0.1,0-0.2,0
		c-0.1-0.3-0.3-0.5-0.4-0.8c-0.3-0.4-1,0-0.7,0.4c0.1,0.2,0.2,0.4,0.3,0.6c-0.1,0.2-0.1,0.6,0.2,0.6c0.1,0.5,0.2,1,0.3,1.6
		c0,0.1,0,0.2,0.1,0.2c-1.4,0-2.7-0.5-2.9-1.9c0,0,0,0,0,0c0.5-0.2,0.9-0.5,1.3-0.9C73,66.7,73,66.8,73,66.9c0,0.7,0.1,1.3,0.5,1.9
		c0.3,0.5,1,0,0.7-0.4c-0.3-0.5-0.4-0.9-0.4-1.5c0-0.4-0.4-0.5-0.7-0.3c0.3-0.3,0.6-0.6,0.8-0.9c0.8-1,1.1-2,1-3c0.1,0,0.1,0,0.2,0
		c0.7,0,1.8,0.2,1.5,1.1C76.6,64.1,76.4,64.3,76.2,64.5 M73.9,82.1c0.6-0.6,1.6-1.3,2.6-1.7c-0.2,0.1-0.3,0.2-0.5,0.3
		c-0.3,0.2-0.5,0.5-0.7,0.8c-0.1,0.2-0.1,0.3-0.2,0.4c-0.4-0.2-0.9,0.3-0.5,0.6c-0.1,0-0.3,0.1-0.4,0.1c-0.7,0.3-1.2,0.9-1.4,1.5
		C72.9,83.4,73.3,82.7,73.9,82.1 M72.8,85.5c0.1,0.3,0.3,0.6,0.6,0.9c0.1,0.1,0.1,0.1,0.2,0.2c0,0,0,0,0,0.1
		c0.1,0.1,0.2,0.2,0.3,0.2c0.1,0.1,0.3,0.2,0.5,0.3c-0.1,0.2,0,0.4,0.1,0.5c0,0.2,0,0.4,0,0.6C73.6,87.5,73,86.5,72.8,85.5
		 M74.1,84.6c-0.3-0.1-0.5,0.2-0.5,0.5c-0.2-0.5-0.2-0.9,0.3-1.4c0.5-0.4,1.1-0.6,1.7-0.6c0.2,0,0.5,0,0.8,0.1c0,0.1,0,0.1,0.1,0.2
		c0.1,0.1,0.1,0.1,0.2,0.2C76.1,84.3,75.1,84.8,74.1,84.6 M75.2,88.6c0.1-0.1,0.1-0.2,0.1-0.3v0l0.1,0.1c0,0.1,0,0.3,0,0.4
		C75.4,88.7,75.3,88.6,75.2,88.6 M75.7,85.6c0.2,0.1,0.4,0.1,0.7,0.2c0.1,0.1,0.1,0.3,0.2,0.4c-0.3,0-0.5,0-0.7,0
		C75.8,86,75.8,85.8,75.7,85.6 M76.3,88.9c0-0.2,0-0.3,0-0.5c0.2,0,0.5,0,0.7,0v0.1c0,0.2,0.1,0.4,0.2,0.4
		C76.9,89,76.6,89,76.3,88.9 M77.5,82.4c-0.5,0-1.1-0.1-1.7-0.1c0.1-0.5,0.4-0.9,0.8-1.1c0.3,0.1,0.5,0.2,0.6,0.3
		c0,0,0.1,0.1,0.1,0.1C77.6,81.8,77.6,82.1,77.5,82.4 M77.7,86.9c0,0,0.1,0,0.1,0c0,0.1,0.1,0.1,0.1,0.2c-0.1,0-0.1,0-0.2,0
		C77.7,87,77.7,87,77.7,86.9 M77.7,88.8C77.7,88.8,77.8,88.8,77.7,88.8c0-0.2,0-0.4,0.1-0.5c0.3-0.1,0.7-0.2,1-0.3
		c0.1,0,0.3,0,0.4,0C78.7,88.4,78.2,88.6,77.7,88.8 M79.1,84.4L79.1,84.4c0.1-0.2,0.3-0.4,0.4-0.7c0,0.1,0.1,0.2,0.2,0.3
		C79.5,84.2,79.3,84.3,79.1,84.4 M81.8,82.8c-0.1-0.3-0.3-0.5-0.5-0.8c-0.2-0.2-0.4-0.2-0.5,0c-0.1-0.1-0.2-0.1-0.3,0
		c0.1-0.2,0.1-0.4,0.1-0.6c0.9,0.3,1.3,0.8,1.5,1.4C82,82.7,81.9,82.8,81.8,82.8"/>
	<path class="st0" d="M19.1,83.7c0,0-0.1-0.1-0.2-0.1c-5.2-2.1-12.7,6.7-6,9.3c2.8,1.1,7.4,0.5,8.5-2.9
		C22.1,87.7,21.5,84.4,19.1,83.7 M18.9,84.5C18.9,84.6,18.8,84.6,18.9,84.5c-0.1,0-0.2,0-0.3-0.1C18.7,84.5,18.8,84.5,18.9,84.5
		 M17.5,84.2c-0.1,0.1-0.1,0.1-0.2,0.3c-0.4-0.1-0.9-0.1-1.4-0.1C16.5,84.2,17,84.1,17.5,84.2 M14.5,85.8c0,0.2,0.2,0.4,0.5,0.4
		c0,0.2,0.1,0.4,0.2,0.7c0.2,0.5,1,0.1,0.7-0.4c-0.1-0.2-0.1-0.3-0.2-0.5v0c0.5-0.2,1-0.4,1.6-0.3c0,0,0,0,0.1,0
		c0.8,0.6,0.3,1.2-0.5,1.5c-0.8,0.4-1.7,0.5-2.5,0.1c-0.1-0.1-0.3-0.1-0.4,0C13.9,86.8,14,86.3,14.5,85.8 M12.7,87.1
		c-0.3,1.1-0.1,2.3,0.7,3c0.1,0.2,0.2,0.4,0.4,0.7c0.1,0.1,0.2,0.1,0.3,0.1c0,0,0,0.1,0.1,0.1c-0.1,0.1-0.1,0.2-0.1,0.3
		c-0.1-0.1-0.2-0.2-0.3-0.2C11.7,90.9,11.8,88.7,12.7,87.1 M13.4,92.2c0.5,0.1,1.1,0.1,1.7,0c0.1,0,0.2-0.1,0.2-0.1
		c0.7,0.2,1.4,0.3,2.2,0.3C16.1,92.7,14.6,92.6,13.4,92.2 M18.6,91.9c0,0,0-0.1,0-0.1c0.1,0,0.2-0.1,0.3-0.1
		C18.8,91.7,18.7,91.8,18.6,91.9 M17.3,91.1c1.3-0.2,2.6-1,3.3-2C20.4,90.4,18.9,91.1,17.3,91.1"/>
	<path class="st0" d="M83.9,54.2c-0.5-2.5-2.5-3.7-4.9-3.5c-0.1-0.1-0.1-0.1-0.3-0.1c-3.2-0.2-5.7,2.1-5.3,5.4
		c0.4,3.1,4.1,4.7,6.9,3.9C82.8,59.1,84.4,56.7,83.9,54.2 M74.3,55.7c-0.2-2.6,1.7-4.2,4.1-4.3c0.1,0.1,0.2,0.1,0.4,0.1
		c0,0,0.1,0,0.1,0c0.3,0.1,0.5,0.3,0.7,0.5c-1.8-0.2-5-0.1-4.4,2.2c0.1,0.4,0.3,0.9,0.5,1.4c0,0,0,0,0,0.1c0.1,0.2,0.1,0.4,0.2,0.7
		c0.1,0.3,0.1,0.6,0,0.8c-0.3-0.7-0.5-1.4-0.8-2c-0.3-0.5-1,0-0.7,0.4c0.4,0.7,0.6,1.5,0.9,2.2c0,0,0,0.1,0.1,0.1
		C74.8,57.3,74.3,56.6,74.3,55.7 M75.5,58c0.1,0.1,0.3,0.1,0.4,0c0.1,0.1,0.3,0.2,0.5,0.3c0,0.1,0,0.1,0,0.2c0,0,0,0.1,0.1,0.1
		C76.1,58.5,75.8,58.2,75.5,58 M76.9,58.8c0,0,0.1,0,0.1,0c0,0,0,0,0.1,0c0.2,0.1,0.5,0.1,0.7,0.1c0,0,0,0.1,0,0.1
		C77.5,59,77.2,58.9,76.9,58.8 M76.9,56.7L76.9,56.7c0.2,0.3,0.3,0.6,0.5,0.9c-0.1,0-0.2,0-0.2,0c0,0,0,0,0,0
		C77,57.3,77,57,76.9,56.7 M78,54.6c-0.2-0.5-1-0.3-0.8,0.2c0.1,0.3,0.2,0.7,0.3,1c-0.3,0-0.6,0-0.9,0c0-0.1-0.1-0.3-0.1-0.4
		c0-0.1-0.1-0.1-0.1-0.2c0-0.2-0.1-0.3-0.1-0.5c-0.3-1-0.2-1.8,1.1-2c0.5-0.1,1.1-0.1,1.6,0c0.5,0.7,1,1.7,0.3,2.4
		c-0.3,0.3-0.6,0.5-0.9,0.6C78.2,55.3,78.1,55,78,54.6 M79.8,59L79.8,59c-0.4,0.1-0.8,0.1-1.2,0.1c0-0.1,0-0.1,0-0.2v0
		c0.4,0,0.8-0.1,1.2-0.2C79.8,58.8,79.8,58.9,79.8,59 M82.5,52.9C82.5,52.9,82.5,52.9,82.5,52.9c-0.2-0.1-0.3-0.3-0.5-0.5
		c-0.2-0.2-0.5-0.1-0.6,0.1c-0.2-0.3-0.4-0.5-0.8-0.7c-0.1-0.1-0.1-0.1-0.2-0.2C81.3,51.7,82,52.2,82.5,52.9 M82.1,54.8
		c-0.1,0.3-0.2,0.6-0.4,0.9c-0.1-0.3-0.2-0.6-0.3-0.9c0.1-0.2,0.2-0.4,0.2-0.6C81.8,54.4,81.9,54.6,82.1,54.8 M80.1,52.9
		c0.1,0,0.3,0,0.3-0.1c0.1,0.1,0.2,0.3,0.3,0.4c0,0.1,0.1,0.1,0.2,0.2c0,0.1,0,0.3,0,0.5c-0.2-0.1-0.4-0.1-0.5,0
		C80.3,53.5,80.2,53.2,80.1,52.9C80,52.9,80.1,52.9,80.1,52.9 M80.2,56.9c0-0.1-0.1-0.2-0.1-0.3c0.3-0.2,0.5-0.5,0.7-0.8
		c0.1,0.2,0.1,0.5,0.1,0.7C80.7,56.6,80.5,56.7,80.2,56.9 M80.6,58.8c0-0.1,0-0.2,0-0.3c0.4-0.1,0.7-0.2,1-0.3
		C81.4,58.5,81,58.7,80.6,58.8 M81.9,56.7c0.3-0.3,0.5-0.6,0.7-0.9c0,0.1,0,0.1,0,0.2C82.4,56.3,82.1,56.5,81.9,56.7 M82.9,54.7
		c0-0.1,0-0.1,0-0.2c0,0.1,0,0.2,0.1,0.3C83,54.7,83,54.7,82.9,54.7"/>
	<path class="st0" d="M91.3,61.5c-3-2.1-7.2-0.2-8.2,3.2c-1,3.2,1.4,7.1,4.9,7.4c2.8,0.2,5.4-1.9,6.3-4.4
		C95.3,64.8,94,62.5,91.3,61.5 M90.3,65.4c0-0.2-0.1-0.4-0.2-0.7c0.1-0.4,0.1-0.7,0.1-1.1C90.7,64.2,90.7,64.8,90.3,65.4 M90.4,69
		c-0.2,0.1-0.4,0.2-0.6,0.2c0-0.2,0-0.3,0-0.5c0,0,0.1,0,0.1,0c0.1,0.1,0.2,0.1,0.3,0.2C90.3,69,90.3,69,90.4,69 M83.7,65.8
		c0,0.3,0.1,0.6,0.2,0.8c0.1,0.3,0.2,0.6,0.3,1v0.1c0,0.1,0.1,0.2,0.1,0.3c0.1,0.4,0.3,0.9,0.4,1.3C84,68.3,83.5,67,83.7,65.8
		 M84.3,64.1c1.2-2.1,3.6-3.3,5.9-2.3c-0.1,0.1-0.1,0.2-0.1,0.4c-0.6-0.4-1.2-0.6-2-0.5c-1.4,0-2.6,0.9-3.3,2.1
		C84.6,63.9,84.4,64,84.3,64.1 M89.5,63.7c-0.1-0.4-0.3-0.7-0.7-1c0.1,0,0.2,0,0.3,0.1h0c0,0.1,0,0.2,0.1,0.3
		C89.3,63.2,89.4,63.4,89.5,63.7 M85.2,65.7c0-0.4,0.1-0.9,0.2-1.3c0.1,0,0.1-0.1,0.2-0.1c0.1,0,0.2-0.1,0.3-0.1
		c0,0.1-0.1,0.1-0.1,0.2c-0.2,0.4-0.2,0.8-0.2,1.1C85.4,65.6,85.3,65.7,85.2,65.7 M85.7,69c0-0.6,0.1-1.3,0.1-1.9
		c0.1,0.8,0.1,1.6,0.2,2.4C85.9,69.4,85.8,69.2,85.7,69 M86.8,70.3C86.8,70.3,86.8,70.3,86.8,70.3c0.1,0,0.2,0,0.3,0
		c0,0.1,0,0.1,0,0.1C87,70.5,86.9,70.4,86.8,70.3 M87.2,69.5H87c-0.1,0-0.1,0-0.2,0c-0.1-0.4-0.1-0.8-0.1-1.2c0.2,0,0.4,0.1,0.6,0.1
		C87.3,68.8,87.3,69.2,87.2,69.5 M87.6,66.4c-0.1,0-0.1,0-0.2,0c-0.3,0-0.5-0.1-0.7-0.2c-0.3-0.3-0.4-0.7-0.2-1.3
		c0.1-0.2,0.2-0.4,0.3-0.5c0,0,0.1-0.1,0.1-0.1c0.3-0.2,0.7-0.3,1,0.2c0.2,0.3,0.5,0.1,0.6-0.1c0.1,0.3,0.2,0.6,0.3,0.9
		c-0.1,0.1-0.2,0.2-0.4,0.3c-0.5,0.2-0.1,0.9,0.4,0.8c-0.3,0.1-0.6,0.2-1,0.2C87.8,66.4,87.7,66.4,87.6,66.4 M87.9,70.6
		c0-0.1,0.1-0.1,0.1-0.2c0.3,0,0.5,0,0.8-0.1c0,0,0,0,0,0C88.5,70.5,88.2,70.5,87.9,70.6 M88.8,69.5c-0.3,0.1-0.5,0.1-0.8,0.1
		c0-0.2,0-0.4,0.1-0.6c0.3,0,0.6,0,0.9-0.1C88.9,69.1,88.9,69.3,88.8,69.5 M89.2,71.2c0.5-0.2,0.9-0.4,1.2-0.7
		c0.3-0.3,0.4-0.5,0.6-0.8c0.5-0.3,0.9-0.6,1.3-0.9c0.1,0,0.2,0,0.4,0C91.9,69.9,90.6,70.9,89.2,71.2 M93,64.2
		c-0.1,0-0.2,0.1-0.2,0.1c-0.2-0.7-0.6-1.3-1.1-1.7c0.7,0.4,1.3,0.9,1.7,1.5C93.2,64.1,93.1,64.1,93,64.2 M93.8,66.5
		C93.8,66.5,93.8,66.4,93.8,66.5c0-0.2,0-0.3,0-0.4C93.8,66.2,93.8,66.3,93.8,66.5"/>
	<path class="st0" d="M56.3,28.9c0.2-2.1-1.4-3.8-3.5-4.6c0,0-0.1,0-0.1,0c-2.8-1-6.5,0.5-7.2,3.6c-0.7,2.9,1.8,6,4.8,6.1
		c2.4,0.1,4.9-1.6,5.8-3.9c0.1-0.4,0.2-0.7,0.3-1C56.3,29,56.3,29,56.3,28.9C56.3,28.9,56.3,28.9,56.3,28.9 M52.7,25.2
		C52.7,25.2,52.8,25.2,52.7,25.2c0.3,0.1,0.4,0.2,0.6,0.3c0,0,0,0,0,0c-0.1,0.1-0.2,0.2-0.2,0.3c-0.2-0.1-0.3-0.1-0.5-0.2
		c0.1-0.3-0.1-0.6-0.4-0.6c-2.1-0.1-4.4,0.5-5.5,2.1C47.9,25.1,50.5,24.1,52.7,25.2 M51.1,27.5c0,0.2-0.1,0.4-0.2,0.5
		c-0.4,0.5-1.1,1.2-1.8,0.9c-0.9-0.3-0.7-1.1,0-1.5c0.5-0.3,1.4-0.6,1.9-0.1C51,27.5,51.1,27.5,51.1,27.5 M46.2,28.7
		c0,0.4,0,0.9,0.2,1.4C46.2,29.7,46.1,29.2,46.2,28.7 M52.4,31c-0.6,0.4-1.3,0.8-1.9,0.9c-0.2,0-0.3,0.2-0.3,0.4
		c-0.9,0-1.8-0.3-2.5-0.7c-0.1-0.1-0.3-0.1-0.4,0c-0.4-0.4-0.7-0.8-0.9-1.3c0.3,0.3,0.9,0.1,0.7-0.4c0-0.1,0-0.1,0-0.2
		c0.3,0,0.6-0.2,0.5-0.5c-0.1-0.4-0.3-0.7-0.4-1.1c0.5-1.2,1.7-1.8,3.1-2c0,0-0.1,0.1-0.1,0.1c-0.7,0-1.4,0.4-1.9,0.8
		c-0.4,0.4-0.7,0.9-0.6,1.5c0.1,0.6,0.7,1.1,1.2,1.2c0.1,0,0.3,0.1,0.4,0.1C49,30,49,30.3,49.2,30.5c-0.5-0.1-1-0.3-1.3-0.6
		c-0.4-0.4-1,0.2-0.6,0.6c0.5,0.5,1.3,0.8,2,0.8c-0.2,0.3,0.1,0.7,0.5,0.6c2.4-0.4,4.1-2.8,3.5-4.7c0,0,0-0.1,0-0.1
		C54,28.4,53.5,30,52.4,31 M55.4,29c0,0.1,0,0.2-0.1,0.3c0-0.2,0-0.4,0-0.6c0-0.1-0.1-0.2-0.1-0.3c0-0.2,0-0.5,0-0.7
		c0.2,0.3,0.3,0.6,0.2,1C55.4,28.8,55.4,28.9,55.4,29"/>
	<path class="st0" d="M13.7,28.7C11.2,28.8,8.6,30.3,8,33c-0.6,2.6,1.1,4.8,3.6,5.3c3.1,0.7,6.8-0.6,7.6-3.9
		C20,31,16.9,28.2,13.7,28.7 M15.9,34.3c-0.1,0-0.1,0.1-0.2,0.1c0.1-0.1,0.2-0.2,0.2-0.3c0.5-0.7,0.6-1.5,0.4-2.1
		C16.7,32.7,16.7,33.6,15.9,34.3 M16.1,29.8c-0.3-0.1-0.6-0.1-0.9-0.2c-0.1-0.1-0.2-0.1-0.3-0.2C15.3,29.5,15.7,29.7,16.1,29.8
		 M10.9,34.1c-0.5-0.3-0.9,0.5-0.4,0.7c0.2,0.1,0.4,0.2,0.5,0.2c-0.2,0.1-0.2,0.3-0.1,0.5c-0.2,0-0.3-0.1-0.5-0.1
		c-0.4-0.2-0.6,0.4-0.4,0.7c0,0,0,0,0,0c-0.2-0.1-0.3-0.1-0.5,0c-1-1.2-1.1-2.8-0.2-4.2c0.4-0.7,1-1.2,1.7-1.6
		c-1.1,0.8-1.8,2-2.1,3.6c-0.1,0.5,0.7,0.8,0.8,0.2c0.2-0.9,0.4-1.9,1-2.6c-0.1,0.1-0.2,0.3-0.3,0.5c-0.1,0.3,0.1,0.6,0.4,0.6
		c0,0.2,0,0.3,0.1,0.5c0.3,0.6,0.8,0.9,1.5,1.1C11.9,34.3,11.4,34.4,10.9,34.1 M13.6,33.3c-0.5,0.1-1.4,0.2-1.8-0.2
		c-0.6-0.6,0.4-1.4,1-1.4c0.8,0,1.9,0.6,1,1.4c0,0-0.1,0.1-0.1,0.1C13.7,33.3,13.7,33.3,13.6,33.3 M13.9,37.6
		C13.9,37.6,13.9,37.6,13.9,37.6c0.1,0,0.2,0,0.3,0C14,37.6,14,37.6,13.9,37.6 M14.1,36.7c1.6-0.3,3.2-1.6,3.8-3
		C17.8,35.3,16.1,36.6,14.1,36.7"/>
	<path class="st0" d="M12,54.1c0.1-3.3-2-6.6-5.9-5.7c-0.1,0-0.2,0.1-0.3,0.2c-1.8,0.4-4.1,1-5.2,2.7c-1.1,1.8-0.7,4.2,0.5,5.9
		c1.9,2.5,6,3.8,8.7,1.6c0.8-0.6,1.3-1.4,1.6-2.3C12.1,55.9,12.3,55,12,54.1 M10.6,51.3c-0.1-0.1-0.2-0.3-0.3-0.4
		c0,0-0.1-0.1-0.1-0.1c-0.1-0.1-0.1-0.3-0.2-0.4C10.2,50.6,10.4,50.9,10.6,51.3 M10.4,54.2c0-0.3,0-0.6-0.1-0.9
		c0-0.2,0.1-0.4,0.1-0.6c0,0,0-0.1,0-0.1C10.5,53.2,10.5,53.7,10.4,54.2 M8.8,49.5c0,0-0.1,0-0.1,0.1c-0.1-0.1-0.2-0.1-0.3-0.2
		C8.5,49.4,8.7,49.4,8.8,49.5 M7,49.2c0,0,0,0.1-0.1,0.1c-0.1,0-0.1-0.1-0.2-0.1C6.8,49.2,6.9,49.2,7,49.2 M4.7,50.5
		c0.3-0.1,0.6-0.1,0.9-0.1c0.5,0.3,0.8,0.9,1,1.6c-0.1,0.3-0.4,0.6-0.7,0.9c-0.1,0.1-0.1,0.1-0.2,0.2c-0.6,0-1.2,0-1.8,0.1
		c-0.3-0.2-0.5-0.5-0.5-0.9C3.4,51.5,4,50.7,4.7,50.5 M4.8,57.9c-0.2-0.1-0.4-0.1-0.6-0.2c0.2,0,0.3-0.1,0.5-0.1
		C4.7,57.7,4.8,57.8,4.8,57.9 M4.2,56.7c-0.3,0.1-0.8,0-1.1-0.4C3,56.3,3,56.2,2.9,56.1C3.3,56.4,3.8,56.6,4.2,56.7 M2.4,52.9
		c0,0.1,0.1,0.1,0.1,0.1c0,0.3,0.1,0.5,0.2,0.6c-0.2,0.2-0.3,0.5-0.3,0.7C2.3,53.9,2.3,53.4,2.4,52.9 M2.4,54.7
		C2.3,54.7,2.3,54.7,2.4,54.7c0-0.1-0.1-0.1,0-0.2C2.3,54.6,2.3,54.7,2.4,54.7 M1.5,53.9c-0.1,0-0.2,0-0.3,0.1
		c0-0.4,0.1-0.7,0.3-1.1C1.5,53.2,1.5,53.6,1.5,53.9 M1.7,52.1C1.6,52,1.4,51.9,1.2,52c0.1-0.2,0.3-0.4,0.5-0.6
		C1.7,51.6,1.7,51.9,1.7,52.1 M2.6,57.6c-0.1-0.1-0.2-0.3-0.3-0.4c0.1,0.1,0.3,0.1,0.5,0c0.1,0.1,0.2,0.2,0.4,0.3
		c0.2,0.1,0.4,0.2,0.5,0.2c-0.2,0.2-0.3,0.5,0,0.7c1.3,0.9,3.5,0.7,5.4,0C7,59.5,4.1,59.3,2.6,57.6 M6.9,57.3
		c-0.1,0-0.2,0.1-0.4,0.1c-0.1,0-0.3,0-0.4-0.1c0.3-0.1,0.6-0.2,0.9-0.4c0.9-0.3,1.7-0.8,2.3-1.5C9,56.3,8.3,57,6.9,57.3 M10.8,56.1
		c-0.3,0.4-0.7,0.7-1.1,0.9c0.8-0.7,1.3-1.7,1.5-2.8c0,0,0,0.1,0,0.1C11.2,55,11.1,55.6,10.8,56.1"/>
	<path class="st0" d="M12.3,77.2c0-1.8-1.4-3.3-3.1-4.3c-0.3-0.2-0.7-0.4-1-0.6C8.3,72.2,8.2,72,8,72c-5.6-1.4-8,6.1-4,9.4
		c2.4,1.9,6.3,0.8,7.7-1.8c0.2-0.3,0.3-0.6,0.4-0.9C12.3,78.2,12.4,77.8,12.3,77.2 M7.4,73.1C7.5,73,7.5,73,7.5,73
		c0.4,0.2,0.8,0.4,1.2,0.7c0,0-0.1,0-0.1,0c-0.2-0.1-0.3-0.1-0.4,0c-0.6-0.2-1.3-0.2-2-0.1C6.6,73.4,7,73.2,7.4,73.1 M5.7,76.6
		c0.9,0.4,2.2,0,3-0.7c-0.2,0.8-1.2,1.2-2,1.2c-0.9,0-2.4-1-1.7-2.1c0.5-0.6,2.6-1,3.4-0.4c0.1,0.4-0.2,0.7-0.6,0.9
		c-0.6,0.3-1.3,0.5-1.9,0.2C5.4,75.6,5.2,76.4,5.7,76.6 M6.1,78.9c-0.5-0.2-0.7,0.7-0.2,0.8c0.1,0,0.2,0.1,0.4,0.1c0,0,0,0,0,0.1
		c-0.1,0-0.2,0-0.3,0c-0.4,0-0.5,0.3-0.4,0.6C5.3,80.2,5,80.1,4.8,80c-0.3-0.2-0.7,0.1-0.6,0.4c-0.2-0.2-0.4-0.5-0.6-0.8
		c-1.6-2.7-0.4-6.5,2.6-6.9c-0.3,0.1-0.6,0.3-0.8,0.4c-0.3,0.2-0.2,0.6,0,0.7c-0.6,0.3-1.1,0.8-1.3,1.4c-0.2,1.3,0.7,2.2,1.8,2.6
		c-0.2,0.2-0.2,0.5,0.1,0.6c0.1,0.1,0.2,0.2,0.3,0.2c0.4,0,0.8,0,1.3-0.1c0.4,0,0.8-0.1,1.2-0.3C7.8,78.8,6.9,79.1,6.1,78.9
		 M10.2,80.1c-0.1,0.1-0.3,0.3-0.5,0.4c0.1-0.1,0.1-0.2,0.1-0.3c0.2-0.1,0.3-0.1,0.5-0.2C10.3,80,10.2,80.1,10.2,80.1 M11.2,76.2
		c-0.1,1.5-2,3.5-3.7,3.4c1.8-0.4,3.6-2.1,3.6-3.7c0,0,0,0.1,0.1,0.1C11.2,76.1,11.2,76.2,11.2,76.2"/>
	<path class="st0" d="M66.2,88.3c-0.1,0-0.1,0-0.1,0c-2.4-0.7-4.3,1.9-4.6,4.1c-0.4,3.1,1.5,5.8,4.7,6c2.8,0.2,5.2-1.8,5.3-4.7
		C71.6,90.6,69.2,88.7,66.2,88.3 M68.9,90.2c0.9,0.6,1.5,1.5,1.7,2.5c-0.1,0-0.3,0-0.4,0.1c0-0.1,0.1-0.2,0.1-0.3
		c0.1-0.2-0.1-0.4-0.3-0.5c0-0.4-0.2-0.8-0.6-1.2c-0.2-0.2-0.4-0.1-0.5,0c0-0.1-0.1-0.1-0.1-0.2C68.9,90.5,69,90.3,68.9,90.2
		 M69.3,95c-0.1,0.1-0.3,0.3-0.5,0.4c-0.1,0-0.2,0-0.3,0.1c-0.1,0.1-0.2,0.1-0.3,0.2c-0.1,0.1-0.2,0.1-0.3,0.2
		c0.5-0.3,1-0.8,1.4-1.3c0,0,0,0.1,0,0.1C69.3,94.9,69.3,95,69.3,95 M68.9,92.7c0,0.1,0,0.1,0.1,0.2c-0.3,0.4-0.8,0.8-1.3,1.1
		c0,0,0,0,0-0.1C68.2,93.5,68.7,93.1,68.9,92.7 M63.4,93c0,1-0.2,1.9-0.3,2.9c0,0,0,0,0,0c-0.7-0.8-1-2-0.8-3.3
		c0.1-0.4,0.2-1,0.5-1.5c-0.1,1.1-0.4,2.1-0.4,3.2c0,0.5,0.8,0.5,0.8,0c0-1.1,0.3-2.2,0.4-3.2c0-0.4-0.4-0.5-0.6-0.3
		c0.6-1.1,1.6-2.1,2.8-1.7c-0.6,0-1.1,0.2-1.7,0.5c-0.5,0.2-0.1,1,0.4,0.7c0.9-0.5,1.9-0.5,2.8-0.2c-0.8-0.2-1.8,0-2.6,0.3
		c-0.5,0.2-0.3,1,0.2,0.8c1.1-0.4,2.9-0.7,3.2,0.9c0,0.1,0,0.1,0.1,0.2c-0.2,0.4-0.5,0.7-1,0.9c-0.2-0.1-0.5,0-0.6,0.3
		c-0.2,0.1-0.4,0.2-0.7,0.2c0-0.1-0.1-0.2-0.1-0.3c0.5-0.1,1-0.4,1.5-0.7c0.5-0.3,0-1-0.4-0.7c-0.8,0.5-1.6,0.8-2.5,0.7
		c-0.1,0-0.3,0-0.4,0.1C63.9,92.5,63.4,92.6,63.4,93 M67.1,95.1c0,0.1,0,0.2,0,0.3c-0.3,0.1-0.5,0.2-0.9,0.2v-0.2
		C66.5,95.3,66.8,95.2,67.1,95.1 M63.9,96c0-0.1,0-0.3,0.1-0.4c0.2,0.3,0.8,0.3,0.8-0.2v-1.9h0.3c0,0.1,0.1,0.2,0.1,0.3
		c-0.3,0.2-0.3,0.8,0.1,0.8v0.1c-0.5,0.1-0.5,0.9,0,0.8h0v0.2c-0.1,0.1-0.1,0.4,0,0.5v0.2C64.9,96.5,64.4,96.3,63.9,96
		C63.9,96,63.9,96,63.9,96 M66.9,97.6c-0.6,0-1.3-0.1-1.8-0.3c0.2,0,0.4,0.1,0.6,0.1c0.1,0,0.2,0,0.3,0c0.9,0,1.9-0.3,2.6-0.8
		c0.7-0.3,1.3-0.8,1.8-1.4C69.8,96.6,68.5,97.6,66.9,97.6"/>
	<path class="st0" d="M91.9,73.9c-0.1,0-0.2,0-0.2,0c0,0,0,0,0,0c-2.7-0.8-4.4,1.3-4.8,3.7c-0.5,2.6,0.8,5.2,3.4,6.1
		c3,1,6.4-0.3,7-3.7C97.7,77,94.6,74.5,91.9,73.9 M95.9,77.5c0.1,0.2,0.2,0.4,0.3,0.6C96.1,78,95.9,78,95.8,78
		C95.9,77.9,95.9,77.7,95.9,77.5 M91.4,74.7c0.1,0,0.2,0,0.3,0c0,0,0,0,0,0c0.6,0.1,1.3,0.4,1.9,0.8c-0.1,0.2-0.1,0.5,0.1,0.6
		c0,0,0,0.1,0,0.1c0,0.1,0,0.2,0.1,0.3c0.2,0.2,0.4,0.3,0.5,0.5c-0.3-0.3-0.6-0.5-1-0.7c-0.2-0.1-0.4-0.3-0.6-0.4
		c-0.4-0.6-1.1-1-1.8-0.7c-0.2,0.1-0.4,0.3-0.5,0.4c-1,0.1-1.9,0.7-2.6,1.5C88.3,75.4,89.5,74.1,91.4,74.7 M93.1,78.2
		c0.1-0.3,0.1-0.6,0.1-0.9c0,0,0,0,0,0C93.3,77.7,93.2,78,93.1,78.2 M89.5,79.2c0.1-0.1,0.3-0.3,0.4-0.4c0.5-0.7,0.6-1.3,0.9-2.1
		c0-0.1,0.1-0.2,0.1-0.2c0.4,0,0.9,0.1,1.3,0.3c0.1,0.2,0.1,0.3,0.1,0.5c0,0.5-0.2,1-0.3,1.5c0,0.1,0,0.2,0,0.3
		c-0.6,0.2-1.2,0.3-1.8,0.3c0,0-0.1,0-0.1,0C90,79.2,89.8,79.1,89.5,79.2c0.1,0.1,0.1,0,0.1,0C89.6,79.2,89.6,79.2,89.5,79.2
		 M87.9,80.5c-0.2-0.6-0.3-1.2-0.3-1.8c0.1,0,0.2-0.1,0.3-0.2c0.5-0.9,1.3-1.5,2.1-1.9c0,0,0,0,0,0c-0.3,0.9-0.4,1.3-1.1,2
		C88.3,79.3,87.9,79.9,87.9,80.5 M89.6,80.8c-0.3-0.1-0.5,0.1-0.5,0.4c-0.4-0.2-0.7-0.4-0.5-0.9c0.1-0.2,0.2-0.4,0.4-0.6
		c0,0.1,0.1,0.2,0.2,0.2c0.2,0.1,0.3,0.1,0.5,0.1c-0.1,0.2,0,0.5,0.3,0.6c0.3,0.1,0.7,0.2,1,0.3c0.1,0.1,0.2,0.2,0.3,0.1
		c0.1,0,0.2,0,0.4-0.1h0.3c0,0,0,0,0,0.1c-0.2,0-0.3,0-0.5,0c-0.1,0-0.3,0-0.4,0c0,0-0.1,0-0.1,0C90.5,81,90.1,80.9,89.6,80.8
		 M90.7,82.1c0.3,0.1,0.7,0.1,1.1,0.2c0.1,0,0.1,0.1,0.2,0.1c-0.5,0-1-0.1-1.5-0.2C90.6,82.1,90.7,82.1,90.7,82.1 M90.7,83
		c1,0.2,2.1,0.2,2.9-0.1h0.1C92.8,83.3,91.7,83.4,90.7,83 M94.1,78c0,0,0-0.1,0-0.1C94.1,77.9,94.1,77.9,94.1,78L94.1,78z
		 M95.1,80.6c-0.1,0.1-0.1,0.1-0.2,0.2c-0.2,0-0.4,0.1-0.5,0.3c0,0,0,0-0.1,0c0-0.1,0-0.2-0.1-0.3c0.3-0.1,0.7-0.3,0.9-0.4
		C95.1,80.4,95.1,80.5,95.1,80.6 M96.3,80.2c-0.2,0.5-0.4,1-0.7,1.4c0.1-0.2,0.2-0.5,0.3-0.8c0.2-0.3,0.3-0.7,0.3-1.2
		c0-0.1-0.1-0.2-0.1-0.2c0.1-0.3,0.3-0.5,0.3-0.9C96.5,79.1,96.5,79.6,96.3,80.2"/>
	<path class="st0" d="M92.2,49.3c-0.1,0-0.3,0-0.4,0.1c-2.4-0.3-5.3,0.5-6.9,2.4c-1.7,2.1,0,5.3,2.4,6c2.6,0.9,6.5,0.7,7.7-2.2
		C96,53.1,95,50,92.2,49.3 M85.3,53.2C85.3,53.2,85.3,53.2,85.3,53.2c0,0.1,0,0.1,0,0.1C85.3,53.2,85.3,53.2,85.3,53.2 M85.2,53.5
		c0,0,0,0.1,0,0.1c0.1,0.3,0.1,0.6,0.1,0.9c0,0.3,0.2,0.4,0.4,0.4c0,0.1,0.1,0.2,0.1,0.2c0.1,0.2,0.3,0.2,0.4,0.2
		c0,0.3,0.1,0.6,0.1,1C85.4,55.5,85.1,54.5,85.2,53.5 M86.2,53.8c-0.1-0.4-0.1-0.8,0.1-1.2c-0.1,0.4,0.1,0.8,0.2,1.2
		C86.4,53.8,86.3,53.8,86.2,53.8 M86.7,52C86.7,52,86.7,52,86.7,52C86.7,52,86.7,52,86.7,52C86.7,51.9,86.7,52,86.7,52 M87,56.9
		c0.1-0.1,0.1-0.1,0.1-0.3c0-0.5,0-1-0.1-1.4c0.1,0,0.1,0.1,0.2,0.1c0.1,0.3,0.3,0.5,0.5,0.7c0.1,0.4,0.2,0.9,0.3,1.3
		C87.6,57.1,87.3,57,87,56.9 M88.8,57.5c0,0,0-0.1,0-0.1c0-0.1,0-0.2,0-0.3c0.3,0.2,0.6,0.4,0.9,0.5C89.4,57.5,89.1,57.5,88.8,57.5
		 M89.9,56.7c-0.1,0-0.2-0.1-0.3-0.1c0-0.1,0-0.1,0-0.2c0-0.2-0.1-0.5-0.1-0.7c0.1,0,0.2,0,0.3,0c0,0.1,0,0.3,0.1,0.4
		c0,0.2,0.1,0.4,0.1,0.5C89.9,56.6,89.9,56.7,89.9,56.7 M89,53.1c-0.5-0.3-0.8-0.7-0.8-1.1c0.4-0.3,0.6-0.7,0.9-1.2
		c0.1,0,0.2,0,0.3,0.1c0,0.1,0.1,0.2,0.2,0.3C90.6,51.8,89.9,52.9,89,53.1 M90,50.2c0.2,0,0.5,0,0.7,0c0,0.1,0.1,0.1,0.1,0.2
		c0,0,0.1,0,0.1,0.1c-0.1,0-0.3,0.1-0.3,0.3C90.4,50.5,90.2,50.3,90,50.2 M90.8,52.4c0.1,0.1,0.1,0.2,0.2,0.2c0,0,0,0,0.1,0.1
		c0,0-0.1,0.1-0.1,0.1c-0.1,0.1-0.3,0.2-0.4,0.2C90.7,52.8,90.8,52.6,90.8,52.4 M91.6,56.1c-0.3,0.1-0.5,0.2-0.8,0.2
		c0-0.1,0-0.3-0.1-0.4c0.3-0.1,0.6-0.1,0.9-0.3C91.7,55.9,91.7,56,91.6,56.1 M92.5,55.8c0-0.1,0-0.3,0-0.4c0.3-0.1,0.5-0.3,0.8-0.5
		c0.1,0.1,0.1,0.2,0.2,0.3C93.2,55.4,92.9,55.6,92.5,55.8 M93.9,54.4C93.9,54.4,93.9,54.3,93.9,54.4c0-0.1,0-0.1,0.1-0.1
		C94,54.3,93.9,54.3,93.9,54.4"/>
	<path class="st0" d="M82.1,34.3C81,34,79.5,34.6,78.6,35c-2.8,1.4-4.5,4-2.4,6.8c1.6,2.1,5.1,3.3,7.7,2.6
		C89.8,43,87.9,33.7,82.1,34.3 M83.2,36c0.1,0.1,0.3,0.2,0.4,0.3c0,0.1,0.1,0.1,0.1,0.2c0,0.1,0,0.1,0.1,0.2c0,0,0,0.1,0.1,0.1
		c0.1,0.3,0.1,0.6,0.1,0.9c-0.6-0.5-1.1-1-1-1.8c0-0.1,0-0.1,0-0.2C83.1,35.9,83.1,35.9,83.2,36 M84,40.5c-0.1,0.1-0.2,0.2-0.3,0.3
		c0,0,0,0,0-0.1C83.7,40.7,83.8,40.6,84,40.5 M83,38.7c0-0.1,0.1-0.2,0.1-0.3c0.1,0.1,0.2,0.2,0.3,0.3c-0.2,0.2-0.5,0.4-0.7,0.6
		c0,0-0.1-0.1-0.1-0.1C82.8,39.1,82.9,38.9,83,38.7 M82.9,41.3C82.9,41.3,82.9,41.3,82.9,41.3c-0.4,0.2-0.8,0.3-1.1,0.4
		c0,0,0,0-0.1,0c-0.1,0-0.2,0.1-0.2,0.1c0-0.1,0-0.2,0-0.3c0.5-0.1,1-0.2,1.4-0.4C82.9,41.2,82.9,41.2,82.9,41.3 M81.4,36.2
		c0.3,0.2,0.5,0.4,0.7,0.7c-0.1,0.3-0.3,0.5-0.5,0.7c-0.3,0.3-0.6,0.4-0.9,0.5c-0.1,0-0.2-0.1-0.3-0.1c-0.1-0.1-0.2-0.2-0.2-0.3
		c0-0.1,0-0.1,0-0.2c-0.2-1-0.5-1.3,0.9-1.6C81.1,36.1,81.2,36.2,81.4,36.2C81.4,36.2,81.4,36.2,81.4,36.2 M80.7,41.5
		c0,0.1,0,0.3,0,0.4c-0.1,0-0.2,0-0.3,0c-0.1,0-0.1,0-0.1,0.1c0,0-0.1,0-0.1-0.1c0.1-0.2,0.1-0.3,0.1-0.5
		C80.5,41.5,80.6,41.5,80.7,41.5 M79,35.8c0.8-0.3,1.5-0.6,2.2-0.6c-0.8,0.1-1.4,0.4-1.9,0.9c-0.2,0-0.4,0.2-0.4,0.4
		c0,0.3,0,0.6,0.1,0.8c-0.2,0-0.4,0.3-0.3,0.6c0,0-0.1,0-0.1,0c0-0.2,0.1-0.4,0.2-0.6c0.3-0.5-0.5-0.9-0.7-0.4
		c-0.1,0.2-0.2,0.4-0.3,0.5c0,0,0,0,0,0v0c0.1-0.3-0.1-0.5-0.3-0.5c0,0,0-0.1,0-0.1C77.8,36.4,78.4,36,79,35.8 M79.4,40.4
		c-0.1-0.1-0.1-0.2-0.2-0.2c0.1,0,0.2,0,0.4,0c0,0.5,0,0.9-0.1,1.3c-0.1-0.1-0.2-0.3-0.3-0.4C79.5,41,79.7,40.6,79.4,40.4
		 M78.3,40.1C78.2,40.1,78.2,40.2,78.3,40.1c-0.1,0.1-0.1,0.2-0.1,0.2c-0.2-0.3-0.3-0.6-0.4-0.9c0-0.1,0-0.2,0.1-0.3
		C77.9,39.4,78.1,39.8,78.3,40.1 M82.9,43.8c-2,0.1-4.4-0.6-5.8-2.1c-0.8-0.9-1.1-1.9-0.9-2.8c0.2,0,0.5-0.1,0.5-0.4
		c0-0.3,0-0.6,0.2-0.8c-0.1,0.6-0.1,1.1,0,1.7c-0.1,0.3-0.1,0.6-0.1,0.9c0,0.4,0.4,0.5,0.6,0.4c0.2,0.3,0.3,0.5,0.5,0.7
		c0,0.2,0.1,0.4,0.3,0.5c0.2,0.5,0.6,1,1.1,1.2c0.3,0.1,0.6,0.1,0.9,0.1c0,0,0,0,0,0c1.8,0.4,4.6,0.4,5.8-1
		C85.4,43,84.4,43.7,82.9,43.8 M85.2,37.6c0.1,0.1,0.1,0.1,0.2,0.2c0,0.1,0,0.2,0,0.3c0.3,0.6,0.2,1.1-0.2,1.6c0,0,0,0,0-0.1v0
		c0-0.2,0-0.4-0.1-0.5C85.3,38.7,85.3,38.2,85.2,37.6 M85.4,40.7c0.2-0.1,0.3-0.3,0.4-0.4c0,0.6-0.2,1.1-0.6,1.4
		c-0.1,0-0.1,0-0.2,0.1C85.3,41.4,85.4,41.1,85.4,40.7 M84.2,35.8c-0.2-0.2-0.3-0.3-0.5-0.5c0,0,0-0.1,0-0.1
		c1.2,0.3,2.1,1.2,2.6,2.4C85.6,36.9,84.8,36.4,84.2,35.8"/>
	<path class="st0" d="M30.6,42.1c0-0.1-0.1-0.3-0.1-0.4c-0.7-1.9-2.5-3.1-4.5-3.3c-0.5-0.1-1.1-0.1-1.6,0c-0.1,0-0.1,0-0.2,0
		c-0.9,0.1-1.7,0.4-2.4,0.8c-1.1,0.6-2,1.5-2.5,2.8c-0.2,0.5-0.3,1-0.3,1.5c-0.5,1.5-0.3,3.1,1.1,4.2c2.5,2.1,6.6,1.7,9.4,0.2
		c0,0,0.1,0,0.1,0C32.3,47,32.1,44.4,30.6,42.1 M20,45c-0.1-0.4-0.2-0.8-0.1-1.2c0,0,0,0,0-0.1c0,0.3,0.1,0.7,0.2,1
		C20.1,44.8,20,44.9,20,45 M27.2,42.9c-0.1,0.3-0.3,0.6-0.4,0.9c0,0-0.1,0.1-0.1,0.1c0,0-0.1,0.1-0.1,0.1c-0.9,0.7-2.1,1-3.1,0.5
		c1.4,0,3.1-0.9,3.7-2C27.1,42.6,27.2,42.8,27.2,42.9 M26.4,41.3c0.1,0.1,0.1,0.1,0.2,0.2c0.1,0.9-1,1.7-2.1,2
		c0-0.1-0.1-0.1-0.1-0.2c-0.2-0.2-0.4-0.3-0.6-0.5c0-0.1-0.1-0.1-0.1-0.2c-0.1-0.1-0.2-0.2-0.3-0.2c-0.1-0.2-0.2-0.3-0.3-0.5
		c0.1-0.1,0.2-0.1,0.3-0.2c-0.2,0.4,0.3,0.9,0.6,0.5c0.4-0.6,1.2-0.7,1.8-0.4C26.1,41.9,26.4,41.6,26.4,41.3 M20.6,45.9
		C20.6,45.9,20.6,45.9,20.6,45.9C20.6,45.9,20.6,45.9,20.6,45.9C20.6,45.9,20.6,45.9,20.6,45.9 M22.1,46.4c-0.5-0.4-1-0.9-1.2-1.6
		c0.3-1.6,0.3-3.4,1.8-4.2c0.8-0.4,1.6-0.8,2.4-1c0,0,0.1,0,0.1,0c0,0,0,0,0.1,0c0,0.2,0.1,0.4,0.3,0.4v0.1c-0.6-0.1-1.1,0-1.7,0.2
		c-0.5,0.2-1,0.5-1.5,0.9c-0.2,0-0.3,0.1-0.3,0.3c-0.7,0.8-1.1,1.9-0.3,2.9c0.1,0.2,0.3,0.3,0.4,0.4c-0.2,0.1-0.4,0.3-0.3,0.6
		c0.1,0.3,0.3,0.5,0.5,0.8C22.4,46.2,22.2,46.2,22.1,46.4 M22.4,43.7C22.4,43.7,22.4,43.7,22.4,43.7c-0.2-0.4-0.2-0.8,0-1.2
		c0.1,0.3,0.3,0.5,0.5,0.7c0.1,0.1,0.2,0.3,0.3,0.4c-0.2,0-0.3,0-0.5-0.1C22.6,43.6,22.5,43.6,22.4,43.7 M22.9,45.3
		c1.4,0.9,3.3,0.5,4.4-0.8c0.2-0.2,0.4-0.4,0.5-0.6c0.1-0.1,0.3-0.2,0.3-0.4v-0.1c0,0,0-0.1,0-0.1C28.5,45.5,24.3,47.6,22.9,45.3
		 M28.7,44.9c-0.4,0.6-0.9,1.2-1.5,1.6c-0.3,0.1-0.7,0.2-1,0.3c2.2-0.8,3.9-3.2,2-5.2c0-0.1,0-0.3-0.1-0.4c0.7,0.6,1,1.3,1.1,2.1
		C29.2,43.8,29,44.3,28.7,44.9"/>
</g>
</svg>
