<?xml version="1.0" encoding="utf-8"?>
<!-- Generator: Adobe Illustrator 24.1.3, SVG Export Plug-In . SVG Version: 6.00 Build 0)  -->
<svg version="1.1" id="Layer_1" xmlns="http://www.w3.org/2000/svg" xmlns:xlink="http://www.w3.org/1999/xlink" x="0px" y="0px"
	 width="96px" height="100px" viewBox="0 0 96 100" style="enable-background:new 0 0 96 100;" xml:space="preserve">
<style type="text/css">
	.st0{clip-path:url(#SVGID_2_);}
	.st1{fill:#FFFFFF;}
	.st2{clip-path:url(#SVGID_4_);}
	.st3{fill:#231A1C;}
	.st4{clip-path:url(#SVGID_6_);}
	.st5{clip-path:url(#SVGID_8_);}
	.st6{clip-path:url(#SVGID_10_);}
	.st7{clip-path:url(#SVGID_12_);}
	.st8{clip-path:url(#SVGID_14_);}
	.st9{fill:#F39110;}
</style>
<g>
	<defs>
		<rect id="SVGID_1_" x="0" width="96" height="100"/>
	</defs>
	<clipPath id="SVGID_2_">
		<use xlink:href="#SVGID_1_"  style="overflow:visible;"/>
	</clipPath>
	<g class="st0">
		<rect x="0.8" y="7.2" class="st1" width="66.9" height="85.6"/>
	</g>
	<g class="st0">
		<defs>
			<rect id="SVGID_3_" x="0" y="0" width="96" height="100"/>
		</defs>
		<clipPath id="SVGID_4_">
			<use xlink:href="#SVGID_3_"  style="overflow:visible;"/>
		</clipPath>
		<g class="st2">
			<path class="st3" d="M67.7,93.6H0.8c-0.4,0-0.8-0.3-0.8-0.8V7.2c0-0.4,0.3-0.8,0.8-0.8h66.9c0.4,0,0.8,0.3,0.8,0.8v85.6
				C68.5,93.2,68.1,93.6,67.7,93.6z M1.5,92h65.4V8H1.5V92z"/>
		</g>
	</g>
	<g class="st0">
		<rect x="0.8" y="0.8" class="st1" width="66.9" height="6.4"/>
	</g>
	<g class="st0">
		<defs>
			<rect id="SVGID_5_" x="0" y="0" width="96" height="100"/>
		</defs>
		<clipPath id="SVGID_6_">
			<use xlink:href="#SVGID_5_"  style="overflow:visible;"/>
		</clipPath>
		<g class="st4">
			<path class="st3" d="M67.7,8H0.8C0.3,8,0,7.6,0,7.2V0.8C0,0.3,0.3,0,0.8,0h66.9c0.4,0,0.8,0.3,0.8,0.8v6.4
				C68.5,7.6,68.1,8,67.7,8z M1.5,6.4h65.4V1.5H1.5V6.4z"/>
		</g>
	</g>
	<g class="st0">
		<rect x="0.8" y="92.8" class="st1" width="66.9" height="6.4"/>
	</g>
	<g class="st0">
		<defs>
			<rect id="SVGID_7_" x="0" y="0" width="96" height="100"/>
		</defs>
		<clipPath id="SVGID_8_">
			<use xlink:href="#SVGID_7_"  style="overflow:visible;"/>
		</clipPath>
		<g class="st5">
			<path class="st3" d="M67.7,100H0.8C0.3,100,0,99.7,0,99.2v-6.4C0,92.4,0.3,92,0.8,92h66.9c0.4,0,0.8,0.3,0.8,0.8v6.4
				C68.5,99.7,68.1,100,67.7,100z M1.5,98.5h65.4v-4.9H1.5V98.5z"/>
		</g>
	</g>
	<g class="st0">
		<polygon class="st1" points="55,90 50,83.4 41.8,84.6 52.3,59.2 65.5,64.6 		"/>
	</g>
	<g class="st0">
		<path class="st3" d="M55,90.8c-0.2,0-0.5-0.1-0.6-0.3l-4.7-6.2l-7.8,1.1c-0.3,0-0.5-0.1-0.7-0.3c-0.2-0.2-0.2-0.5-0.1-0.8
			l10.5-25.4c0.2-0.4,0.6-0.6,1-0.4l13.2,5.5c0.2,0.1,0.3,0.2,0.4,0.4c0.1,0.2,0.1,0.4,0,0.6L55.7,90.3C55.6,90.6,55.3,90.7,55,90.8
			C55,90.8,55,90.8,55,90.8z M50,82.7c0.2,0,0.5,0.1,0.6,0.3l4.2,5.5L64.5,65l-11.8-4.9L43,83.6l6.9-0.9
			C49.9,82.7,49.9,82.7,50,82.7z"/>
	</g>
	<g class="st0">
		<polygon class="st1" points="93.6,84.6 85.4,83.4 80.4,90 69.9,64.6 83.1,59.2 		"/>
	</g>
	<g class="st0">
		<path class="st3" d="M80.4,90.8C80.4,90.8,80.3,90.8,80.4,90.8c-0.4,0-0.6-0.2-0.7-0.5L69.1,64.9c-0.1-0.2-0.1-0.4,0-0.6
			c0.1-0.2,0.2-0.3,0.4-0.4l13.2-5.5c0.4-0.2,0.8,0,1,0.4l10.5,25.4c0.1,0.3,0.1,0.5-0.1,0.8c-0.2,0.2-0.4,0.3-0.7,0.3l-7.8-1.1
			L81,90.5C80.9,90.7,80.6,90.8,80.4,90.8z M70.9,65l9.7,23.4l4.2-5.5c0.2-0.2,0.4-0.3,0.7-0.3l6.9,0.9l-9.7-23.4L70.9,65z"/>
	</g>
	<g class="st0">
		<defs>
			<rect id="SVGID_9_" x="0" y="0" width="96" height="100"/>
		</defs>
		<clipPath id="SVGID_10_">
			<use xlink:href="#SVGID_9_"  style="overflow:visible;"/>
		</clipPath>
		<g class="st6">
			<path class="st1" d="M95.2,40.8c0,15.2-12.3,27.5-27.5,27.5c-15.2,0-27.5-12.3-27.5-27.5c0-15.2,12.3-27.5,27.5-27.5
				C82.9,13.3,95.2,25.6,95.2,40.8"/>
		</g>
		<g class="st6">
			<path class="st3" d="M67.7,69c-15.6,0-28.3-12.7-28.3-28.2c0-15.6,12.7-28.2,28.3-28.2S96,25.2,96,40.8C96,56.3,83.3,69,67.7,69z
				 M67.7,14.1c-14.8,0-26.8,12-26.8,26.7c0,14.7,12,26.7,26.8,26.7s26.8-12,26.8-26.7C94.5,26.1,82.5,14.1,67.7,14.1z"/>
		</g>
		<g class="st6">
			<path class="st1" d="M87.2,40.8c0,10.8-8.7,19.5-19.5,19.5c-10.8,0-19.5-8.7-19.5-19.5c0-10.8,8.7-19.5,19.5-19.5
				C78.5,21.3,87.2,30,87.2,40.8"/>
		</g>
		<g class="st6">
			<path class="st3" d="M67.7,61c-11.2,0-20.3-9.1-20.3-20.2s9.1-20.2,20.3-20.2c11.2,0,20.3,9.1,20.3,20.2S78.9,61,67.7,61z
				 M67.7,22.1c-10.3,0-18.8,8.4-18.8,18.7s8.4,18.7,18.8,18.7c10.3,0,18.8-8.4,18.8-18.7S78,22.1,67.7,22.1z"/>
		</g>
		<g class="st6">
			<g>
				<defs>
					<rect id="SVGID_11_" x="51.1" y="25.1" width="39.1" height="38.9"/>
				</defs>
				<clipPath id="SVGID_12_">
					<use xlink:href="#SVGID_11_"  style="overflow:visible;"/>
				</clipPath>
				<g class="st7">
					<defs>
						<rect id="SVGID_13_" x="51.1" y="25.1" width="39.1" height="38.9"/>
					</defs>
					<clipPath id="SVGID_14_">
						<use xlink:href="#SVGID_13_"  style="overflow:visible;"/>
					</clipPath>
					<g class="st8">
						<path class="st9" d="M90.2,44.5c0,10.8-8.7,19.5-19.5,19.5s-19.5-8.7-19.5-19.5s8.7-19.5,19.5-19.5S90.2,33.8,90.2,44.5"/>
					</g>
				</g>
			</g>
		</g>
	</g>
</g>
</svg>
