<?xml version="1.0" encoding="utf-8"?>
<!-- Generator: Adobe Illustrator 23.0.0, SVG Export Plug-In . SVG Version: 6.00 Build 0)  -->
<svg version="1.1" id="Layer_1" xmlns="http://www.w3.org/2000/svg" xmlns:xlink="http://www.w3.org/1999/xlink" x="0px" y="0px"
	 viewBox="0 0 118.7 97.7" style="enable-background:new 0 0 118.7 97.7;" xml:space="preserve">
<style type="text/css">
	.st0{clip-path:url(#SVGID_2_);fill:none;stroke:#030201;stroke-width:1.84;stroke-miterlimit:10;}
	.st1{clip-path:url(#SVGID_2_);fill-rule:evenodd;clip-rule:evenodd;fill:#F29719;}
</style>
<g>
	<defs>
		<rect id="SVGID_1_" y="0" width="118.7" height="97.7"/>
	</defs>
	<clipPath id="SVGID_2_">
		<use xlink:href="#SVGID_1_"  style="overflow:visible;"/>
	</clipPath>
	<path class="st0" d="M52.7,68.2c0,15.8,12.8,28.6,28.6,28.6c15.8,0,28.6-12.8,28.6-28.6c0-15.8-12.8-28.6-28.6-28.6
		c-0.5,0-1,0.1-1.6,0.2c4.9-12.2,13.8-25.7,30.2-30.4c0,0-55.5,3.9-57.3,56.7V68.2z"/>
	<path class="st1" d="M47.9,64.4c0,15.8,12.8,28.6,28.6,28.6c15.8,0,28.6-12.8,28.6-28.6c0-15.8-12.8-28.6-28.6-28.6
		c-0.5,0-1,0.1-1.6,0.2c4.9-12.2,13.8-25.7,30.2-30.4c0,0-55.5,3.9-57.3,56.7V64.4z"/>
	<path class="st0" d="M4.8,62.6c0,15.8,12.8,28.6,28.6,28.6c15.8,0,28.6-12.8,28.6-28.6C62.1,46.8,49.3,34,33.4,34
		c-0.5,0-1,0.1-1.6,0.2C36.7,21.9,45.7,8.4,62.1,3.7c0,0-55.5,3.9-57.3,56.7V62.6z"/>
	<path class="st1" d="M0,58.9c0,15.8,12.8,28.6,28.6,28.6c15.8,0,28.6-12.8,28.6-28.6c0-15.8-12.8-28.6-28.6-28.6
		c-0.5,0-1,0.1-1.6,0.2C31.9,18.2,40.9,4.7,57.3,0C57.3,0,1.8,3.9,0,56.7V58.9z"/>
</g>
</svg>
