<?xml version="1.0" encoding="utf-8"?>
<!-- Generator: Adobe Illustrator 23.0.0, SVG Export Plug-In . SVG Version: 6.00 Build 0)  -->
<svg version="1.1" id="Layer_1" xmlns="http://www.w3.org/2000/svg" xmlns:xlink="http://www.w3.org/1999/xlink" x="0px" y="0px"
	 viewBox="0 0 514.7 108.1" style="enable-background:new 0 0 514.7 108.1;" xml:space="preserve">
<style type="text/css">
	.st0{clip-path:url(#SVGID_2_);fill-rule:evenodd;clip-rule:evenodd;fill:#0079BA;}
	.st1{clip-path:url(#SVGID_2_);fill-rule:evenodd;clip-rule:evenodd;fill:#60B432;}
	.st2{clip-path:url(#SVGID_2_);fill-rule:evenodd;clip-rule:evenodd;fill:#A2967E;}
</style>
<g>
	<defs>
		<rect id="SVGID_1_" width="514.7" height="108.1"/>
	</defs>
	<clipPath id="SVGID_2_">
		<use xlink:href="#SVGID_1_"  style="overflow:visible;"/>
	</clipPath>
	<path class="st0" d="M145.1,85.9V66.1c3.4-5.9,12.3-7.2,18.4-4.1c7.8,4,9.2,17.9,3.5,24.1C161.6,91.9,149.5,92,145.1,85.9
		 M199,44.3h12.3v61h-12.9c1.7-1.3,2.9-2.9,2.9-5.6V48.1C201.2,46.5,200.3,45.3,199,44.3 M126.1,91.9V21.9c-0.1-1.7-0.7-3.8-2.3-4.7
		h21.6v28.8c13.9-8.8,35.9-2.6,42.6,17c4.5,16.3,0.7,29.4-9.2,37.4c-8.5,6.9-20.2,9.1-30.8,6.5c-7.8-1.9-10.2-4.6-16.3-9.1
		c-2.1-1.5-4.4-2.8-8-3.4C124.6,94.2,125.7,93.5,126.1,91.9 M94.5,84.8V65c-3.5-5.9-12.3-7.3-18.5-4.1c-7.8,4-9.2,17.9-3.5,24
		C78,90.7,90.1,90.9,94.5,84.8 M95.8,101.2c-0.1,1.5-0.1,2.9-0.2,4.4h20.8c-2.1-1.4-2.9-3.3-2.9-5.4c0-2.2,0.1-4.4,0.1-6.5V58.5
		c0.3-1.6,1.7-2.9,2.5-3.5c-5.6-0.8-11.7-7.3-17.9-10.1c-3.6-1.6-7.2-2.6-10.7-3.1C71.4,39.7,56.9,48,51.6,63.5
		c-3.2,9.6-2.6,20.6,2.6,29.1C63.1,107.4,82,112.6,95.8,101.2 M28.8,43.2c0.1,0-8.4-1.5-15.9,1.1c-1.8,0.6-3.6,1.5-5.2,2.7
		c-7.4,5.5-8.4,16.5-3.1,23.9c1,1.4,2.2,2.7,3.6,4c1.5,1.4,3.3,2.8,5.5,4.2c1.9,1.2,4,2.3,6.5,3.4c3.4,1.5,3.5,6.8-0.8,8.4
		c-7,2.7-15.5-6-19.2-11.1c-0.1,9-0.2,18.9-0.3,27.9c2.8-1.7,5.7-2.1,8.8-1.6c7.4,1.3,15.2,2.3,21.7-0.6c14-6.2,16.1-27.2,3.5-36.2
		c-3.1-2.2-6.7-3.8-10.7-5.1c-4.3-2.1-3.2-7.9,3.9-6.9c3.3,0.9,6.4,2.8,9.5,4.9c0.1-6.9,0.2-13.9,0.3-20.8
		C35.6,43.6,32,43.8,28.8,43.2"/>
	<path class="st1" d="M215.7,105.4V33.9c-16.6-4.2-24.8-15.7-25.3-33.9c19.1,3.4,28.5,15.1,28.9,34.4v67.4c0.2,1.7,1.4,2.9,3,3.8
		C220.1,105.5,217.9,105.4,215.7,105.4"/>
	<path class="st2" d="M385.5,56.4c-4.5-4.8-10.7-7.7-17.6-7.7c-6.9,0-13.1,2.9-17.6,7.7c-4.6,4.8-7.4,11.5-7.4,18.8
		c0,7.4,2.8,14,7.4,18.8c4.5,4.8,10.7,7.7,17.6,7.7c6.9,0,13.1-3,17.6-7.7c4.5-4.8,7.4-11.4,7.4-18.8
		C392.9,67.9,390.1,61.2,385.5,56.4 M367.9,42.6c8.6,0,16.4,3.7,22,9.6c5.6,5.9,9.1,14,9.1,23c0,9-3.5,17.1-9.1,23
		c-5.6,5.9-13.4,9.6-22,9.6c-8.6,0-16.4-3.7-22-9.6c-5.6-5.9-9.1-14-9.1-23c0-8.9,3.5-17.1,9.1-23C351.5,46.3,359.3,42.6,367.9,42.6
		 M313.5,56.4c-4.5-4.8-10.7-7.7-17.6-7.7c-6.9,0-13.1,2.9-17.6,7.7c-4.5,4.8-7.4,11.5-7.4,18.8c0,7.4,2.8,14,7.4,18.8
		c4.5,4.8,10.7,7.7,17.6,7.7c6.9,0,13.1-3,17.6-7.7c4.5-4.8,7.4-11.4,7.4-18.8C320.9,67.9,318,61.2,313.5,56.4 M295.9,42.6
		c8.6,0,16.4,3.7,22,9.6c5.6,5.9,9.1,14,9.1,23c0,9-3.4,17.1-9.1,23c-5.6,5.9-13.4,9.6-22,9.6c-8.6,0-16.4-3.7-22-9.6
		c-5.6-5.9-9.1-14-9.1-23c0-8.9,3.5-17.1,9.1-23C279.5,46.3,287.3,42.6,295.9,42.6 M462.7,91.2V60.4c-5.5-8.2-13.6-11.6-21.6-11.7
		c-9.8-0.1-17.4,4.3-22.3,12.9c-8.3,14.3-1.5,36,15.1,40.1C443.1,103.9,454.1,100.7,462.7,91.2 M508.3,43.2c-1.8,0.2-4,0.3-7.7-0.2
		c-11.2-1.1-17.3,2.7-19.7,10.4c-2.2,10,1.8,15.7,8.8,19.9c6.6,3.9,15,4.3,18.4,11.5c1,2.2,1.4,4.6,1.1,6.9c-1,8.4-9.9,10.7-17.1,10
		c-4.5-0.4-9-2.1-13.5-4.9v9.1c2.5-1.1,4.6-0.9,6.6-0.3c14.5,4.2,30,0.1,29.4-17.3c-0.2-5.6-2.8-10.1-8.6-13.8
		c-5.3-3.4-12.6-4.5-16.7-8.2c-7.2-6.5-3.8-17.3,5.1-18.2c4.3-0.7,9.1,0.6,14.2,3.6C508.6,48.8,508.5,46,508.3,43.2 M468.6,16.3
		v75.2c0,1.1,0.4,1.8,1.6,2.5c-2.9,0.2-4.9,2-6.1,3c-6.1,6.1-11.8,9.1-17.4,10.3c-6.7,1.4-12.8,0.9-18.1-1.2
		c-26.2-10.4-24.9-54,3.6-62c9.8-2.8,21.1-0.5,30.5,8.6V18.6c0-1.2-0.2-1.9-1-2.3H468.6z M242.1,102c-0.1,1.2,0.2,2.6,1.2,3.6h-8.2
		c1.1-1,1.6-2.4,1.8-4.1V49.1h-6.3c-1.5,0.1-2.4,0.8-2.9,1.8v-6.8h8.9c-0.9-19.4,8.3-27,23.8-27.8v6.8c-10.4-1.2-17.3,2.8-18.1,16.1
		v4.7h17.2v6.8c-1.3-1.3-3.2-1.8-5.8-1.5h-11.6V102z"/>
</g>
</svg>
